<svg width="1080" height="1080" viewBox="0 0 1080 1080" fill="none" xmlns="http://www.w3.org/2000/svg">
<path d="M738.312 502.173L339.529 506.524C336.049 510.004 340.979 522.475 343.879 528.276H353.305C355.964 551.719 361.426 600.202 362.006 606.582C362.586 612.963 371.432 616.975 375.782 618.183H494.692L504.843 610.208L511.661 593.632C512.627 584.689 519.756 580.922 522.076 572.802C524.976 562.651 536.228 563.188 541.304 563.188C546.379 563.188 551.526 563.644 557.327 567.995C561.967 571.475 565.822 575.89 565.338 582.416C566.788 592.325 575.464 610.208 576.624 610.208C577.784 610.208 583.874 615.525 586.775 618.183H710.035L718.735 610.208L729.611 528.276H738.312C740.487 523.684 744.838 512.904 744.838 506.524C744.838 500.143 740.487 500.965 738.312 502.173Z" fill="white" stroke="black" stroke-width="1.60232"/>
<path d="M386.119 583.14C386.661 588.277 390.929 592.148 396.054 592.148H478.233C480.417 592.148 485.527 590.561 481.72 593.832H403.362C395.297 593.832 384.067 591.227 383.225 583.14L380.37 542.369C379.057 544.327 381.594 539.966 381.85 542.369L386.119 583.14ZM495.248 529.748C498.489 533.389 500.059 538.254 499.545 543.118L495.277 583.888C494.349 592.71 487.026 599.344 478.233 599.344H396.054C387.275 599.344 379.952 592.71 379.024 583.888L374.756 543.118C374.242 538.254 375.812 533.389 379.053 529.748C382.293 526.122 386.947 524.035 391.786 524.035H482.501C487.354 524.035 491.994 526.122 495.248 529.748Z" fill="#009ED4"/>
<path d="M594.419 583.14C594.962 588.277 599.23 592.148 604.355 592.148H686.534C688.718 592.148 684.097 595.761 685.738 594.552L611.663 593.832C603.598 593.832 592.368 591.976 591.526 583.888L587.957 548.5C586.644 550.457 589.894 539.966 590.151 542.369L594.419 583.14ZM703.549 529.748C706.789 533.389 708.36 538.254 707.846 543.118L703.578 583.888C702.65 592.71 695.327 599.344 686.534 599.344H604.355C595.576 599.344 588.253 592.71 587.325 583.888L583.057 543.118C582.543 538.254 584.113 533.389 587.353 529.748C590.594 526.122 595.247 524.035 600.086 524.035H690.802C695.655 524.035 700.295 526.122 703.549 529.748Z" fill="#E84D4D"/>
<path d="M736.556 500.015C740.225 500.116 743.691 501.929 745.823 504.93C748.027 508.019 748.592 512.007 747.36 515.589L741.545 532.381H732.902L724.143 604.467C722.853 615.183 713.731 623.26 702.943 623.26H591.704C578.154 624.076 570.944 609.655 568.541 603.365L566.137 597.638L562.932 589.626C557.324 575.206 554.943 567.995 541.472 567.995C528.116 567.995 523.676 576.808 518.068 589.626L513.261 603.365C510.307 614.524 501.927 623.26 490.964 623.26H379.58C368.791 623.26 359.67 615.183 358.365 604.467L349.621 532.381H340.108L333.785 515.966C332.393 512.341 332.872 508.28 335.062 505.09C336.976 502.306 339.977 500.508 343.284 500.087L736.556 500.015ZM740.501 513.211C740.994 511.818 740.776 510.339 739.921 509.136C739.065 507.932 737.731 507.251 736.266 507.251H344.748C343.24 507.251 341.892 507.961 341.051 509.194C340.195 510.441 340.021 511.949 340.557 513.356L345.082 525.131H356.045L365.572 603.597C366.428 610.673 372.446 616.01 379.58 616.01H490.964C498.215 616.01 502.044 611.258 504.987 603.365L513.261 582.416C518.068 567.995 524.389 559.984 541.472 559.984C555.722 559.984 562.131 566.393 567.739 580.814L576.552 603.365C579.443 608.985 584.395 616.01 591.704 616.01H702.943C710.077 616.01 716.095 610.673 716.951 603.597L726.478 525.131H736.382L740.501 513.211ZM354.392 500H381.886H354.392Z" fill="black"/>
<path d="M391.921 500H688.006M698.027 500H725.521M354.392 500H381.886M736.556 500.015C740.225 500.116 743.691 501.929 745.823 504.93C748.027 508.019 748.592 512.007 747.36 515.589L741.545 532.381H732.902L724.143 604.467C722.853 615.183 713.731 623.26 702.943 623.26H591.704C578.154 624.076 570.944 609.655 568.541 603.365L566.137 597.638L562.932 589.626C557.324 575.206 554.943 567.995 541.472 567.995C528.116 567.995 523.676 576.808 518.068 589.626L513.261 603.365C510.307 614.524 501.927 623.26 490.964 623.26H379.58C368.791 623.26 359.67 615.183 358.365 604.467L349.621 532.381H340.108L333.785 515.966C332.393 512.341 332.872 508.28 335.062 505.09C336.976 502.306 339.977 500.508 343.284 500.087L736.556 500.015ZM740.501 513.211C740.994 511.818 740.776 510.339 739.921 509.136C739.065 507.932 737.731 507.251 736.266 507.251H344.748C343.24 507.251 341.892 507.961 341.051 509.194C340.195 510.441 340.021 511.949 340.557 513.356L345.082 525.131H356.045L365.572 603.597C366.428 610.673 372.446 616.01 379.58 616.01H490.964C498.215 616.01 502.044 611.258 504.987 603.365L513.261 582.416C518.068 567.995 524.389 559.984 541.472 559.984C555.722 559.984 562.131 566.393 567.739 580.814L576.552 603.365C579.443 608.985 584.395 616.01 591.704 616.01H702.943C710.077 616.01 716.095 610.673 716.951 603.597L726.478 525.131H736.382L740.501 513.211Z" stroke="black" stroke-width="1.60232"/>
</svg>
