<svg width="1080" height="1080" viewBox="0 0 1080 1080" fill="none" xmlns="http://www.w3.org/2000/svg">
<path d="M569.889 532.159C572.124 542.177 577.999 550.923 582.563 560.117C585.86 566.765 588.505 573.733 592.102 580.22C595.556 586.444 599.864 592.164 604.452 597.606C620.728 616.928 642.273 633.705 667.392 636.35C673.825 637.027 680.328 636.76 686.77 636.183C692.168 635.702 697.614 634.991 702.674 633.052C713.442 628.924 721.523 619.521 726.478 609.107C731.433 598.693 733.639 587.216 735.736 575.873C737.899 564.153 739.986 552.071 737.527 540.414C736.593 535.976 735.007 531.692 733.087 527.583C730.075 521.144 726.188 515.063 721.137 510.063C708.983 498.029 691.387 493.377 674.425 491.161C655.924 488.745 637.118 488.664 618.593 490.913C596.447 493.606 563.429 503.162 569.889 532.159Z" fill="#E84D4D"/>
<path d="M569.889 532.159C572.124 542.177 577.999 550.923 582.563 560.117C585.86 566.765 588.505 573.733 592.102 580.22C595.556 586.444 599.864 592.164 604.452 597.606C620.728 616.928 642.273 633.705 667.392 636.35C673.825 637.027 680.328 636.76 686.77 636.183C692.168 635.702 697.614 634.991 702.674 633.052C713.442 628.924 721.523 619.521 726.478 609.107C731.433 598.693 733.639 587.216 735.736 575.873C737.899 564.153 739.986 552.071 737.527 540.414C736.593 535.976 735.007 531.692 733.087 527.583C730.075 521.144 726.188 515.063 721.137 510.063C708.983 498.029 691.387 493.377 674.425 491.161C655.924 488.745 637.118 488.664 618.593 490.913C596.447 493.606 563.429 503.162 569.889 532.159Z" fill="url(#paint0_linear_4294_1500)"/>
<path d="M407.207 495.922C390.405 495.922 366.308 501.797 363.121 510.014C355.714 516.03 346.006 510.014 342.168 555.001C346.005 573.971 342.17 565.841 347.585 581.017C346.006 583.727 352.574 590.767 347.585 591.315C351.94 600.671 354.721 608.363 359.076 617.719C360.21 620.15 361.363 622.619 363.121 624.644C366.623 628.691 372.007 630.454 377.119 632.046C384.695 634.405 392.38 636.783 400.309 637.046C407.17 637.27 413.978 635.902 420.653 634.291C427.619 632.608 434.557 630.649 441.046 627.604C455.021 621.055 466.236 609.831 476.285 598.116C486.148 586.616 495.277 574.281 501.328 560.393C507.384 546.504 510.219 530.881 507.222 516.03C506.578 512.856 505.626 509.629 503.562 507.137C501.137 504.201 497.483 502.623 493.971 501.151C484.752 497.295 475.432 493.525 465.731 491.037C459.518 489.445 442.452 484.746 437.253 489.598C444.029 494.616 405.83 487.2 407.207 495.922Z" fill="#E84D4D"/>
<path d="M407.207 495.922C390.405 495.922 366.308 501.797 363.121 510.014C355.714 516.03 346.006 510.014 342.168 555.001C346.005 573.971 342.17 565.841 347.585 581.017C346.006 583.727 352.574 590.767 347.585 591.315C351.94 600.671 354.721 608.363 359.076 617.719C360.21 620.15 361.363 622.619 363.121 624.644C366.623 628.691 372.007 630.454 377.119 632.046C384.695 634.405 392.38 636.783 400.309 637.046C407.17 637.27 413.978 635.902 420.653 634.291C427.619 632.608 434.557 630.649 441.046 627.604C455.021 621.055 466.236 609.831 476.285 598.116C486.148 586.616 495.277 574.281 501.328 560.393C507.384 546.504 510.219 530.881 507.222 516.03C506.578 512.856 505.626 509.629 503.562 507.137C501.137 504.201 497.483 502.623 493.971 501.151C484.752 497.295 475.432 493.525 465.731 491.037C459.518 489.445 442.452 484.746 437.253 489.598C444.029 494.616 405.83 487.2 407.207 495.922Z" fill="url(#paint1_linear_4294_1500)"/>
<path d="M737.895 533.627C735.332 523.308 729.724 513.361 721.424 506.598C705.334 493.492 679.557 489.488 659.603 487.062C647.739 485.618 635.671 485.304 623.778 486.476C623.902 486.304 624.002 486.119 624.05 485.899C621.596 483.993 618.223 483.917 615.121 484.036C606.068 484.384 597.087 485.699 588.086 486.772C554.501 490.766 518.828 488.545 485.118 485.756C476.499 485.041 470.258 484.069 462.191 487.186C448.383 485.223 434.251 485.375 420.396 487.062C400.442 489.488 374.665 493.496 358.575 506.598C350.27 513.361 344.667 523.308 342.104 533.627C338.264 549.102 340.317 565.393 343.205 581.073C345.072 591.225 347.302 601.381 351.309 610.894C355.707 621.337 362.687 631.274 372.902 636.174C377.252 638.261 382.017 639.353 386.791 640.072C411.143 643.737 436.829 637.642 456.941 623.42C470.2 614.045 480.93 601.424 489.616 587.703C498.469 573.724 505.325 561.739 509.937 545.849C511.286 544.161 512.682 542.517 514.163 540.94C519.223 535.563 525.275 533.113 532.255 530.716C539.788 528.128 548.23 528.28 555.663 531.14C560.199 532.884 564.868 535.716 568.285 539.171C568.099 538.428 568.456 539.929 568.285 539.171C572.816 557.468 580.315 571.779 590.397 587.703C599.088 601.424 609.818 614.045 623.073 623.42C643.184 637.642 668.866 643.737 693.222 640.072C697.996 639.353 702.756 638.261 707.111 636.174C717.326 631.274 724.302 621.337 728.704 610.894C732.711 601.381 734.941 591.225 736.809 581.073C739.682 565.393 741.735 549.102 737.895 533.627ZM483.174 583.847C475.241 596.062 465.445 607.296 453.339 615.641C434.976 628.3 411.524 633.729 389.293 630.464C384.938 629.825 380.588 628.853 376.614 626.994C367.29 622.633 360.915 613.787 356.898 604.494C353.239 596.024 351.204 586.983 349.499 577.946C346.864 563.987 344.987 549.484 348.498 535.71C350.837 526.521 355.955 517.665 363.54 511.641C378.229 499.974 401.762 496.409 419.986 494.25C441.222 491.733 463.173 493.058 483.246 500.679C491.708 503.891 500.356 508.815 503.681 517.05C506.321 523.575 505.096 530.934 503.367 537.745C499.231 554.035 492.384 569.668 483.174 583.847ZM567.932 515.927C566.87 518.62 566.384 521.437 566.284 524.306C555.663 521.397 552.666 519.53 542.48 520.083C527.531 520.894 521.027 524.306 513.716 526.78C513.849 523.062 513.434 516.14 512.072 512.675C508.427 503.424 498.955 497.891 489.688 494.283C488.492 493.816 487.291 493.377 486.081 492.953C487.744 493.068 489.407 493.187 491.069 493.287C501.723 493.93 512.396 494.297 523.069 494.397C544.185 494.593 565.312 493.73 586.343 491.805C592.179 491.271 598.011 490.656 603.833 489.955C599.264 491.128 594.752 492.562 590.326 494.283C581.049 497.896 571.577 506.676 567.932 515.927ZM730.496 577.942C728.79 586.978 726.756 596.024 723.096 604.489C719.08 613.787 712.709 622.628 703.38 626.989C699.407 628.848 695.057 629.82 690.702 630.459C668.465 633.724 645.014 628.295 626.656 615.637C614.549 607.291 604.753 596.058 596.82 583.842C587.61 569.663 580.763 554.035 576.628 537.745C574.898 530.939 573.678 523.575 576.313 517.05C579.644 508.815 588.291 503.891 596.753 500.679C616.822 493.058 638.777 491.728 660.013 494.25C678.238 496.413 701.77 499.978 716.459 511.641C724.04 517.66 729.162 526.516 731.501 535.705C735.008 549.479 733.131 563.982 730.496 577.942Z" fill="#101011"/>
<path d="M568.285 539.171C564.868 535.716 560.199 532.884 555.663 531.14C548.23 528.28 539.788 528.128 532.255 530.716C525.275 533.113 519.223 535.563 514.163 540.94C512.682 542.517 511.286 544.161 509.937 545.849C505.325 561.739 498.469 573.724 489.616 587.703C480.93 601.424 470.2 614.045 456.941 623.42C436.829 637.642 411.143 643.737 386.791 640.072C382.017 639.353 377.252 638.261 372.902 636.174C362.687 631.274 355.707 621.337 351.309 610.894C347.302 601.381 345.072 591.225 343.205 581.073C340.317 565.393 338.264 549.102 342.104 533.627C344.667 523.308 350.27 513.361 358.575 506.598C374.665 493.496 400.442 489.488 420.396 487.062C434.251 485.375 448.383 485.223 462.191 487.186C470.258 484.069 476.499 485.041 485.118 485.756C518.828 488.545 554.501 490.766 588.086 486.772C597.087 485.699 606.068 484.384 615.121 484.036C618.223 483.917 621.596 483.993 624.05 485.899C624.002 486.119 623.902 486.304 623.778 486.476C635.671 485.304 647.739 485.618 659.603 487.062C679.557 489.488 705.334 493.492 721.424 506.598C729.724 513.361 735.332 523.308 737.895 533.627C741.735 549.102 739.682 565.393 736.809 581.073C734.941 591.225 732.711 601.381 728.704 610.894C724.302 621.337 717.326 631.274 707.111 636.174C702.756 638.261 697.996 639.353 693.222 640.072C668.866 643.737 643.184 637.642 623.073 623.42C609.818 614.045 599.088 601.424 590.397 587.703C580.315 571.779 572.816 557.468 568.285 539.171ZM568.285 539.171C568.456 539.929 568.099 538.428 568.285 539.171ZM483.174 583.847C475.241 596.062 465.445 607.296 453.339 615.641C434.976 628.3 411.524 633.729 389.293 630.464C384.938 629.825 380.588 628.853 376.614 626.994C367.29 622.633 360.915 613.787 356.898 604.494C353.239 596.024 351.204 586.983 349.499 577.946C346.864 563.987 344.987 549.484 348.498 535.71C350.837 526.521 355.955 517.665 363.54 511.641C378.229 499.974 401.762 496.409 419.986 494.25C441.222 491.733 463.173 493.058 483.246 500.679C491.708 503.891 500.356 508.815 503.681 517.05C506.321 523.575 505.096 530.934 503.367 537.745C499.231 554.035 492.384 569.668 483.174 583.847ZM567.932 515.927C566.87 518.62 566.384 521.437 566.284 524.306C555.663 521.397 552.666 519.53 542.48 520.083C527.531 520.894 521.027 524.306 513.716 526.78C513.849 523.062 513.434 516.14 512.072 512.675C508.427 503.424 498.955 497.891 489.688 494.283C488.492 493.816 487.291 493.377 486.081 492.953C487.744 493.068 489.407 493.187 491.069 493.287C501.723 493.93 512.396 494.297 523.069 494.397C544.185 494.593 565.312 493.73 586.343 491.805C592.179 491.271 598.011 490.656 603.833 489.955C599.264 491.128 594.752 492.562 590.326 494.283C581.049 497.896 571.577 506.676 567.932 515.927ZM730.496 577.942C728.79 586.978 726.756 596.024 723.096 604.489C719.08 613.787 712.709 622.628 703.38 626.989C699.407 628.848 695.057 629.82 690.702 630.459C668.465 633.724 645.014 628.295 626.656 615.637C614.549 607.291 604.753 596.058 596.82 583.842C587.61 569.663 580.763 554.035 576.627 537.745C574.898 530.939 573.678 523.575 576.313 517.05C579.644 508.815 588.291 503.891 596.753 500.679C616.822 493.058 638.777 491.728 660.013 494.25C678.238 496.413 701.77 499.978 716.459 511.641C724.04 517.66 729.162 526.516 731.501 535.705C735.008 549.479 733.131 563.982 730.496 577.942Z" stroke="black" stroke-width="3.29221"/>
<defs>
<linearGradient id="paint0_linear_4294_1500" x1="653.852" y1="489.285" x2="653.852" y2="636.75" gradientUnits="userSpaceOnUse">
<stop stop-color="#FF6B00"/>
<stop offset="1" stop-color="#FFEC59"/>
</linearGradient>
<linearGradient id="paint1_linear_4294_1500" x1="425.297" y1="487.459" x2="425.297" y2="637.07" gradientUnits="userSpaceOnUse">
<stop stop-color="#FF6B00"/>
<stop offset="1" stop-color="#FFEC59"/>
</linearGradient>
</defs>
</svg>
