<svg width="1080" height="1080" viewBox="0 0 1080 1080" fill="none" xmlns="http://www.w3.org/2000/svg">
<path d="M357.836 513.769L367.338 557.114V586.011L389.511 611.811L427.521 625.227L476.089 620.067L513.043 591.171L523.601 563.306L553.165 567.434L580.616 599.427L602.789 620.067L634.464 625.227H667.194L691.478 611.811L711.539 586.011L716.818 547.826L727.377 513.769L699.925 498.289H643.966L595.398 513.769L569.002 536.474L553.165 557.114H526.769L513.043 530.282L476.089 513.769L427.521 498.289H373.673L357.836 513.769Z" fill="#995F3F" stroke="black" stroke-width="1.5754"/>
<path d="M738.795 496.646C738.436 489.525 699.856 489.236 692.74 489.236C638.85 489.236 589.606 498.462 553.624 537.452C547.014 544.614 533.943 544.614 527.334 537.452C465.948 470.928 342.606 489.36 342.162 498.256C340.262 536.09 354.156 630.065 433.09 631.882C512.869 633.719 514.938 568.784 537.829 568.784C538.842 568.784 542.136 568.784 543.15 568.784C566.04 568.784 568.131 633.719 647.888 631.882C718.566 630.231 741.456 549.609 738.795 496.646ZM436.068 623.564C383.888 623.564 368.072 572.272 368.072 521.683C368.072 504.861 371.514 505.604 412.459 505.604C455.453 505.604 513.629 517.142 513.629 558.402C513.65 599.291 477.52 623.564 436.068 623.564ZM644.847 623.564C603.396 623.564 567.265 599.291 567.265 558.402C567.265 508.225 652.639 501.435 703.678 506.76C706.36 507.049 709.95 508.184 711.027 511.012C715.229 521.827 717.32 623.564 644.847 623.564Z" fill="black" stroke="black" stroke-width="3.15079"/>
</svg>
