<svg width="1080" height="1080" viewBox="0 0 1080 1080" fill="none" xmlns="http://www.w3.org/2000/svg">
<path d="M488.797 530.769C488.801 530.345 488.804 529.92 488.798 529.496C488.45 507.201 470.037 489.353 447.743 489.701C425.449 490.048 407.601 508.461 407.948 530.755C407.955 531.18 407.972 531.604 407.988 532.028C390.635 536.787 377.966 552.844 378.259 571.652C378.607 593.946 397.02 611.794 419.314 611.447C426.722 611.332 433.519 609.042 439.438 605.452L439.841 631.344L460.053 631.03L459.65 605.138C465.677 608.541 472.543 610.618 479.951 610.502C502.245 610.155 520.093 591.742 519.746 569.448C519.453 550.64 506.29 534.985 488.797 530.769Z" fill="#39364D" stroke="black" stroke-width="11.0631"/>
<path d="M672.081 529.089C672.084 528.665 672.088 528.24 672.081 527.815C671.733 505.504 653.307 487.642 630.996 487.99C608.685 488.337 590.823 506.764 591.171 529.075C591.177 529.5 591.194 529.925 591.211 530.349C573.845 535.111 561.166 551.181 561.46 570.003C561.807 592.314 580.234 610.175 602.545 609.828C609.958 609.712 616.761 607.421 622.684 603.829L623.088 629.74L643.315 629.425L642.912 603.514C648.943 606.92 655.814 608.998 663.228 608.883C685.539 608.535 703.4 590.108 703.053 567.797C702.759 548.976 689.587 533.308 672.081 529.089Z" fill="#39364D" stroke="black" stroke-width="11.0631"/>
</svg>
