<svg width="1080" height="1080" viewBox="0 0 1080 1080" fill="none" xmlns="http://www.w3.org/2000/svg">
<path d="M360.972 469.309C360.972 469.309 402.839 475.991 435.012 480.043C442.475 480.983 450.889 482.308 459.435 483.795C494.395 489.875 518.927 520.929 518.927 556.414C518.927 595.177 489.709 627.589 451.241 632.367C445.458 633.085 439.944 633.792 435.012 634.455C402.936 638.773 348 640.236 348 640.236L360.972 469.309Z" fill="#494949" stroke="black" stroke-width="11.6164"/>
<path d="M722.382 469.309C722.382 469.309 680.771 476.023 648.795 480.095C641.549 481.018 633.401 482.31 625.11 483.762C589.992 489.91 565.392 521.144 565.392 556.796C565.392 595.782 594.754 628.385 633.434 633.255C638.901 633.944 644.112 634.62 648.795 635.257C680.675 639.595 733 641.895 733 641.895L722.382 469.309Z" fill="#494949" stroke="black" stroke-width="11.6164"/>
<path d="M494.359 569.339V547.07H491.105C489.714 540.439 487.072 534.25 483.456 528.752L485.764 526.459L469.91 510.711L467.601 513.004C462.066 509.412 455.836 506.788 449.16 505.406V502.174H426.742V505.406C420.066 506.788 413.836 509.412 408.301 513.004L405.992 510.711L390.138 526.459L392.446 528.752C388.83 534.25 386.188 540.439 384.797 547.07H381.543V569.339H384.797C386.188 575.969 388.83 582.158 392.446 587.656L390.138 589.949L405.992 605.698L408.301 603.404C413.836 606.996 420.066 609.621 426.742 611.002V614.235H449.16V611.002C455.836 609.621 462.066 606.996 467.601 603.404L469.91 605.698L485.764 589.949L483.456 587.656C487.072 582.158 489.714 575.969 491.105 569.339H494.359Z" fill="black"/>
<path d="M449.159 615.559H426.741C425.99 615.559 425.406 614.951 425.406 614.205V612.05C419.426 610.669 413.724 608.348 408.494 605.088L406.965 606.608C406.464 607.105 405.574 607.105 405.045 606.608L389.191 590.859C388.663 590.335 388.663 589.478 389.191 588.953L390.721 587.434C387.439 582.212 385.075 576.576 383.712 570.635H381.542C380.791 570.635 380.207 570.028 380.207 569.309V547.041C380.207 546.295 380.819 545.715 381.542 545.715H383.712C385.102 539.774 387.439 534.138 390.721 528.916L389.191 527.397C388.663 526.872 388.663 526.016 389.191 525.491L405.045 509.742C405.546 509.245 406.436 509.245 406.965 509.742L408.494 511.262C413.724 508.002 419.398 505.653 425.406 504.3V502.145C425.406 501.399 426.018 500.818 426.741 500.818H449.159C449.91 500.818 450.495 501.426 450.495 502.145V504.3C456.503 505.681 462.177 508.029 467.406 511.262L468.936 509.742C469.436 509.245 470.326 509.245 470.855 509.742L486.709 525.491C487.238 526.016 487.238 526.872 486.709 527.397L485.179 528.916C488.462 534.111 490.826 539.774 492.189 545.715H494.358C495.109 545.715 495.693 546.322 495.693 547.041V569.309C495.693 570.055 495.081 570.635 494.358 570.635H492.189C490.798 576.576 488.434 582.239 485.179 587.434L486.709 588.953C486.96 589.202 487.099 589.533 487.099 589.892C487.099 590.252 486.96 590.583 486.709 590.832L470.855 606.58C470.605 606.829 470.271 606.967 469.909 606.967C469.548 606.967 469.214 606.829 468.963 606.58L467.434 605.06C462.205 608.321 456.53 610.669 450.522 612.023V614.178C450.522 614.979 449.91 615.559 449.159 615.559ZM428.104 612.879H447.824V611.001C447.824 610.365 448.269 609.813 448.909 609.702C455.334 608.376 461.37 605.862 466.905 602.298C467.434 601.938 468.157 602.021 468.602 602.463L469.965 603.817L483.9 589.975L482.537 588.622C482.092 588.179 482.009 587.461 482.37 586.936C485.986 581.466 488.489 575.443 489.824 569.061C489.964 568.453 490.492 567.983 491.132 567.983H493.023V548.395H491.104C490.464 548.395 489.908 547.952 489.797 547.317C488.462 540.935 485.93 534.939 482.342 529.441C481.981 528.916 482.064 528.198 482.509 527.756L483.844 526.402L469.909 512.56L468.574 513.969C468.129 514.412 467.406 514.494 466.877 514.135C461.37 510.544 455.306 508.057 448.881 506.731C448.242 506.593 447.797 506.04 447.797 505.432V503.554H428.076V505.432C428.076 506.068 427.631 506.62 426.991 506.731C420.566 508.057 414.53 510.571 409.023 514.135C408.494 514.494 407.771 514.412 407.326 513.969L405.963 512.616L392.028 526.458L393.391 527.811C393.836 528.253 393.92 528.972 393.558 529.497C389.942 534.995 387.439 540.99 386.104 547.372C385.965 547.98 385.408 548.45 384.796 548.45H382.905V568.038H384.796C385.436 568.038 385.992 568.48 386.104 569.116C387.439 575.47 389.97 581.493 393.558 586.964C393.92 587.489 393.836 588.207 393.391 588.649L392.028 590.003L405.963 603.845L407.298 602.491C407.744 602.049 408.467 601.966 408.995 602.325C414.502 605.917 420.566 608.404 426.963 609.73C427.575 609.868 428.048 610.393 428.048 611.028V612.879H428.104Z" fill="#000001"/>
<path d="M482.497 558.194C482.497 582.618 462.554 602.455 437.938 602.455C413.322 602.455 393.379 582.646 393.379 558.194C393.379 533.771 413.322 513.934 437.938 513.934C462.554 513.961 482.497 533.771 482.497 558.194Z" fill="#494949"/>
<path d="M482.429 558.092C482.429 582.369 462.358 602.068 437.623 602.068C412.887 602.068 392.816 582.369 392.816 558.092C392.816 533.783 412.887 514.115 437.623 514.115C462.358 514.084 482.429 533.783 482.429 558.092Z" fill="#E33838"/>
<path d="M463.446 558.202C463.446 572.182 452.042 583.538 437.94 583.538C423.865 583.538 412.434 572.21 412.434 558.202C412.434 544.222 423.838 532.867 437.94 532.867C452.042 532.895 463.446 544.222 463.446 558.202Z" fill="black"/>
<path d="M467.495 558.091C467.495 575.032 454.14 588.792 437.625 588.792C421.142 588.792 407.754 575.065 407.754 558.091C407.754 541.151 421.109 527.391 437.625 527.391C454.14 527.424 467.495 541.151 467.495 558.091Z" fill="#981A00"/>
<path d="M460.858 553.942C460.858 566.779 451.577 577.175 440.115 577.175C428.653 577.175 419.371 566.779 419.371 553.942C419.371 541.104 428.653 530.709 440.115 530.709C451.577 530.709 460.858 541.104 460.858 553.942Z" fill="#E33838"/>
<path d="M701.109 569.337V547.068H697.855C696.436 540.437 693.822 534.248 690.206 528.75L692.514 526.457L676.66 510.709L674.351 513.002C668.816 509.411 662.586 506.786 655.91 505.404V502.172H633.492V505.404C626.816 506.786 620.586 509.411 615.051 513.002L612.742 510.709L596.888 526.457L599.196 528.75C595.58 534.248 592.938 540.437 591.547 547.068H588.293V569.337H591.547C592.938 575.967 595.58 582.156 599.196 587.654L596.888 589.947L612.742 605.696L615.051 603.402C620.586 606.994 626.816 609.619 633.492 611V614.233H655.91V611C662.586 609.619 668.816 606.994 674.351 603.402L676.66 605.696L692.514 589.947L690.206 587.654C693.822 582.156 696.464 575.967 697.855 569.337H701.109Z" fill="black"/>
<path d="M655.909 615.559H633.491C632.74 615.559 632.156 614.951 632.156 614.205V612.05C626.176 610.669 620.501 608.348 615.244 605.088L613.715 606.608C613.214 607.105 612.324 607.105 611.795 606.608L595.941 590.859C595.413 590.335 595.413 589.478 595.941 588.953L597.471 587.434C594.189 582.239 591.825 576.576 590.462 570.635H588.292C587.541 570.635 586.957 570.028 586.957 569.309V547.041C586.957 546.295 587.569 545.715 588.292 545.715H590.462C591.852 539.774 594.189 534.111 597.471 528.916L595.941 527.397C595.413 526.872 595.413 526.016 595.941 525.491L611.795 509.742C612.046 509.494 612.38 509.356 612.741 509.356C613.103 509.356 613.437 509.494 613.687 509.742L615.217 511.262C620.446 508.002 626.12 505.653 632.128 504.3V502.145C632.128 501.399 632.74 500.818 633.463 500.818H655.882C656.633 500.818 657.217 501.426 657.217 502.145V504.3C663.225 505.681 668.899 508.029 674.128 511.262L675.658 509.742C676.159 509.245 677.049 509.245 677.577 509.742L693.431 525.491C693.96 526.016 693.96 526.872 693.431 527.397L691.902 528.916C695.184 534.111 697.548 539.747 698.911 545.715H701.08C701.831 545.715 702.415 546.322 702.415 547.041V569.309C702.415 570.055 701.804 570.635 701.08 570.635H698.911C697.52 576.576 695.184 582.239 691.902 587.434L693.431 588.953C693.682 589.202 693.821 589.533 693.821 589.892C693.821 590.252 693.682 590.583 693.431 590.832L677.577 606.58C677.327 606.829 676.993 606.967 676.631 606.967C676.27 606.967 675.936 606.829 675.686 606.58L674.156 605.06C668.927 608.321 663.225 610.669 657.245 612.023V614.178C657.272 614.979 656.66 615.559 655.909 615.559ZM634.854 612.879H654.574V611.001C654.574 610.365 655.019 609.813 655.631 609.702C662.056 608.376 668.092 605.862 673.627 602.298C674.156 601.938 674.879 602.021 675.324 602.463L676.687 603.817L690.622 589.975L689.259 588.622C688.814 588.179 688.731 587.461 689.092 586.936C692.708 581.466 695.212 575.443 696.547 569.088C696.686 568.48 697.242 568.011 697.854 568.011H699.745V548.422H697.854C697.214 548.422 696.658 547.98 696.519 547.345C695.184 540.962 692.653 534.967 689.064 529.469C688.703 528.944 688.786 528.226 689.231 527.784L690.594 526.43L676.659 512.588L675.296 513.942C674.851 514.384 674.128 514.467 673.6 514.108C668.092 510.516 662.029 508.029 655.604 506.703C654.992 506.565 654.547 506.013 654.547 505.405V503.526H634.826V505.405C634.826 506.04 634.381 506.593 633.769 506.703C627.344 508.029 621.308 510.544 615.773 514.108C615.245 514.467 614.521 514.384 614.076 513.942L612.741 512.588L598.806 526.43L600.169 527.784C600.614 528.226 600.697 528.944 600.336 529.469C596.72 534.939 594.217 540.962 592.882 547.345C592.742 547.952 592.186 548.422 591.574 548.422H589.683V568.011H591.574C592.214 568.011 592.77 568.453 592.882 569.088C594.217 575.47 596.748 581.466 600.336 586.936C600.697 587.461 600.614 588.179 600.169 588.622L598.806 589.975L612.741 603.817L614.076 602.463C614.521 602.021 615.245 601.938 615.773 602.298C621.28 605.889 627.344 608.376 633.741 609.702C634.353 609.84 634.826 610.365 634.826 611.001V612.879H634.854Z" fill="#000001"/>
<path d="M689.251 558.194C689.251 582.618 669.308 602.455 644.692 602.455C620.076 602.455 600.133 582.646 600.133 558.194C600.133 533.771 620.076 513.934 644.692 513.934C669.308 513.961 689.251 533.771 689.251 558.194Z" fill="#494949"/>
<path d="M670.215 558.202C670.215 572.182 658.811 583.538 644.709 583.538C630.635 583.538 619.203 572.21 619.203 558.202C619.203 544.222 630.607 532.867 644.709 532.867C658.811 532.895 670.215 544.222 670.215 558.202Z" fill="black"/>
<path d="M689.854 558.092C689.854 582.369 669.783 602.068 645.048 602.068C620.313 602.068 600.242 582.369 600.242 558.092C600.242 533.783 620.313 514.115 645.048 514.115C669.783 514.084 689.854 533.783 689.854 558.092Z" fill="#E33838"/>
<path d="M674.921 558.091C674.921 575.032 661.566 588.792 645.05 588.792C628.568 588.792 615.18 575.065 615.18 558.091C615.18 541.151 628.535 527.391 645.05 527.391C661.566 527.424 674.921 541.151 674.921 558.091Z" fill="#981A00"/>
<path d="M668.28 553.942C668.28 566.779 658.998 577.175 647.537 577.175C636.075 577.175 626.793 566.779 626.793 553.942C626.793 541.104 636.075 530.709 647.537 530.709C658.998 530.709 668.28 541.104 668.28 553.942Z" fill="#E33838"/>
</svg>
