<svg width="1080" height="1080" viewBox="0 0 1080 1080" fill="none" xmlns="http://www.w3.org/2000/svg">
<path d="M339.358 509.366C350.202 509.318 361.045 509.231 371.892 509.231C494.012 509.225 616.134 509.231 738.254 509.236C741.745 509.236 741.748 509.239 741.748 512.771C741.743 523.568 741.674 534.369 741.782 545.166C741.803 547.336 741.42 548.166 739.038 548.046C734.53 547.821 729.998 548.081 725.485 547.914C723.105 547.826 722.099 548.356 722.239 551.029C722.476 555.646 722.165 560.286 722.352 564.908C722.447 567.274 721.581 567.86 719.41 567.801C714.622 567.674 709.829 567.825 705.041 567.703C703.218 567.655 702.754 568.265 702.796 570.034C702.915 575.022 702.788 580.015 702.867 585.003C702.896 586.742 702.376 587.355 700.551 587.307C695.583 587.177 690.608 587.339 685.637 587.22C683.86 587.177 683.289 587.676 683.329 589.49C683.443 594.387 683.284 599.29 683.411 604.188C683.461 606.134 683.052 606.829 680.91 606.824C652.707 606.744 624.506 606.755 596.303 606.808C594.478 606.81 593.786 606.421 593.847 604.434C594 599.539 593.802 594.631 593.966 589.736C594.037 587.628 593.337 587.159 591.356 587.214C586.389 587.358 581.413 587.206 576.443 587.294C574.916 587.32 574.443 586.878 574.47 585.326C574.562 580.336 574.377 575.34 574.559 570.355C574.641 568.101 573.862 567.632 571.802 567.695C566.924 567.844 562.039 567.685 557.161 567.809C555.246 567.86 554.689 567.223 554.71 565.325C554.8 557.157 554.691 548.99 554.792 540.826C554.815 538.93 554.295 538.37 552.391 538.394C544.346 538.495 536.302 538.489 528.258 538.397C526.316 538.373 525.799 539.065 525.815 540.913C525.889 549.08 525.783 557.248 525.891 565.412C525.918 567.351 525.337 567.846 523.464 567.793C518.768 567.658 514.06 567.868 509.366 567.685C507.05 567.594 506.208 568.117 506.324 570.633C506.549 575.433 506.3 580.251 506.427 585.056C506.475 586.894 505.875 587.334 504.137 587.294C499.349 587.183 494.553 587.371 489.768 587.206C487.594 587.13 486.786 587.591 486.884 589.969C487.087 594.862 486.878 599.767 486.981 604.668C487.016 606.328 486.561 606.808 484.871 606.802C456.488 606.749 428.106 606.749 399.723 606.794C397.945 606.797 397.364 606.23 397.399 604.45C397.494 599.463 397.343 594.467 397.478 589.479C397.528 587.631 396.894 587.196 395.188 587.228C390.218 587.318 385.245 587.177 380.275 587.299C378.46 587.344 377.929 586.769 377.964 584.992C378.061 580.004 377.921 575.009 378.038 570.021C378.08 568.244 377.589 567.658 375.787 567.701C370.91 567.817 366.024 567.69 361.146 567.796C359.273 567.836 358.605 567.25 358.647 565.311C358.756 560.504 358.555 555.691 358.703 550.886C358.772 548.659 358.159 547.834 355.848 547.908C350.973 548.065 346.087 547.948 341.206 547.988C340.031 547.996 339.207 548.033 339.223 546.354C339.331 534.016 339.336 521.678 339.376 509.339L339.358 509.366Z" fill="black"/>
<path d="M680.934 611.061C680.921 611.061 680.908 611.061 680.892 611.061C655.528 610.989 628.65 610.984 596.306 611.045C595.297 611.04 593.002 611.05 591.264 609.25C589.526 607.452 589.603 605.079 589.627 604.299C589.701 601.963 589.69 599.547 589.682 597.208C589.674 595.336 589.666 593.419 589.701 591.489C587.49 591.526 585.29 591.518 583.14 591.51C580.935 591.502 578.725 591.494 576.517 591.534C575.783 591.55 573.564 591.584 571.882 589.895C570.197 588.203 570.239 585.984 570.252 585.255C570.292 583.144 570.279 581.033 570.268 578.925C570.258 576.653 570.244 574.316 570.295 571.975C568.237 572.012 566.185 572.009 564.194 572.001C561.912 571.996 559.556 571.991 557.269 572.049C556.48 572.07 554.079 572.131 552.27 570.339C550.456 568.544 550.485 566.088 550.495 565.282C550.54 561.331 550.535 557.38 550.532 553.429C550.529 549.881 550.527 546.333 550.556 542.788C544.033 543.427 537.14 543.427 530.051 542.793C530.07 545.919 530.067 549.046 530.062 552.172C530.059 556.502 530.054 560.978 530.112 565.367C530.122 566.168 530.154 568.599 528.364 570.365C526.576 572.131 524.215 572.062 523.346 572.039C521.214 571.978 519.012 571.991 516.886 572.001C514.831 572.012 512.721 572.025 510.6 571.972C510.666 574.253 510.648 576.517 510.629 578.723C510.613 580.779 510.595 582.905 510.648 584.958C510.669 585.729 510.732 588.084 508.979 589.85C507.228 591.616 504.922 591.563 504.045 591.542C501.917 591.494 499.717 591.505 497.591 591.515C495.486 591.529 493.325 591.539 491.157 591.491C491.215 593.814 491.199 596.127 491.186 598.375C491.173 600.446 491.16 602.517 491.205 604.588C491.221 605.339 491.268 607.619 489.591 609.335C487.909 611.056 485.624 611.061 484.866 611.05C457.677 610.997 429.831 610.995 399.731 611.042C398.931 611.045 396.61 611.045 394.866 609.263C393.126 607.484 393.168 605.148 393.184 604.381C393.229 602.096 393.218 599.81 393.211 597.521C393.203 595.549 393.195 593.528 393.221 591.499C391.544 591.513 389.872 591.507 388.198 591.499C385.623 591.491 382.966 591.481 380.378 591.544C379.607 591.568 377.235 591.624 375.458 589.85C373.686 588.081 373.731 585.705 373.746 584.923C373.794 582.563 373.783 580.203 373.775 577.846C373.77 575.926 373.762 573.958 373.786 571.986C371.94 572.007 370.104 572.004 368.303 572.001C365.945 571.996 363.594 571.993 361.239 572.047C360.428 572.06 357.996 572.115 356.176 570.288C354.356 568.459 354.412 566.03 354.428 565.232C354.478 563.028 354.462 560.756 354.443 558.557C354.428 556.478 354.412 554.344 354.449 552.199C351.768 552.257 349.09 552.249 346.478 552.238C344.732 552.233 342.984 552.228 341.236 552.238C340.132 552.246 338.175 552.262 336.59 550.669C335.518 549.592 334.984 548.134 335 546.33C335.082 536.949 335.111 520.787 335.122 514.271C335.132 509.246 339.21 505.139 344.215 505.112L349.697 505.083C357.092 505.044 364.487 505.001 371.885 505.001C469.578 504.998 567.276 505.001 664.974 505.004L738.249 505.006C740.597 505.006 742.625 505.006 744.302 506.701C745.963 508.382 745.963 510.421 745.963 512.779C745.961 515.642 745.955 518.504 745.95 521.367C745.934 529.161 745.918 537.219 745.998 545.132C746.011 546.32 746.035 548.796 744.141 550.623C742.245 552.453 739.678 552.323 738.825 552.281C736.545 552.167 734.264 552.183 731.852 552.201C730.107 552.212 728.311 552.225 726.507 552.185C726.57 554.272 726.549 556.341 726.528 558.351C726.504 560.562 726.481 562.649 726.568 564.738C726.602 565.603 726.708 568.233 724.796 570.182C723.082 571.93 720.839 572.084 719.302 572.039C716.952 571.978 714.527 571.983 712.188 571.988C710.505 571.993 708.781 571.996 707.051 571.978C707.077 574.072 707.069 576.162 707.064 578.201C707.059 580.447 707.051 582.693 707.085 584.939C707.098 585.716 707.138 588.084 705.358 589.853C703.57 591.627 701.204 591.566 700.44 591.544C697.974 591.478 695.433 591.489 692.974 591.497C691.21 591.502 689.398 591.51 687.581 591.491C687.597 593.242 687.592 594.984 687.584 596.686C687.573 599.12 687.565 601.637 687.626 604.079C687.653 605.084 687.713 607.439 685.954 609.247C684.375 610.865 682.342 611.061 680.934 611.061ZM637.672 602.53C652.3 602.53 665.941 602.549 679.151 602.583C679.125 600.587 679.133 598.595 679.141 596.654C679.149 594.329 679.159 591.924 679.104 589.59C679.088 588.813 679.032 586.448 680.794 584.682C682.558 582.911 684.951 582.969 685.73 582.987C688.112 583.043 690.566 583.038 692.937 583.027C694.799 583.019 696.706 583.014 698.618 583.038C698.608 581.418 698.613 579.797 698.618 578.18C698.623 575.534 698.631 572.8 698.568 570.14C698.549 569.262 698.494 566.934 700.261 565.163C702.028 563.394 704.381 563.452 705.139 563.474C707.455 563.532 709.845 563.527 712.153 563.521C714.094 563.519 716.086 563.511 718.08 563.545C718.043 561.758 718.064 559.987 718.082 558.263C718.109 555.837 718.135 553.543 718.016 551.257C717.969 550.348 717.826 547.579 719.804 545.564C721.558 543.777 723.832 543.62 725.63 543.689C727.648 543.764 729.655 543.748 731.786 543.734C733.664 543.718 735.595 543.708 737.544 543.761C737.48 536.273 737.496 528.697 737.509 521.354C737.515 518.729 737.52 516.106 737.523 513.481L664.974 513.479C567.276 513.476 469.583 513.473 371.885 513.476C364.506 513.476 357.124 513.518 349.745 513.558L344.26 513.587C343.874 513.59 343.562 513.903 343.562 514.282C343.555 520.227 343.525 534.199 343.459 543.756C344.474 543.756 345.496 543.758 346.507 543.764C349.536 543.772 352.671 543.785 355.708 543.687C356.561 543.66 359.176 543.575 361.101 545.503C362.829 547.237 362.963 549.489 362.916 551.032C362.842 553.487 362.86 556.03 362.879 558.488C362.892 560.143 362.905 561.84 362.889 563.543C364.696 563.521 366.505 563.524 368.311 563.527C370.73 563.529 373.242 563.535 375.68 563.476C376.453 563.455 378.799 563.402 380.56 565.168C382.324 566.939 382.269 569.339 382.253 570.129C382.192 572.672 382.2 575.287 382.208 577.814C382.213 579.553 382.219 581.296 382.206 583.035C384.231 583.011 386.252 583.017 388.224 583.025C390.519 583.033 392.814 583.04 395.109 582.998C395.973 582.979 398.276 582.942 400.024 584.711C401.775 586.485 401.712 588.826 401.691 589.598C401.622 592.205 401.633 594.888 401.641 597.487C401.646 599.179 401.651 600.87 401.638 602.562C430.224 602.52 456.793 602.522 482.732 602.57C482.725 601.154 482.732 599.738 482.743 598.32C482.759 595.501 482.777 592.838 482.664 590.152C482.629 589.288 482.521 586.66 484.404 584.756C486.287 582.852 488.823 582.937 489.908 582.979C492.42 583.067 495.016 583.054 497.535 583.038C499.051 583.03 500.604 583.019 502.168 583.035C502.157 581.556 502.168 580.084 502.178 578.647C502.202 575.947 502.223 573.396 502.102 570.837C502.059 569.944 501.932 567.223 503.863 565.266C505.791 563.312 508.398 563.413 509.52 563.458C511.921 563.551 514.303 563.537 516.828 563.524C518.402 563.516 520.018 563.505 521.642 563.527C521.608 559.716 521.611 555.884 521.613 552.161C521.616 548.428 521.621 544.692 521.587 540.958C521.579 540.117 521.555 537.561 523.523 535.758C525.604 533.846 528.474 534.127 529.703 534.252C536.817 534.955 543.702 534.976 550.168 534.31C552.22 534.101 555.022 533.812 557.106 535.724C559.044 537.503 559.012 539.958 559.002 540.884C558.949 545.063 558.954 549.242 558.957 553.421C558.96 556.797 558.962 560.17 558.938 563.545C560.71 563.521 562.475 563.527 564.202 563.529C566.661 563.535 569.204 563.54 571.665 563.466C572.632 563.439 575.173 563.357 577.032 565.237C578.891 567.114 578.796 569.676 578.767 570.517C578.667 573.272 578.682 576.122 578.696 578.877C578.704 580.264 578.712 581.648 578.704 583.035C580.214 583.03 581.688 583.033 583.162 583.038C585.813 583.048 588.557 583.059 591.225 582.982C592.149 582.956 594.631 582.881 596.459 584.724C598.281 586.565 598.197 589.06 598.17 589.879C598.089 592.282 598.099 594.769 598.11 597.174C598.115 598.94 598.123 600.748 598.096 602.568C612.22 602.544 625.301 602.53 637.672 602.53ZM339.345 514.274H339.358H339.345Z" fill="black"/>
<path d="M608.351 587.551C605.734 587.551 603.114 587.469 600.502 587.58C598.886 587.649 598.255 587.175 598.286 585.459C598.376 580.296 598.366 575.128 598.289 569.962C598.265 568.342 598.73 567.722 600.431 567.751C605.755 567.841 611.082 567.825 616.409 567.759C617.79 567.743 618.3 568.122 618.279 569.581C618.205 574.926 618.194 580.275 618.284 585.621C618.31 587.249 617.663 587.633 616.208 587.588C613.594 587.509 610.974 587.567 608.356 587.567C608.351 587.562 608.351 587.556 608.351 587.551Z" fill="#FDFDFD"/>
<path d="M616.419 588.254C616.34 588.254 616.261 588.254 616.187 588.251C614.354 588.196 612.484 588.206 610.678 588.22C609.904 588.225 609.13 588.23 608.354 588.23C608.304 588.23 608.256 588.225 608.211 588.214C607.48 588.214 606.745 588.206 606.011 588.198C604.21 588.18 602.348 588.164 600.531 588.244C599.805 588.275 598.896 588.233 598.286 587.636C597.671 587.034 597.616 586.098 597.626 585.449C597.711 580.591 597.713 575.529 597.629 569.973C597.618 569.247 597.682 568.335 598.278 567.738C598.881 567.136 599.81 567.08 600.441 567.091C605.182 567.173 610.25 567.173 616.398 567.099C617.082 567.083 617.84 567.152 618.363 567.68C618.889 568.207 618.947 568.979 618.939 569.591C618.86 575.324 618.86 580.564 618.942 585.61C618.957 586.568 618.759 587.215 618.318 587.655C617.806 588.161 617.061 588.254 616.419 588.254ZM612.983 586.883C614.061 586.883 615.149 586.894 616.227 586.926C616.839 586.939 617.225 586.873 617.391 586.708C617.555 586.546 617.632 586.183 617.621 585.632C617.539 580.572 617.537 575.319 617.618 569.573C617.624 569.077 617.56 568.746 617.431 568.616C617.299 568.48 616.969 568.406 616.417 568.425C610.258 568.499 605.177 568.496 600.42 568.417C599.789 568.406 599.396 568.494 599.213 568.677C599.026 568.865 598.939 569.284 598.949 569.955C599.034 575.523 599.031 580.599 598.947 585.472C598.936 586.098 599.023 586.507 599.208 586.687C599.396 586.87 599.8 586.947 600.473 586.918C602.327 586.838 604.205 586.854 606.022 586.873C606.798 586.881 607.575 586.886 608.351 586.886C608.401 586.886 608.449 586.891 608.494 586.902C609.217 586.902 609.941 586.896 610.665 586.891C611.431 586.888 612.204 586.883 612.983 586.883Z" fill="black"/>
<path d="M618.696 557.935C618.694 555.31 618.784 552.679 618.662 550.057C618.588 548.471 619.209 547.967 620.68 547.978C626.001 548.01 631.323 548.01 636.647 547.973C638.029 547.965 638.623 548.564 638.62 549.914C638.61 555.347 638.61 560.78 638.617 566.214C638.62 567.632 637.867 568.062 636.552 568.051C631.32 568.017 626.089 568.014 620.857 568.051C619.27 568.062 618.596 567.487 618.667 565.808C618.781 563.191 618.696 560.56 618.696 557.935Z" fill="#FDFDFD"/>
<path d="M620.799 568.72C620.149 568.72 619.243 568.638 618.636 568.004C618.16 567.508 617.96 566.805 618.005 565.784C618.084 563.955 618.065 562.08 618.05 560.266C618.042 559.489 618.034 558.712 618.034 557.935C618.034 557.145 618.042 556.358 618.05 555.567C618.068 553.767 618.087 551.905 617.999 550.092C617.952 549.124 618.139 548.456 618.583 547.989C619.154 547.392 620.014 547.315 620.632 547.315C620.648 547.315 620.664 547.315 620.68 547.315C625.975 547.347 631.344 547.347 636.637 547.313C637.485 547.305 638.166 547.522 638.618 547.973C639.061 548.416 639.278 549.055 639.278 549.919C639.267 555.353 639.267 560.783 639.275 566.217C639.275 567.025 639.069 567.625 638.641 568.052C638.034 568.659 637.104 568.717 636.545 568.717C631.02 568.68 625.885 568.68 620.86 568.717C620.838 568.72 620.82 568.72 620.799 568.72ZM620.635 548.641C620.065 548.641 619.705 548.729 619.534 548.906C619.362 549.087 619.288 549.463 619.315 550.028C619.402 551.882 619.383 553.762 619.367 555.581C619.36 556.366 619.352 557.15 619.352 557.935C619.352 558.707 619.36 559.481 619.367 560.256C619.386 562.085 619.404 563.979 619.323 565.843C619.296 566.458 619.383 566.877 619.584 567.086C619.787 567.299 620.178 567.402 620.846 567.397C625.88 567.359 631.02 567.359 636.55 567.397C636.56 567.397 636.571 567.397 636.581 567.397C637.141 567.397 637.519 567.301 637.707 567.116C637.87 566.951 637.952 566.651 637.952 566.222C637.944 560.786 637.944 555.353 637.955 549.919C637.955 549.431 637.865 549.095 637.685 548.914C637.501 548.731 637.133 548.641 636.645 548.641C631.344 548.676 625.97 548.678 620.672 548.644C620.662 548.641 620.648 548.641 620.635 548.641Z" fill="black"/>
<path d="M597.569 558.134C597.572 560.855 597.527 563.575 597.593 566.293C597.624 567.585 597.144 568.065 595.86 568.054C590.531 568.014 585.198 568.017 579.869 568.046C578.509 568.054 577.925 567.54 577.936 566.121C577.983 560.68 578.004 555.236 577.923 549.797C577.899 548.27 578.551 547.976 579.853 547.984C585.183 548.018 590.515 548.026 595.844 547.973C597.138 547.96 597.606 548.424 597.579 549.702C597.527 552.513 597.566 555.323 597.569 558.134Z" fill="#FDFDFD"/>
<path d="M595.905 568.718C595.889 568.718 595.873 568.718 595.855 568.718C590.974 568.681 585.748 568.679 579.872 568.711C578.937 568.711 578.343 568.512 577.904 568.071C577.474 567.637 577.268 566.998 577.276 566.114C577.32 560.976 577.347 555.441 577.262 549.807C577.249 548.934 577.434 548.335 577.841 547.921C578.372 547.383 579.203 547.322 579.856 547.319C586.02 547.359 591.096 547.356 595.837 547.309C596.373 547.306 597.154 547.359 597.683 547.892C598.203 548.42 598.25 549.186 598.24 549.714C598.2 551.766 598.211 553.819 598.219 555.871L598.227 558.136C598.227 558.976 598.224 559.819 598.221 560.66C598.213 562.535 598.205 564.407 598.25 566.282C598.264 566.815 598.219 567.589 597.691 568.127C597.181 568.65 596.436 568.718 595.905 568.718ZM587.644 567.363C590.515 567.363 593.24 567.374 595.866 567.393C596.27 567.398 596.621 567.329 596.75 567.196C596.914 567.029 596.938 566.624 596.93 566.311C596.885 564.425 596.893 562.54 596.901 560.652C596.903 559.814 596.906 558.973 596.906 558.136L596.898 555.876C596.89 553.813 596.88 551.75 596.919 549.687C596.927 549.247 596.867 548.95 596.742 548.823C596.616 548.693 596.322 548.645 595.85 548.632C591.106 548.682 586.017 548.685 579.848 548.642C579.233 548.645 578.921 548.703 578.778 548.852C578.641 548.99 578.572 549.313 578.58 549.785C578.665 555.436 578.636 560.978 578.593 566.125C578.591 566.626 578.67 566.968 578.836 567.135C579.003 567.302 579.293 567.353 579.861 567.385C582.587 567.369 585.172 567.363 587.644 567.363Z" fill="black"/>
<path d="M608.496 548.196C605.789 548.196 603.082 548.154 600.375 548.215C599.11 548.244 598.621 547.825 598.637 546.499C598.695 541.156 598.685 535.81 598.645 530.467C598.634 529.085 599.165 528.499 600.554 528.51C605.969 528.547 611.383 528.563 616.797 528.526C618.22 528.515 618.653 529.088 618.637 530.477C618.577 535.73 618.563 540.983 618.64 546.236C618.664 547.796 618.133 548.284 616.617 548.228C613.913 548.124 611.203 548.199 608.496 548.196Z" fill="#FDFDFD"/>
<path d="M616.853 548.892C616.764 548.892 616.677 548.89 616.589 548.887C614.704 548.815 612.776 548.831 610.914 548.847C610.106 548.852 609.29 548.863 608.492 548.86L606.163 548.852C604.237 548.844 602.31 548.834 600.384 548.879C599.864 548.89 599.069 548.847 598.546 548.325C598.021 547.802 597.968 547.028 597.973 546.492C598.023 541.767 598.026 536.676 597.981 530.471C597.976 529.559 598.176 528.925 598.62 528.482C599.053 528.047 599.632 527.851 600.556 527.846C606.857 527.888 612.015 527.893 616.787 527.862C617.712 527.856 618.266 528.05 618.686 528.472C619.238 529.028 619.302 529.84 619.294 530.484C619.225 536.315 619.228 541.465 619.296 546.227C619.307 546.898 619.244 547.741 618.668 548.309C618.171 548.797 617.466 548.892 616.853 548.892ZM613.28 547.508C614.397 547.508 615.522 547.521 616.64 547.561C617.207 547.58 617.588 547.513 617.749 547.357C617.91 547.198 617.989 546.824 617.979 546.243C617.907 541.47 617.907 536.31 617.976 530.466C617.981 529.917 617.907 529.559 617.751 529.402C617.606 529.256 617.297 529.182 616.83 529.182C616.822 529.182 616.811 529.182 616.798 529.182C612.02 529.214 606.855 529.209 600.548 529.166C600.073 529.182 599.721 529.246 599.558 529.413C599.389 529.585 599.301 529.935 599.307 530.455C599.352 536.668 599.349 541.767 599.299 546.5C599.293 546.951 599.357 547.253 599.481 547.375C599.602 547.497 599.896 547.561 600.363 547.545C602.302 547.503 604.24 547.511 606.176 547.519L608.497 547.527C609.274 547.5 610.103 547.521 610.909 547.513C611.688 547.516 612.483 547.508 613.28 547.508Z" fill="black"/>
<path d="M639.305 577.529C639.303 574.907 639.369 572.279 639.276 569.659C639.226 568.251 639.686 567.747 641.109 567.76C646.426 567.816 651.744 567.816 657.061 567.752C658.463 567.736 658.941 568.182 658.923 569.611C658.854 574.949 658.841 580.287 658.928 585.625C658.954 587.274 658.233 587.592 656.823 587.582C651.686 587.537 646.55 587.526 641.413 587.59C639.802 587.611 639.187 587.086 639.274 585.399C639.406 582.782 639.308 580.154 639.305 577.529Z" fill="#FDFDFD"/>
<path d="M641.312 588.255C640.614 588.255 639.772 588.162 639.207 587.573C638.607 586.948 638.581 586.014 638.615 585.367C638.708 583.543 638.687 581.673 638.665 579.865C638.657 579.088 638.647 578.311 638.647 577.534C638.647 576.741 638.652 575.948 638.657 575.153C638.671 573.358 638.684 571.501 638.618 569.685C638.597 569.054 638.639 568.261 639.175 567.71C639.719 567.15 640.596 567.105 641.116 567.102C646.52 567.161 651.881 567.158 657.055 567.094C657.659 567.086 658.468 567.147 658.998 567.683C659.532 568.219 659.593 569.001 659.585 569.624C659.508 575.585 659.511 580.817 659.587 585.619C659.603 586.542 659.408 587.178 658.977 587.613C658.412 588.183 657.538 588.25 656.82 588.247C650.872 588.194 645.978 588.197 641.42 588.255C641.386 588.255 641.349 588.255 641.312 588.255ZM641.05 568.426C640.57 568.426 640.258 568.497 640.121 568.635C639.981 568.778 639.92 569.118 639.938 569.637C640.004 571.48 639.991 573.352 639.978 575.161C639.973 575.951 639.967 576.741 639.967 577.531C639.967 578.306 639.975 579.077 639.986 579.849C640.007 581.679 640.028 583.569 639.933 585.433C639.901 586.051 639.978 586.462 640.158 586.651C640.342 586.844 640.725 586.932 641.404 586.926C645.968 586.871 650.872 586.868 656.828 586.918C657.517 586.91 657.868 586.847 658.037 586.674C658.198 586.513 658.275 586.163 658.264 585.635C658.185 580.82 658.185 575.574 658.262 569.603C658.267 569.086 658.201 568.754 658.064 568.616C657.926 568.479 657.604 568.399 657.068 568.418C651.886 568.481 646.512 568.484 641.103 568.426C641.085 568.426 641.069 568.426 641.05 568.426Z" fill="black"/>
<path d="M453.246 567.784C455.858 567.784 458.475 567.845 461.084 567.76C462.497 567.715 463.202 567.975 463.171 569.651C463.073 574.986 463.091 580.324 463.16 585.659C463.178 587.097 462.64 587.582 461.282 587.574C455.969 587.537 450.652 587.518 445.338 587.553C443.902 587.563 443.506 586.945 443.521 585.585C443.577 580.25 443.593 574.912 443.516 569.574C443.495 568.095 444.044 567.718 445.405 567.76C448.019 567.843 450.634 567.784 453.246 567.784Z" fill="#FDFDFD"/>
<path d="M461.329 588.237C461.313 588.237 461.294 588.237 461.278 588.237C455.009 588.192 449.943 588.184 445.345 588.216C445.335 588.216 445.321 588.216 445.308 588.216C444.468 588.216 443.885 588.023 443.475 587.609C442.921 587.049 442.857 586.23 442.865 585.578C442.929 579.352 442.929 574.271 442.86 569.585C442.852 569.015 442.905 568.193 443.452 567.655C443.99 567.125 444.801 567.077 445.432 567.098C447.265 567.156 449.132 567.143 450.947 567.13C451.715 567.125 452.484 567.119 453.25 567.119C454.013 567.119 454.774 567.125 455.537 567.13C457.354 567.143 459.232 567.156 461.067 567.095C461.865 567.069 462.678 567.119 463.233 567.668C463.663 568.092 463.853 568.726 463.837 569.66C463.75 574.385 463.748 579.466 463.83 585.649C463.837 586.222 463.782 587.052 463.222 587.617C462.673 588.166 461.891 588.237 461.329 588.237ZM451.34 586.872C454.34 586.872 457.607 586.885 461.289 586.911C461.793 586.93 462.123 586.84 462.277 586.686C462.432 586.53 462.506 586.188 462.501 585.67C462.419 579.473 462.425 574.38 462.509 569.641C462.52 569.116 462.446 568.763 462.298 568.617C462.097 568.419 461.519 568.411 461.101 568.424C459.237 568.485 457.349 568.474 455.518 568.458C453.994 568.448 452.471 568.448 450.947 568.458C449.127 568.472 447.241 568.482 445.385 568.427C444.857 568.405 444.508 568.469 444.373 568.604C444.239 568.737 444.17 569.071 444.178 569.569C444.247 574.266 444.249 579.357 444.183 585.596C444.178 586.164 444.249 586.519 444.408 586.678C444.553 586.824 444.82 586.885 445.337 586.896C447.241 586.88 449.225 586.872 451.34 586.872Z" fill="black"/>
<path d="M433.127 547.994C435.652 547.994 438.177 548.06 440.699 547.97C442.368 547.912 442.891 548.593 442.87 550.214C442.799 555.371 442.801 560.529 442.87 565.686C442.891 567.248 442.461 568.065 440.776 568.054C435.549 568.017 430.32 568.017 425.094 568.062C423.715 568.073 423.171 567.577 423.184 566.161C423.234 560.733 423.237 555.302 423.176 549.874C423.16 548.485 423.593 547.933 425.017 547.973C427.719 548.05 430.423 547.994 433.127 547.994Z" fill="#FDFDFD"/>
<path d="M425.041 568.722C424.473 568.722 423.686 568.648 423.14 568.102C422.712 567.672 422.516 567.052 422.524 566.153C422.577 560.353 422.574 555.031 422.516 549.879C422.508 549.235 422.572 548.426 423.126 547.88C423.678 547.334 424.473 547.296 425.038 547.31C426.943 547.365 428.886 547.352 430.764 547.341C431.554 547.336 432.341 547.331 433.13 547.331C433.883 547.331 434.636 547.336 435.386 547.341C437.121 547.355 438.919 547.371 440.676 547.307C441.682 547.27 442.361 547.474 442.836 547.943C443.475 548.575 443.536 549.545 443.528 550.224C443.459 555.254 443.459 560.454 443.528 565.678C443.539 566.439 443.47 567.394 442.833 568.035C442.374 568.499 441.719 568.685 440.768 568.717C435.254 568.68 430.128 568.68 425.094 568.725C425.081 568.722 425.06 568.722 425.041 568.722ZM424.872 548.633C424.457 548.633 424.183 548.696 424.051 548.826C423.9 548.972 423.829 549.322 423.834 549.866C423.892 555.026 423.895 560.359 423.842 566.166C423.837 566.672 423.913 567.009 424.072 567.166C424.23 567.325 424.576 567.391 425.086 567.396C430.122 567.354 435.256 567.351 440.779 567.388C441.31 567.402 441.703 567.295 441.898 567.099C442.12 566.877 442.221 566.428 442.21 565.694C442.141 560.457 442.141 555.246 442.21 550.203C442.221 549.524 442.123 549.094 441.914 548.887C441.719 548.694 441.315 548.609 440.723 548.628C438.938 548.691 437.129 548.678 435.375 548.665C433.841 548.654 432.306 548.654 430.772 548.662C428.881 548.675 426.927 548.686 424.999 548.63C424.957 548.633 424.914 548.633 424.872 548.633Z" fill="black"/>
<path d="M422.462 577.666C422.462 580.196 422.346 582.736 422.499 585.258C422.615 587.146 421.776 587.602 420.128 587.586C414.991 587.543 409.852 587.541 404.715 587.586C403.368 587.599 402.771 587.209 402.789 585.74C402.856 580.312 402.853 574.882 402.797 569.454C402.784 568.107 403.328 567.759 404.562 567.77C409.97 567.815 415.379 567.817 420.785 567.778C422.079 567.767 422.502 568.26 422.465 569.536C422.388 572.243 422.441 574.956 422.441 577.666C422.449 577.666 422.457 577.666 422.462 577.666Z" fill="#FDFDFD"/>
<path d="M404.645 588.244C404.014 588.244 403.245 588.164 402.72 587.634C402.302 587.215 402.115 586.608 402.125 585.725C402.189 580.546 402.191 575.221 402.133 569.451C402.128 568.934 402.181 568.187 402.693 567.669C403.206 567.152 403.929 567.086 404.563 567.097C409.998 567.142 415.457 567.144 420.779 567.105C421.312 567.11 422.065 567.158 422.58 567.685C423.1 568.218 423.14 569.003 423.127 569.544C423.071 571.453 423.084 573.402 423.095 575.288C423.098 576.025 423.103 576.762 423.103 577.502C423.116 577.552 423.121 577.603 423.121 577.658C423.121 578.419 423.111 579.183 423.1 579.947C423.076 581.678 423.05 583.468 423.158 585.208C423.222 586.242 423.021 586.99 422.548 587.494C421.909 588.17 420.89 588.233 420.124 588.241C414.892 588.196 409.71 588.196 404.722 588.241C404.692 588.244 404.669 588.244 404.645 588.244ZM404.508 568.425C404.043 568.425 403.747 568.486 403.626 568.608C403.507 568.727 403.446 569.014 403.451 569.438C403.509 575.219 403.507 580.551 403.443 585.741C403.438 586.229 403.507 586.552 403.652 586.698C403.805 586.852 404.114 586.921 404.703 586.918C409.695 586.873 414.887 586.873 420.126 586.918C420.879 586.918 421.36 586.82 421.582 586.584C421.788 586.367 421.872 585.932 421.833 585.293C421.722 583.503 421.748 581.686 421.772 579.931C421.78 579.228 421.79 578.523 421.793 577.82C421.78 577.77 421.774 577.717 421.774 577.661C421.774 576.874 421.772 576.086 421.767 575.301C421.756 573.405 421.745 571.445 421.798 569.512C421.811 569.054 421.753 568.743 421.632 568.619C421.516 568.499 421.233 568.436 420.813 568.436C420.803 568.436 420.792 568.436 420.784 568.436C415.452 568.476 409.99 568.473 404.55 568.428C404.534 568.425 404.521 568.425 404.508 568.425Z" fill="black"/>
<path d="M382.197 557.922C382.194 555.292 382.297 552.656 382.157 550.031C382.07 548.429 382.643 547.957 384.146 547.973C389.385 548.023 394.628 548.01 399.87 547.978C401.225 547.97 401.824 548.45 401.809 549.89C401.758 555.241 401.756 560.595 401.811 565.949C401.827 567.476 401.233 568.065 399.738 568.054C394.496 568.017 389.256 568.012 384.014 568.06C382.569 568.073 382.141 567.452 382.175 566.089C382.247 563.366 382.199 560.643 382.197 557.922Z" fill="#FEFEFE"/>
<path d="M383.966 568.72C383.127 568.72 382.519 568.515 382.11 568.099C381.545 567.521 381.5 566.665 381.513 566.071C381.563 564.122 381.553 562.135 381.539 560.213L381.531 557.925C381.531 557.132 381.539 556.339 381.55 555.549C381.571 553.748 381.592 551.884 381.494 550.07C381.46 549.452 381.484 548.561 382.052 547.965C382.614 547.376 383.47 547.32 384.149 547.312C389.909 547.368 395.574 547.342 399.863 547.318C400.473 547.323 401.273 547.376 401.843 547.954C402.271 548.384 402.475 549.02 402.464 549.901C402.411 555.374 402.411 560.772 402.464 565.946C402.475 566.916 402.263 567.585 401.801 568.051C401.342 568.515 400.75 568.725 399.725 568.722C393.997 568.68 388.852 568.685 384.011 568.728C383.998 568.72 383.982 568.72 383.966 568.72ZM382.852 557.922L382.86 560.205C382.87 562.138 382.881 564.135 382.833 566.102C382.82 566.649 382.892 567.007 383.05 567.168C383.201 567.322 383.523 567.407 384.003 567.394C388.855 567.349 394 567.349 399.738 567.388C400.335 567.399 400.676 567.301 400.869 567.11C401.059 566.916 401.151 566.529 401.146 565.954C401.091 560.772 401.091 555.366 401.146 549.882C401.151 549.383 401.072 549.049 400.908 548.885C400.747 548.723 400.409 548.641 399.9 548.641C399.892 548.641 399.881 548.641 399.871 548.641C395.574 548.668 389.903 548.691 384.135 548.636C383.562 548.633 383.164 548.71 383.005 548.877C382.847 549.044 382.781 549.421 382.812 549.996C382.913 551.855 382.892 553.738 382.87 555.562C382.86 556.347 382.852 557.134 382.852 557.922Z" fill="black"/>
<path d="M371.922 528.535C374.534 528.535 377.149 528.577 379.761 528.516C381.042 528.487 381.763 528.718 381.744 530.269C381.676 535.694 381.686 541.125 381.757 546.55C381.773 547.871 381.345 548.234 380.067 548.218C374.661 548.157 369.255 548.16 363.849 548.216C362.589 548.229 362.116 547.887 362.132 546.545C362.198 541.117 362.211 535.689 362.129 530.264C362.106 528.702 362.806 528.487 364.084 528.516C366.696 528.58 369.31 528.537 371.922 528.535Z" fill="#FDFDFD"/>
<path d="M380.153 548.883C380.124 548.883 380.095 548.883 380.063 548.883C374.9 548.825 369.446 548.825 363.858 548.88C363.227 548.88 362.514 548.827 362.02 548.329C361.524 547.83 361.468 547.109 361.476 546.536C361.55 540.559 361.55 535.24 361.473 530.274C361.46 529.409 361.642 528.82 362.049 528.415C362.575 527.892 363.356 527.845 364.104 527.853C365.958 527.898 367.809 527.887 369.663 527.879L371.926 527.871L374.274 527.876C376.102 527.884 377.927 527.892 379.752 527.85C380.523 527.834 381.289 527.89 381.825 528.423C382.234 528.831 382.422 529.42 382.409 530.276C382.342 535.458 382.348 540.777 382.422 546.542C382.43 547.12 382.374 547.844 381.886 548.337C381.421 548.806 380.758 548.883 380.153 548.883ZM371.937 547.512C374.713 547.512 377.436 547.528 380.079 547.557C380.652 547.555 380.877 547.478 380.951 547.404C381.009 547.343 381.109 547.154 381.101 546.56C381.027 540.785 381.022 535.455 381.088 530.26C381.093 529.807 381.027 529.499 380.895 529.367C380.705 529.178 380.169 529.17 379.783 529.178C377.945 529.218 376.104 529.21 374.272 529.205L371.929 529.2L369.674 529.208C367.804 529.218 365.939 529.226 364.075 529.181C363.66 529.168 363.156 529.181 362.979 529.359C362.852 529.483 362.786 529.802 362.794 530.255C362.87 535.235 362.87 540.567 362.796 546.555C362.789 547.138 362.892 547.332 362.955 547.393C363.032 547.47 363.264 547.557 363.848 547.555C366.581 547.525 369.285 547.512 371.937 547.512ZM371.929 528.534H371.942H371.929Z" fill="black"/>
<path d="M412.785 548.193C410.081 548.193 407.376 548.153 404.675 548.211C403.528 548.235 403.079 547.872 403.09 546.67C403.14 541.152 403.138 535.634 403.114 530.113C403.109 528.933 403.626 528.522 404.741 528.525C410.239 528.546 415.735 528.551 421.234 528.52C422.441 528.512 422.795 529.098 422.792 530.182C422.779 535.7 422.755 541.221 422.81 546.739C422.824 548.028 422.227 548.216 421.165 548.2C418.373 548.163 415.579 548.193 412.785 548.193Z" fill="#FDFDFD"/>
<path d="M404.565 548.876C404.042 548.876 403.421 548.799 402.972 548.357C402.481 547.871 402.431 547.158 402.434 546.665C402.479 541.817 402.487 536.559 402.457 530.118C402.455 529.368 402.637 528.816 403.017 528.434C403.522 527.928 404.227 527.864 404.723 527.864C404.731 527.864 404.739 527.864 404.747 527.864C410.243 527.885 415.739 527.893 421.232 527.862C422.019 527.854 422.503 528.039 422.883 528.418C423.401 528.938 423.459 529.678 423.459 530.187L423.453 531.892C423.44 536.758 423.427 541.791 423.477 546.736C423.485 547.466 423.313 547.996 422.959 548.351C422.487 548.821 421.829 548.882 421.161 548.868C419.159 548.839 417.155 548.844 415.155 548.85L412.789 548.855L410.425 548.85C408.519 548.844 406.604 548.836 404.694 548.876C404.652 548.876 404.607 548.876 404.565 548.876ZM404.731 529.19C404.457 529.19 404.103 529.222 403.955 529.37C403.81 529.516 403.781 529.853 403.781 530.113C403.81 536.562 403.802 541.825 403.757 546.678C403.754 547.187 403.847 547.357 403.902 547.413C403.958 547.468 404.129 547.561 404.668 547.55C406.588 547.511 408.513 547.519 410.436 547.524L412.794 547.529L415.155 547.524C417.165 547.521 419.175 547.513 421.187 547.542C421.647 547.548 421.94 547.505 422.033 547.413C422.075 547.373 422.167 547.227 422.162 546.75C422.112 541.794 422.125 536.758 422.138 531.889L422.143 530.184C422.143 529.76 422.083 529.482 421.956 529.357C421.813 529.214 421.502 529.166 421.245 529.187C415.747 529.219 410.246 529.211 404.747 529.19C404.739 529.19 404.734 529.19 404.731 529.19Z" fill="black"/>
<path d="M558.544 538.188C558.544 535.56 558.581 532.932 558.528 530.307C558.504 529.154 558.607 528.472 560.089 528.499C565.231 528.589 570.375 528.578 575.515 528.509C577.044 528.488 577.551 528.992 577.527 530.543C577.448 535.796 577.432 541.055 577.533 546.308C577.564 547.944 576.946 548.251 575.494 548.227C570.531 548.153 565.566 548.132 560.604 548.235C558.914 548.27 558.42 547.708 558.491 546.069C558.607 543.446 558.523 540.816 558.523 538.188C558.528 538.188 558.536 538.188 558.544 538.188Z" fill="#FDFDFD"/>
<path d="M560.438 548.895C559.756 548.895 558.956 548.8 558.417 548.246C557.834 547.647 557.797 546.75 557.828 546.037C557.91 544.213 557.892 542.346 557.873 540.54C557.865 539.755 557.857 538.97 557.857 538.185C557.857 538.127 557.865 538.069 557.879 538.013L557.884 535.931C557.889 534.059 557.897 532.19 557.86 530.318C557.847 529.573 557.873 528.865 558.372 528.363C558.745 527.987 559.31 527.804 560.094 527.833C564.79 527.915 569.829 527.921 575.502 527.844C576.173 527.838 577.002 527.897 577.567 528.464C578.132 529.034 578.193 529.878 578.182 530.548C578.095 536.324 578.095 541.473 578.188 546.289C578.206 547.243 578.024 547.861 577.599 548.288C577.057 548.832 576.252 548.898 575.478 548.885C569.723 548.8 564.999 548.803 560.612 548.893C560.554 548.895 560.498 548.895 560.438 548.895ZM559.178 538.355C559.178 539.079 559.186 539.803 559.194 540.527C559.212 542.351 559.231 544.236 559.146 546.095C559.117 546.742 559.188 547.143 559.363 547.32C559.537 547.498 559.946 547.594 560.586 547.57C564.988 547.477 569.729 547.474 575.499 547.562C576.138 547.572 576.516 547.506 576.667 547.355C576.809 547.212 576.88 546.851 576.87 546.315C576.777 541.484 576.775 536.321 576.865 530.53C576.873 529.946 576.796 529.565 576.635 529.403C576.474 529.241 576.086 529.156 575.523 529.17C569.834 529.246 564.782 529.244 560.076 529.159C559.484 529.132 559.347 529.262 559.313 529.299C559.17 529.443 559.181 530.015 559.186 530.291C559.225 532.171 559.217 534.054 559.21 535.937L559.204 538.185C559.202 538.244 559.194 538.299 559.178 538.355ZM558.541 538.185H558.555H558.541Z" fill="black"/>
</svg>
