<svg width="1080" height="1080" viewBox="0 0 1080 1080" fill="none" xmlns="http://www.w3.org/2000/svg">
<path d="M411.846 527.064C411.054 534.523 410.499 547.723 415.482 553.342C415.482 553.342 413.136 538.841 434.164 520.647C442.631 513.323 444.588 503.361 441.632 495.89C439.952 491.657 436.885 488.161 434.22 485.72C432.665 484.284 433.859 481.916 436.122 482.002C449.807 482.542 471.987 485.904 481.412 506.809C485.548 515.985 485.853 525.469 483.882 535.111C482.633 541.27 478.191 554.961 488.324 556.642C495.555 557.845 499.053 552.765 500.621 549.11C501.274 547.588 503.536 547.208 504.758 548.423C516.972 560.703 518.013 575.167 515.487 587.62C510.601 611.69 483.022 629.209 455.623 629.209C421.395 629.209 394.149 611.898 387.084 580.565C384.239 567.917 385.682 542.89 407.751 525.223C409.389 523.898 412.068 525.076 411.846 527.064Z" fill="#FF5A20" stroke="black" stroke-width="11.251"/>
<path d="M669.58 527.064C670.371 534.523 670.927 547.723 665.944 553.342C665.944 553.342 668.289 538.841 647.261 520.647C638.795 513.323 636.838 503.361 639.794 495.89C641.473 491.657 644.541 488.161 647.206 485.72C648.76 484.284 647.567 481.916 645.304 482.002C631.619 482.542 609.439 485.904 600.014 506.809C595.878 515.985 595.573 525.469 597.544 535.111C598.793 541.27 603.234 554.961 593.102 556.642C585.871 557.845 582.373 552.765 580.804 549.11C580.152 547.588 577.89 547.208 576.668 548.423C564.454 560.703 563.413 575.167 565.939 587.62C570.825 611.69 598.404 629.209 625.803 629.209C660.031 629.209 687.277 611.898 694.342 580.565C697.187 567.917 695.744 542.89 673.675 525.223C672.037 523.898 669.358 525.076 669.58 527.064Z" fill="#FF5A20" stroke="black" stroke-width="11.251"/>
<path d="M464.981 558.068C454.654 545.054 459.278 530.205 461.812 524.288C462.152 523.509 461.244 522.775 460.528 523.254C456.086 526.212 446.986 533.175 442.748 542.974C437.011 556.222 437.42 562.706 440.817 570.626C442.862 575.398 440.488 576.41 439.295 576.588C438.136 576.766 437.068 576.009 436.216 575.22C433.765 572.916 432.018 569.988 431.172 566.766C430.99 566.077 430.07 565.888 429.65 566.455C426.469 570.759 424.821 577.667 424.742 582.55C424.492 597.643 437.227 609.878 452.632 609.878C472.048 609.878 486.192 588.856 475.035 571.282C471.798 566.166 468.753 562.818 464.981 558.068Z" fill="#FFC947"/>
<path d="M615.616 558.068C625.943 545.054 621.319 530.205 618.786 524.288C618.445 523.509 619.354 522.775 620.07 523.254C624.512 526.212 633.612 533.175 637.849 542.974C643.586 556.222 643.177 562.706 639.78 570.626C637.736 575.398 640.11 576.41 641.303 576.588C642.462 576.766 643.529 576.009 644.382 575.22C646.833 572.916 648.579 569.988 649.426 566.766C649.607 566.077 650.528 565.888 650.948 566.455C654.129 570.759 655.776 577.667 655.856 582.55C656.106 597.643 643.37 609.878 627.965 609.878C608.55 609.878 594.406 588.856 605.562 571.282C608.8 566.166 611.845 562.818 615.616 558.068Z" fill="#FFC947"/>
</svg>
