<svg width="1080" height="1080" viewBox="0 0 1080 1080" fill="none" xmlns="http://www.w3.org/2000/svg">
<mask id="path-1-inside-1_4303_1789" fill="white">
<path fill-rule="evenodd" clip-rule="evenodd" d="M660.639 471.021V471H660.638H658.514L658.777 471C659.393 471 660.027 471.003 660.638 471.021L660.639 471.021ZM664.534 476.622C686.219 478.243 705.526 488.493 719.052 503.909C724.391 510.007 728.837 516.917 732.143 524.422C733.919 528.436 735.387 532.615 736.486 536.937C737.297 540.079 737.913 543.282 738.323 546.557C738.775 549.935 739.001 553.385 739.001 556.886C739.001 561.537 738.611 566.085 737.841 570.531C737.112 574.791 736.044 578.949 734.658 582.953C734.33 583.97 733.96 584.976 733.56 585.972C732.666 588.272 731.681 590.5 730.582 592.676C729.443 594.996 728.159 597.245 726.794 599.422C723.139 605.274 718.755 610.633 713.744 615.345C699.309 628.99 679.842 636.17 658.509 637.347C617.167 639.629 600.352 620.32 586.036 603.882C578.089 594.756 570.912 586.515 560.736 583.342C552.906 581.733 544.556 580.487 537.502 580.499C530.175 580.512 522.347 581.563 515.12 582.975C506.501 585.683 500.553 592.639 493.718 600.633C481.007 615.499 465.228 633.954 423.492 635.358C402.127 635.358 382.692 627.084 368.257 613.574C363.246 608.909 358.862 603.602 355.207 597.808C353.842 595.653 352.558 593.427 351.419 591.13C350.32 588.975 349.335 586.769 348.441 584.492C348.041 583.506 347.671 582.51 347.343 581.503C345.957 577.539 344.879 573.422 344.16 569.204C343.39 564.802 343 560.299 343 555.694C343 552.238 343.226 548.813 343.657 545.458C344.068 542.215 344.684 539.044 345.495 535.933C346.593 531.654 348.062 527.517 349.838 523.542C353.144 516.111 357.589 509.27 362.928 503.232C377.692 486.541 399.365 476 423.472 476C426.236 476 428.969 476.139 431.662 476.409H657.543C657.864 476.406 658.186 476.404 658.509 476.404H658.51H658.515H658.517C658.985 476.404 659.45 476.404 659.91 476.409H665.411C665.118 476.48 664.826 476.55 664.534 476.622Z"/>
</mask>
<path fill-rule="evenodd" clip-rule="evenodd" d="M660.639 471.021V471H660.638H658.514L658.777 471C659.393 471 660.027 471.003 660.638 471.021L660.639 471.021ZM664.534 476.622C686.219 478.243 705.526 488.493 719.052 503.909C724.391 510.007 728.837 516.917 732.143 524.422C733.919 528.436 735.387 532.615 736.486 536.937C737.297 540.079 737.913 543.282 738.323 546.557C738.775 549.935 739.001 553.385 739.001 556.886C739.001 561.537 738.611 566.085 737.841 570.531C737.112 574.791 736.044 578.949 734.658 582.953C734.33 583.97 733.96 584.976 733.56 585.972C732.666 588.272 731.681 590.5 730.582 592.676C729.443 594.996 728.159 597.245 726.794 599.422C723.139 605.274 718.755 610.633 713.744 615.345C699.309 628.99 679.842 636.17 658.509 637.347C617.167 639.629 600.352 620.32 586.036 603.882C578.089 594.756 570.912 586.515 560.736 583.342C552.906 581.733 544.556 580.487 537.502 580.499C530.175 580.512 522.347 581.563 515.12 582.975C506.501 585.683 500.553 592.639 493.718 600.633C481.007 615.499 465.228 633.954 423.492 635.358C402.127 635.358 382.692 627.084 368.257 613.574C363.246 608.909 358.862 603.602 355.207 597.808C353.842 595.653 352.558 593.427 351.419 591.13C350.32 588.975 349.335 586.769 348.441 584.492C348.041 583.506 347.671 582.51 347.343 581.503C345.957 577.539 344.879 573.422 344.16 569.204C343.39 564.802 343 560.299 343 555.694C343 552.238 343.226 548.813 343.657 545.458C344.068 542.215 344.684 539.044 345.495 535.933C346.593 531.654 348.062 527.517 349.838 523.542C353.144 516.111 357.589 509.27 362.928 503.232C377.692 486.541 399.365 476 423.472 476C426.236 476 428.969 476.139 431.662 476.409H657.543C657.864 476.406 658.186 476.404 658.509 476.404H658.51H658.515H658.517C658.985 476.404 659.45 476.404 659.91 476.409H665.411C665.118 476.48 664.826 476.55 664.534 476.622Z" fill="#31373D"/>
<path d="M660.639 471H672.306V459.333H660.639V471ZM660.639 471.021L660.296 482.682L672.306 483.035V471.021H660.639ZM658.514 471V459.333L658.512 482.667L658.514 471ZM658.777 471L658.782 459.333L658.779 459.333L658.777 471ZM660.638 471.021L660.981 459.359L660.98 459.359L660.638 471.021ZM719.052 503.909L727.831 496.224L727.822 496.214L719.052 503.909ZM664.534 476.622L661.763 465.289L663.664 488.256L664.534 476.622ZM732.143 524.422L721.466 529.125L721.47 529.134L721.474 529.143L732.143 524.422ZM736.486 536.937L725.178 539.811L725.184 539.832L725.189 539.854L736.486 536.937ZM738.323 546.557L726.747 548.009L726.753 548.056L726.76 548.104L738.323 546.557ZM737.841 570.531L726.345 568.539L726.343 568.551L726.341 568.563L737.841 570.531ZM734.658 582.953L723.633 579.137L723.594 579.251L723.557 579.365L734.658 582.953ZM733.56 585.972L722.735 581.62L722.709 581.684L722.684 581.748L733.56 585.972ZM730.582 592.676L720.167 587.419L720.138 587.476L720.11 587.533L730.582 592.676ZM726.794 599.422L716.911 593.221L716.905 593.231L716.898 593.241L726.794 599.422ZM713.744 615.345L705.751 606.847L705.741 606.857L705.73 606.867L713.744 615.345ZM658.509 637.347L657.866 625.698L658.509 637.347ZM586.036 603.882L594.834 596.22V596.22L586.036 603.882ZM560.736 583.342L564.209 572.204L563.654 572.032L563.085 571.915L560.736 583.342ZM537.502 580.499L537.482 568.833L537.502 580.499ZM515.12 582.975L512.883 571.525L512.244 571.649L511.624 571.844L515.12 582.975ZM493.718 600.633L502.585 608.215L502.585 608.215L493.718 600.633ZM423.492 635.358V647.025H423.688L423.885 647.018L423.492 635.358ZM368.257 613.574L376.228 605.056L376.218 605.046L376.207 605.037L368.257 613.574ZM355.207 597.808L365.075 591.584L365.068 591.574L365.062 591.564L355.207 597.808ZM351.419 591.13L361.87 585.945L361.842 585.888L361.813 585.831L351.419 591.13ZM348.441 584.492L359.302 580.231L359.277 580.167L359.251 580.102L348.441 584.492ZM347.343 581.503L358.433 577.883L358.396 577.768L358.356 577.653L347.343 581.503ZM344.16 569.204L355.661 567.244L355.657 567.219L355.652 567.193L344.16 569.204ZM343.657 545.458L355.228 546.946L355.23 546.935L355.231 546.924L343.657 545.458ZM345.495 535.933L356.784 538.877L356.79 538.856L356.795 538.834L345.495 535.933ZM349.838 523.542L360.489 528.302L360.493 528.293L360.497 528.284L349.838 523.542ZM362.928 503.232L354.189 495.503L354.188 495.504L362.928 503.232ZM431.662 476.409L430.495 488.018L431.077 488.076H431.662V476.409ZM657.543 476.409V488.076H657.612L657.681 488.075L657.543 476.409ZM659.91 476.409L659.765 488.075L659.838 488.076H659.91V476.409ZM665.411 476.409L668.124 487.756L665.411 464.743V476.409ZM648.973 471V471.021H672.306V471H648.973ZM660.638 482.667H660.639V459.333H660.638V482.667ZM658.514 482.667H660.638V459.333H658.514V482.667ZM658.779 459.333L658.516 459.333L658.512 482.667L658.775 482.667L658.779 459.333ZM660.98 459.359C660.185 459.336 659.403 459.334 658.782 459.333L658.772 482.667C659.384 482.667 659.869 482.67 660.296 482.682L660.98 459.359ZM660.982 459.359L660.981 459.359L660.295 482.682L660.296 482.682L660.982 459.359ZM727.822 496.214C712.367 478.6 690.266 466.847 665.404 464.987L663.664 488.256C682.173 489.64 698.685 498.385 710.283 511.603L727.822 496.214ZM742.819 519.719C739.024 511.102 733.93 503.191 727.831 496.224L710.274 511.593C714.853 516.823 718.65 522.732 721.466 529.125L742.819 519.719ZM747.793 534.064C746.525 529.075 744.837 524.28 742.812 519.701L721.474 529.143C723 532.593 724.249 536.155 725.178 539.811L747.793 534.064ZM749.899 545.106C749.426 541.331 748.716 537.639 747.782 534.021L725.189 539.854C725.878 542.519 726.399 545.233 726.747 548.009L749.899 545.106ZM750.668 556.886C750.668 552.883 750.409 548.917 749.887 545.011L726.76 548.104C727.141 550.954 727.334 553.886 727.334 556.886H750.668ZM749.336 572.522C750.222 567.407 750.668 562.192 750.668 556.886H727.334C727.334 560.881 727 564.763 726.345 568.539L749.336 572.522ZM745.683 586.77C747.279 582.157 748.505 577.381 749.34 572.498L726.341 568.563C725.719 572.202 724.809 575.741 723.633 579.137L745.683 586.77ZM744.384 590.324C744.871 589.112 745.337 587.849 745.759 586.542L723.557 579.365C723.323 580.09 723.048 580.84 722.735 581.62L744.384 590.324ZM740.997 597.933C742.275 595.401 743.413 592.827 744.435 590.196L722.684 581.748C721.92 583.716 721.086 585.598 720.167 587.419L740.997 597.933ZM736.676 605.622C738.213 603.173 739.703 600.569 741.054 597.819L720.11 587.533C719.182 589.424 718.106 591.317 716.911 593.221L736.676 605.622ZM721.738 623.844C727.489 618.434 732.509 612.293 736.689 605.602L716.898 593.241C713.768 598.254 710.021 602.832 705.751 606.847L721.738 623.844ZM659.151 648.996C682.655 647.699 704.931 639.73 721.759 623.824L705.73 606.867C693.688 618.25 677.029 624.641 657.866 625.698L659.151 648.996ZM577.238 611.544C584.285 619.636 593.197 629.991 606.202 637.678C619.539 645.561 636.408 650.251 659.151 648.996L657.866 625.698C639.268 626.725 627.059 622.902 618.074 617.591C608.757 612.084 602.103 604.566 594.834 596.22L577.238 611.544ZM557.264 594.48C563.704 596.488 568.753 601.8 577.238 611.544L594.834 596.22C587.425 587.712 578.119 576.541 564.209 572.204L557.264 594.48ZM537.521 592.166C543.4 592.156 550.845 593.22 558.387 594.77L563.085 571.915C554.966 570.246 545.713 568.819 537.482 568.833L537.521 592.166ZM517.358 594.425C524.172 593.093 531.205 592.177 537.521 592.166L537.482 568.833C529.145 568.847 520.522 570.032 512.883 571.525L517.358 594.425ZM502.585 608.215C509.964 599.585 513.78 595.625 518.617 594.105L511.624 571.844C499.221 575.741 491.142 585.693 484.85 593.052L502.585 608.215ZM423.885 647.018C446.538 646.256 462.945 640.807 475.625 632.967C488.105 625.25 496.277 615.592 502.585 608.215L484.85 593.052C478.447 600.54 472.374 607.543 463.354 613.121C454.533 618.575 442.182 623.056 423.1 623.698L423.885 647.018ZM360.285 622.092C376.801 637.549 399.058 647.025 423.492 647.025V623.692C405.196 623.692 388.583 616.618 376.228 605.056L360.285 622.092ZM345.34 604.033C349.526 610.668 354.551 616.754 360.306 622.112L376.207 605.037C371.941 601.064 368.199 596.537 365.075 591.584L345.34 604.033ZM340.968 596.314C342.321 599.043 343.815 601.625 345.353 604.053L365.062 591.564C363.869 589.681 362.796 587.811 361.87 585.945L340.968 596.314ZM337.581 588.753C338.605 591.363 339.745 593.917 341.025 596.428L361.813 585.831C360.896 584.033 360.065 582.175 359.302 580.231L337.581 588.753ZM336.252 585.124C336.677 586.424 337.143 587.678 337.632 588.882L359.251 580.102C358.939 579.334 358.666 578.596 358.433 577.883L336.252 585.124ZM332.659 571.163C333.491 576.046 334.736 580.795 336.33 585.354L358.356 577.653C357.178 574.284 356.267 570.799 355.661 567.244L332.659 571.163ZM331.333 555.694C331.333 560.961 331.78 566.137 332.668 571.214L355.652 567.193C355 563.467 354.667 559.637 354.667 555.694H331.333ZM332.086 543.971C331.592 547.809 331.333 551.731 331.333 555.694H354.667C354.667 552.745 354.859 549.816 355.228 546.946L332.086 543.971ZM334.206 532.99C333.269 536.58 332.557 540.245 332.083 543.992L355.231 546.924C355.578 544.185 356.098 541.507 356.784 538.877L334.206 532.99ZM339.186 518.782C337.157 523.324 335.466 528.082 334.195 533.033L356.795 538.834C357.721 535.226 358.966 531.71 360.489 528.302L339.186 518.782ZM354.188 495.504C348.083 502.408 342.982 510.251 339.178 518.8L360.497 528.284C363.306 521.972 367.095 516.132 371.668 510.96L354.188 495.504ZM423.472 464.333C395.898 464.333 371.084 476.403 354.189 495.503L371.667 510.962C384.3 496.679 402.832 487.667 423.472 487.667V464.333ZM432.829 464.801C429.749 464.492 426.627 464.333 423.472 464.333V487.667C425.846 487.667 428.188 487.786 430.495 488.018L432.829 464.801ZM657.543 464.743H431.662V488.076H657.543V464.743ZM658.509 464.737C658.14 464.737 657.772 464.739 657.405 464.744L657.681 488.075C657.956 488.072 658.232 488.07 658.509 488.07V464.737ZM658.51 464.737H658.509V488.07H658.51V464.737ZM658.515 464.737H658.51V488.07H658.515V464.737ZM658.517 464.737H658.515V488.07H658.517V464.737ZM660.055 464.744C659.51 464.737 658.973 464.737 658.517 464.737V488.07C658.998 488.07 659.39 488.071 659.765 488.075L660.055 464.744ZM665.411 464.743H659.91V488.076H665.411V464.743ZM667.305 487.954C667.578 487.888 667.851 487.822 668.124 487.756L662.697 465.063C662.385 465.137 662.074 465.213 661.763 465.289L667.305 487.954Z" fill="black" mask="url(#path-1-inside-1_4303_1789)"/>
<path d="M637.224 556.778C637.224 564.576 630.903 570.89 623.112 570.89C615.314 570.89 609 564.569 609 556.778C609 548.98 615.321 542.666 623.112 542.666C630.903 542.66 637.224 548.98 637.224 556.778Z" fill="white" stroke="black" stroke-width="4.99997"/>
<path d="M695.443 555.893C695.443 563.691 689.122 570.005 681.331 570.005C673.533 570.005 667.219 563.685 667.219 555.893C667.219 548.096 673.539 541.781 681.331 541.781C689.122 541.775 695.443 548.096 695.443 555.893Z" fill="white" stroke="black" stroke-width="4.99997"/>
<path d="M666.951 528.442C666.951 536.24 660.63 542.554 652.839 542.554C645.041 542.554 638.727 536.233 638.727 528.442C638.727 520.644 645.047 514.33 652.839 514.33C660.63 514.33 666.951 520.651 666.951 528.442Z" fill="white" stroke="black" stroke-width="4.99997"/>
<path d="M666.951 586.669C666.951 594.466 660.63 600.781 652.839 600.781C645.041 600.781 638.727 594.46 638.727 586.669C638.727 578.871 645.047 572.557 652.839 572.557C660.63 572.557 666.951 578.877 666.951 586.669Z" fill="white" stroke="black" stroke-width="4.99997"/>
<path fill-rule="evenodd" clip-rule="evenodd" d="M420.661 514.332C414.217 514.332 408.994 519.555 408.994 525.999V545.998L388.995 545.998C382.551 545.998 377.328 551.221 377.328 557.664C377.328 564.108 382.551 569.331 388.995 569.331H408.994V589.332C408.994 595.775 414.217 600.998 420.661 600.998C427.104 600.998 432.327 595.775 432.327 589.332V569.331H452.328C458.771 569.331 463.994 564.108 463.994 557.664C463.994 551.221 458.771 545.998 452.328 545.998L432.327 545.998V525.999C432.327 519.555 427.104 514.332 420.661 514.332Z" fill="white"/>
<path d="M408.994 545.998V548.498H411.494V545.998H408.994ZM388.995 545.998V543.498V545.998ZM377.328 557.664H374.828H377.328ZM408.994 569.331H411.494V566.831H408.994V569.331ZM432.327 569.331V566.831H429.827V569.331H432.327ZM452.328 545.998V548.498V545.998ZM432.327 545.998H429.827V548.498H432.327V545.998ZM411.494 525.999C411.494 520.936 415.598 516.832 420.661 516.832V511.832C412.837 511.832 406.494 518.175 406.494 525.999H411.494ZM411.494 545.998V525.999H406.494V545.998H411.494ZM388.995 548.498L408.994 548.498V543.498L388.995 543.498L388.995 548.498ZM379.828 557.664C379.828 552.602 383.932 548.498 388.995 548.498V543.498C381.171 543.498 374.828 549.84 374.828 557.664H379.828ZM388.995 566.831C383.932 566.831 379.828 562.727 379.828 557.664H374.828C374.828 565.488 381.171 571.831 388.995 571.831V566.831ZM408.994 566.831H388.995V571.831H408.994V566.831ZM411.494 589.332V569.331H406.494V589.332H411.494ZM420.661 598.498C415.598 598.498 411.494 594.394 411.494 589.332H406.494C406.494 597.156 412.837 603.498 420.661 603.498V598.498ZM429.827 589.332C429.827 594.394 425.723 598.498 420.661 598.498V603.498C428.484 603.498 434.827 597.156 434.827 589.332H429.827ZM429.827 569.331V589.332H434.827V569.331H429.827ZM452.328 566.831H432.327V571.831H452.328V566.831ZM461.494 557.664C461.494 562.727 457.39 566.831 452.328 566.831V571.831C460.152 571.831 466.494 565.488 466.494 557.664H461.494ZM452.328 548.498C457.39 548.498 461.494 552.602 461.494 557.664H466.494C466.494 549.84 460.152 543.498 452.328 543.498V548.498ZM432.327 548.498H452.328V543.498L432.327 543.498V548.498ZM429.827 525.999V545.998H434.827V525.999H429.827ZM420.661 516.832C425.723 516.832 429.827 520.936 429.827 525.999H434.827C434.827 518.175 428.484 511.832 420.661 511.832V516.832Z" fill="black"/>
</svg>
