<svg width="1080" height="1080" viewBox="0 0 1080 1080" fill="none" xmlns="http://www.w3.org/2000/svg">
<path d="M522.981 543.476C523.267 541.279 523.409 539.012 523.409 536.709C523.409 512.569 507.144 493 487.057 493C466.988 493.018 450.705 502.856 450.705 526.996C450.705 502.856 434.439 493.018 414.352 493.018C394.284 493.018 378 512.587 378 536.726C378 539.03 378.143 541.279 378.429 543.493C378.429 543.493 378 588.737 450.687 624.143C523.409 588.737 522.981 543.476 522.981 543.476Z" fill="#E84D4D"/>
<path d="M522.981 543.476L517.19 542.722L517.138 543.125L517.142 543.531L522.981 543.476ZM487.057 493V487.161L487.052 487.161L487.057 493ZM444.865 526.996C444.865 530.22 447.48 532.835 450.705 532.835C453.93 532.835 456.544 530.22 456.544 526.996H444.865ZM378.429 543.493L384.268 543.549L384.271 543.146L384.22 542.746L378.429 543.493ZM450.687 624.143L448.13 629.393L450.686 630.638L453.243 629.394L450.687 624.143ZM528.771 544.229C529.091 541.771 529.249 539.252 529.249 536.709H517.57C517.57 538.772 517.442 540.788 517.19 542.722L528.771 544.229ZM529.249 536.709C529.249 510.399 511.331 487.161 487.057 487.161V498.839C502.957 498.839 517.57 514.739 517.57 536.709H529.249ZM487.052 487.161C476.16 487.17 465.578 489.836 457.618 496.465C449.482 503.24 444.865 513.507 444.865 526.996H456.544C456.544 516.345 460.069 509.622 465.092 505.439C470.291 501.109 477.885 498.847 487.062 498.839L487.052 487.161ZM456.544 526.996C456.544 513.509 451.933 503.242 443.798 496.467C435.838 489.839 425.253 487.179 414.352 487.179V498.857C423.538 498.857 431.13 501.116 436.324 505.442C441.344 509.621 444.865 516.342 444.865 526.996H456.544ZM414.352 487.179C390.098 487.179 372.161 510.414 372.161 536.726H383.839C383.839 514.759 398.469 498.857 414.352 498.857V487.179ZM372.161 536.726C372.161 539.273 372.319 541.772 372.637 544.241L384.22 542.746C383.967 540.787 383.839 538.787 383.839 536.726H372.161ZM378.429 543.493C372.59 543.438 372.589 543.443 372.589 543.448C372.589 543.45 372.589 543.455 372.589 543.459C372.589 543.466 372.589 543.474 372.589 543.483C372.589 543.501 372.589 543.522 372.589 543.545C372.589 543.592 372.59 543.65 372.591 543.719C372.593 543.857 372.598 544.038 372.608 544.261C372.627 544.707 372.665 545.32 372.742 546.086C372.894 547.619 373.199 549.766 373.805 552.417C375.017 557.722 377.432 565.028 382.228 573.435C391.856 590.308 410.857 611.237 448.13 629.393L453.244 618.894C417.83 601.643 400.702 582.248 392.372 567.647C388.19 560.317 386.169 554.099 385.19 549.815C384.7 547.671 384.47 546.007 384.363 544.927C384.309 544.387 384.285 543.994 384.275 543.76C384.27 543.642 384.269 543.565 384.268 543.529C384.268 543.512 384.268 543.504 384.268 543.507C384.268 543.509 384.268 543.513 384.268 543.52C384.268 543.523 384.268 543.528 384.268 543.532C384.268 543.535 384.268 543.539 384.268 543.54C384.268 543.544 384.268 543.549 378.429 543.493ZM453.243 629.394C490.534 611.238 509.545 590.304 519.176 573.426C523.975 565.017 526.391 557.709 527.604 552.402C528.21 549.75 528.515 547.602 528.668 546.069C528.744 545.302 528.783 544.689 528.802 544.243C528.811 544.02 528.816 543.839 528.818 543.701C528.82 543.632 528.82 543.574 528.82 543.528C528.82 543.504 528.82 543.483 528.82 543.465C528.82 543.457 528.82 543.448 528.82 543.441C528.82 543.437 528.82 543.432 528.82 543.43C528.82 543.425 528.82 543.42 522.981 543.476C517.142 543.531 517.142 543.526 517.142 543.522C517.142 543.521 517.142 543.517 517.142 543.514C517.142 543.51 517.142 543.506 517.142 543.502C517.142 543.495 517.142 543.491 517.142 543.489C517.142 543.486 517.142 543.494 517.141 543.512C517.141 543.547 517.139 543.625 517.134 543.742C517.124 543.976 517.101 544.37 517.047 544.91C516.939 545.99 516.709 547.655 516.219 549.8C515.24 554.086 513.218 560.306 509.033 567.638C500.699 582.243 483.563 601.643 448.131 618.893L453.243 629.394Z" fill="black"/>
<path d="M704.571 543.476C704.857 541.279 704.999 539.012 704.999 536.709C704.999 512.569 688.734 493 668.647 493C648.578 493 632.295 502.838 632.295 526.978C632.295 502.838 616.029 493 595.942 493C575.873 493 559.59 512.569 559.59 536.709C559.59 539.012 559.733 541.262 560.018 543.476C560.018 543.476 559.59 588.72 632.277 624.126C704.999 588.737 704.571 543.476 704.571 543.476Z" fill="#E84D4D"/>
<path d="M704.571 543.476L698.78 542.722L698.728 543.125L698.732 543.531L704.571 543.476ZM626.455 526.978C626.455 530.203 629.07 532.817 632.295 532.817C635.52 532.817 638.134 530.203 638.134 526.978H626.455ZM560.018 543.476L565.857 543.531L565.861 543.128L565.81 542.728L560.018 543.476ZM632.277 624.126L629.72 629.375L632.275 630.62L634.832 629.376L632.277 624.126ZM710.361 544.229C710.681 541.771 710.839 539.252 710.839 536.709H699.16C699.16 538.772 699.032 540.788 698.78 542.722L710.361 544.229ZM710.839 536.709C710.839 510.399 692.921 487.161 668.647 487.161V498.839C684.547 498.839 699.16 514.739 699.16 536.709H710.839ZM668.647 487.161C657.754 487.161 647.17 489.822 639.209 496.449C631.072 503.222 626.455 513.489 626.455 526.978H638.134C638.134 516.326 641.659 509.605 646.681 505.424C651.879 501.097 659.471 498.839 668.647 498.839V487.161ZM638.134 526.978C638.134 513.491 633.523 503.224 625.387 496.449C617.428 489.821 606.843 487.161 595.942 487.161V498.839C605.128 498.839 612.719 501.098 617.914 505.424C622.933 509.603 626.455 516.324 626.455 526.978H638.134ZM595.942 487.161C571.688 487.161 553.751 510.397 553.751 536.709H565.429C565.429 514.741 580.059 498.839 595.942 498.839V487.161ZM553.751 536.709C553.751 539.255 553.909 541.754 554.227 544.223L565.81 542.728C565.557 540.769 565.429 538.769 565.429 536.709H553.751ZM560.018 543.476C554.179 543.42 554.179 543.425 554.179 543.43C554.179 543.432 554.179 543.437 554.179 543.441C554.179 543.448 554.179 543.457 554.179 543.465C554.179 543.483 554.179 543.504 554.179 543.527C554.179 543.574 554.18 543.632 554.181 543.701C554.183 543.839 554.188 544.02 554.197 544.243C554.217 544.689 554.255 545.302 554.331 546.068C554.484 547.601 554.789 549.748 555.395 552.399C556.607 557.705 559.022 565.01 563.818 573.417C573.445 590.29 592.447 611.22 629.72 629.375L634.834 618.876C599.42 601.626 582.292 582.23 573.962 567.63C569.78 560.3 567.759 554.081 566.78 549.797C566.29 547.653 566.06 545.989 565.952 544.909C565.899 544.37 565.875 543.976 565.865 543.742C565.86 543.625 565.858 543.547 565.858 543.512C565.858 543.494 565.858 543.486 565.858 543.489C565.858 543.491 565.858 543.495 565.858 543.502C565.858 543.506 565.858 543.51 565.857 543.514C565.857 543.517 565.857 543.521 565.857 543.522C565.857 543.526 565.857 543.531 560.018 543.476ZM634.832 629.376C672.123 611.23 691.134 590.301 700.766 573.425C705.565 565.016 707.981 557.709 709.194 552.402C709.8 549.75 710.105 547.602 710.258 546.069C710.334 545.302 710.373 544.689 710.392 544.243C710.401 544.02 710.406 543.839 710.408 543.701C710.409 543.632 710.41 543.574 710.41 543.528C710.41 543.504 710.41 543.483 710.41 543.465C710.41 543.457 710.41 543.448 710.41 543.441C710.41 543.437 710.41 543.432 710.41 543.43C710.41 543.425 710.41 543.42 704.571 543.476C698.732 543.531 698.732 543.526 698.732 543.522C698.732 543.521 698.732 543.517 698.732 543.514C698.732 543.51 698.732 543.506 698.732 543.502C698.732 543.495 698.732 543.491 698.732 543.489C698.732 543.486 698.732 543.494 698.731 543.512C698.731 543.547 698.729 543.625 698.724 543.742C698.714 543.976 698.691 544.37 698.637 544.91C698.529 545.99 698.299 547.655 697.809 549.8C696.83 554.085 694.808 560.305 690.623 567.635C682.289 582.238 665.153 601.633 629.722 618.875L634.832 629.376Z" fill="black"/>
</svg>
