<svg width="1080" height="1080" viewBox="0 0 1080 1080" fill="none" xmlns="http://www.w3.org/2000/svg">
<path d="M568.212 568.041C569.023 561.26 567.108 554.433 562.887 549.064C558.666 543.695 552.484 540.222 545.703 539.41C538.921 538.599 532.095 540.514 526.726 544.735C521.356 548.957 517.884 555.138 517.072 561.919" stroke="black" stroke-width="12.8762"/>
<circle cx="650.793" cy="555.233" r="83.6953" transform="rotate(6.82605 650.793 555.233)" fill="white" stroke="black" stroke-width="12.8762"/>
<circle cx="433.207" cy="558.366" r="83.6953" transform="rotate(6.82605 433.207 558.366)" fill="white" stroke="black" stroke-width="12.8762"/>
<path d="M438.798 614.58C428.193 614.569 418.025 610.314 410.526 602.748C403.027 595.182 398.809 584.925 398.798 574.225C398.809 563.525 403.027 553.266 410.525 545.699C418.024 538.131 428.192 533.874 438.798 533.859C452.397 533.859 463.455 545.016 463.455 558.736C463.455 572.455 452.397 583.611 438.798 583.611C436.33 583.611 433.964 582.623 432.219 580.862C430.475 579.102 429.494 576.715 429.494 574.225C429.494 571.736 430.475 569.349 432.219 567.588C433.964 565.828 436.33 564.839 438.798 564.839C440.34 564.747 441.79 564.064 442.85 562.929C443.909 561.795 444.5 560.294 444.5 558.736C444.5 557.177 443.909 555.676 442.85 554.542C441.79 553.407 440.34 552.724 438.798 552.632C433.125 552.64 427.687 554.918 423.676 558.966C419.666 563.014 417.411 568.502 417.405 574.225C417.405 586.122 427.006 595.808 438.798 595.808C459.064 595.808 475.544 579.181 475.544 558.736C475.544 538.29 459.064 521.663 438.798 521.663C424.986 521.68 411.745 527.224 401.98 537.077C392.215 546.931 386.723 560.291 386.709 574.225C386.709 576.715 385.728 579.102 383.984 580.862C382.239 582.623 379.873 583.611 377.405 583.611C374.938 583.611 372.571 582.623 370.827 580.862C369.082 579.102 368.102 576.715 368.102 574.225C368.121 555.314 375.576 537.183 388.829 523.81C402.083 510.437 420.053 502.913 438.798 502.891C469.324 502.891 494.151 527.938 494.151 558.736C494.151 589.533 469.335 614.58 438.798 614.58Z" fill="black"/>
<path d="M643.644 501.297C654.249 501.308 664.416 505.563 671.915 513.129C679.414 520.694 683.632 530.952 683.643 541.652C683.632 552.352 679.415 562.611 671.916 570.178C664.417 577.746 654.25 582.003 643.644 582.017C630.044 582.017 618.986 570.861 618.986 557.141C618.986 543.422 630.044 532.266 643.644 532.266C646.111 532.266 648.477 533.254 650.222 535.015C651.967 536.775 652.947 539.162 652.947 541.652C652.947 544.141 651.967 546.528 650.222 548.289C648.477 550.049 646.111 551.038 643.644 551.038C642.101 551.13 640.652 551.813 639.592 552.948C638.532 554.082 637.942 555.582 637.942 557.141C637.942 558.7 638.532 560.201 639.592 561.335C640.652 562.47 642.101 563.153 643.644 563.245C649.317 563.237 654.755 560.959 658.765 556.91C662.775 552.862 665.031 547.375 665.036 541.652C665.036 529.755 655.435 520.069 643.644 520.069C623.378 520.069 606.897 536.696 606.897 557.141C606.897 577.587 623.378 594.214 643.644 594.214C657.455 594.197 670.696 588.653 680.461 578.799C690.227 568.946 695.719 555.586 695.733 541.652C695.733 539.162 696.713 536.775 698.458 535.015C700.202 533.254 702.569 532.266 705.036 532.266C707.504 532.266 709.87 533.254 711.615 535.015C713.36 536.775 714.34 539.162 714.34 541.652C714.32 560.563 706.866 578.694 693.612 592.067C680.359 605.44 662.388 612.964 643.644 612.986C613.117 612.986 588.29 587.939 588.29 557.141C588.29 526.344 613.107 501.297 643.644 501.297Z" fill="black"/>
</svg>
