<svg width="1080" height="1080" viewBox="0 0 1080 1080" fill="none" xmlns="http://www.w3.org/2000/svg">
<path d="M362.643 562.265C352.985 552.949 345.499 541.31 348.786 528.364C349.007 527.397 350.206 526.052 350.778 525.5C359.44 518.443 373.273 516.649 384.371 514.887C400.279 512.369 417.088 512.564 433.093 514.336C448.762 516.044 464.454 519.577 479.307 524.43C486.026 526.624 499.355 531.368 499.355 531.368C503.413 532.787 514.493 537.858 515.142 545.39C515.358 547.897 515.574 548.942 515.142 551.416C514.578 554.637 514.298 558.196 510.077 570.248C505.856 582.3 496.608 590.136 496.608 590.136C485.558 601.732 465.558 604.185 449.493 603.191C431.341 602.067 413.753 596.242 398.3 587.726C385.558 580.702 372.853 572.121 362.643 562.265Z" fill="#333333" stroke="black" stroke-width="11.7174"/>
<path d="M718.357 562.265C728.015 552.949 735.501 541.31 732.214 528.364C731.993 527.397 730.794 526.052 730.222 525.5C721.56 518.443 707.727 516.649 696.629 514.887C680.721 512.369 663.912 512.564 647.907 514.336C632.238 516.044 616.546 519.577 601.693 524.43C594.974 526.624 581.645 531.368 581.645 531.368C577.587 532.787 566.507 537.858 565.858 545.39C565.642 547.897 565.426 548.942 565.858 551.416C566.422 554.637 566.702 558.196 570.923 570.248C575.144 582.3 584.392 590.136 584.392 590.136C595.442 601.732 615.442 604.185 631.507 603.191C649.659 602.067 667.247 596.242 682.7 587.726C695.442 580.702 708.147 572.121 718.357 562.265Z" fill="#333333" stroke="black" stroke-width="11.7174"/>
<path d="M515.395 550.662C524.601 557.079 553.058 562.045 566.449 550.662" stroke="black" stroke-width="15.0652" stroke-linejoin="round"/>
</svg>
