<svg width="1080" height="1080" viewBox="0 0 1080 1080" fill="none" xmlns="http://www.w3.org/2000/svg">
<path d="M588.557 564.102H567.025C567.025 558.364 555.62 551.684 540.905 551.684C526.19 551.684 514.786 558.364 514.786 564.102H493.254C493.254 545.945 514.196 531.735 540.905 531.735C567.615 531.735 588.557 545.945 588.557 564.102Z" fill="black"/>
<path fill-rule="evenodd" clip-rule="evenodd" d="M408.538 532.035C408.227 528.289 405.384 517.368 397.726 501.767C390.078 486.167 396.225 476.658 407.915 477.22C419.615 477.783 418.094 467 427.613 467C437.131 467 435.611 477.783 447.301 477.22C458.991 476.658 465.147 486.167 457.489 501.767C449.841 517.368 446.998 528.289 446.677 532.035C443.911 565.2 411.314 565.2 408.538 532.035Z" fill="#409B1B" stroke="black" stroke-width="12.5872"/>
<path fill-rule="evenodd" clip-rule="evenodd" d="M427.511 508.916C473.62 508.916 510.997 539.824 510.997 577.954C510.997 616.083 514.788 646.991 427.511 646.991C340.233 646.991 344.024 616.083 344.024 577.954C344.024 539.824 381.402 508.916 427.511 508.916Z" fill="#409B1B" stroke="black" stroke-width="12.5872"/>
<path fill-rule="evenodd" clip-rule="evenodd" d="M388.815 498.589H466.21C469.164 498.589 471.588 500.157 471.588 502.068C471.588 503.98 469.164 505.548 466.21 505.548H388.815C385.861 505.548 383.438 503.98 383.438 502.068C383.438 500.157 385.861 498.589 388.815 498.589Z" fill="black"/>
<path fill-rule="evenodd" clip-rule="evenodd" d="M388.815 505.544H466.21C469.164 505.544 471.588 507.112 471.588 509.024C471.588 510.935 469.164 512.503 466.21 512.503H388.815C385.861 512.503 383.438 510.935 383.438 509.024C383.438 507.112 385.861 505.544 388.815 505.544Z" fill="black"/>
<path d="M436.504 541.327C440.308 542.201 443.479 543.643 446.019 545.654C449.545 548.464 451.794 552.212 452.779 556.918L438.513 558.476C438.122 556.812 437.452 555.391 436.517 554.212V541.327H436.504ZM436.504 570.529C442.974 572.372 447.536 574.614 450.176 577.246C453.449 580.488 455.079 584.636 455.079 589.721C455.079 595.384 453.02 600.164 448.913 604.048C445.729 607.059 441.584 609.154 436.492 610.365V599.174C437.262 598.721 437.97 598.174 438.614 597.553C440.383 595.805 441.268 593.763 441.268 591.405C441.268 589.299 440.522 587.51 439.031 585.983C438.374 585.31 437.528 584.699 436.492 584.162V570.529H436.504ZM423.565 600.153V580.467C422.289 580.162 421.076 579.835 419.926 579.478V565.255C420.937 565.95 422.137 566.561 423.565 567.066V550.801C422.162 551.191 420.962 551.759 419.926 552.496V541.043C421.088 540.821 422.301 540.664 423.565 540.558V535.905H431.728V540.558C433.421 540.727 435.013 540.99 436.504 541.337V554.223C435.342 552.77 433.75 551.686 431.728 550.959V569.329C433.421 569.708 435.013 570.119 436.504 570.54V584.183C435.203 583.509 433.611 582.952 431.728 582.509V600.827C433.535 600.553 435.127 600.006 436.504 599.195V610.386C435.001 610.743 433.408 611.028 431.728 611.228V620.018H423.565V611.449C422.301 611.322 421.088 611.144 419.926 610.912V598.016C421.063 598.911 422.276 599.637 423.565 600.153ZM419.926 579.478C414.378 577.762 410.183 575.446 407.328 572.498C403.903 568.94 402.172 564.624 402.172 559.549C402.172 554.412 404.118 550.096 408.01 546.601C411.156 543.79 415.124 541.937 419.926 541.043V552.496C419.307 552.938 418.751 553.433 418.245 553.991C416.931 555.496 416.274 557.17 416.274 558.981C416.274 560.634 416.868 562.192 418.068 563.602C418.574 564.203 419.193 564.75 419.913 565.255V579.478H419.926ZM419.926 610.891C415.061 609.933 410.979 608.091 407.694 605.364C403.625 601.995 401.047 597.216 399.91 591.036L414.644 589.721C415.238 592.226 416.375 594.384 418.03 596.205C418.637 596.869 419.256 597.469 419.913 598.006V610.891H419.926Z" fill="white"/>
<path fill-rule="evenodd" clip-rule="evenodd" d="M633.695 532.035C633.375 528.289 630.456 517.368 622.591 501.767C614.736 486.167 621.049 476.658 633.055 477.22C645.071 477.783 643.51 467 653.285 467C663.061 467 661.499 477.783 673.505 477.22C685.511 476.658 691.834 486.167 683.969 501.767C676.114 517.368 673.195 528.289 672.865 532.035C670.024 565.2 636.546 565.2 633.695 532.035Z" fill="#409B1B" stroke="black" stroke-width="12.5872"/>
<path fill-rule="evenodd" clip-rule="evenodd" d="M652.491 508.916C698.6 508.916 735.978 539.824 735.978 577.954C735.978 616.083 739.769 646.991 652.491 646.991C565.214 646.991 569.005 616.083 569.005 577.954C569.005 539.824 606.382 508.916 652.491 508.916Z" fill="#409B1B" stroke="black" stroke-width="12.5872"/>
<path fill-rule="evenodd" clip-rule="evenodd" d="M613.796 498.589H691.191C694.145 498.589 696.568 500.157 696.568 502.068C696.568 503.98 694.145 505.548 691.191 505.548H613.796C610.841 505.548 608.418 503.98 608.418 502.068C608.418 500.157 610.841 498.589 613.796 498.589Z" fill="black"/>
<path fill-rule="evenodd" clip-rule="evenodd" d="M613.796 505.544H691.191C694.145 505.544 696.568 507.112 696.568 509.024C696.568 510.935 694.145 512.503 691.191 512.503H613.796C610.841 512.503 608.418 510.935 608.418 509.024C608.418 507.112 610.841 505.544 613.796 505.544Z" fill="black"/>
<path d="M661.485 541.327C665.288 542.201 668.46 543.643 671 545.654C674.525 548.464 676.774 552.212 677.76 556.918L663.494 558.476C663.102 556.812 662.432 555.391 661.497 554.212V541.327H661.485ZM661.485 570.529C667.954 572.372 672.516 574.614 675.157 577.246C678.43 580.488 680.06 584.636 680.06 589.721C680.06 595.384 678 600.164 673.893 604.048C670.709 607.059 666.564 609.154 661.472 610.365V599.174C662.243 598.721 662.95 598.174 663.595 597.553C665.364 595.805 666.248 593.763 666.248 591.405C666.248 589.299 665.503 587.51 664.012 585.983C663.355 585.31 662.508 584.699 661.472 584.162V570.529H661.485ZM648.545 600.153V580.467C647.269 580.162 646.056 579.835 644.906 579.478V565.255C645.917 565.95 647.117 566.561 648.545 567.066V550.801C647.143 551.191 645.942 551.759 644.906 552.496V541.043C646.069 540.821 647.282 540.664 648.545 540.558V535.905H656.708V540.558C658.401 540.727 659.994 540.99 661.485 541.337V554.223C660.322 552.77 658.73 551.686 656.708 550.959V569.329C658.401 569.708 659.994 570.119 661.485 570.54V584.183C660.183 583.509 658.591 582.952 656.708 582.509V600.827C658.515 600.553 660.107 600.006 661.485 599.195V610.386C659.981 610.743 658.389 611.028 656.708 611.228V620.018H648.545V611.449C647.282 611.322 646.069 611.144 644.906 610.912V598.016C646.043 598.911 647.256 599.637 648.545 600.153ZM644.906 579.478C639.359 577.762 635.164 575.446 632.308 572.498C628.884 568.94 627.152 564.624 627.152 559.549C627.152 554.412 629.098 550.096 632.99 546.601C636.137 543.79 640.104 541.937 644.906 541.043V552.496C644.287 552.938 643.731 553.433 643.226 553.991C641.911 555.496 641.254 557.17 641.254 558.981C641.254 560.634 641.848 562.192 643.049 563.602C643.554 564.203 644.173 564.75 644.894 565.255V579.478H644.906ZM644.906 610.891C640.041 609.933 635.96 608.091 632.674 605.364C628.606 601.995 626.028 597.216 624.891 591.036L639.624 589.721C640.218 592.226 641.355 594.384 643.011 596.205C643.617 596.869 644.236 597.469 644.894 598.006V610.891H644.906Z" fill="white"/>
</svg>
