<svg width="1080" height="1080" viewBox="0 0 1080 1080" fill="none" xmlns="http://www.w3.org/2000/svg">
<path fill-rule="evenodd" clip-rule="evenodd" d="M602.517 502.591C615.857 494.223 631.916 489.34 649.196 489.34C695.479 489.34 733 524.37 733 567.58C733 610.791 695.479 645.82 649.196 645.82C610.431 645.82 577.814 621.248 568.239 587.877C560.866 584.171 552.359 581.359 542.574 581.03C531.218 580.647 521.184 584.169 512.47 588.862C502.541 621.731 470.186 645.82 431.804 645.82C385.52 645.82 348 610.791 348 567.58C348 524.37 385.52 489.34 431.804 489.34C449.641 489.34 466.176 494.543 479.764 503.411C492.339 479.246 515.759 463 542.574 463C569.085 463 590.826 478.879 602.517 502.591Z" fill="#575D74"/>
<path d="M602.517 502.591L597.502 505.064L600.241 510.619L605.488 507.328L602.517 502.591ZM568.239 587.877L573.614 586.335L572.938 583.981L570.75 582.881L568.239 587.877ZM542.574 581.03L542.763 575.441L542.574 581.03ZM512.47 588.862L509.819 583.94L507.786 585.035L507.118 587.246L512.47 588.862ZM479.764 503.411L476.708 508.094L481.876 511.466L484.724 505.992L479.764 503.411ZM649.196 483.749C630.855 483.749 613.768 488.933 599.546 497.855L605.488 507.328C617.946 499.513 632.976 494.932 649.196 494.932V483.749ZM738.591 567.58C738.591 520.926 698.199 483.749 649.196 483.749V494.932C692.759 494.932 727.408 527.813 727.408 567.58H738.591ZM649.196 651.412C698.199 651.412 738.591 614.235 738.591 567.58H727.408C727.408 607.348 692.759 640.229 649.196 640.229V651.412ZM562.865 589.419C573.172 625.342 608.101 651.412 649.196 651.412V640.229C612.761 640.229 582.456 617.155 573.614 586.335L562.865 589.419ZM570.75 582.881C562.841 578.906 553.54 575.805 542.763 575.441L542.386 586.618C551.178 586.914 558.892 589.436 565.728 592.873L570.75 582.881ZM542.763 575.441C530.096 575.014 519.069 578.958 509.819 583.94L515.121 593.785C523.3 589.38 532.34 586.279 542.386 586.618L542.763 575.441ZM431.804 651.412C472.495 651.412 507.137 625.853 517.823 590.479L507.118 587.246C497.946 617.608 467.877 640.229 431.804 640.229V651.412ZM342.409 567.58C342.409 614.235 382.8 651.412 431.804 651.412V640.229C388.24 640.229 353.591 607.348 353.591 567.58H342.409ZM431.804 483.749C382.8 483.749 342.409 520.926 342.409 567.58H353.591C353.591 527.813 388.24 494.932 431.804 494.932V483.749ZM482.82 498.729C468.332 489.273 450.736 483.749 431.804 483.749V494.932C448.546 494.932 464.021 499.813 476.708 508.094L482.82 498.729ZM484.724 505.992C496.485 483.392 518.147 468.591 542.574 468.591V457.409C513.371 457.409 488.193 475.1 474.804 500.831L484.724 505.992ZM542.574 468.591C566.615 468.591 586.592 482.935 597.502 505.064L607.532 500.119C595.061 474.824 571.556 457.409 542.574 457.409V468.591Z" fill="black"/>
<circle cx="431.899" cy="567.649" r="50.3525" fill="#386D1B" stroke="#242424" stroke-width="9.58505"/>
<g filter="url(#filter0_f_4304_1969)">
<path d="M469.393 568.722C469.393 588.558 453.19 604.653 433.22 604.653C413.251 604.653 397.047 588.558 397.047 568.722C397.047 548.861 413.251 532.791 433.22 532.791C453.19 532.765 469.393 548.861 469.393 568.722Z" fill="#59C121"/>
</g>
<g filter="url(#filter1_f_4304_1969)">
<path d="M450.507 567.312C450.507 576.804 442.769 584.491 433.213 584.491C423.656 584.491 415.918 576.804 415.918 567.312C415.918 557.819 423.656 550.133 433.213 550.133C442.769 550.133 450.507 557.819 450.507 567.312Z" fill="#62DE63"/>
</g>
<circle cx="651.52" cy="567.624" r="50.3525" fill="#386D1B" stroke="#242424" stroke-width="9.58505"/>
<g filter="url(#filter2_f_4304_1969)">
<path d="M687.456 568.697C687.456 588.533 671.252 604.628 651.283 604.628C631.313 604.628 615.109 588.533 615.109 568.697C615.109 548.835 631.313 532.766 651.283 532.766C671.252 532.74 687.456 548.835 687.456 568.697Z" fill="#59C121"/>
</g>
<g filter="url(#filter3_f_4304_1969)">
<path d="M668.574 567.287C668.574 576.779 660.835 584.466 651.279 584.466C641.723 584.466 633.984 576.779 633.984 567.287C633.984 557.795 641.723 550.108 651.279 550.108C660.835 550.108 668.574 557.795 668.574 567.287Z" fill="#62DE63"/>
</g>
<circle cx="542.002" cy="518.873" r="26.3382" fill="#386D1B" stroke="#242424" stroke-width="9.58505"/>
<g filter="url(#filter4_f_4304_1969)">
<path d="M560.594 518.883C560.594 529.146 552.265 537.474 542.002 537.474C531.738 537.474 523.41 529.146 523.41 518.883C523.41 508.606 531.738 500.291 542.002 500.291C552.265 500.278 560.594 508.606 560.594 518.883Z" fill="#59C121"/>
</g>
<g filter="url(#filter5_f_4304_1969)">
<path d="M551.295 518.105C551.295 522.814 547.135 526.626 541.999 526.626C536.863 526.626 532.703 522.814 532.703 518.105C532.703 513.397 536.863 509.584 541.999 509.584C547.135 509.584 551.295 513.397 551.295 518.105Z" fill="#62DE63"/>
</g>
<defs>
<filter id="filter0_f_4304_1969" x="381.072" y="516.816" width="104.298" height="103.812" filterUnits="userSpaceOnUse" color-interpolation-filters="sRGB">
<feFlood flood-opacity="0" result="BackgroundImageFix"/>
<feBlend mode="normal" in="SourceGraphic" in2="BackgroundImageFix" result="shape"/>
<feGaussianBlur stdDeviation="7.98754" result="effect1_foregroundBlur_4304_1969"/>
</filter>
<filter id="filter1_f_4304_1969" x="409.528" y="543.743" width="47.3699" height="47.1375" filterUnits="userSpaceOnUse" color-interpolation-filters="sRGB">
<feFlood flood-opacity="0" result="BackgroundImageFix"/>
<feBlend mode="normal" in="SourceGraphic" in2="BackgroundImageFix" result="shape"/>
<feGaussianBlur stdDeviation="3.19502" result="effect1_foregroundBlur_4304_1969"/>
</filter>
<filter id="filter2_f_4304_1969" x="599.134" y="516.791" width="104.298" height="103.812" filterUnits="userSpaceOnUse" color-interpolation-filters="sRGB">
<feFlood flood-opacity="0" result="BackgroundImageFix"/>
<feBlend mode="normal" in="SourceGraphic" in2="BackgroundImageFix" result="shape"/>
<feGaussianBlur stdDeviation="7.98754" result="effect1_foregroundBlur_4304_1969"/>
</filter>
<filter id="filter3_f_4304_1969" x="627.594" y="543.718" width="47.3699" height="47.1375" filterUnits="userSpaceOnUse" color-interpolation-filters="sRGB">
<feFlood flood-opacity="0" result="BackgroundImageFix"/>
<feBlend mode="normal" in="SourceGraphic" in2="BackgroundImageFix" result="shape"/>
<feGaussianBlur stdDeviation="3.19502" result="effect1_foregroundBlur_4304_1969"/>
</filter>
<filter id="filter4_f_4304_1969" x="507.435" y="484.316" width="69.1338" height="69.1338" filterUnits="userSpaceOnUse" color-interpolation-filters="sRGB">
<feFlood flood-opacity="0" result="BackgroundImageFix"/>
<feBlend mode="normal" in="SourceGraphic" in2="BackgroundImageFix" result="shape"/>
<feGaussianBlur stdDeviation="7.98754" result="effect1_foregroundBlur_4304_1969"/>
</filter>
<filter id="filter5_f_4304_1969" x="526.313" y="503.194" width="31.3699" height="29.8221" filterUnits="userSpaceOnUse" color-interpolation-filters="sRGB">
<feFlood flood-opacity="0" result="BackgroundImageFix"/>
<feBlend mode="normal" in="SourceGraphic" in2="BackgroundImageFix" result="shape"/>
<feGaussianBlur stdDeviation="3.19502" result="effect1_foregroundBlur_4304_1969"/>
</filter>
</defs>
</svg>
