<svg width="1080" height="1080" viewBox="0 0 1080 1080" fill="none" xmlns="http://www.w3.org/2000/svg">
<path d="M666.988 465.652L624.042 513.055L560.672 504.569L592.478 560.049L564.812 617.7L627.403 604.592L673.691 648.726L680.561 585.133L736.839 554.757L678.482 528.559L666.988 465.652Z" fill="#FF5A20"/>
<path d="M413.132 465.652L456.078 513.055L519.448 504.569L487.642 560.049L515.308 617.7L452.717 604.592L406.429 648.726L399.559 585.133L343.281 554.757L401.62 528.559L413.132 465.652Z" fill="#FF5A20"/>
<path d="M406.428 655.001C405.704 655.001 404.98 654.871 404.274 654.611C402.028 653.794 400.449 651.77 400.189 649.394L393.672 589.087L340.291 560.27C338.193 559.138 336.912 556.91 337.005 554.515C337.098 552.119 338.527 550.003 340.7 549.019L396.03 524.176L406.948 464.519C407.375 462.161 409.102 460.267 411.404 459.617C413.706 458.948 416.176 459.673 417.773 461.436L458.491 506.388L518.612 498.33C520.989 498.014 523.328 499.072 524.665 501.059C526.002 503.046 526.095 505.608 524.906 507.688L494.734 560.308L520.97 614.988C522.01 617.142 521.731 619.704 520.246 621.58C518.779 623.455 516.347 624.346 514.026 623.845L454.666 611.405L410.773 653.256C409.566 654.388 408.006 655.001 406.428 655.001ZM357.447 555.276L402.529 579.618C404.348 580.602 405.574 582.421 405.778 584.464L411.293 635.394L448.372 600.042C449.876 598.612 451.974 598.018 453.998 598.445L504.148 608.954L481.979 562.758C481.087 560.902 481.162 558.711 482.201 556.928L507.694 512.478L456.913 519.274C454.87 519.552 452.809 518.791 451.435 517.268L417.03 479.298L407.802 529.69C407.431 531.714 406.075 533.441 404.2 534.276L357.447 555.276Z" fill="black"/>
<path d="M678.217 653.755C676.713 653.755 675.228 653.217 674.058 652.177L628.587 612.035L569.747 626.74C567.426 627.315 564.975 626.536 563.434 624.716C561.893 622.896 561.503 620.353 562.469 618.162L586.588 562.515L554.429 511.102C553.166 509.079 553.148 506.498 554.41 504.474C555.673 502.432 557.975 501.299 560.352 501.522L620.733 507.278L659.706 460.804C661.247 458.984 663.679 458.167 666 458.743C668.321 459.3 670.122 461.138 670.642 463.477L683.825 522.67L740.065 545.359C742.275 546.25 743.797 548.33 743.983 550.707C744.169 553.083 742.98 555.367 740.919 556.592L688.689 587.433L684.493 647.944C684.326 650.339 682.822 652.419 680.613 653.31C679.833 653.588 679.034 653.755 678.217 653.755ZM630.277 598.87C631.799 598.87 633.266 599.409 634.436 600.449L672.851 634.353L676.398 583.237C676.546 581.176 677.698 579.319 679.461 578.261L723.577 552.211L676.064 533.049C674.151 532.269 672.74 530.617 672.276 528.593L661.135 478.591L628.216 517.842C626.897 519.421 624.873 520.256 622.812 520.071L571.808 515.206L598.972 558.635C600.067 560.38 600.235 562.571 599.418 564.465L579.031 611.478L628.735 599.056C629.255 598.926 629.775 598.87 630.277 598.87Z" fill="black"/>
<path d="M497.421 549.259C495.082 549.259 492.835 547.94 491.758 545.675C490.273 542.556 491.591 538.805 494.729 537.301C546.829 512.458 583.76 536.726 585.319 537.765C588.197 539.696 588.94 543.614 587.009 546.473C585.078 549.333 581.179 550.094 578.319 548.182C576.945 547.272 545.474 527.015 500.151 548.627C499.26 549.054 498.331 549.259 497.421 549.259Z" fill="black"/>
</svg>
