<svg width="1080" height="1080" viewBox="0 0 1080 1080" fill="none" xmlns="http://www.w3.org/2000/svg">
<path d="M350.772 509.853H357.588V541.209H350.772C345.817 541.209 341.792 537.183 341.792 532.237V518.824C341.792 513.878 345.817 509.853 350.772 509.853Z" fill="#3A3A3A" stroke="black" stroke-width="7.58386"/>
<path d="M730.229 509.878C735.184 509.878 739.209 513.903 739.209 518.85V532.263C739.209 537.209 735.184 541.234 730.229 541.234H723.413V509.878H730.229Z" fill="#3A3A3A" stroke="black" stroke-width="7.58386"/>
<path d="M373.116 499.493H373.118L540.454 501.776L540.502 501.777L540.551 501.776L707.862 499.806H707.871C717.383 499.67 724.837 507.892 723.772 517.293V517.301L719.515 555.638C716.796 579.998 699.368 600.363 675.732 606.081L674.603 606.343C662.95 608.907 651.016 610.258 639.009 610.923C626.093 611.623 614.243 613.116 603.755 608.05L603.751 608.048L603.235 607.793C597.949 605.108 593.849 600.849 590.226 595.68C586.422 590.253 583.412 584.252 579.982 578.182C574.049 567.682 568.269 556.226 561.894 545.599L561.892 545.596C559.253 541.205 556.197 538.394 553.044 536.735C550.094 535.184 547.248 534.741 544.909 534.781L544.448 534.795C541.841 534.909 539.268 534.886 536.682 534.705H536.681C534.262 534.522 531.208 534.826 528.021 536.432C524.813 538.048 521.716 540.86 519.048 545.308C512.706 555.862 507.001 567.153 501.122 577.611C497.803 583.51 494.75 589.614 490.925 595.199C487.145 600.719 482.905 605.256 477.604 607.936L477.601 607.938C472.663 610.441 466.808 611.35 460.441 611.482C454.014 611.617 447.588 610.971 441.238 610.61H441.235C430.149 609.987 419.091 608.72 408.282 606.47L406.123 606.007C382.411 600.734 364.77 580.739 361.612 556.623L361.473 555.471L357.191 517.012C356.145 507.576 363.609 499.357 373.116 499.493Z" fill="url(#paint0_linear_4304_1930)" stroke="black" stroke-width="7.58386"/>
<mask id="path-4-inside-1_4304_1930" fill="white">
<path d="M542.765 498.736H538.215V536.656H542.765V498.736Z"/>
</mask>
<path d="M542.765 498.736H538.215V536.656H542.765V498.736Z" fill="#3A3A3A"/>
<path d="M538.215 498.736V483.736H523.215V498.736H538.215ZM542.765 498.736H557.765V483.736H542.765V498.736ZM542.765 536.656V551.656H557.765V536.656H542.765ZM538.215 536.656H523.215V551.656H538.215V536.656ZM538.215 513.736H542.765V483.736H538.215V513.736ZM527.765 498.736V536.656H557.765V498.736H527.765ZM542.765 521.656H538.215V551.656H542.765V521.656ZM553.215 536.656V498.736H523.215V536.656H553.215Z" fill="black" mask="url(#path-4-inside-1_4304_1930)"/>
<defs>
<linearGradient id="paint0_linear_4304_1930" x1="344.071" y1="544.238" x2="717.197" y2="548.03" gradientUnits="userSpaceOnUse">
<stop stop-color="#2400FF"/>
<stop offset="0.135793" stop-color="#009688"/>
<stop offset="0.241535" stop-color="#EDDA48"/>
<stop offset="0.385726" stop-color="#E84D1F"/>
<stop offset="0.515625" stop-color="#E50E0E"/>
<stop offset="0.639765" stop-color="#E7491D"/>
<stop offset="0.816741" stop-color="#EDDA48"/>
<stop offset="0.906204" stop-color="#009688"/>
<stop offset="1" stop-color="#1932D8"/>
</linearGradient>
</defs>
</svg>
