<svg width="1080" height="1080" viewBox="0 0 1080 1080" fill="none" xmlns="http://www.w3.org/2000/svg">
<path d="M389.439 485.4H490.168C502.54 485.4 513.489 490.586 520.449 499.383C522.113 501.66 523.552 503.986 524.686 506.536L526.457 510.522L530.727 509.629C537.224 508.269 543.849 508.274 550.146 509.623L554.432 510.542L556.212 506.536C557.352 503.971 558.781 501.677 560.53 499.49L560.562 499.452L560.592 499.413C567.36 490.629 578.299 485.4 590.897 485.4H691.626C703.709 485.4 714.988 490.469 722.674 499.029C730.136 507.527 733.746 519.351 732.277 531.455L723.736 582.866L723.717 582.981L723.703 583.098C720.85 606.523 699.191 625.693 674.838 625.693H624.474C600.768 625.693 577.402 607.406 571.624 584.447L571.575 584.253L571.512 584.063L556.402 538.567L555.862 536.939L554.48 535.922L554.09 535.641C545.838 529.819 534.572 529.913 526.417 535.922L525.033 536.941L524.494 538.573L509.049 585.244L508.983 585.439L508.935 585.64C503.503 607.514 480.362 625.693 456.592 625.693H406.228C381.762 625.693 360.213 606.575 357.192 582.409L357.179 582.299L357.16 582.188L348.785 532.104C347.151 519.303 350.789 507.509 358.373 499.05C366.059 490.477 377.347 485.4 389.439 485.4Z" fill="#A614BE" stroke="black" stroke-width="10.8008"/>
<path fill-rule="evenodd" clip-rule="evenodd" d="M498.741 530.251C493.686 574.015 487.972 605.058 444.426 603.372C417.722 602.323 387.963 605.828 382.823 585.908C380.972 578.737 377.866 569.514 376.214 556.428C375.812 553.24 373.211 537.305 374.011 531.727C378.431 501.01 400.446 506.689 434.506 506.724C451.8 506.745 468.868 505.287 486.143 507.286C498.458 508.702 499.212 522.881 498.741 530.251Z" fill="#030303"/>
<path d="M371.305 528.334C405.533 528.334 439.78 528.334 474.008 528.334C483.637 528.334 493.267 528.334 502.897 528.334C508.527 528.334 508.527 518.965 502.897 518.965C468.902 518.965 434.887 518.965 400.892 518.965C391.03 518.965 381.167 518.965 371.305 518.965C365.674 518.965 365.674 528.334 371.305 528.334Z" fill="#A614BE"/>
<path d="M367.289 548.301C401.73 548.301 436.171 548.301 470.613 548.301C480.475 548.301 490.338 548.301 500.201 548.301C505.831 548.301 505.831 538.932 500.201 538.932C465.759 538.932 431.318 538.932 396.876 538.932C387.014 538.932 377.151 538.932 367.289 538.932C361.658 538.932 361.639 548.301 367.289 548.301Z" fill="#A614BE"/>
<path d="M369.969 568.916C403.769 568.916 437.551 568.916 471.352 568.916C480.981 568.916 490.591 568.916 500.221 568.916C505.851 568.916 505.851 559.547 500.221 559.547C466.42 559.547 432.639 559.547 398.838 559.547C389.209 559.547 379.598 559.547 369.969 559.547C364.339 559.547 364.339 568.916 369.969 568.916Z" fill="#A614BE"/>
<path d="M371.303 589.922C403.279 589.922 435.274 589.922 467.25 589.922C476.433 589.922 485.636 589.922 494.819 589.922C500.449 589.922 500.449 580.553 494.819 580.553C462.61 580.553 430.382 580.553 398.173 580.553C389.203 580.553 380.253 580.553 371.284 580.553C365.673 580.553 365.673 589.922 371.303 589.922Z" fill="#A614BE"/>
<path fill-rule="evenodd" clip-rule="evenodd" d="M583.802 530.251C588.857 574.015 594.571 605.058 638.117 603.372C664.821 602.323 694.58 605.828 699.72 585.908C701.571 578.737 704.677 569.514 706.329 556.428C706.731 553.24 709.332 537.305 708.532 531.727C704.112 501.01 682.097 506.689 648.037 506.724C630.743 506.745 613.675 505.287 596.4 507.286C584.085 508.702 583.331 522.881 583.802 530.251Z" fill="#030303"/>
<path d="M711.238 528.334C677.01 528.334 642.763 528.334 608.535 528.334C598.906 528.334 589.276 528.334 579.646 528.334C574.016 528.334 574.016 518.965 579.646 518.965C613.641 518.965 647.656 518.965 681.651 518.965C691.513 518.965 701.376 518.965 711.238 518.965C716.868 518.965 716.868 528.334 711.238 528.334Z" fill="#A614BE"/>
<path d="M715.254 548.301C680.813 548.301 646.372 548.301 611.93 548.301C602.068 548.301 592.205 548.301 582.342 548.301C576.712 548.301 576.712 538.932 582.342 538.932C616.784 538.932 651.225 538.932 685.667 538.932C695.529 538.932 705.392 538.932 715.254 538.932C720.885 538.932 720.904 548.301 715.254 548.301Z" fill="#A614BE"/>
<path d="M712.574 568.916C678.773 568.916 644.992 568.916 611.191 568.916C601.562 568.916 591.952 568.916 582.322 568.916C576.692 568.916 576.692 559.547 582.322 559.547C616.123 559.547 649.904 559.547 683.705 559.547C693.334 559.547 702.945 559.547 712.574 559.547C718.204 559.547 718.204 568.916 712.574 568.916Z" fill="#A614BE"/>
<path d="M711.24 589.922C679.264 589.922 647.269 589.922 615.293 589.922C606.11 589.922 596.907 589.922 587.724 589.922C582.094 589.922 582.094 580.553 587.724 580.553C619.933 580.553 652.161 580.553 684.37 580.553C693.34 580.553 702.29 580.553 711.259 580.553C716.87 580.553 716.87 589.922 711.24 589.922Z" fill="#A614BE"/>
</svg>
