<svg width="1080" height="1080" viewBox="0 0 1080 1080" fill="none" xmlns="http://www.w3.org/2000/svg">
<path d="M743.74 526.838L731.279 610.828L631.384 612.622L624.337 612.701L607.555 612.981L587.383 613.362L574.257 613.6L556.13 572.938L527.87 572.743L509.19 613.151L418.734 610.305L411.885 610.063L395.367 609.562L375.521 608.97L352.154 608.226L340.917 524.071C340.917 524.071 369.125 513.818 414.161 505.059C420.956 503.665 428.081 502.417 435.602 501.227C441.351 500.284 447.238 499.415 453.372 498.604C455.726 498.231 458.146 497.921 460.629 497.609C485.462 494.516 513.149 492.551 542.525 492.752C574.05 492.965 603.545 495.653 629.688 499.556C636.206 500.452 642.537 501.469 648.6 502.563C654.012 503.454 659.226 504.464 664.247 505.478C666.464 505.883 668.619 506.352 670.698 506.758C715.672 516.135 743.74 526.838 743.74 526.838Z" fill="#8B68C4" stroke="black" stroke-width="11.1206"/>
</svg>
