<svg width="1080" height="1080" viewBox="0 0 1080 1080" fill="none" xmlns="http://www.w3.org/2000/svg">
<path d="M718.377 509.735C718.377 509.735 745.903 514.012 748.962 517.096C752.046 520.181 747.432 557.089 745.877 564.787C744.348 572.485 722.81 575.569 722.81 575.569L712.027 509.398L718.377 509.735Z" fill="black"/>
<path d="M363.623 509.735C363.623 509.735 336.098 514.012 333.039 517.096C329.955 520.181 334.568 557.089 336.124 564.787C337.653 572.485 359.191 575.569 359.191 575.569L369.973 509.398L363.623 509.735Z" fill="black"/>
<path d="M582.297 640.179C565.657 640.179 556.819 622.45 546.555 601.949C544.948 598.735 542.823 594.484 540.749 590.648C538.676 594.484 536.55 598.735 534.943 601.949C524.705 622.45 515.841 640.179 499.201 640.179C486.968 640.179 440.003 627.842 422.948 623.073C410.585 619.625 392.908 614.442 379.042 609.387C365.409 604.411 349.961 598.787 349.961 584.79C349.961 575.512 362.091 505.453 369.089 493.79C373.651 486.195 382.437 483.63 398.092 481.323C408.278 479.819 422.093 478.472 439.147 477.331C469.317 475.284 508.273 474.014 540.749 474.014C573.225 474.014 612.155 475.284 642.376 477.305C659.405 478.446 673.22 479.794 683.432 481.297C699.087 483.604 707.873 486.17 712.435 493.764C719.433 505.427 731.563 575.486 731.563 584.765C731.563 598.761 716.115 604.385 702.482 609.361C688.616 614.416 670.939 619.599 658.576 623.047C641.469 627.842 594.505 640.179 582.297 640.179Z" fill="#0C0C0C"/>
<path d="M701.559 499.125C696.86 491.017 602.824 486.158 540.151 486.158C477.478 486.158 383.442 491.017 378.743 499.125C374.044 507.233 361.504 576.901 361.504 586.646C361.504 596.365 483.735 628.769 497.859 628.769C511.982 628.769 527.637 568.82 540.177 568.82C552.717 568.82 568.399 628.769 582.496 628.769C596.594 628.769 718.851 596.365 718.851 586.646C718.798 576.901 706.258 507.206 701.559 499.125Z" fill="url(#paint0_linear_4304_1924)"/>
<defs>
<linearGradient id="paint0_linear_4304_1924" x1="369.764" y1="547.747" x2="711.644" y2="551.576" gradientUnits="userSpaceOnUse">
<stop stop-color="#003EB8"/>
<stop offset="0.5" stop-color="#3DFFDC"/>
<stop offset="1" stop-color="#0140B7"/>
</linearGradient>
</defs>
</svg>
