<svg width="1080" height="1080" viewBox="0 0 1080 1080" fill="none" xmlns="http://www.w3.org/2000/svg">
<path d="M369.742 583.658L348.448 576.603C341.272 574.212 337.332 566.329 339.678 559.06L350.582 525.49C352.928 518.221 360.737 514.244 367.913 516.612L389.207 523.667C396.383 526.058 400.323 533.941 397.978 541.21L387.096 574.804C384.728 582.072 376.918 586.05 369.742 583.658Z" fill="black"/>
<path d="M713.257 583.658L734.55 576.603C741.727 574.212 745.666 566.329 743.321 559.06L732.416 525.49C730.071 518.221 722.262 514.244 715.086 516.612L693.792 523.667C686.616 526.058 682.676 533.941 685.021 541.21L695.926 574.78C698.271 582.072 706.081 586.05 713.257 583.658Z" fill="black"/>
<path d="M721.321 544.856C711.612 506.787 688.184 482.568 649.654 470.778C617.737 461 578.972 461 541.496 461C504.021 461 465.28 461 433.339 470.778C394.832 482.568 371.404 506.811 361.695 544.856C352.526 580.818 353.3 605.132 364.158 621.349C376.915 640.407 399.053 643.295 420.488 646.113C425.131 646.728 429.962 647.036 434.816 647.036C473.558 647.036 511.127 628.025 522.196 602.812C530.076 584.914 537.791 579.989 540.394 579.492C540.769 579.516 541.121 579.539 541.496 579.539C541.872 579.539 542.223 579.516 542.599 579.492C545.202 579.989 552.941 584.914 560.797 602.812C571.889 628.025 609.458 647.036 648.176 647.036C653.031 647.036 657.862 646.728 662.505 646.113C683.916 643.319 706.078 640.431 718.835 621.349C729.693 605.132 730.491 580.842 721.321 544.856Z" fill="black"/>
<path d="M539.852 564.864C539.852 564.864 557.445 561.743 573.199 597.701C583.225 620.568 624.379 637.87 661.116 633.055C697.854 628.239 727.526 623.98 708.357 548.458C689.523 474.291 615.952 474.17 539.852 474.17C463.751 474.17 390.156 474.315 371.346 548.458C352.177 623.98 381.849 628.239 418.587 633.055C455.324 637.87 496.502 620.593 506.504 597.701C522.259 561.743 539.852 564.864 539.852 564.864Z" fill="#BB87E3"/>
<path d="M402.719 558.707C415.255 577.856 448.954 585.672 483.238 565.705" stroke="black" stroke-width="8.23169" stroke-linecap="round"/>
<path d="M678.777 562.59C666.241 581.738 632.542 589.555 598.258 569.588" stroke="black" stroke-width="8.23169" stroke-linecap="round"/>
</svg>
