<svg width="1080" height="1080" viewBox="0 0 1080 1080" fill="none" xmlns="http://www.w3.org/2000/svg">
<circle cx="648.232" cy="557.821" r="82.4932" transform="rotate(6.82605 648.232 557.821)" fill="#263238" stroke="black" stroke-width="12.6913"/>
<path d="M648.738 619.461C682.178 619.461 709.285 592.353 709.285 558.914C709.285 525.475 682.178 498.367 648.738 498.367C615.299 498.367 588.191 525.475 588.191 558.914C588.191 592.353 615.299 619.461 648.738 619.461Z" stroke="#EE4623" stroke-width="6.2906" stroke-linecap="round" stroke-linejoin="round"/>
<path d="M648.738 598.266V619.457" stroke="#EE4623" stroke-width="6.2906" stroke-linecap="round" stroke-linejoin="round"/>
<path d="M685.066 558.912H709.285" stroke="#EE4623" stroke-width="6.2906" stroke-linecap="round" stroke-linejoin="round"/>
<path d="M588.191 558.912H609.383" stroke="#EE4623" stroke-width="6.2906" stroke-linecap="round" stroke-linejoin="round"/>
<path d="M648.738 519.559V498.367" stroke="#EE4623" stroke-width="6.2906" stroke-linecap="round" stroke-linejoin="round"/>
<circle cx="433.767" cy="560.909" r="82.4932" transform="rotate(6.82605 433.767 560.909)" fill="#263238" stroke="black" stroke-width="12.6913"/>
<path d="M566.834 570.443C567.634 563.759 565.746 557.031 561.585 551.739C557.425 546.447 551.332 543.024 544.648 542.224C537.964 541.424 531.236 543.312 525.943 547.472C520.651 551.633 517.229 557.725 516.428 564.41" stroke="black" stroke-width="12.6913"/>
<path d="M677.791 556.406H669.721C668.579 546.738 660.911 539.071 651.243 537.928V529.858C651.243 529.568 651.006 529.33 650.715 529.33H646.753C646.462 529.33 646.224 529.568 646.224 529.858V537.928C636.556 539.071 628.889 546.738 627.747 556.406H619.677C619.386 556.406 619.148 556.644 619.148 556.934V560.897C619.148 561.187 619.386 561.425 619.677 561.425H627.747C628.889 571.093 636.556 578.76 646.224 579.903V587.973C646.224 588.263 646.462 588.501 646.753 588.501H650.715C651.006 588.501 651.243 588.263 651.243 587.973V579.903C660.911 578.76 668.579 571.093 669.721 561.425H677.791C678.082 561.425 678.319 561.187 678.319 560.897V556.934C678.319 556.644 678.082 556.406 677.791 556.406ZM648.734 575.029C639.832 575.029 632.62 567.818 632.62 558.916C632.62 550.013 639.832 542.802 648.734 542.802C657.636 542.802 664.847 550.013 664.847 558.916C664.847 567.818 657.636 575.029 648.734 575.029Z" fill="#EE4623"/>
<path d="M648.737 550.99C646.617 550.99 644.636 551.809 643.137 553.315C641.638 554.814 640.812 556.795 640.812 558.915C640.812 561.035 641.638 563.016 643.137 564.515C644.636 566.007 646.624 566.84 648.737 566.84C650.85 566.84 652.838 566.014 654.337 564.515C655.83 563.016 656.662 561.028 656.662 558.915C656.662 556.802 655.836 554.814 654.337 553.315C652.838 551.809 650.857 550.99 648.737 550.99Z" fill="#EE4623"/>
</svg>
