<svg width="1080" height="1080" viewBox="0 0 1080 1080" fill="none" xmlns="http://www.w3.org/2000/svg">
<path d="M449.16 481L388.566 542.529C381.103 550.107 377 560.166 377 570.864C377 592.972 394.7 610.945 416.472 610.945C424.595 610.945 432.316 608.412 438.851 603.816V631.88H459.469V603.816C466.004 608.412 473.725 610.945 481.848 610.945C503.62 610.945 521.32 592.972 521.32 570.864C521.32 560.166 517.217 550.097 509.754 542.529L449.16 481Z" fill="#39364D" stroke="black" stroke-width="11.48"/>
<path d="M632.844 481L572.25 542.529C564.786 550.107 560.684 560.166 560.684 570.864C560.684 592.972 578.383 610.945 600.155 610.945C608.278 610.945 615.999 608.412 622.535 603.816V631.88H643.152V603.816C649.688 608.412 657.409 610.945 665.532 610.945C687.304 610.945 705.004 592.972 705.004 570.864C705.004 560.166 700.901 550.097 693.437 542.529L632.844 481Z" fill="#39364D" stroke="black" stroke-width="11.48"/>
</svg>
