<svg width="1080" height="1080" viewBox="0 0 1080 1080" fill="none" xmlns="http://www.w3.org/2000/svg">
<path d="M704.982 511.695H704.983L705.122 511.699L705.261 511.693H705.263C705.273 511.693 705.294 511.692 705.323 511.691C705.383 511.69 705.482 511.687 705.615 511.686C705.882 511.683 706.289 511.683 706.815 511.695C707.87 511.721 709.391 511.796 711.208 512.002V512.003C714.243 512.348 715.412 515.788 713.947 517.978C713.69 518.082 713.46 518.188 713.266 518.284C712.633 518.597 712.04 518.967 711.562 519.315C711.323 519.489 711.064 519.693 710.82 519.916C710.708 520.019 710.142 520.522 709.754 521.287C709.652 521.488 708.806 523.104 709.729 524.962C710.787 527.093 712.906 527.21 713.292 527.22C713.906 527.235 714.395 527.108 714.588 527.056C714.84 526.987 715.063 526.905 715.234 526.836L715.259 526.827L715.282 526.817C716.012 526.515 716.683 526.159 717.301 525.763L727.894 527.722L728.501 527.834L729.113 527.759C733.676 527.201 737.704 530.573 737.938 534.972C738.108 538.476 737.72 542.616 736.5 547.521C728.876 578.024 703.524 590.851 681.879 599.077C665.598 605.265 643.524 609.695 625.329 612.582C616.271 614.019 608.245 615.063 602.486 615.747C599.608 616.089 597.297 616.341 595.71 616.507C594.916 616.59 594.303 616.652 593.891 616.692C593.685 616.713 593.529 616.727 593.425 616.737C593.373 616.742 593.334 616.747 593.309 616.749C593.296 616.75 593.286 616.75 593.28 616.751C593.277 616.751 593.275 616.752 593.273 616.752H593.272L593.062 616.771L592.854 616.813C584.339 618.52 576.004 613.155 574.032 604.722H574.033L561.754 552.125C559.97 544.457 553.134 539.045 545.28 539.045H534.72C526.866 539.045 520.03 544.457 518.246 552.125L505.967 604.722C503.995 613.155 495.661 618.52 487.146 616.813L486.938 616.771L486.727 616.752H486.725C486.723 616.752 486.721 616.751 486.719 616.751C486.713 616.75 486.703 616.75 486.69 616.749C486.665 616.747 486.626 616.742 486.574 616.737C486.47 616.727 486.314 616.713 486.108 616.692C485.696 616.652 485.083 616.591 484.289 616.508C482.701 616.342 480.391 616.091 477.512 615.749C471.752 615.066 463.727 614.023 454.668 612.587C436.472 609.702 414.401 605.272 398.123 599.078C376.503 590.851 351.124 578.023 343.5 547.521H343.499C342.279 542.645 341.891 538.505 342.062 534.998L342.062 534.999C342.296 530.569 346.351 527.211 350.868 527.784L351.21 527.827L351.555 527.812L366.112 527.163L366.115 527.164H366.118L366.122 527.165H366.127L366.13 527.166H366.134L366.136 527.167H366.143L366.145 527.168H366.149L366.151 527.169H366.157L366.158 527.17H366.164L366.166 527.171H366.172L366.173 527.172H366.18L366.181 527.173H366.185L366.208 527.159V527.158L366.466 527.147L366.438 526.53C366.579 525.94 366.767 524.808 366.969 522.637L367.839 519.415C364.063 517.836 365.034 512.448 368.807 512.032L368.818 512.031C370.636 511.825 372.158 511.749 373.212 511.724C373.738 511.711 374.145 511.711 374.412 511.714C374.545 511.715 374.644 511.717 374.704 511.719C374.734 511.72 374.754 511.72 374.765 511.721H374.767L374.906 511.727L375.046 511.723H375.062C375.073 511.722 375.09 511.721 375.112 511.721C375.158 511.719 375.227 511.718 375.318 511.716C375.502 511.711 375.776 511.704 376.138 511.696C376.86 511.68 377.93 511.657 379.311 511.634C382.073 511.586 386.081 511.534 391.054 511.513C401.002 511.471 414.801 511.556 430.203 512.064C461.119 513.085 498.101 515.803 523.44 522.477L523.943 522.609H556.028L556.532 522.477C581.886 515.803 618.881 513.079 649.808 512.051C665.215 511.539 679.019 511.45 688.97 511.489C693.944 511.509 697.954 511.561 700.717 511.607C702.098 511.631 703.168 511.653 703.891 511.669C704.252 511.677 704.527 511.684 704.711 511.688C704.802 511.691 704.871 511.692 704.917 511.693C704.94 511.694 704.957 511.694 704.968 511.694C704.973 511.694 704.977 511.695 704.979 511.695C704.981 511.695 704.982 511.695 704.982 511.695Z" fill="#FF825A" stroke="#231F20" stroke-width="8.04828"/>
<path d="M543.671 530.699C639.792 513.166 726.822 534.271 726.822 534.271C726.822 534.271 743.147 526.129 737.687 517.958C732.254 509.815 726.822 488.073 550.074 515.244H529.425C352.704 488.073 347.244 509.815 341.812 517.958C336.379 526.101 352.677 534.271 352.677 534.271C352.677 534.271 441.203 510.563 534.746 530.56C537.684 531.197 540.706 531.252 543.671 530.699Z" fill="#231F20"/>
</svg>
