<svg width="1080" height="1080" viewBox="0 0 1080 1080" fill="none" xmlns="http://www.w3.org/2000/svg">
<path d="M372.731 519.815C374.457 520.378 376.485 521.024 378.798 521.734C387.139 524.295 399.185 527.701 414.059 531.104C443.79 537.908 484.909 544.723 530.394 544.723C575.863 544.723 616.983 537.908 646.718 531.104C661.593 527.701 673.641 524.295 681.984 521.734C684.267 521.034 686.272 520.395 687.983 519.838L684.903 553.35C683.921 553.847 682.616 554.494 681 555.259C676.919 557.189 670.858 559.879 663.017 562.876C647.331 568.87 624.539 576.083 596.229 580.893C540.188 590.413 462.534 590.521 375.473 553.13L372.731 519.815Z" fill="#692D04" stroke="black" stroke-width="9.52293"/>
<path d="M511.622 565.416C512.496 565.412 513.201 564.703 513.201 563.829V549.586C513.201 548.71 512.491 547.999 511.614 547.999H507.182C506.263 539.517 504.039 531.391 500.717 523.887L504.151 522.157C504.966 521.747 505.268 520.737 504.812 519.947L497.713 507.638C497.291 506.907 496.373 506.634 495.62 507.015L491.998 508.85C487.074 502.088 481.113 496.157 474.351 491.204L476.25 488.049C476.707 487.288 476.453 486.301 475.685 485.856L463.367 478.727C462.617 478.293 461.658 478.54 461.212 479.282L459.285 482.484C451.781 479.163 443.684 476.938 435.172 476.019V471.587C435.172 470.711 434.462 470 433.585 470H419.35C418.474 470 417.763 470.711 417.763 471.587V476.019C409.251 476.938 401.155 479.163 393.651 482.484L391.327 478.744C390.879 478.023 389.944 477.782 389.203 478.196L376.907 485.086C376.136 485.518 375.866 486.498 376.309 487.264L378.585 491.204C371.823 496.157 365.891 502.088 360.938 508.85L357.046 506.533C356.286 506.081 355.303 506.336 354.86 507.102L347.731 519.421C347.296 520.173 347.546 521.135 348.293 521.579L352.219 523.917C348.897 531.42 346.672 539.517 345.753 548.029H340.587C339.711 548.029 339 548.739 339 549.616V563.851C339 564.728 339.711 565.438 340.587 565.438H345.842C346.732 573.95 348.956 582.047 352.308 589.55L348.475 591.482C347.661 591.892 347.359 592.903 347.814 593.692L354.916 606.005C355.336 606.734 356.253 607.008 357.005 606.629L360.997 604.617C365.95 611.379 371.882 617.31 378.644 622.263L376.408 625.729C375.916 626.491 376.162 627.509 376.946 627.963L389.262 635.091C389.995 635.515 390.932 635.289 391.391 634.577L393.71 630.983C401.214 634.304 409.311 636.529 417.822 637.448V641.413C417.822 642.289 418.533 643 419.41 643H433.645C434.521 643 435.232 642.289 435.232 641.413V637.448C443.744 636.529 451.84 634.304 459.344 630.983L461.972 634.65C462.448 635.313 463.348 635.508 464.055 635.1L476.363 628.001C477.174 627.533 477.406 626.468 476.862 625.706L474.41 622.263C481.172 617.31 487.104 611.379 492.057 604.617L495.541 606.778C496.302 607.25 497.303 607 497.752 606.225L504.88 593.907C505.31 593.165 505.072 592.215 504.343 591.763L500.776 589.55C504.098 582.047 506.322 573.95 507.242 565.438L511.622 565.416ZM426.512 615.205C394.215 615.205 367.997 589.016 367.997 556.689C367.997 524.362 394.185 498.173 426.512 498.173C458.84 498.173 484.998 524.391 484.998 556.719C484.998 589.046 458.81 615.205 426.512 615.205Z" fill="black"/>
<path d="M426.515 616.329C459.439 616.329 486.128 589.64 486.128 556.716C486.128 523.793 459.439 497.104 426.515 497.104C393.592 497.104 366.902 523.793 366.902 556.716C366.902 589.64 393.592 616.329 426.515 616.329Z" fill="#896247"/>
<path d="M426.505 602.479C451.779 602.479 472.267 581.991 472.267 556.717C472.267 531.443 451.779 510.954 426.505 510.954C401.231 510.954 380.742 531.443 380.742 556.717C380.742 581.991 401.231 602.479 426.505 602.479Z" fill="#997355"/>
<path d="M497.595 557.627C498.106 518.369 466.694 486.13 427.436 485.619C388.177 485.109 355.938 516.52 355.428 555.779C354.918 595.037 386.329 627.276 425.587 627.786C464.846 628.297 497.085 596.885 497.595 557.627Z" fill="#662D07"/>
<path d="M484.645 557.366C484.645 589.985 458.201 616.429 425.582 616.429C392.963 616.429 366.52 589.985 366.52 557.366C366.52 524.747 392.963 498.304 425.582 498.304C458.201 498.304 484.645 524.747 484.645 557.366Z" fill="#C86F2B"/>
<path d="M426.037 606.231C453.143 605.865 474.82 583.595 474.454 556.489C474.088 529.384 451.818 507.707 424.712 508.073C397.606 508.439 375.929 530.709 376.295 557.815C376.661 584.92 398.932 606.597 426.037 606.231Z" fill="#EC8D3E"/>
<path d="M470.467 557.366C470.467 582.149 450.361 602.254 425.579 602.254C400.797 602.254 380.691 582.149 380.691 557.366C380.691 532.584 400.797 512.479 425.579 512.479C450.361 512.441 470.467 532.546 470.467 557.366Z" fill="#B1E5FE"/>
<path d="M739.388 565.416C740.261 565.412 740.967 564.703 740.967 563.829V549.586C740.967 548.71 740.256 547.999 739.38 547.999H734.948C734.029 539.517 731.804 531.391 728.483 523.887L731.917 522.157C732.731 521.747 733.033 520.737 732.578 519.947L725.478 507.638C725.057 506.907 724.138 506.634 723.386 507.015L719.763 508.85C714.84 502.088 708.879 496.157 702.117 491.204L704.016 488.049C704.473 487.288 704.219 486.301 703.451 485.856L691.132 478.727C690.383 478.293 689.424 478.54 688.977 479.282L687.05 482.484C679.547 479.163 671.45 476.938 662.938 476.019V471.587C662.938 470.711 662.228 470 661.351 470H647.116C646.239 470 645.529 470.711 645.529 471.587V476.019C637.017 476.938 628.92 479.163 621.417 482.484L619.093 478.744C618.645 478.023 617.709 477.782 616.969 478.196L604.673 485.086C603.901 485.518 603.632 486.498 604.075 487.264L606.35 491.204C599.588 496.157 593.657 502.088 588.704 508.85L584.811 506.533C584.052 506.081 583.069 506.336 582.626 507.102L575.496 519.421C575.061 520.173 575.312 521.135 576.058 521.579L579.984 523.917C576.662 531.42 574.438 539.517 573.519 548.029H568.353C567.476 548.029 566.766 548.739 566.766 549.616V563.851C566.766 564.728 567.476 565.438 568.353 565.438H573.608C574.497 573.95 576.722 582.047 580.073 589.55L576.24 591.482C575.426 591.892 575.124 592.903 575.58 593.692L582.681 606.005C583.102 606.734 584.019 607.008 584.77 606.629L588.763 604.617C593.716 611.379 599.648 617.31 606.41 622.263L604.173 625.729C603.682 626.491 603.927 627.509 604.712 627.963L617.028 635.091C617.761 635.515 618.697 635.289 619.156 634.577L621.476 630.983C628.979 634.304 637.076 636.529 645.588 637.448V641.413C645.588 642.289 646.299 643 647.175 643H661.41C662.287 643 662.997 642.289 662.997 641.413V637.448C671.509 636.529 679.606 634.304 687.11 630.983L689.738 634.65C690.213 635.313 691.114 635.508 691.821 635.1L704.128 628.001C704.94 627.533 705.172 626.468 704.628 625.706L702.176 622.263C708.938 617.31 714.87 611.379 719.822 604.617L723.307 606.778C724.068 607.25 725.069 607 725.517 606.225L732.646 593.907C733.076 593.165 732.838 592.215 732.109 591.763L728.542 589.55C731.864 582.047 734.088 573.95 735.007 565.438L739.388 565.416ZM654.278 615.205C621.98 615.205 595.762 589.016 595.762 556.689C595.762 524.362 621.951 498.173 654.278 498.173C686.605 498.173 712.764 524.391 712.764 556.719C712.764 589.046 686.576 615.205 654.278 615.205Z" fill="black"/>
<path d="M654.281 616.329C687.204 616.329 713.894 589.64 713.894 556.716C713.894 523.793 687.204 497.104 654.281 497.104C621.358 497.104 594.668 523.793 594.668 556.716C594.668 589.64 621.358 616.329 654.281 616.329Z" fill="#896247"/>
<path d="M654.27 602.479C679.544 602.479 700.033 581.991 700.033 556.717C700.033 531.443 679.544 510.954 654.27 510.954C628.996 510.954 608.508 531.443 608.508 556.717C608.508 581.991 628.996 602.479 654.27 602.479Z" fill="#997355"/>
<path d="M725.357 557.626C725.867 518.368 694.456 486.129 655.197 485.618C615.939 485.108 583.7 516.519 583.19 555.778C582.679 595.036 614.091 627.275 653.349 627.786C692.607 628.296 724.846 596.885 725.357 557.626Z" fill="#662D07"/>
<path d="M712.407 557.365C712.407 589.984 685.963 616.428 653.344 616.428C620.725 616.428 594.281 589.984 594.281 557.365C594.281 524.746 620.725 498.303 653.344 498.303C685.963 498.303 712.407 524.746 712.407 557.365Z" fill="#C86F2B"/>
<path d="M653.799 606.23C680.905 605.864 702.582 583.594 702.216 556.488C701.85 529.383 679.58 507.706 652.474 508.072C625.368 508.438 603.691 530.708 604.057 557.814C604.423 584.919 626.693 606.596 653.799 606.23Z" fill="#EC8D3E"/>
<path d="M698.228 557.365C698.228 582.148 678.123 602.253 653.341 602.253C628.558 602.253 608.453 582.148 608.453 557.365C608.453 532.583 628.558 512.478 653.341 512.478C678.123 512.44 698.228 532.545 698.228 557.365Z" fill="#B1E5FE"/>
</svg>
