<svg width="1080" height="1080" viewBox="0 0 1080 1080" fill="none" xmlns="http://www.w3.org/2000/svg">
<path d="M723.386 490.739C716.156 481.768 706.256 474.925 694.769 470.955C682.61 466.757 671.417 463.848 660.542 462.059C635.376 457.937 607.044 456.013 571.365 456.013C555.008 456.013 538.533 456.392 522.603 456.755L514.945 456.93C509.731 457.043 504.482 457.134 499.209 457.217C478.426 457.551 456.947 457.899 436.147 460.241C420.974 461.552 405.926 464.53 391.433 469.091C389.552 469.682 387.654 470.311 385.79 470.955C358.205 480.487 341.663 505.621 345.568 532.058C345.996 534.96 346.416 537.862 346.836 540.764C348.557 552.691 350.346 565.026 352.764 577.15C355.871 592.714 362.757 604.655 373.219 612.642C385.949 622.363 402.802 628.683 419.126 634.07C420.755 634.608 422.393 635.131 424.038 635.639C435.677 639.238 447.298 639.897 457.845 637.541C476.302 633.419 487.134 625.143 495.984 614.345C497.915 611.989 499.847 609.602 501.761 607.223C502.45 607.109 503.105 606.995 503.718 606.882C507.345 606.222 511.527 605.336 514.668 603.495C521.142 599.706 527.709 589.069 529.766 582.356C530.539 579.855 530.942 577.233 532.184 574.892C533.427 572.551 535.787 570.459 538.667 570.323C542.454 570.149 545.368 573.286 547.047 576.354C550.137 582.022 551.296 588.486 554.949 593.873C558.728 599.45 565.202 603.398 572.247 604.777C574.531 605.224 577.747 605.784 580.233 605.155C582.76 608.217 585.262 611.308 587.647 614.392C598.647 628.607 613.863 637.094 630.506 638.632C632.118 638.783 633.781 638.73 635.452 638.73C648.618 638.73 660.87 634.282 671.677 630.244C678.705 627.622 685.65 624.606 692.308 621.295L693.341 620.84C699.505 617.779 706.483 614.347 711.966 608.974C720.758 600.367 726.535 589.251 728.256 577.65C728.911 573.217 729.65 568.701 730.356 564.329C731.976 554.365 733.647 544.06 734.571 533.732C735.73 520.775 735.301 505.522 723.386 490.739ZM718.642 532.588C717.76 542.454 716.123 552.524 714.544 562.261C713.822 566.678 713.083 571.255 712.411 575.779C711.126 584.47 706.793 592.812 700.21 599.26C696.499 602.897 691.217 605.534 685.633 608.308L684.583 608.861C678.445 611.914 672.046 614.521 665.564 616.938C656.134 620.461 645.444 624.341 635.452 624.341C634.327 624.341 633.21 624.402 632.135 624.303C616.835 622.886 606.625 613.543 600.755 605.959C596.111 599.95 591.14 594.123 586.337 588.44C584.238 585.955 582.139 583.5 580.065 581.007L563.455 561.018C562.783 560.207 562.12 559.351 561.415 558.434C557.913 553.873 553.555 548.205 545.284 546.144C543.823 545.78 542.093 545.379 540.103 545.257C539.725 545.235 539.364 545.227 538.995 545.227C529.036 545.227 523.107 553.213 519.186 558.495C518.43 559.518 517.708 560.48 517.087 561.23C510.856 568.724 504.701 576.415 498.747 583.848C494.196 589.531 489.494 595.411 484.808 601.132C477.553 609.99 467.502 620.537 453.999 623.553C446.433 625.243 437.944 624.705 429.219 622.007C427.674 621.53 426.138 621.037 424.601 620.53C409.663 615.604 394.355 609.906 383.531 601.64C375.982 595.873 370.919 586.773 368.483 574.596C366.132 562.814 364.369 550.66 362.673 538.908C362.253 535.99 361.833 533.073 361.396 530.156C358.474 510.364 370.851 491.565 391.491 484.427C393.204 483.836 394.951 483.26 396.681 482.715C410.007 478.525 423.829 475.789 437.768 474.592L438.003 474.569C457.988 472.319 479.081 471.978 499.478 471.645C504.785 471.561 510.075 471.47 515.323 471.357L522.99 471.182C538.818 470.819 555.192 470.44 571.348 470.44C606.515 470.44 633.143 472.236 657.67 476.251C667.554 477.873 677.815 480.548 689.034 484.42C697.506 487.352 705.106 492.603 710.446 499.218C717.592 508.076 719.96 517.744 718.642 532.588Z" fill="black"/>
<path d="M687.442 480.564C677.124 477.082 666.496 474.225 655.616 472.481C609.974 465.18 562.076 466.723 515.88 467.728C490.835 468.274 464.901 468.087 440.059 470.822C425.861 472.014 411.826 474.735 398.362 478.87C396.602 479.408 394.849 479.975 393.105 480.564C369.796 488.431 355.679 509.379 358.98 531.173C361.124 545.329 363.031 559.522 365.908 573.584C368.174 584.661 373.072 595.709 383.138 603.211C394.947 612.012 410.971 617.676 425.348 622.306C426.88 622.801 428.428 623.282 429.969 623.749C439.105 626.505 448.902 627.453 458.397 625.386C473.14 622.177 483.964 611.954 492.676 601.574C503.19 589.04 513.345 576.276 523.973 563.807C527.804 559.313 532.401 550.957 539.573 551.395C540.763 551.467 541.92 551.726 543.069 552.005C549.63 553.606 552.678 559.048 556.566 563.621C561.937 569.938 567.316 576.255 572.687 582.572C579.346 590.397 586.265 598.1 592.614 606.111C601.164 616.893 613.471 625.005 628.638 626.369C641.141 627.496 653.505 623.038 664.842 618.903C671.419 616.506 677.849 613.785 684.084 610.748C690.173 607.791 696.481 604.862 701.208 600.346C708.698 593.182 713.572 584.037 715.031 574.381C717.109 560.634 719.856 546.952 721.119 533.111C722.333 519.809 720.915 508.065 711.722 496.938C705.625 489.566 697.125 483.83 687.442 480.564Z" fill="#B3E7F5"/>
<mask id="mask0_4379_880" style="mask-type:alpha" maskUnits="userSpaceOnUse" x="564" y="561" width="158" height="79">
<path d="M659.718 582.27C631.999 576.383 604.246 570.586 576.662 564.199C572.463 563.229 568.265 562.236 564.066 561.251C564.083 561.281 564.108 561.312 564.125 561.342C568.794 567.987 574.58 574.072 578.409 581.172C580.39 584.839 581.07 587.514 581.079 589.969C582.145 594.538 581.994 599.342 580.323 603.623C580.273 604.138 580.231 604.661 580.155 605.176C582.599 608.177 586.831 613.352 587.645 614.405C598.646 628.62 613.861 637.357 630.504 638.895C632.116 639.046 633.779 639.243 635.45 639.243C648.617 639.243 660.868 634.546 671.675 630.507C678.703 627.885 685.648 624.748 692.307 621.429L693.34 620.914C699.503 617.853 706.481 614.39 711.964 609.018C715.953 605.116 719.312 600.683 721.965 595.932C701.283 591.151 680.5 586.68 659.718 582.27Z" fill="url(#paint0_linear_4379_880)"/>
</mask>
<g mask="url(#mask0_4379_880)">
</g>
<mask id="mask1_4379_880" style="mask-type:alpha" maskUnits="userSpaceOnUse" x="345" y="513" width="179" height="126">
<path d="M521.674 556.411C522.211 554.918 522.808 553.44 523.471 551.986C523.463 551.895 523.454 551.796 523.454 551.705C513.159 549.288 502.848 546.901 492.528 544.575C443.909 533.618 395.088 523.351 346.099 513.842C344.882 519.722 344.655 525.859 345.579 532.073C346.007 534.975 346.427 537.877 346.847 540.779C348.568 552.705 350.357 565.041 352.775 577.165C355.882 592.728 362.768 604.67 373.23 612.657C385.96 622.378 402.813 628.698 419.137 634.085C420.766 634.623 422.404 635.146 424.049 635.653C435.688 639.253 447.309 639.912 457.856 637.555C476.313 633.433 488.833 620.507 497.683 609.709C499.615 607.353 501.546 604.966 503.461 602.586C503.511 602.579 503.553 602.571 503.603 602.564C507.155 588.659 511.858 574.528 519.306 561.935C520.053 560.078 520.851 558.237 521.674 556.411Z" fill="url(#paint1_linear_4379_880)"/>
</mask>
<g mask="url(#mask1_4379_880)">
</g>
<path d="M694.907 504.284C677.586 489.67 645.569 477.317 625.321 495.75C624.59 496.412 625.097 497.618 625.725 497.735C635.676 499.262 646.018 496.044 656.08 497.274C668.606 498.796 679.52 504.211 690.427 511.833C693.937 514.3 698.872 507.639 694.907 504.284Z" fill="white"/>
<path d="M377.116 540.708C375.106 563.696 383.596 597.591 410.813 603.639C411.793 603.86 412.499 602.73 412.229 602.138C407.665 592.959 398.922 586.237 394.046 577.14C387.969 565.82 386.077 553.56 386.027 540.011C386.022 535.643 377.584 535.44 377.116 540.708Z" fill="white"/>
<path d="M561.016 567.799C550.43 553.22 534.96 554.353 526.554 564.438C518.149 574.524 505.987 593.909 499.392 604.709C492.093 613.188 479.485 625.796 463.516 630.839C499.658 624.405 517.892 655.696 548.839 650.104C571.093 646.096 585.391 630.981 616.49 630.981C612.668 628.249 604.88 627.866 601.532 624.547C587.26 610.326 572.177 583.169 561.016 567.799Z" fill="#A1D6E4"/>
<path d="M561.016 567.799L556.255 571.256L556.255 571.256L561.016 567.799ZM499.392 604.709L503.851 608.547L504.164 608.184L504.414 607.775L499.392 604.709ZM463.516 630.839L461.744 625.229C458.786 626.162 457.062 629.232 457.802 632.243C458.542 635.255 461.493 637.175 464.547 636.632L463.516 630.839ZM548.839 650.104L547.796 644.314L547.793 644.314L548.839 650.104ZM616.49 630.981V636.865H634.838L619.911 626.195L616.49 630.981ZM601.532 624.547L597.379 628.715L597.385 628.72L597.39 628.726L601.532 624.547ZM565.777 564.342C559.607 555.845 551.54 551.363 543.23 550.992C534.995 550.624 527.31 554.342 522.035 560.671L531.074 568.205C534.204 564.449 538.457 562.558 542.705 562.747C546.877 562.934 551.838 565.174 556.255 571.256L565.777 564.342ZM522.035 560.671C513.302 571.15 500.915 590.925 494.371 601.642L504.414 607.775C511.059 596.892 522.997 577.897 531.074 568.205L522.035 560.671ZM494.933 600.87C487.786 609.174 476.076 620.703 461.744 625.229L465.287 636.45C482.895 630.889 496.401 617.203 503.851 608.547L494.933 600.87ZM464.547 636.632C480.588 633.776 492.651 639.148 505.545 645.443C518.122 651.583 532.195 659.09 549.885 655.894L547.793 644.314C534.536 646.71 524.019 641.367 510.707 634.869C497.711 628.524 482.585 621.468 462.484 625.047L464.547 636.632ZM549.882 655.895C561.843 653.74 571.946 648.508 581.616 644.468C591.479 640.347 602.017 636.865 616.49 636.865V625.097C599.864 625.097 587.703 629.172 577.079 633.611C566.262 638.13 558.088 642.46 547.796 644.314L549.882 655.895ZM619.911 626.195C618.301 625.044 616.503 624.29 614.992 623.75C613.483 623.21 611.82 622.737 610.523 622.348C607.364 621.402 606.118 620.808 605.674 620.369L597.39 628.726C600.294 631.605 604.616 632.863 607.144 633.62C608.69 634.083 609.9 634.426 611.03 634.83C612.159 635.234 612.767 635.552 613.068 635.768L619.911 626.195ZM605.685 620.379C599.015 613.733 591.963 603.844 585.012 593.354C578.236 583.128 571.448 572.152 565.776 564.342L556.255 571.256C561.744 578.816 568.079 589.103 575.202 599.854C582.151 610.34 589.777 621.139 597.379 628.715L605.685 620.379Z" fill="black"/>
<defs>
<linearGradient id="paint0_linear_4379_880" x1="345.006" y1="600.242" x2="735.001" y2="600.242" gradientUnits="userSpaceOnUse">
<stop offset="0.00444436"/>
<stop offset="0.0906" stop-color="#0F0F0F"/>
<stop offset="0.2569" stop-color="#373737"/>
<stop offset="0.4865" stop-color="#777777"/>
<stop offset="0.7675" stop-color="#CECECE"/>
<stop offset="0.9145" stop-color="white"/>
</linearGradient>
<linearGradient id="paint1_linear_4379_880" x1="345.01" y1="576.383" x2="735.006" y2="576.383" gradientUnits="userSpaceOnUse">
<stop offset="0.00444436"/>
<stop offset="0.0906" stop-color="#0F0F0F"/>
<stop offset="0.2569" stop-color="#373737"/>
<stop offset="0.4865" stop-color="#777777"/>
<stop offset="0.7675" stop-color="#CECECE"/>
<stop offset="0.9145" stop-color="white"/>
</linearGradient>
</defs>
</svg>
