<svg width="1080" height="1080" viewBox="0 0 1080 1080" fill="none" xmlns="http://www.w3.org/2000/svg">
<path d="M389.24 501.658L360.531 525.146V540.806L365.751 585.173L380.54 616.491L410.989 624.321H463.186L496.244 606.922L517.123 563.424L522.342 519.927L509.293 501.658L467.535 493.828H422.298L389.24 501.658Z" fill="#E84D4D" stroke="black" stroke-width="1.65975"/>
<path d="M694.588 502.531L723.297 526.019V541.679L718.077 586.046L703.288 617.365L672.84 625.194H620.642L587.584 607.795L566.705 564.297L561.486 520.8L574.535 502.531L616.293 494.701H661.53L694.588 502.531Z" fill="#E84D4D" stroke="black" stroke-width="1.65975"/>
<path d="M728.71 496.929C714.314 494.237 699.837 491.546 685.278 489.752C651.362 485.511 617.445 484.695 583.692 491.709C556.689 497.337 529.604 497.5 502.439 492.28C483.407 488.528 464.212 486 444.773 486C430.296 487.06 415.737 487.468 401.341 489.344C384.423 491.546 367.668 494.89 350.832 497.744C347.579 498.315 345.708 499.946 345.545 503.453C345.057 515.687 344.325 527.921 344 540.236C344 542.357 345.22 545.456 346.928 546.435C350.181 548.473 350.669 551.328 351.564 554.427C356.607 571.065 361.243 587.948 367.18 604.259C372.548 619.103 384.748 627.177 399.633 629.624C423.382 633.457 447.213 632.968 470.637 626.688C484.383 623.018 495.525 616.004 503.09 603.28C510.898 590.15 517.404 576.448 521.878 561.931C525.294 551.002 528.222 539.91 531.394 528.9C532.777 524.006 536.681 523.354 540.91 523.272C545.383 523.272 549.857 523.354 551.565 528.736C553.11 533.63 554.655 538.605 555.875 543.58C560.999 563.725 567.913 583.054 578.486 601.078C586.701 615.188 598.576 623.262 614.029 627.177C634.363 632.315 654.94 632.56 675.599 630.847C695.363 629.216 710.654 620.408 717.405 600.915C722.936 584.93 727.246 568.455 732.127 552.307C732.615 550.594 733.916 549.126 734.811 547.495C736.275 544.803 738.877 542.112 738.959 539.421C739.121 528.736 738.796 518.052 738.145 507.45C737.576 498.805 737.251 498.478 728.71 496.929ZM516.835 536.321C515.29 550.92 511.06 564.785 504.96 578.079C502.114 584.196 498.698 590.068 495.281 595.94C488.368 607.766 477.957 614.536 464.619 617.635C442.658 622.61 420.779 622.039 398.901 617.472C390.686 615.759 384.586 611.029 380.6 603.607C367.343 578.895 364.74 552.714 370.596 525.556C371.979 519.276 376.778 515.932 382.064 513.24C393.939 507.205 406.871 505.248 419.885 503.861C427.937 503.046 435.989 502.883 444.041 502.393C443.96 502.719 444.122 502.067 444.041 502.393C454.484 502.393 474.867 505.329 490.076 507.776C494.875 508.592 499.674 510.712 504.147 512.833C514.802 517.971 518.055 524.495 516.835 536.321ZM705.124 598.469C700 609.805 691.947 616.982 679.341 618.45C670.882 619.429 662.342 620.408 653.883 621.386C639.406 621.305 625.172 620 611.345 615.433C603.456 612.823 596.868 608.419 591.906 601.731C577.104 581.668 568.482 559.076 566.205 534.282C565.148 522.783 570.516 515.606 581.333 511.201C597.437 504.677 614.355 503.046 631.435 502.556C648.84 502.148 666.327 502.475 683.163 507.042C690.971 509.162 698.698 512.343 705.774 516.258C712.688 520.091 713.094 527.921 714.07 535.016C717.08 557.037 714.233 578.161 705.124 598.469Z" fill="black"/>
</svg>
