<svg width="1080" height="1080" viewBox="0 0 1080 1080" fill="none" xmlns="http://www.w3.org/2000/svg">
<path d="M414.919 675.379C380.048 681.361 366.509 671.781 350.023 651.023C348.54 649.156 345.696 649.376 344.738 651.559C332.993 678.338 286.154 814 542.779 814C798.176 814 748.391 679.634 735.423 651.951C734.358 649.677 731.311 649.668 729.853 651.712C716.178 670.885 693.617 681.176 662.443 675.379C553.434 655.108 556.713 651.054 414.919 675.379Z" fill="#726F6F" stroke="black" stroke-width="11.4608"/>
<path d="M589.409 701.029C560.754 701.029 523.843 722.886 487.086 710.035C448.139 696.418 487.086 756.699 540.731 756.699C615.238 756.699 620.205 701.029 589.409 701.029Z" fill="white" stroke="black" stroke-width="9.94102"/>
</svg>
