<svg width="1080" height="1080" viewBox="0 0 1080 1080" fill="none" xmlns="http://www.w3.org/2000/svg">
<path d="M524.814 699.481C554.325 697.667 588.911 668.249 595.109 706.622C598.003 749.733 589.189 749.406 571.598 749.733C571.598 749.733 539.246 748.508 512.685 751.919C497.754 753.837 490.254 747.335 490.254 747.335C481.469 740.591 474.276 702.589 524.814 699.481Z" fill="black" stroke="black" stroke-width="10.3062"/>
<path d="M674.094 863.147C675.818 863.928 678.355 863.452 679.752 862.145L693.749 849.051C695.122 847.766 695.79 845.245 695.125 843.472C687.658 823.805 667.537 794.473 640.087 765.131C612.638 735.789 584.733 713.783 565.584 705C563.86 704.219 561.299 704.717 559.926 706.001L545.93 719.095C544.532 720.402 543.889 722.901 544.553 724.674C552.02 744.341 572.141 773.673 599.591 803.015C627.018 832.333 654.945 854.363 674.094 863.147Z" fill="#7D5E1D" stroke="black" stroke-width="10.3062"/>
<path d="M614.493 741.704C610.483 745.455 606.544 745.141 604.225 751.309L602.324 750.603C597.095 748.719 592.51 749.123 589.726 751.727C586.943 754.331 586.234 758.879 587.766 764.222L588.321 766.187C588.321 766.187 584.501 767.313 582.496 769.188C580.492 771.064 578.053 775.793 578.053 775.793C582.308 781.118 586.857 786.53 591.701 792.027C591.701 792.027 592.857 785.105 596.238 783.238C598.278 782.111 602.128 782.272 602.128 782.272L604.186 783.238C610.158 786.054 615.784 785.985 618.956 783.018C622.105 780.072 622.571 774.442 620.159 768.296L619.332 766.178C619.332 766.178 621.066 762.449 622.863 760.6C625.065 758.333 629.783 756.402 629.783 756.402C624.62 751.203 619.523 746.304 614.493 741.704Z" fill="#FABB3A" stroke="black" stroke-width="6.87083"/>
<path d="M652.888 850.507C660.665 855.971 667.85 860.271 674.103 863.14C675.827 863.921 678.363 863.446 679.761 862.139L693.757 849.045C695.131 847.76 695.798 845.239 695.134 843.466C692.71 837.06 688.897 829.604 683.941 821.457C683.941 821.457 672.003 827.75 665.804 833.599C659.76 839.301 652.888 850.507 652.888 850.507Z" fill="#3F2F0E" stroke="black" stroke-width="6.87083"/>
<path d="M525.316 731.701C516.789 732.004 509.949 733.23 506.617 733.134C503.285 733.039 490.989 738.147 493.517 740.495C494.06 740.999 544.673 738.392 545.652 738.42C549.329 738.524 544.255 731.959 544.255 731.959C542.121 730.402 532.703 731.439 525.316 731.701Z" fill="white"/>
<path d="M561.025 710.782L541.271 727.959C541.271 727.959 552.757 720.693 561.025 718.512C569.796 716.198 584.214 717.162 584.214 717.162L575.626 709.064L561.025 710.782Z" fill="black" stroke="black" stroke-width="1.71771"/>
<path d="M560.124 711.126L587.008 711.011C590.079 710.998 583.657 697.663 573.522 697.404C568.705 697.281 558.884 699.368 554.13 700.024C524.997 704.045 503.793 709.687 503.793 709.687C495.552 711.401 490.974 713.178 508.352 713.103C525.73 713.028 538.727 711.217 560.124 711.126Z" fill="white"/>
</svg>
