<svg width="1080" height="1080" viewBox="0 0 1080 1080" fill="none" xmlns="http://www.w3.org/2000/svg">
<path d="M580.218 697.531C554.773 697.531 521.997 716.939 489.357 705.528C454.773 693.437 489.357 746.965 536.993 746.965C603.154 746.965 607.565 697.531 580.218 697.531Z" fill="white" stroke="black" stroke-width="8.82749"/>
<path d="M635.131 670.635C638.615 670.801 642.207 671.89 644.98 674.604C647.637 677.4 652.952 684.882 652.952 692.443C653.006 698.482 654.168 710.616 641.083 718.612C628.781 726.13 604.802 725.154 604.802 725.154C604.802 725.154 560.542 722.247 544.653 714.25C542.213 713.022 541.816 712.797 540.114 712.07L540.114 712.07C538.412 712.797 536.709 713.524 534.44 714.25C524.793 719.339 493.922 726.829 467.482 725.154C456.007 724.428 447.731 722.972 438.996 715.704C432.882 710.617 429.93 704.073 428.093 699.712C423.399 684.592 430.209 674.974 434.121 671.692C436.894 668.982 440.269 667.179 443.757 667.012C447.244 666.845 450.827 668.41 453.276 671.593C455.726 674.776 454.125 678.631 451.277 678.784C450.521 675.61 447.427 674.374 444.858 674.78C440.378 675.483 436.398 679.929 435.24 685.515C434.73 689.278 435.939 697.676 444.858 701.166C460.082 704.786 474.219 698.625 488.321 690.424C502.419 682.219 512.262 673.333 527.687 675.055C531.659 675.499 537.859 678.631 539.582 681.94C542.22 677.904 547.703 675.055 551.675 675.055C569.343 675.055 576.686 682.197 590.784 690.406C604.882 698.616 626.549 708.435 634.546 704.8C643.709 702.474 644.574 692.919 643.861 688.432C642.703 682.841 638.727 678.4 634.247 677.692C629.316 676.913 627.824 681.691 627.824 681.691C623.5 680.812 625.339 675.872 626.408 674.269C627.862 672.089 631.644 670.468 635.131 670.635Z" fill="black"/>
</svg>
