<svg width="1080" height="1080" viewBox="0 0 1080 1080" fill="none" xmlns="http://www.w3.org/2000/svg">
<path d="M364.796 773.876C388.063 792.544 523.839 813.441 530.911 814.436C537.984 815.431 545.413 815.431 552.485 814.436C559.558 813.441 691.221 790.968 712.926 773.876C734.631 756.783 738.361 745.692 741.869 724.637C743.99 711.904 742.615 697.753 741.869 691.563C741.122 685.373 740.617 674.432 738.83 663.39C738.83 646.075 697.477 635.632 668.117 627.409L561.582 597.621C555.407 595.897 548.6 595 541.698 595C534.797 595 527.99 595.897 521.815 597.621L415.302 627.409L414.903 627.521C385.56 635.724 345.993 646.785 343.502 663.39C341.528 676.551 342.158 686.211 341.528 691.563C340.898 696.915 340.754 713.23 341.528 724.637C342.302 736.044 341.528 755.208 364.796 773.876Z" fill="#91E0FF" stroke="black" stroke-width="11.6763"/>
<path d="M406.053 678.89C436.28 672.425 521.951 652.482 539.336 653.413C549.673 653.961 653.904 677.356 677.945 682.507" stroke="#30C5FF" stroke-width="8.34025" stroke-miterlimit="10" stroke-linecap="round" stroke-linejoin="round"/>
<path d="M418.811 753.73C461.724 762.387 520.692 769.181 539.33 768.414C550.293 767.976 613.959 767.866 665.722 750.607" stroke="#30C5FF" stroke-width="8.34025" stroke-miterlimit="10" stroke-linecap="round" stroke-linejoin="round"/>
<path d="M406.053 716.038C494.935 703.601 581.545 707.765 672.698 721.079" stroke="#30C5FF" stroke-width="8.34025" stroke-miterlimit="10" stroke-linecap="round" stroke-linejoin="round"/>
</svg>
