<svg width="1080" height="1080" viewBox="0 0 1080 1080" fill="none" xmlns="http://www.w3.org/2000/svg">
<path d="M550.532 812.903C543.757 813.836 536.62 813.836 529.845 812.903C526.289 812.414 489.539 806.904 450.714 799.17C431.296 795.302 411.458 790.897 395.03 786.308C386.813 784.012 379.536 781.694 373.632 779.404C367.61 777.068 363.454 774.924 361.152 773.117C350.002 764.363 344.882 755.742 342.354 748.218C339.751 740.474 339.768 733.717 339.341 727.549C338.554 716.198 338.724 700.126 339.312 695.235C339.505 693.637 339.599 691.446 339.711 689.382C339.831 687.184 339.984 684.781 340.282 682.303C340.886 677.29 342.027 672.586 344.165 669.145C349.604 661.706 358.579 655.31 370.34 649.694C382.118 644.071 396.201 639.454 411.237 635.341L411.238 635.341L521.192 605.252C527.031 603.657 533.541 602.81 540.188 602.81C546.836 602.81 553.347 603.657 559.186 605.252L669.161 635.341L669.16 635.341C684.201 639.463 698.496 644.084 710.488 649.716C722.398 655.309 731.498 661.657 736.928 668.996C738.735 672.48 739.652 677.009 740.141 681.871C740.388 684.33 740.513 686.728 740.627 689.001C740.736 691.176 740.842 693.43 741.066 695.252C741.827 701.427 743.143 715.004 741.105 726.976C739.31 737.524 737.563 744.806 733.854 751.507C730.17 758.164 724.277 764.71 713.407 773.085C711.3 774.709 707.379 776.71 701.605 778.946C695.957 781.133 688.966 783.386 681.053 785.646C665.234 790.163 646.066 794.618 627.274 798.586C589.671 806.526 554.007 812.425 550.532 812.903Z" fill="#322D2D" stroke="black" stroke-width="11.6185"/>
</svg>
