<svg width="1080" height="1080" viewBox="0 0 1080 1080" fill="none" xmlns="http://www.w3.org/2000/svg">
<path d="M584.316 635.338C585.464 644.831 583.742 653.498 580.052 660.762C573.409 673.886 560.371 682.636 545.528 684.451C522.076 687.34 499.197 669.841 496.819 645.161C495.507 630.881 500.755 618.169 509.775 609.337C516.827 602.486 526.258 597.946 536.59 596.873C558.895 595.057 581.118 608.924 584.316 635.338Z" fill="#E50E0E" stroke="black" stroke-width="8.63221"/>
<path d="M565.141 640.319C558.874 633.117 554.756 629.787 549.922 627.266C547.506 625.916 544.82 624.836 541.508 623.575C538.285 622.405 534.615 621.325 530.229 619.254C533.451 615.743 537.659 613.763 542.134 613.043C546.61 612.233 551.713 612.953 556.189 615.293C560.665 617.634 564.335 621.775 565.857 626.456C567.558 631.047 567.468 636.088 565.141 640.319Z" fill="white"/>
<path d="M544.555 715.343C476.68 715.343 444.172 699.832 429.289 690.845C453.374 715.343 471.583 735.911 485.202 744.068C517.029 763.131 565.2 759.159 586.704 747.244C608.209 735.33 662.048 682.431 650.359 690.846C627.182 707.529 610.79 715.343 544.555 715.343Z" fill="#E50E0E"/>
<path d="M429.289 690.845L432.859 684.934C429.879 683.135 426.027 683.834 423.87 686.565C421.713 689.296 421.925 693.205 424.365 695.687L429.289 690.845ZM650.359 690.846L654.393 696.45V696.45L650.359 690.846ZM485.202 744.068L481.653 749.992L485.202 744.068ZM425.72 696.757C441.737 706.429 475.492 722.249 544.555 722.249V708.437C477.869 708.437 446.606 693.234 432.859 684.934L425.72 696.757ZM544.555 722.249C577.829 722.249 599.209 720.3 615.369 716.027C631.814 711.679 642.5 705.012 654.393 696.45L646.324 685.241C635.041 693.363 625.943 698.945 611.838 702.674C597.449 706.479 577.516 708.437 544.555 708.437V722.249ZM654.393 696.45C654.683 696.242 654.826 696.15 654.857 696.132C655.034 696.024 654.565 696.346 653.769 696.583C653.519 696.657 652.042 697.116 650.18 696.624C649.07 696.33 647.755 695.674 646.695 694.412C645.655 693.174 645.263 691.833 645.143 690.837C644.938 689.134 645.448 687.869 645.538 687.638C645.706 687.209 645.876 686.92 645.927 686.833C646.07 686.594 646.026 686.712 645.432 687.402C644.937 687.977 644.242 688.744 643.346 689.693C639.75 693.503 633.564 699.585 626.276 706.365C611.474 720.134 593.245 735.726 583.358 741.204L590.051 753.285C601.669 746.848 621.111 730.033 635.683 716.478C643.081 709.596 649.507 703.287 653.39 699.173C654.364 698.141 655.218 697.205 655.904 696.407C656.49 695.725 657.258 694.8 657.796 693.897C657.947 693.643 658.189 693.212 658.403 692.664C658.539 692.316 659.069 690.957 658.855 689.186C658.731 688.156 658.328 686.787 657.27 685.528C656.192 684.244 654.852 683.573 653.71 683.271C651.784 682.762 650.215 683.23 649.844 683.34C648.805 683.648 647.977 684.15 647.674 684.335C647.224 684.609 646.765 684.924 646.324 685.241L654.393 696.45ZM583.358 741.204C573.934 746.425 557.761 750.272 539.787 750.367C521.893 750.462 503.252 746.829 488.75 738.143L481.653 749.992C498.978 760.369 520.337 764.282 539.861 764.178C559.305 764.075 577.97 759.978 590.051 753.285L583.358 741.204ZM488.75 738.143C482.746 734.547 475.321 727.927 466.042 718.69C456.758 709.447 446.466 698.467 434.213 686.004L424.365 695.687C436.197 707.722 447.052 719.274 456.298 728.478C465.55 737.689 474.038 745.431 481.653 749.992L488.75 738.143Z" fill="#E50E0E"/>
<path d="M592.438 746.435C599.344 741.738 606.46 736.963 611.429 730.516C619.446 720.115 615.838 710.296 595.891 711.525C580.631 713.863 560.687 715.66 540.645 715.66C509.569 715.66 476.724 706.435 468.561 713.052C460.398 719.669 464.382 726.387 468.565 731.588C472.747 736.884 478.86 741.423 486.259 745.206C487.064 745.679 487.868 746.057 488.672 746.435C519.064 762.93 562.017 763.451 592.438 746.435Z" fill="white" stroke="#E50E0E" stroke-width="8.63221"/>
</svg>
