<svg width="1080" height="1080" viewBox="0 0 1080 1080" fill="none" xmlns="http://www.w3.org/2000/svg">
<path d="M608.693 684.728C604.066 683.905 601.081 703.634 573.752 712.178C555.615 717.849 534.676 717.849 506.314 712.178C476.111 706.141 476.974 686.771 471.128 686.771C465.504 686.771 465.383 714.554 473.564 725.103C480.789 736.503 496.593 749.85 540.418 750.722C583.502 751.58 599.277 736.101 606.502 724.699C614.681 714.554 616.5 686.119 608.693 684.728Z" fill="#FF6D6D"/>
<path d="M487.337 721.478C489.718 724.771 492.701 728.018 496.82 729.173C497.021 723.989 498.374 718.845 500.771 714.147C502.036 711.667 503.688 711.6 502.325 709.164C498.94 708.395 497.866 705.701 494.972 705.071C491.443 704.302 487.656 700.648 484.662 698.77C483.779 698.216 481.904 696.267 480.714 697.024C479.819 697.594 480.032 700.965 480.025 701.828C479.979 708.866 483.159 715.7 487.337 721.478Z" fill="white" stroke="black" stroke-width="4.61734"/>
<path d="M591.122 721.509C588.718 724.789 585.706 728.022 581.547 729.173C581.343 724.01 579.979 718.887 577.559 714.209C576.281 711.738 574.832 710.821 576.208 708.395C578.951 707.278 581.173 707.31 583.899 706.086C588.141 704.183 593.242 701.316 595.943 698.27C597.233 697.153 596.607 696.402 597.808 697.156C598.712 697.724 598.498 701.081 598.504 701.941C598.55 708.949 595.34 715.755 591.122 721.509Z" fill="white" stroke="black" stroke-width="4.61734"/>
<path d="M511.749 744.328C512.305 741.878 512.939 739.44 513.651 737.016C514.754 733.258 516.155 729.37 519.5 726.555C519.708 726.381 519.932 726.206 520.22 726.134C521.251 725.877 521.905 726.975 522.127 727.808C524.469 736.566 532.691 743.627 536.457 752.072C537.017 753.328 537.359 754.95 536.06 755.8C535.471 756.185 534.679 756.301 533.926 756.403C532.185 756.639 530.434 756.875 528.669 756.878C525.594 756.882 522.595 756.178 519.665 755.442C517.396 754.872 512.846 754.446 511.558 752.69C509.985 750.542 511.236 746.588 511.749 744.328Z" fill="white" stroke="black" stroke-width="4.61734"/>
<path d="M567.599 742.51C566.756 740.046 565.838 737.601 564.85 735.175C563.317 731.415 561.484 727.548 557.922 724.943C557.701 724.783 557.463 724.622 557.178 724.572C556.158 724.396 555.671 725.577 555.564 726.449C554.429 735.626 547.444 743.555 544.905 752.53C544.528 753.864 544.405 755.555 545.757 756.318C546.37 756.663 547.144 756.714 547.879 756.756C549.577 756.852 551.284 756.947 552.977 756.8C555.923 756.546 558.708 755.572 561.423 754.571C563.525 753.794 567.83 752.977 568.842 751.067C570.077 748.733 568.377 744.785 567.599 742.51Z" fill="white" stroke="black" stroke-width="4.61734"/>
<path d="M609.182 683.236C600.66 680.731 599.01 699.898 577.53 705.638C554.691 711.744 540.035 710.576 540.035 710.576C540.035 710.576 518.692 710.861 502.539 705.638C481.513 698.841 479.408 680.731 470.887 683.236C462.365 685.741 455.548 708.156 463.583 723.487C471.618 738.819 487.75 751.627 506.19 756.368C520.312 760 540.033 760 540.033 760C540.033 760 559.754 760 573.875 756.368C592.32 751.627 608.45 738.819 616.485 723.487C624.519 708.156 617.702 685.741 609.182 683.236ZM606.504 724.698C599.279 736.098 583.503 751.578 540.42 750.722C496.594 749.849 480.79 736.502 473.566 725.102C466.339 713.7 465.506 691.388 471.13 691.388C476.974 691.388 476.113 706.14 506.315 712.178C534.678 717.848 555.617 717.848 573.754 712.178C601.083 703.633 604.068 688.521 608.695 689.345C616.502 690.735 613.729 713.297 606.504 724.698Z" fill="black"/>
</svg>
