<svg width="1080" height="1080" viewBox="0 0 1080 1080" fill="none" xmlns="http://www.w3.org/2000/svg">
<path d="M504.16 722.1C502.67 729.547 497.68 741.212 492.195 740.995C486.709 740.778 481.862 727.089 481.861 721.217L481.862 711.918C482.012 708.352 488.194 708.13 493.68 708.348C499.165 708.565 505.462 708.073 505.311 711.639L504.16 722.1ZM603.812 718.838C603.661 722.405 597.332 737.95 591.846 737.733C586.361 737.516 581.43 725.454 580.373 717.779L579.846 710.105C579.996 706.539 587.28 708.042 592.765 708.26C598.251 708.477 603.962 715.272 603.812 718.838Z" fill="white" stroke="black" stroke-width="5"/>
<path d="M618.22 720.981C596.494 690.605 482.768 684.685 461.688 715.54C465.91 720.246 471.279 723 474.068 721.888C542.741 694.501 624.929 726.184 618.22 720.981Z" fill="black"/>
</svg>
