<svg width="1080" height="1080" viewBox="0 0 1080 1080" fill="none" xmlns="http://www.w3.org/2000/svg">
<path d="M610.824 751.87C633.984 740.641 620.474 708.885 610.824 690.463C603.273 697.511 575.315 711.512 545.908 715.026C555.558 734.913 587.665 763.099 610.824 751.87Z" fill="#FF6D6D"/>
<path fill-rule="evenodd" clip-rule="evenodd" d="M472.753 686.676C468.908 684.141 463.664 689.264 467.135 693.315C479.088 707.26 506.059 719.409 538.014 719.409L538.838 719.415C539.719 719.427 540.335 719.461 540.875 719.515L541.488 719.58L542.17 719.64C542.553 719.663 542.941 719.668 543.38 719.652C549.166 730.025 559.548 741.176 570.859 748.757C585.554 758.607 600.416 761.789 612.739 755.814C625.246 749.75 629.638 738.185 627.469 723.232C625.94 712.688 621.459 701.308 614.711 688.425C613.367 685.86 609.949 685.278 607.832 687.254C598.822 695.663 570.615 707.435 546.332 710.551C546.332 710.551 520.563 710.463 505.29 705.166C491.597 700.417 473.008 686.858 473.008 686.858L472.965 686.824L472.753 686.676ZM608.888 697.528L609.34 697.214L609.843 698.243C621.942 723.242 623.417 740.886 608.914 747.918C599.91 752.284 588.115 749.758 575.746 741.468C566.678 735.39 558.216 726.692 552.883 718.431L554.661 718.114C575.357 714.283 597.134 705.538 608.888 697.528Z" fill="black"/>
<path d="M579.479 703.456C581.418 702.188 583.989 702.653 585.369 704.47L585.55 704.727L600.463 727.535C601.789 729.563 601.22 732.281 599.192 733.607C597.253 734.875 594.682 734.409 593.302 732.592L593.121 732.336L578.208 709.527C576.882 707.5 577.451 704.782 579.479 703.456Z" fill="black"/>
</svg>
