<svg width="1080" height="1080" viewBox="0 0 1080 1080" fill="none" xmlns="http://www.w3.org/2000/svg">
<path d="M515 691.909C525.677 685.93 568.81 678.329 568.81 695.753C568.81 717.533 539.342 716.252 539.342 716.252C539.342 716.252 572.768 708.152 566.247 731.626C559.841 754.687 541.905 745.719 536.78 743.157" stroke="black" stroke-width="10.2495"/>
<path d="M707.661 738.309C701.843 724.669 679.933 724.949 658.716 738.875C658.499 739.019 658.281 739.201 658.047 739.338C657.967 739.078 657.924 738.797 657.846 738.547C651.111 714.084 634.83 699.406 621.463 705.815C608.126 712.172 602.748 737.187 609.486 761.655C614.741 780.798 623.945 796.31 634.912 800.719C645.034 804.789 663.217 799.077 679.799 788.162C701.004 774.227 713.49 751.892 707.661 738.309Z" fill="#D13852" stroke="black" stroke-width="10"/>
</svg>
