<svg width="1080" height="1080" viewBox="0 0 1080 1080" fill="none" xmlns="http://www.w3.org/2000/svg">
<path d="M570.209 676.051C560.338 676.37 551.463 672.224 541.022 673.595C531.387 674.871 523.177 678.729 514.729 681.854C498.118 688.009 501.583 702.358 496.315 714.093C493.759 726.888 491.384 740.109 499.068 750.253C510.885 760.872 525.74 765.049 544.771 765.081C566.175 765.113 573.009 752.931 585.017 742.313C591.043 729.092 588.67 726.888 588.67 714.093C588.67 706.917 589.146 695.438 585.017 688.583C583.166 685.458 574.955 674.711 569.118 676.019H570.209V676.051Z" fill="#2B2B2B"/>
<path d="M550.15 733.42C562.612 735.602 576.116 742.724 574.469 751.643V750.616C573.756 754.691 566.729 756.295 560.471 757.642C552.675 759.343 543.453 761.717 534.834 760.883C526.27 760.048 510.347 759.108 508.865 755.033C508.151 753.044 510.858 751.725 500.144 748.912C498.936 747.597 503.045 742.365 506.105 740.598C512.043 737.169 519.845 734.184 528.079 732.577C539.064 730.972 545.978 732.682 550.15 733.42Z" fill="#E50E0E"/>
<path d="M503.246 696.028C510.123 695.632 574.28 696.028 583.917 696.722C584.279 689.218 576.504 684.981 573.698 682.733C568.857 678.833 555.03 675.962 548.198 676.359C538.426 676.954 525.514 676.945 517.234 680.911L503.246 696.028Z" fill="white"/>
<path d="M533.146 672.676C494.372 676.917 490.821 714.608 489 729.095C488.998 758.261 522.468 775.768 558.442 766.425C596.41 756.572 592.803 706.445 588.247 695.093C584.07 684.761 577.9 667.765 533.146 672.676ZM545.464 758.323C504.482 758.323 489.992 740.495 498.107 719.162C498.29 701.28 519.964 671.765 562.768 683.644C596.343 692.962 588.247 758.323 545.464 758.323Z" fill="#2B2B2B"/>
</svg>
