<svg width="1080" height="1080" viewBox="0 0 1080 1080" fill="none" xmlns="http://www.w3.org/2000/svg">
<path fill-rule="evenodd" clip-rule="evenodd" d="M523.806 690.701C544.951 689.864 584.101 693.737 600.07 706.23C616.493 718.601 607.921 751.93 593.204 754.88C574.615 758.607 573.84 743.262 520.396 752.556L504.13 757.204C494.061 758.753 480.893 759.527 473.147 744.811C463.862 713.415 492.239 690.556 523.806 690.701Z" fill="#231F20"/>
<path fill-rule="evenodd" clip-rule="evenodd" d="M560.914 704.548C548.292 702.79 538.985 701.435 522.638 703.709C511.202 704.767 492.512 716.152 492.512 718.713C492.512 720.025 494.061 720.799 497.159 720.799C499.483 720.799 528.745 718.52 544.258 719.274C552.928 719.45 561.826 720.306 570.482 719.931C581.586 719.931 580.811 712.279 576.938 708.94C571.999 706.885 566.081 705.278 560.914 704.548Z" fill="white"/>
</svg>
