<svg width="1080" height="1080" viewBox="0 0 1080 1080" fill="none" xmlns="http://www.w3.org/2000/svg">
<path d="M561.171 692.421C561.277 692.473 561.422 692.556 561.601 692.683C561.849 692.86 562.123 693.095 562.405 693.384C568.863 699.994 577.412 704.277 585.447 707.394C593.199 710.4 601.954 712.805 607.324 714.655C607.44 714.695 607.546 714.737 607.643 714.774C607.53 714.929 607.398 715.1 607.24 715.284C606.543 716.095 605.503 717.021 604.133 717.951C599.054 721.399 594.392 725.708 589.938 729.935C585.387 734.255 581.034 738.51 576.203 742.393C566.742 749.998 555.86 755.827 540.315 755.827C524.641 755.827 513.37 750.059 503.636 742.516C498.688 738.681 494.209 734.445 489.649 730.17C485.18 725.979 480.568 721.685 475.691 718.207C474.451 717.322 473.413 716.356 472.654 715.439C472.21 714.902 471.915 714.445 471.724 714.088C474.436 713.151 477.706 712.303 481.56 711.305C485.333 710.327 489.562 709.229 493.812 707.841C502.249 705.085 511.457 700.98 518.316 693.546C518.598 693.241 518.872 692.996 519.119 692.813C519.253 692.715 519.366 692.644 519.456 692.594C522.024 693.832 524.861 695.874 528.382 698.191C530.078 699.307 531.939 700.48 533.766 701.378C535.488 702.225 537.811 703.154 540.315 703.154C542.912 703.154 545.272 702.158 547 701.262C548.822 700.317 550.668 699.086 552.326 697.947C555.813 695.553 558.603 693.525 561.171 692.421Z" fill="#EFBBBB" stroke="#150C0C" stroke-width="11.5009"/>
<path d="M473.773 717.217C507.24 732.551 568.459 732.551 601.926 717.217" stroke="#150C0C" stroke-width="11.5009" stroke-linecap="round"/>
</svg>
