<svg width="1080" height="1080" viewBox="0 0 1080 1080" fill="none" xmlns="http://www.w3.org/2000/svg">
<rect x="466" y="701.125" width="146.62" height="50.2697" rx="8.37828" transform="rotate(-0.439881 466 701.125)" fill="black"/>
<path fill-rule="evenodd" clip-rule="evenodd" d="M599.48 700.105L479.137 701.029L482.072 715.908C483.24 721.833 488.459 726.089 494.498 726.043L584.505 725.352C590.544 725.305 595.696 720.97 596.774 715.027L599.48 700.105ZM599.864 750.374L479.519 751.298L482.226 736.37C483.303 730.428 488.456 726.092 494.495 726.046L584.502 725.355C590.541 725.308 595.759 729.564 596.928 735.49L599.864 750.374Z" fill="white"/>
<path d="M602.289 697.387C609.882 696.245 616.82 702.067 616.88 709.806L617.115 740.397C617.174 748.135 610.325 754.064 602.716 753.039C587.973 751.052 559.817 747.683 539.67 747.838C519.524 747.993 491.423 751.793 476.713 754.006C469.12 755.148 462.18 749.325 462.121 741.587L461.886 710.996C461.827 703.257 468.676 697.329 476.286 698.355C491.028 700.342 519.184 703.709 539.33 703.554C559.477 703.4 587.578 699.6 602.289 697.387Z" stroke="black" stroke-width="8.37828"/>
</svg>
