<svg width="1080" height="1080" viewBox="0 0 1080 1080" fill="none" xmlns="http://www.w3.org/2000/svg">
<path d="M598.781 723.726C594.974 731.462 589.328 737.748 582.764 742.704C558.608 760.714 521.193 760.593 498.612 744.396C497.956 743.913 497.299 743.429 496.643 742.825C490.604 737.99 485.615 732.188 482.202 725.418C478.788 718.77 475.638 707.891 480.495 701.727C485.484 695.562 493.623 692.298 501.369 694.837C505.308 696.046 509.509 697.617 513.447 699.309C528.807 705.716 544.824 706.441 561.628 701.243C567.142 699.551 572.918 697.738 578.826 697.133C595.105 695.562 605.87 709.584 598.781 723.726Z" fill="black" stroke="black" stroke-width="8.6628"/>
<path d="M518.804 731.48C528.138 728.055 540.238 726.423 551.729 728.108C562.341 729.665 572.221 734.013 579.044 742.154C555.941 757.81 521.669 757.346 500.633 742.644L500.123 742.282C500.107 742.27 500.09 742.258 500.074 742.246C500.585 741.734 501.239 741.191 501.973 740.641C502.794 740.025 503.651 739.448 504.42 738.941C505.068 738.514 505.768 738.061 506.225 737.729C510.105 735.196 514.381 733.109 518.804 731.48Z" fill="#E50E0E" stroke="black" stroke-width="5.19768"/>
</svg>
