<svg width="1080" height="1080" viewBox="0 0 1080 1080" fill="none" xmlns="http://www.w3.org/2000/svg">
<path d="M582.858 696.346C556.27 696.346 522.021 716.626 487.914 704.702C451.776 692.067 487.915 748.001 537.69 748.001C606.824 748.001 611.433 696.346 582.858 696.346Z" fill="white" stroke="black" stroke-width="9.22407"/>
<path d="M578.178 721.955C576.965 721.921 552.01 721.065 539.359 707.601C526.708 721.065 501.753 721.921 500.607 721.955C500.127 721.955 499.727 721.966 499.327 721.966C482.624 721.966 470.386 718.27 462.948 710.967C454.003 702.182 455.603 691.559 455.669 691.114L456.656 684.941L461.708 689.414C465.041 692.369 468.56 693.807 472.439 693.807C481.931 693.807 490.569 685.226 491.235 684.542C501.087 673.235 511.978 672.014 516.204 672.014C517.31 672.014 518.123 672.094 518.55 672.151C529.094 672.641 535.493 675.482 539.346 678.483C543.185 675.482 549.584 672.641 560.141 672.151C560.555 672.094 561.368 672.014 562.488 672.014C566.713 672.014 577.605 673.235 587.456 684.542C588.096 685.192 596.747 693.807 606.252 693.807C610.131 693.807 613.637 692.369 616.983 689.414L622.036 684.941L623.035 691.103C623.102 691.548 624.702 702.182 615.77 710.967C608.332 718.27 596.094 721.966 579.391 721.966C579.391 721.966 578.578 721.967 578.178 721.955Z" fill="#754C24"/>
<path d="M626.524 690.69L624.538 678.356L614.433 687.313C611.807 689.641 609.128 690.782 606.248 690.782C599.556 690.782 592.371 684.883 590.238 682.692C579.44 670.335 567.23 669 562.484 669C561.297 669 560.378 669.068 559.791 669.148C550.26 669.616 543.754 671.898 539.355 674.602C534.956 671.898 528.451 669.616 518.919 669.148C518.319 669.08 517.413 669 516.227 669C511.468 669 499.27 670.335 488.472 682.681C486.206 684.997 479.114 690.782 472.462 690.782C469.583 690.782 466.917 689.652 464.277 687.313L454.159 678.356L452.173 690.69C452.093 691.192 450.307 703.15 460.291 712.951C468.436 720.938 481.567 724.989 499.337 724.989C499.75 724.989 500.163 724.989 500.59 724.977H500.656H500.723C501.869 724.943 525.158 724.144 539.355 712.107C553.552 724.144 576.854 724.943 577.987 724.977H578.054H578.121C578.534 724.977 578.961 724.989 579.374 724.989C597.144 724.989 610.288 720.938 618.419 712.94C628.404 703.139 626.618 691.192 626.524 690.69ZM579.374 718.941C578.987 718.941 578.601 718.941 578.214 718.93C578.214 718.93 549.553 718.131 539.342 702.18C529.131 718.131 500.483 718.93 500.483 718.93C500.096 718.93 499.71 718.941 499.323 718.941C454.759 718.941 459.171 691.523 459.171 691.523C463.571 695.414 468.13 696.84 472.449 696.84C484.14 696.84 494.031 686.423 494.031 686.423C502.856 676.268 512.241 675.047 516.213 675.047C517.466 675.047 518.173 675.173 518.173 675.173C530.65 675.72 536.556 679.691 539.342 683.011C542.128 679.691 548.033 675.72 560.511 675.173C560.511 675.173 561.231 675.047 562.484 675.047C566.47 675.047 575.855 676.257 584.666 686.423C584.666 686.423 594.557 696.84 606.248 696.84C610.568 696.84 615.127 695.425 619.526 691.523C619.512 691.512 623.951 718.941 579.374 718.941Z" fill="black"/>
</svg>
