<svg width="1080" height="1080" viewBox="0 0 1080 1080" fill="none" xmlns="http://www.w3.org/2000/svg">
<path d="M514 692.457C524.372 686.648 566.276 679.263 566.276 696.19C566.276 717.35 537.649 716.105 537.649 716.105C537.649 716.105 570.121 708.236 563.787 731.041C557.563 753.445 540.138 744.732 535.159 742.243" stroke="black" stroke-width="9.95731"/>
<path fill-rule="evenodd" clip-rule="evenodd" d="M742.007 667H681.09V733.664H742.007H743.491V733.624C759.213 732.756 771.722 718.183 771.722 700.332C771.722 682.481 759.213 667.908 743.491 667.041V667H742.007Z" fill="#FFEC44"/>
<path d="M681.09 667V661.533C678.071 661.533 675.623 663.981 675.623 667H681.09ZM681.09 733.664H675.623C675.623 736.684 678.071 739.131 681.09 739.131V733.664ZM743.491 733.664V739.131C746.51 739.131 748.958 736.684 748.958 733.664H743.491ZM743.491 733.624L743.19 728.165C740.292 728.325 738.024 730.721 738.024 733.624H743.491ZM743.491 667.041H738.024C738.024 669.943 740.292 672.339 743.19 672.499L743.491 667.041ZM743.491 667H748.958C748.958 663.981 746.51 661.533 743.491 661.533V667ZM681.09 672.467H742.007V661.533H681.09V672.467ZM686.557 733.664V667H675.623V733.664H686.557ZM742.007 728.198H681.09V739.131H742.007V728.198ZM743.491 728.198H742.007V739.131H743.491V728.198ZM738.024 733.624V733.664H748.958V733.624H738.024ZM766.255 700.332C766.255 715.824 755.501 727.486 743.19 728.165L743.792 739.082C762.924 738.027 777.189 720.542 777.189 700.332H766.255ZM743.19 672.499C755.501 673.178 766.255 684.841 766.255 700.332H777.189C777.189 680.122 762.924 662.638 743.792 661.582L743.19 672.499ZM738.024 667V667.041H748.958V667H738.024ZM742.007 672.467H743.491V661.533H742.007V672.467Z" fill="black"/>
<path d="M565.545 710.538C565.545 708.891 566.823 707.527 568.466 707.421L682.487 700.017C684.288 699.9 685.814 701.329 685.814 703.134V730.957C685.814 732.714 684.365 734.126 682.609 734.08L568.588 731.118C566.895 731.074 565.545 729.689 565.545 727.996V710.538Z" fill="#FF7A00" stroke="black" stroke-width="10.9335" stroke-linejoin="round"/>
<ellipse cx="684.251" cy="700.581" rx="29.6767" ry="33.5815" fill="#FFDA56" stroke="black" stroke-width="10.9335" stroke-linejoin="round"/>
<ellipse cx="683.47" cy="699.801" rx="11.7145" ry="10.9335" fill="#1F2024"/>
</svg>
