<svg width="1080" height="1080" viewBox="0 0 1080 1080" fill="none" xmlns="http://www.w3.org/2000/svg">
<path d="M534.005 753.586C541.563 747.771 558.422 715.21 534.001 693.406" stroke="black" stroke-width="11.5725" stroke-linecap="round" stroke-linejoin="round"/>
<path d="M551.488 714.736C549.399 715.049 547.086 716.951 548.831 720.44C550.575 727.417 543.556 733.526 547.958 729.165C557.203 729.322 566.958 726.018 584.59 728.682C635.176 736.324 671.149 825.256 728.813 816.377C769.083 810.214 796.714 772.502 790.55 732.18C790.55 732.18 788.676 719.57 785.189 712.589C783.445 709.097 765.158 707.785 750.302 709.976C735.446 712.167 719.183 716.951 717.478 723.061C715.774 729.17 717.478 743.462 717.478 743.462C717.635 744.349 717.687 745.237 717.74 746.125L717.74 746.125C719.202 766.287 701.692 765.676 685.762 757.946C650.875 741.018 609.011 705.15 579.357 707.357C566.274 708.331 571.507 708.229 551.488 714.736Z" fill="#855629" stroke="black" stroke-width="8.26609"/>
<g opacity="0.15">
<g opacity="0.15">
<path opacity="0.15" d="M744.844 706.922L741.814 687.335L770.072 683L773.101 702.587C779.264 742.857 751.634 780.569 711.363 786.732C706.401 787.515 701.648 787.724 697.104 787.515C729.54 775.763 750.276 742.335 744.844 706.922Z" fill="white" stroke="black" stroke-width="8.26609"/>
</g>
</g>
<path d="M740.703 731.781C723.957 730.385 718.026 726.547 717.154 724.803C717.154 716.43 736.342 712.011 747.68 710.848C747.68 710.848 758.278 709.068 765.124 709.104C771.631 709.138 779.951 709.976 781.695 710.848C783.439 711.721 786.056 711.72 786.928 716.081C787.8 720.443 765.124 733.816 740.703 731.781Z" fill="#4D2907" stroke="black" stroke-width="6.61287"/>
</svg>
