<svg width="1080" height="1080" viewBox="0 0 1080 1080" fill="none" xmlns="http://www.w3.org/2000/svg">
<path d="M519.828 730.611C514.873 728.672 504.233 719.798 500.793 716.298C502.67 715.343 515.136 714.839 519.828 712.93C524.706 710.945 533.009 708.068 539.264 703.932C542.079 705.204 548.014 709.886 556.241 712.93C565.345 716.298 572.956 714.727 578.586 713.772C577.961 716.318 576.528 722.739 564.517 728.085C549.504 734.767 532.026 735.384 519.828 730.611Z" fill="white" stroke="black" stroke-width="8.27589"/>
<path d="M558.207 719.393C584.935 734.841 620.709 761.179 650.462 784.22C665.966 796.227 679.764 807.283 689.686 815.337C694.646 819.363 698.636 822.639 701.385 824.906C701.572 825.06 701.753 825.211 701.928 825.356C657.328 881.319 595.624 913.727 529.221 920.895C529.051 919.661 528.85 918.202 528.625 916.537C527.844 910.758 526.749 902.504 525.498 892.611C522.995 872.819 519.868 846.488 517.363 820.294C514.854 794.063 512.985 768.116 512.97 749.035C512.962 739.435 513.428 731.882 514.412 726.966C514.756 725.247 515.123 724.086 515.43 723.352C519.832 724.186 527.993 725.555 536.18 725.563C540.815 725.568 545.739 725.14 550.108 723.779C552.987 722.882 555.853 721.502 558.207 719.393Z" fill="url(#paint0_linear_4318_1856)" stroke="black" stroke-width="9.93107"/>
<path d="M684.702 812.966C685.251 813.241 686.078 813.77 687.378 814.745L687.378 814.744C689.4 816.26 691.807 817.61 694.049 818.802C696.43 820.068 698.544 821.119 700.588 822.278C702.581 823.407 704.021 824.379 704.933 825.241C659.687 882.883 594.571 916.219 526.607 922.852C526.105 921.074 525.791 918.253 525.721 914.749C525.581 907.77 526.419 899.621 527.31 895.436L527.311 895.432C527.405 894.992 527.505 894.643 527.603 894.375C527.644 894.264 527.683 894.172 527.716 894.098C528.364 893.981 529.24 894.033 530.841 894.202L531.767 894.303C540.871 895.319 547.921 890.575 553.005 887.363C558.7 883.765 561.968 882.072 565.761 883.105C567.649 883.618 569.328 884.284 571.637 885.074C573.644 885.761 575.971 886.479 578.508 886.795L579.018 886.853C585.465 887.507 591.599 885.248 596.272 883.56L596.273 883.56C602.759 881.215 610.612 878.392 616.658 872.78L617.238 872.228C620.652 868.89 623.15 864.852 625.285 861.516C627.542 857.99 629.463 855.124 631.939 852.92L631.94 852.919C636.032 849.274 641.501 847.515 648.289 845.431C654.656 843.477 662.339 841.197 668.329 835.847C671.785 832.761 674.21 829.097 676.226 825.724C678.226 822.377 679.694 819.579 681.56 816.905L681.939 816.372C683.131 814.723 683.937 813.721 684.553 813.109C684.607 813.055 684.657 813.008 684.702 812.966Z" fill="#D87736" stroke="black" stroke-width="9.93107"/>
<path d="M598.238 748.73C597.634 749.992 596.932 751.214 596.104 752.382L595.624 753.032C587.299 763.93 571.634 766.276 560.365 758.402L559.831 758.02C548.541 749.705 546.262 734.018 554.704 722.965C555.664 721.713 556.73 720.584 557.876 719.56L598.238 748.73Z" fill="#8E0909" stroke="black" stroke-width="3.31036"/>
<path d="M598.176 748.685C597.463 750.181 596.607 751.622 595.567 752.984C587.14 764.02 571.161 766.262 559.886 757.958C548.63 749.666 546.357 734.024 554.775 723.006L554.775 723.005C555.729 721.756 556.796 720.631 557.945 719.607L598.176 748.685Z" fill="#8F0909" stroke="black" stroke-width="3.31036"/>
<path d="M598.117 748.634C597.404 750.131 596.548 751.572 595.508 752.934C587.106 763.937 571.174 766.173 559.935 757.893L559.934 757.893C548.712 749.632 546.443 734.037 554.837 723.052L554.838 723.051C555.792 721.801 556.859 720.673 558.007 719.648L598.117 748.634Z" fill="#900A0A" stroke="black" stroke-width="3.31036"/>
<path d="M598.05 748.59C597.337 750.085 596.479 751.529 595.44 752.889C587.063 763.852 571.18 766.079 559.974 757.829L559.973 757.829C548.793 749.591 546.534 734.044 554.898 723.093L554.898 723.092C555.851 721.843 556.918 720.718 558.066 719.694L598.05 748.59Z" fill="#910A0A" stroke="black" stroke-width="3.31036"/>
<path d="M597.984 748.55C597.275 750.045 596.419 751.488 595.38 752.849C587.021 763.784 571.19 766.001 560.019 757.775C548.867 749.562 546.617 734.06 554.956 723.142C555.915 721.891 556.984 720.764 558.131 719.744L597.984 748.55Z" fill="#920B0B" stroke="black" stroke-width="3.31036"/>
<path d="M597.918 748.5C597.32 749.759 596.62 750.982 595.792 752.149L595.312 752.799C586.984 763.7 571.201 765.912 560.065 757.711C548.947 749.516 546.703 734.066 555.017 723.184L555.018 723.183C555.971 721.935 557.04 720.81 558.19 719.789L597.918 748.5Z" fill="#930B0B" stroke="black" stroke-width="3.31036"/>
<path d="M597.857 748.454C597.151 749.947 596.295 751.389 595.256 752.75C586.952 763.618 571.216 765.826 560.115 757.649C549.031 749.484 546.792 734.081 555.081 723.232L555.081 723.231C556.035 721.981 557.106 720.853 558.259 719.831L597.857 748.454Z" fill="#940C0C" stroke="black" stroke-width="3.31036"/>
<path d="M597.792 748.413C597.086 749.906 596.23 751.349 595.191 752.71C586.912 763.544 571.222 765.747 560.156 757.594C549.108 749.454 546.873 734.099 555.136 723.284C556.095 722.034 557.167 720.908 558.322 719.884L597.792 748.413Z" fill="#950C0C" stroke="black" stroke-width="3.31036"/>
<path d="M597.728 748.362C597.133 749.622 596.433 750.846 595.605 752.014L595.125 752.664C586.871 763.469 571.23 765.662 560.199 757.534C549.184 749.418 546.96 734.108 555.199 723.327C556.158 722.073 557.23 720.947 558.383 719.926L597.728 748.362Z" fill="#960C0C" stroke="black" stroke-width="3.31036"/>
<path d="M597.671 748.327C596.968 749.821 596.112 751.265 595.072 752.627C586.843 763.393 571.248 765.576 560.251 757.477C549.443 749.512 547.129 734.598 554.889 723.882L555.267 723.375C556.225 722.121 557.297 720.995 558.45 719.974L597.671 748.327Z" fill="#970D0D" stroke="black" stroke-width="3.31036"/>
<path d="M597.608 748.275C597.016 749.534 596.317 750.757 595.488 751.925L595.009 752.576C586.81 763.307 571.264 765.486 560.301 757.412C549.356 749.35 547.146 734.133 555.33 723.42L555.332 723.417C556.284 722.165 557.358 721.042 558.512 720.024L597.608 748.275Z" fill="#980D0D" stroke="black" stroke-width="3.31036"/>
<path d="M597.534 748.23C596.943 749.491 596.245 750.714 595.418 751.882L594.94 752.531C586.766 763.229 571.266 765.404 560.338 757.353C549.423 749.316 547.222 734.146 555.382 723.466C556.342 722.21 557.415 721.084 558.574 720.064L597.534 748.23Z" fill="#990E0E" stroke="black" stroke-width="3.31036"/>
<path d="M555.319 723.752C555.646 723.715 556.146 723.719 556.827 723.776C558.178 723.891 559.914 724.186 561.751 724.512C563.547 724.83 565.44 725.178 566.978 725.36C567.746 725.45 568.49 725.508 569.128 725.489C569.355 725.482 569.591 725.464 569.825 725.429L597.513 748.106C596.805 749.628 595.942 751.096 594.886 752.478C586.864 762.981 571.766 765.243 560.905 757.656L560.391 757.287L559.887 756.906C549.528 748.868 547.476 734.23 555.259 723.761C555.277 723.758 555.297 723.754 555.319 723.752Z" fill="#9A0E0E" stroke="black" stroke-width="3.31036"/>
<path d="M556.762 723.815C558.031 723.922 559.662 724.208 561.397 724.525C563.09 724.834 564.885 725.173 566.351 725.349C567.082 725.436 567.798 725.492 568.418 725.47C568.636 725.463 568.863 725.443 569.089 725.407L597.448 748.078C596.741 749.595 595.88 751.059 594.827 752.437C586.702 763.072 571.304 765.233 560.439 757.231C549.676 749.304 547.437 734.404 555.327 723.802C555.338 723.8 555.349 723.797 555.361 723.796C555.659 723.759 556.122 723.761 556.762 723.815Z" fill="#9B0F0F" stroke="black" stroke-width="3.31036"/>
<path d="M555.401 723.877C555.744 723.852 556.269 723.877 556.98 723.965C558.391 724.14 560.206 724.517 562.119 724.928C563.991 725.33 565.959 725.764 567.554 726.011C568.349 726.134 569.118 726.223 569.773 726.226C570.023 726.228 570.285 726.216 570.544 726.182L597.377 748.019C596.673 749.538 595.81 751.005 594.755 752.386C586.661 762.982 571.309 765.139 560.479 757.161C549.77 749.273 547.527 734.447 555.358 723.881C555.372 723.88 555.386 723.878 555.401 723.877Z" fill="#9C0F0F" stroke="black" stroke-width="3.31036"/>
<path d="M556.628 723.885C557.732 723.979 559.15 724.243 560.684 724.544C562.169 724.834 563.769 725.16 565.09 725.324C565.75 725.406 566.412 725.458 566.999 725.431C567.175 725.422 567.387 725.404 567.616 725.365L597.299 748.017C596.598 749.523 595.742 750.977 594.695 752.348C586.626 762.915 571.322 765.057 560.526 757.108C549.826 749.231 547.605 734.412 555.461 723.876C555.7 723.844 556.082 723.839 556.628 723.885Z" fill="#9D0F0F" stroke="black" stroke-width="3.31036"/>
<path d="M556.686 723.921C557.783 724.01 559.191 724.269 560.717 724.564C562.193 724.849 563.784 725.169 565.099 725.33C565.757 725.41 566.417 725.46 567.002 725.432C567.178 725.424 567.388 725.405 567.615 725.366L597.241 747.968C596.54 749.475 595.683 750.928 594.637 752.299C586.586 762.832 571.336 764.969 560.575 757.045C549.909 749.191 547.698 734.418 555.527 723.915C555.764 723.882 556.144 723.876 556.686 723.921Z" fill="#9E1010" stroke="black" stroke-width="3.31036"/>
<path d="M556.795 723.91C557.888 723.964 559.291 724.175 560.809 724.418C562.28 724.653 563.864 724.919 565.173 725.038C565.828 725.097 566.483 725.128 567.062 725.085C567.227 725.072 567.421 725.05 567.63 725.011L597.184 747.917C596.486 749.429 595.628 750.886 594.578 752.26C586.552 762.761 571.349 764.892 560.622 756.993C549.983 749.152 547.782 734.414 555.606 723.945C555.61 723.944 555.615 723.944 555.62 723.943C555.86 723.901 556.245 723.883 556.795 723.91Z" fill="#9F1010" stroke="black" stroke-width="3.31036"/>
<path d="M555.622 724.05C555.875 724.029 556.272 724.044 556.829 724.115C557.986 724.263 559.474 724.602 561.075 724.981C562.629 725.349 564.295 725.756 565.666 725.982C566.351 726.095 567.035 726.176 567.639 726.171C567.831 726.17 568.072 726.16 568.335 726.12L597.111 747.881C596.414 749.387 595.558 750.839 594.512 752.209C586.516 762.675 571.36 764.803 560.668 756.928C550.084 749.131 547.876 734.482 555.622 724.05Z" fill="#A01111" stroke="black" stroke-width="3.31036"/>
<path d="M555.683 724.092C555.933 724.07 556.327 724.083 556.882 724.152C558.034 724.296 559.514 724.629 561.109 725.003C562.656 725.365 564.314 725.766 565.68 725.988C566.362 726.099 567.044 726.177 567.646 726.171C567.837 726.169 568.077 726.159 568.338 726.119L597.038 747.843C596.453 749.113 595.754 750.345 594.92 751.522L594.442 752.172C586.471 762.603 571.363 764.721 560.706 756.87C550.154 749.097 547.957 734.49 555.683 724.092Z" fill="#A11111" stroke="black" stroke-width="3.31036"/>
<path d="M596.993 747.781C596.407 749.055 595.706 750.291 594.87 751.471L594.392 752.12C586.446 762.518 571.385 764.631 560.763 756.804C550.158 748.991 548.016 734.252 555.948 723.872C555.899 723.936 556.045 723.753 556.86 723.55C557.577 723.371 558.486 723.25 559.511 723.132C560.488 723.02 561.593 722.909 562.532 722.743C563.008 722.659 563.491 722.553 563.934 722.41C563.971 722.397 564.009 722.382 564.047 722.368L596.993 747.781Z" fill="#A11111" stroke="black" stroke-width="3.31036"/>
<path d="M596.911 747.773C596.328 749.034 595.633 750.257 594.805 751.426L594.328 752.075C586.406 762.439 571.391 764.542 560.803 756.745C550.234 748.955 548.097 734.261 556.004 723.917C556.967 722.659 558.047 721.536 559.212 720.522L596.911 747.773Z" fill="#A21212" stroke="black" stroke-width="3.31036"/>
<path d="M596.846 747.726C596.155 749.223 595.307 750.666 594.268 752.027C586.377 762.357 571.411 764.456 560.857 756.683C550.487 749.045 548.263 734.734 555.71 724.452L556.072 723.965C557.029 722.712 558.111 721.587 559.275 720.571L596.846 747.726Z" fill="#A31212" stroke="black" stroke-width="3.31036"/>
<path d="M556.989 724.171C557.965 724.221 559.216 724.423 560.594 724.662C561.919 724.892 563.368 725.156 564.578 725.274C565.184 725.334 565.802 725.364 566.359 725.319C566.517 725.306 566.698 725.284 566.891 725.247L596.797 747.655C596.104 749.159 595.253 750.612 594.209 751.979C586.466 762.119 571.889 764.302 561.402 756.977L560.906 756.621L560.419 756.253C550.399 748.48 548.43 734.306 555.99 724.201C556.188 724.165 556.513 724.147 556.989 724.171Z" fill="#A41313" stroke="black" stroke-width="3.31036"/>
<path d="M596.717 747.632C596.029 749.127 595.182 750.573 594.144 751.932C586.302 762.2 571.43 764.285 560.946 756.561L560.946 756.56C550.475 748.849 548.362 734.303 556.19 724.053C557.15 722.798 558.229 721.672 559.395 720.661L596.717 747.632Z" fill="#A51313" stroke="black" stroke-width="3.31036"/>
<path d="M557.211 724.263C558.251 724.315 559.586 724.522 561.041 724.763C562.446 724.996 563.969 725.261 565.233 725.38C565.866 725.44 566.503 725.471 567.072 725.427C567.234 725.415 567.423 725.393 567.625 725.356L596.671 747.554C596.088 748.828 595.392 750.065 594.558 751.243L594.082 751.892C586.264 762.12 571.44 764.2 560.991 756.501C550.627 748.863 548.48 734.499 556.107 724.295C556.328 724.255 556.688 724.237 557.211 724.263Z" fill="#A61414" stroke="black" stroke-width="3.31036"/>
<path d="M557.259 724.306C558.293 724.357 559.619 724.564 561.066 724.804C562.463 725.036 563.979 725.3 565.238 725.419C565.868 725.479 566.504 725.509 567.072 725.466C567.234 725.454 567.423 725.432 567.624 725.394L596.602 747.505C596.019 748.778 595.323 750.015 594.49 751.193L594.013 751.842C586.226 762.042 571.456 764.112 561.035 756.436C550.7 748.823 548.562 734.507 556.163 724.337C556.383 724.297 556.74 724.28 557.259 724.306Z" fill="#A71414" stroke="black" stroke-width="3.31036"/>
<path d="M557.551 724.357C558.731 724.413 560.248 724.628 561.874 724.873C563.454 725.112 565.142 725.379 566.528 725.501C567.221 725.561 567.905 725.591 568.501 725.551C568.672 725.54 568.877 725.519 569.098 725.48L596.555 747.429C595.866 748.948 595.011 750.414 593.958 751.792L593.958 751.793C586.196 761.959 571.473 764.024 561.087 756.373L561.086 756.373C550.791 748.794 548.655 734.534 556.219 724.399C556.231 724.396 556.245 724.393 556.26 724.39C556.531 724.345 556.956 724.329 557.551 724.357Z" fill="#A81414" stroke="black" stroke-width="3.31036"/>
<path d="M596.478 747.428C595.792 748.932 594.942 750.386 593.898 751.753C586.16 761.884 571.485 763.941 561.133 756.319C550.8 748.711 548.716 734.35 556.44 724.236L556.441 724.235C556.387 724.306 556.494 724.14 557.228 723.977C557.883 723.833 558.713 723.755 559.674 723.685C560.582 723.619 561.63 723.559 562.53 723.431C562.981 723.367 563.511 723.269 564.029 723.097L596.478 747.428Z" fill="#A91515" stroke="black" stroke-width="3.31036"/>
<path d="M557.293 724.44C558.228 724.488 559.429 724.687 560.759 724.924C562.036 725.151 563.44 725.415 564.617 725.532C565.208 725.591 565.813 725.622 566.364 725.577C566.52 725.564 566.698 725.541 566.887 725.504L596.411 747.388C595.726 748.89 594.876 750.34 593.833 751.706C586.114 761.804 571.491 763.856 561.174 756.259L561.175 756.259C550.94 748.716 548.825 734.537 556.355 724.469C556.54 724.435 556.844 724.417 557.293 724.44Z" fill="#AA1515" stroke="black" stroke-width="3.31036"/>
<path d="M557.454 725.028C558.552 725.082 559.962 725.291 561.487 725.534C562.964 725.77 564.555 726.037 565.868 726.158C566.526 726.219 567.182 726.25 567.762 726.209C567.933 726.197 568.134 726.175 568.351 726.135L596.346 747.339C595.769 748.609 595.074 749.844 594.242 751.02L593.766 751.669C586.078 761.733 571.503 763.774 561.221 756.201C551.002 748.675 548.78 735.07 556.254 725.065C556.26 725.064 556.266 725.063 556.273 725.062C556.514 725.019 556.902 725.001 557.454 725.028Z" fill="#AB1616" stroke="black" stroke-width="3.31036"/>
<path d="M557.523 724.534C558.523 724.584 559.806 724.788 561.214 725.027C562.57 725.257 564.048 725.522 565.279 725.641C565.896 725.7 566.521 725.73 567.083 725.687C567.243 725.674 567.428 725.652 567.626 725.615L596.292 747.288C595.716 748.557 595.021 749.791 594.189 750.967L593.713 751.616C586.049 761.646 571.521 763.682 561.274 756.134C551.11 748.646 549.008 734.565 556.485 724.564C556.692 724.527 557.03 724.509 557.523 724.534Z" fill="#AC1616" stroke="black" stroke-width="3.31036"/>
<path d="M556.487 724.692C556.761 724.67 557.189 724.688 557.788 724.767C559.006 724.927 560.572 725.284 562.248 725.681C563.879 726.067 565.616 726.491 567.041 726.732C567.753 726.852 568.457 726.94 569.073 726.942C569.306 726.943 569.553 726.932 569.8 726.898L596.229 747.239C595.549 748.747 594.697 750.204 593.649 751.576C586.01 761.573 571.531 763.605 561.318 756.081C551.214 748.636 549.102 734.654 556.487 724.692Z" fill="#AD1717" stroke="black" stroke-width="3.31036"/>
<path d="M596.15 747.219C595.469 748.72 594.625 750.165 593.586 751.526C585.971 761.489 571.538 763.517 561.361 756.017C551.2 748.53 549.146 734.406 556.745 724.462C557.709 723.203 558.797 722.082 559.974 721.074L596.15 747.219Z" fill="#AE1717" stroke="black" stroke-width="3.31036"/>
<path d="M596.096 747.173C595.416 748.673 594.572 750.119 593.533 751.48C585.943 761.414 571.558 763.428 561.414 755.957C551.282 748.494 549.239 734.417 556.813 724.508L556.815 724.506C557.778 723.243 558.865 722.119 560.043 721.115L596.096 747.173Z" fill="#AF1717" stroke="black" stroke-width="3.31036"/>
<path d="M596.021 747.122C595.344 748.622 594.501 750.068 593.462 751.429L593.461 751.429C585.902 761.328 571.565 763.337 561.455 755.891L560.988 755.537C551.298 748.02 549.442 734.275 556.868 724.553C557.832 723.295 558.923 722.172 560.101 721.167L596.021 747.122Z" fill="#B01818" stroke="black" stroke-width="3.31036"/>
<path d="M595.959 747.091C595.282 748.59 594.438 750.036 593.399 751.397C585.864 761.257 571.574 763.261 561.5 755.84C551.443 748.431 549.413 734.448 556.934 724.606L556.934 724.605C557.896 723.343 558.987 722.22 560.164 721.215L595.959 747.091Z" fill="#B11818" stroke="black" stroke-width="3.31036"/>
<path d="M595.891 747.036C595.218 748.534 594.376 749.98 593.336 751.341C585.826 761.168 571.582 763.168 561.543 755.77C551.521 748.386 549.496 734.456 556.99 724.642C557.955 723.382 559.044 722.259 560.222 721.255L595.891 747.036Z" fill="#B21919" stroke="black" stroke-width="3.31036"/>
<path d="M595.836 746.992C595.163 748.49 594.32 749.936 593.281 751.298C585.795 761.096 571.605 763.085 561.594 755.712C551.602 748.352 549.586 734.469 557.056 724.689C558.026 723.423 559.116 722.3 560.296 721.299L595.836 746.992Z" fill="#B31919" stroke="black" stroke-width="3.31036"/>
<path d="M538.729 804.07C538.729 804.07 521.377 806.253 522.604 816.621C522.604 816.621 526.267 843.483 551.73 837.655C551.73 837.655 564.263 830.61 560.608 812.248C560.608 812.248 559.723 799.002 538.729 804.07ZM530.892 817.912C530.892 817.912 531.86 813.036 539.859 811.319L536.271 829.579C536.265 829.579 528.95 825.544 530.892 817.912ZM541.662 831.938L543.844 824.682L547.757 823.485L555.222 824.77C555.215 824.77 551.073 840.472 541.662 831.938ZM556.307 820.072L544.546 820.243L544.587 812.242C556.03 805.635 556.307 820.072 556.307 820.072Z" fill="#4D4728"/>
<path d="M538.942 805.533C538.942 805.533 523.499 807.568 524.524 816.728C524.524 816.728 527.618 840.45 550.291 835.136C550.291 835.136 561.485 828.832 558.339 812.632C558.339 812.626 557.64 800.917 538.942 805.533ZM531.885 817.809C531.885 817.809 532.778 813.493 539.897 811.93L536.595 828.091C536.595 828.091 530.113 824.568 531.885 817.809ZM541.379 830.14L543.361 823.712L546.849 822.631L553.478 823.722C553.478 823.722 549.695 837.619 541.379 830.14ZM554.475 819.571L544.015 819.783L544.104 812.714C554.314 806.812 554.475 819.571 554.475 819.571Z" fill="#727D49"/>
<g opacity="0.54">
<path opacity="0.54" d="M540.544 811.752C540.544 811.752 542.523 809.376 545.24 812.072L544.662 819.611L555.122 819.393C555.122 819.393 555.81 822.31 554.119 823.544L547.497 822.453L544.008 823.54L542.027 829.969C542.027 829.969 537.857 831.507 537.242 827.92L540.544 811.752Z" fill="#C4CD93"/>
</g>
<path d="M539.818 814.752C540.22 815.366 540.092 816.157 539.536 816.521C538.981 816.879 538.203 816.674 537.801 816.06C537.399 815.446 537.527 814.655 538.089 814.298C538.645 813.927 539.416 814.139 539.818 814.752Z" fill="#C4CD93"/>
<path d="M539.06 824.743C539.437 825.323 539.264 826.107 538.669 826.489C538.073 826.871 537.288 826.711 536.917 826.131C536.54 825.55 536.713 824.773 537.308 824.391C537.897 824.002 538.689 824.162 539.06 824.743Z" fill="#C4CD93"/>
<path d="M544.776 824.427C545.191 825.067 545.042 825.903 544.433 826.297C543.825 826.686 543.001 826.486 542.587 825.846C542.166 825.206 542.322 824.37 542.93 823.982C543.532 823.587 544.355 823.793 544.776 824.427Z" fill="#C4CD93"/>
<path d="M548.885 822.246C549.485 823.163 549.24 824.377 548.354 824.944C547.461 825.524 546.258 825.241 545.664 824.33C545.064 823.413 545.302 822.205 546.195 821.626C547.081 821.052 548.291 821.322 548.885 822.246Z" fill="#C4CD93"/>
<path d="M547.098 812.84C547.661 813.704 547.318 814.935 546.333 815.57C545.341 816.212 544.09 816.024 543.52 815.153C542.957 814.289 543.3 813.065 544.286 812.423C545.271 811.788 546.529 811.976 547.098 812.84Z" fill="#C4CD93"/>
<path d="M515.368 771.054C527.242 767.543 540.558 769.451 551.225 777.432C569.131 790.831 572.757 816.163 559.327 834.02C550.461 845.808 536.382 851.347 522.677 849.925L515.368 771.054Z" fill="#8E0909" stroke="black" stroke-width="1.31273"/>
<path d="M515.37 771.174C527.218 767.662 540.502 769.563 551.143 777.524C568.999 790.882 572.614 816.143 559.225 833.95C550.38 845.705 536.333 851.233 522.661 849.807L515.37 771.174Z" fill="#8F0909" stroke="black" stroke-width="1.31273"/>
<path d="M515.392 771.295C527.207 767.789 540.465 769.681 551.081 777.622L551.081 777.623C568.879 790.947 572.484 816.137 559.135 833.886C550.31 845.617 536.29 851.126 522.65 849.694L515.392 771.295Z" fill="#900A0A" stroke="black" stroke-width="1.31273"/>
<path d="M515.394 771.406C526.996 767.954 539.997 769.727 550.501 777.341L551.006 777.713C568.754 790.991 572.354 816.109 559.039 833.808C550.235 845.513 536.247 851.01 522.64 849.574L515.394 771.406Z" fill="#910A0A" stroke="black" stroke-width="1.31273"/>
<path d="M515.413 771.53C527.17 768.022 540.371 769.901 550.942 777.808C568.64 791.052 572.228 816.093 558.954 833.741C550.17 845.421 536.209 850.899 522.634 849.457L515.413 771.53Z" fill="#920B0B" stroke="black" stroke-width="1.31273"/>
<path d="M515.417 771.645C527.148 768.143 540.323 770.015 550.869 777.902C568.516 791.105 572.088 816.074 558.854 833.673C550.091 845.321 536.161 850.788 522.619 849.341L515.417 771.645Z" fill="#930B0B" stroke="black" stroke-width="1.31273"/>
<path d="M515.435 771.764C527.134 768.261 540.283 770.12 550.803 777.993L550.803 777.994C568.399 791.157 571.961 816.054 558.767 833.602C550.024 845.225 536.122 850.673 522.612 849.22L515.435 771.764Z" fill="#940C0C" stroke="black" stroke-width="1.31273"/>
<path d="M515.444 771.884C527.117 768.381 540.234 770.238 550.73 778.092L550.73 778.091C568.269 791.22 571.825 816.04 558.666 833.537C549.949 845.129 536.074 850.565 522.597 849.107L515.444 771.884Z" fill="#950C0C" stroke="black" stroke-width="1.31273"/>
<path d="M515.454 772.003C527.101 768.5 540.192 770.35 550.662 778.183C568.15 791.272 571.697 816.02 558.578 833.466C549.875 845.033 536.033 850.45 522.588 848.987L515.454 772.003Z" fill="#960C0C" stroke="black" stroke-width="1.31273"/>
<path d="M515.46 772.113C527.075 768.614 540.134 770.451 550.584 778.27C568.028 791.325 571.558 816.002 558.48 833.392C549.804 844.927 535.987 850.331 522.575 848.864L515.46 772.113Z" fill="#970D0D" stroke="black" stroke-width="1.31273"/>
<path d="M515.477 772.239C527.06 768.734 540.093 770.569 550.519 778.368C567.906 791.376 571.424 815.982 558.386 833.321C549.724 844.837 535.94 850.224 522.561 848.751L515.477 772.239Z" fill="#980D0D" stroke="black" stroke-width="1.31273"/>
<path d="M515.479 772.354C527.036 768.855 540.043 770.683 550.443 778.463C567.509 791.228 571.181 815.2 558.888 832.436L558.29 833.252C549.654 844.737 535.898 850.112 522.551 848.634L515.479 772.354Z" fill="#990E0E" stroke="black" stroke-width="1.31273"/>
<path d="M515.503 772.475C527.027 768.975 540.009 770.79 550.383 778.556C567.669 791.49 571.173 815.946 558.209 833.183C549.587 844.643 535.863 849.999 522.549 848.516L515.503 772.475Z" fill="#9A0E0E" stroke="black" stroke-width="1.31273"/>
<path d="M515.505 772.59C527.01 769.096 539.959 770.904 550.308 778.649C567.274 791.341 570.918 815.168 558.7 832.304L558.106 833.115C549.511 844.542 535.815 849.886 522.533 848.398L515.505 772.59Z" fill="#9B0F0F" stroke="black" stroke-width="1.31273"/>
<path d="M515.513 772.704C526.986 769.204 539.903 771.01 550.234 778.735C567.419 791.595 570.901 815.901 558.013 833.038C549.431 844.44 535.767 849.767 522.518 848.274L515.513 772.704Z" fill="#9C0F0F" stroke="black" stroke-width="1.31273"/>
<path d="M515.529 772.826C526.97 769.33 539.861 771.123 550.167 778.834C567.294 791.653 570.765 815.895 557.917 832.975C549.362 844.346 535.725 849.653 522.507 848.161L515.529 772.826Z" fill="#9D0F0F" stroke="black" stroke-width="1.31273"/>
<path d="M515.545 772.932C526.959 769.442 539.825 771.229 550.105 778.921C567.182 791.699 570.642 815.869 557.834 832.899C549.294 844.25 535.69 849.539 522.506 848.042L515.545 772.932Z" fill="#9E1010" stroke="black" stroke-width="1.31273"/>
<path d="M515.546 773.055C526.748 769.614 539.361 771.288 549.533 778.655L550.023 779.015C567.05 791.76 570.499 815.852 557.732 832.831C549.218 844.151 535.641 849.428 522.488 847.926L515.546 773.055Z" fill="#9F1010" stroke="black" stroke-width="1.31273"/>
<path d="M515.556 773.172C526.907 769.681 539.721 771.452 549.95 779.11C566.66 791.609 570.254 815.081 558.216 831.958L557.631 832.757C549.138 844.052 535.593 849.311 522.473 847.803L515.556 773.172Z" fill="#A01111" stroke="black" stroke-width="1.31273"/>
<path d="M515.572 773.3C526.902 769.808 539.678 771.572 549.888 779.21L549.888 779.209C566.813 791.873 570.242 815.816 557.549 832.694C549.076 843.957 535.558 849.204 522.471 847.692L515.572 773.3Z" fill="#A11111" stroke="black" stroke-width="1.31273"/>
<path d="M515.587 773.418C526.886 769.932 539.635 771.689 549.82 779.307C566.688 791.93 570.106 815.802 557.453 832.629C549 843.867 535.515 849.096 522.461 847.578L515.587 773.418Z" fill="#A11111" stroke="black" stroke-width="1.31273"/>
<path d="M515.597 773.535C526.863 770.042 539.587 771.792 549.747 779.395C566.564 791.978 569.971 815.785 557.359 832.556C548.927 843.762 535.468 848.978 522.445 847.455L515.597 773.535Z" fill="#A21212" stroke="black" stroke-width="1.31273"/>
<path d="M515.595 773.648C526.835 770.161 539.533 771.903 549.668 779.487C566.44 792.036 569.837 815.765 557.26 832.485L557.259 832.485C548.852 843.672 535.421 848.87 522.431 847.342L515.595 773.648Z" fill="#A31212" stroke="black" stroke-width="1.31273"/>
<path d="M515.622 773.762C526.831 770.274 539.503 772.009 549.612 779.573C566.327 792.082 569.713 815.739 557.175 832.408C548.783 843.564 535.384 848.75 522.428 847.217L515.622 773.762Z" fill="#A41313" stroke="black" stroke-width="1.31273"/>
<path d="M515.624 773.881C526.812 770.393 539.446 772.121 549.536 779.671C566.201 792.146 569.576 815.725 557.079 832.344C548.714 843.474 535.342 848.642 522.417 847.104L515.624 773.881Z" fill="#A51313" stroke="black" stroke-width="1.31273"/>
<path d="M515.642 774.005C526.621 770.572 539.006 772.183 548.99 779.412L549.47 779.766C565.819 792 569.341 814.971 557.559 831.489L556.987 832.271C548.635 843.376 535.295 848.526 522.403 846.982L515.642 774.005Z" fill="#A61414" stroke="black" stroke-width="1.31273"/>
<path d="M515.648 774.124C526.772 770.641 539.354 772.354 549.393 779.864C565.956 792.258 569.311 815.688 556.888 832.206C548.563 843.28 535.25 848.417 522.39 846.868L515.648 774.124Z" fill="#A71414" stroke="black" stroke-width="1.31273"/>
<path d="M515.657 774.24C526.755 770.75 539.311 772.457 549.325 779.952C565.838 792.306 569.182 815.665 556.8 832.132C548.489 843.181 535.209 848.299 522.382 846.745L515.657 774.24Z" fill="#A81414" stroke="black" stroke-width="1.31273"/>
<path d="M515.679 774.349C526.569 770.92 538.877 772.512 548.786 779.689L549.263 780.04C565.719 792.353 569.052 815.646 556.71 832.057L556.71 832.058C548.426 843.081 535.172 848.188 522.378 846.629L515.679 774.349Z" fill="#A91515" stroke="black" stroke-width="1.31273"/>
<path d="M515.681 774.463C526.714 770.985 539.212 772.675 549.182 780.131C565.331 792.218 568.808 814.903 557.174 831.214L556.608 831.986C548.338 842.984 535.116 848.073 522.354 846.509L515.681 774.463Z" fill="#AA1515" stroke="black" stroke-width="1.31273"/>
<path d="M515.683 774.585C526.697 771.106 539.163 772.785 549.107 780.227C565.468 792.466 568.779 815.61 556.511 831.919C548.268 842.886 535.074 847.957 522.344 846.393L515.683 774.585Z" fill="#AB1616" stroke="black" stroke-width="1.31273"/>
<path d="M515.706 774.704C526.688 771.224 539.128 772.901 549.047 780.323C565.35 792.528 568.651 815.595 556.424 831.853C548.195 842.794 535.034 847.847 522.336 846.279L515.706 774.704Z" fill="#AC1616" stroke="black" stroke-width="1.31273"/>
<path d="M515.714 774.828C526.67 771.348 539.083 773.018 548.977 780.419C565.23 792.578 568.521 815.572 556.335 831.781C548.132 842.69 534.997 847.731 522.332 846.157L515.714 774.828Z" fill="#AD1717" stroke="black" stroke-width="1.31273"/>
<path d="M515.723 774.942C526.647 771.467 539.036 773.124 548.903 780.511L548.903 780.512C565.1 792.63 568.386 815.553 556.234 831.711C548.045 842.595 534.942 847.618 522.31 846.039L515.723 774.942Z" fill="#AE1717" stroke="black" stroke-width="1.31273"/>
<path d="M515.733 775.057C526.624 771.576 538.981 773.231 548.83 780.599C564.976 792.682 568.25 815.535 556.139 831.635L556.139 831.636C547.976 842.495 534.901 847.505 522.3 845.921L515.733 775.057Z" fill="#AF1717" stroke="black" stroke-width="1.31273"/>
<path d="M515.745 775.174C526.61 771.699 538.94 773.347 548.764 780.695C564.865 792.738 568.124 815.518 556.053 831.569C547.904 842.403 534.861 847.394 522.294 845.805L515.745 775.174Z" fill="#B01818" stroke="black" stroke-width="1.31273"/>
<path d="M515.764 775.303C526.604 771.827 538.902 773.462 548.7 780.796C564.745 792.805 567.998 815.508 555.961 831.508L555.961 831.509C547.839 842.31 534.824 847.29 522.289 845.696L515.764 775.303Z" fill="#B11818" stroke="black" stroke-width="1.31273"/>
<path d="M515.765 775.412C526.573 771.942 538.846 773.569 548.619 780.883C564.613 792.852 567.855 815.484 555.859 831.433L555.858 831.434C547.757 842.21 534.769 847.171 522.266 845.572L515.765 775.412Z" fill="#B21919" stroke="black" stroke-width="1.31273"/>
<path d="M515.779 775.536C526.561 772.058 538.807 773.685 548.555 780.978C564.492 792.907 567.724 815.467 555.768 831.366C547.687 842.111 534.731 847.06 522.261 845.456L515.779 775.536Z" fill="#B31919" stroke="black" stroke-width="1.31273"/>
<path d="M516.866 776.367C527.133 773.306 538.668 774.968 547.89 781.873L547.891 781.874C563.341 793.431 566.467 815.286 554.883 830.692C547.219 840.885 535.024 845.696 523.174 844.436L516.866 776.367Z" fill="#B41A1A" stroke="black" stroke-width="3.31036"/>
<path d="M588.746 796.552C599.169 782.692 618.88 779.89 632.778 790.288C646.675 800.686 649.486 820.344 639.064 834.203C628.641 848.062 608.931 850.864 595.033 840.465C581.142 830.067 578.325 810.404 588.746 796.552Z" fill="#8E0909" stroke="black" stroke-width="1.31273"/>
<path d="M588.828 796.601C599.216 782.786 618.875 779.989 632.729 790.354C646.582 800.718 649.387 820.324 638.999 834.138C628.61 847.953 608.953 850.75 595.098 840.385L595.098 840.385C581.239 830.021 578.433 810.415 588.828 796.601Z" fill="#8F0909" stroke="black" stroke-width="1.31273"/>
<path d="M588.893 796.657C599.255 782.88 618.854 780.088 632.67 790.426C646.485 800.763 649.28 820.311 638.925 834.087C628.726 847.649 609.574 850.561 595.799 840.787L595.148 840.312C581.333 829.981 578.532 810.433 588.893 796.657Z" fill="#900A0A" stroke="black" stroke-width="1.31273"/>
<path d="M588.965 796.709C599.131 783.185 618.226 780.278 631.962 790.026L632.612 790.5C646.389 800.803 649.178 820.298 638.845 834.03L638.845 834.031C628.517 847.764 608.976 850.545 595.198 840.24C581.421 829.937 578.631 810.448 588.965 796.709Z" fill="#910A0A" stroke="black" stroke-width="1.31273"/>
<path d="M589.039 796.763C599.34 783.068 618.824 780.292 632.557 790.569C646.289 800.846 649.074 820.277 638.774 833.971C628.474 847.666 608.99 850.442 595.256 840.165C581.524 829.895 578.739 810.458 589.039 796.763Z" fill="#920B0B" stroke="black" stroke-width="1.31273"/>
<path d="M589.111 796.816C599.384 783.158 618.809 780.393 632.505 790.643C646.199 800.892 648.973 820.264 638.701 833.921L638.7 833.921C628.593 847.365 609.607 850.254 595.952 840.564L595.306 840.093C581.612 829.851 578.838 810.472 589.111 796.816Z" fill="#930B0B" stroke="black" stroke-width="1.31273"/>
<path d="M589.186 796.877C599.426 783.264 618.799 780.504 632.45 790.72C646.1 800.936 648.868 820.256 638.629 833.868C628.389 847.481 609.017 850.241 595.366 840.025C581.716 829.809 578.947 810.489 589.186 796.877Z" fill="#940C0C" stroke="black" stroke-width="1.31273"/>
<path d="M589.258 796.933C599.471 783.358 618.785 780.609 632.398 790.798C646.01 800.987 648.767 820.249 638.555 833.823C628.343 847.398 609.035 850.147 595.415 839.957L595.414 839.957C581.803 829.768 579.046 810.507 589.258 796.933Z" fill="#950C0C" stroke="black" stroke-width="1.31273"/>
<path d="M589.324 796.987C599.503 783.45 618.758 780.711 632.334 790.867C645.908 801.022 648.655 820.225 638.477 833.762C628.298 847.299 609.042 850.037 595.466 839.881C581.893 829.719 579.147 810.517 589.324 796.987Z" fill="#960C0C" stroke="black" stroke-width="1.31273"/>
<path d="M589.404 797.036C599.556 783.543 618.753 780.811 632.284 790.933C645.813 801.061 648.555 820.205 638.41 833.697C628.258 847.19 609.062 849.924 595.531 839.802C581.995 829.674 579.253 810.528 589.404 797.036Z" fill="#970D0D" stroke="black" stroke-width="1.31273"/>
<path d="M589.471 797.092C599.589 783.637 618.734 780.915 632.227 791.01C645.718 801.105 648.449 820.198 638.332 833.652C628.371 846.897 609.665 849.741 596.213 840.198L595.576 839.734C582.085 829.633 579.354 810.547 589.471 797.092Z" fill="#980D0D" stroke="black" stroke-width="1.31273"/>
<path d="M589.551 797.151C599.642 783.733 618.728 781.022 632.176 791.083C645.63 801.15 648.35 820.185 638.266 833.595C628.175 847.013 609.089 849.723 595.64 839.662C582.186 829.594 579.46 810.567 589.551 797.151Z" fill="#990E0E" stroke="black" stroke-width="1.31273"/>
<path d="M589.618 797.201C599.676 783.828 618.703 781.116 632.119 791.157C645.535 801.197 648.25 820.166 638.187 833.544C628.13 846.918 609.102 849.63 595.685 839.589C582.276 829.549 579.562 810.573 589.618 797.201Z" fill="#9A0E0E" stroke="black" stroke-width="1.31273"/>
<path d="M589.699 797.255C599.73 783.92 618.699 781.218 632.071 791.226C645.442 801.232 648.152 820.149 638.123 833.484C628.092 846.819 609.123 849.52 595.751 839.513C582.38 829.506 579.67 810.589 589.699 797.255Z" fill="#9B0F0F" stroke="black" stroke-width="1.31273"/>
<path d="M589.765 797.312C599.762 784.015 618.678 781.325 632.006 791.298C645.132 801.116 647.951 819.55 638.496 832.8L638.036 833.427C628.04 846.724 609.123 849.414 595.795 839.435L595.794 839.435C582.467 829.468 579.769 810.609 589.765 797.312Z" fill="#9C0F0F" stroke="black" stroke-width="1.31273"/>
<path d="M589.843 797.362C599.813 784.109 618.672 781.424 631.962 791.371C645.251 801.317 647.945 820.124 637.976 833.376C628.007 846.629 609.149 849.315 595.859 839.368C582.57 829.422 579.875 810.614 589.843 797.362Z" fill="#9D0F0F" stroke="black" stroke-width="1.31273"/>
<path d="M589.911 797.419C599.847 784.203 618.646 781.529 631.898 791.442C645.149 801.354 647.833 820.103 637.898 833.317C627.962 846.532 609.162 849.207 595.91 839.294C582.659 829.382 579.976 810.633 589.911 797.419Z" fill="#9E1010" stroke="black" stroke-width="1.31273"/>
<path d="M589.992 797.481C599.901 784.303 618.642 781.639 631.857 791.525C645.07 801.411 647.741 820.101 637.833 833.278C628.079 846.243 609.767 849.032 596.593 839.686L595.97 839.232C582.963 829.495 580.171 811.232 589.537 798.102L589.992 797.481Z" fill="#9F1010" stroke="black" stroke-width="1.31273"/>
<path d="M590.059 797.532C599.934 784.399 618.623 781.74 631.793 791.593C644.962 801.445 647.629 820.083 637.755 833.215C627.88 846.348 609.191 849.006 596.021 839.154C582.852 829.296 580.185 810.664 590.059 797.532Z" fill="#A01111" stroke="black" stroke-width="1.31273"/>
<path d="M590.13 797.588C599.824 784.698 618.027 781.931 631.114 791.219L631.733 791.671C644.864 801.495 647.519 820.075 637.672 833.163C627.978 846.053 609.774 848.82 596.688 839.532L596.069 839.081C582.938 829.256 580.283 810.676 590.13 797.588Z" fill="#A11111" stroke="black" stroke-width="1.31273"/>
<path d="M590.204 797.64C600.025 784.589 618.59 781.946 631.684 791.737C644.77 801.535 647.422 820.051 637.608 833.107C627.794 846.158 609.223 848.801 596.129 839.009C583.042 829.212 580.391 810.69 590.204 797.64Z" fill="#A11111" stroke="black" stroke-width="1.31273"/>
<path d="M590.275 797.694C600.063 784.681 618.576 782.044 631.626 791.808C644.674 801.572 647.32 820.035 637.534 833.047C627.9 845.856 609.81 848.613 596.8 839.382L596.184 838.934L595.58 838.47C583.05 828.594 580.642 810.503 590.275 797.694Z" fill="#A21212" stroke="black" stroke-width="1.31273"/>
<path d="M584.498 813.826C585.347 797.63 599.2 785.186 615.443 786.036C631.685 786.886 644.16 800.708 643.31 816.904C642.461 833.1 628.608 845.543 612.366 844.693C596.124 843.843 583.648 830.022 584.498 813.826Z" fill="#A31212" stroke="black" stroke-width="1.31273"/>
<path d="M590.424 797.804C600.151 784.873 618.553 782.251 631.52 791.955C644.486 801.658 647.117 820.011 637.392 832.941C627.665 845.872 609.263 848.494 596.296 838.79C583.323 829.087 580.699 810.734 590.424 797.804Z" fill="#A41313" stroke="black" stroke-width="1.31273"/>
<path d="M590.497 797.855C600.196 784.962 618.534 782.352 631.463 792.029C644.391 801.705 647.01 819.993 637.312 832.885C627.764 845.576 609.846 848.305 596.956 839.156L596.347 838.712C583.425 829.043 580.806 810.748 590.498 797.856L590.497 797.855Z" fill="#A51313" stroke="black" stroke-width="1.31273"/>
<path d="M590.568 797.908C600.234 785.053 618.52 782.453 631.411 792.096C644.301 801.739 646.909 819.975 637.244 832.829C627.579 845.684 609.294 848.284 596.403 838.64C583.513 828.998 580.904 810.763 590.568 797.908Z" fill="#A61414" stroke="black" stroke-width="1.31273"/>
<path d="M609.018 786.777C624.854 784.088 639.874 794.71 642.571 810.497C645.268 826.285 634.621 841.265 618.785 843.953C602.95 846.642 587.93 836.02 585.233 820.233C582.536 804.446 593.183 789.466 609.018 786.777Z" fill="#A71414" stroke="black" stroke-width="1.31273"/>
<path d="M608.842 786.909C624.605 784.119 639.651 794.604 642.45 810.323C645.249 826.041 634.744 841.048 618.981 843.839C603.218 846.629 588.172 836.145 585.372 820.427C582.572 804.707 593.079 789.7 608.842 786.909Z" fill="#A81414" stroke="black" stroke-width="1.31273"/>
<path d="M607.307 787.319C622.845 783.682 638.396 793.297 642.045 808.792C645.693 824.286 636.059 839.798 620.522 843.435C604.984 847.073 589.432 837.458 585.783 821.963C582.135 806.469 591.77 790.957 607.307 787.319Z" fill="#A91515" stroke="black" stroke-width="1.31273"/>
<path d="M607.539 787.358C623.056 783.855 638.481 793.563 641.995 809.036C645.509 824.51 635.781 839.896 620.265 843.399C604.748 846.902 589.322 837.195 585.809 821.721C582.295 806.247 592.022 790.861 607.539 787.358Z" fill="#AA1515" stroke="black" stroke-width="1.31273"/>
<path d="M607.035 787.571C622.434 783.791 637.989 793.178 641.781 808.535C645.573 823.891 636.167 839.406 620.768 843.187C605.369 846.968 589.813 837.581 586.021 822.224C582.229 806.868 591.636 791.352 607.035 787.571Z" fill="#AB1616" stroke="black" stroke-width="1.31273"/>
<path d="M606.496 787.798C621.766 783.717 637.462 792.755 641.556 807.983C645.65 823.211 636.593 838.866 621.323 842.948C606.053 847.03 590.357 837.992 586.263 822.764C582.169 807.536 591.226 791.88 606.496 787.798Z" fill="#AC1616" stroke="black" stroke-width="1.31273"/>
<path d="M601.091 789.952C615.17 782.893 632.322 788.556 639.401 802.599C646.479 816.641 640.805 833.747 626.726 840.806C612.647 847.865 595.496 842.203 588.417 828.161C581.338 814.119 587.011 797.011 601.091 789.952Z" fill="#AD1717" stroke="black" stroke-width="1.31273"/>
<path d="M599.823 790.724C613.468 782.964 630.837 787.707 638.619 801.316C646.401 814.926 641.65 832.25 628.005 840.011C614.359 847.771 596.989 843.027 589.207 829.418C581.426 815.808 586.178 798.484 599.823 790.724Z" fill="#AE1717" stroke="black" stroke-width="1.31273"/>
<path d="M599.374 791.092C612.817 783.084 630.223 787.463 638.253 800.87C646.283 814.278 641.896 831.639 628.454 839.647C615.011 847.654 597.605 843.275 589.575 829.868C581.546 816.46 585.932 799.1 599.374 791.092Z" fill="#AF1717" stroke="black" stroke-width="1.31273"/>
<path d="M596.645 793.049C609.003 783.543 626.749 785.83 636.281 798.157C645.814 810.484 643.524 828.184 631.166 837.69C618.808 847.196 601.062 844.909 591.53 832.582C581.997 820.255 584.287 802.555 596.645 793.049Z" fill="#B01818" stroke="black" stroke-width="1.31273"/>
<path d="M600.311 790.76C613.937 783.275 631.068 788.226 638.575 801.817C646.081 815.408 641.121 832.495 627.494 839.981C613.868 847.466 596.736 842.514 589.23 828.923C581.724 815.332 586.684 798.246 600.311 790.76Z" fill="#B11818" stroke="black" stroke-width="1.31273"/>
<path d="M600.533 790.736C614.168 783.371 631.209 788.427 638.595 802.026C645.981 815.626 640.915 832.623 627.28 839.988C613.644 847.353 596.603 842.298 589.217 828.698C581.832 815.098 586.897 798.101 600.533 790.736Z" fill="#B21919" stroke="black" stroke-width="1.31273"/>
<path d="M591.012 799.31C599.902 786.701 617.359 783.669 630.003 792.54C642.647 801.41 645.69 818.823 636.799 831.432C627.909 844.04 610.451 847.072 597.807 838.202C585.163 829.331 582.121 811.919 591.012 799.31Z" fill="#B31919" stroke="black" stroke-width="1.31273"/>
<path d="M594.95 796.34C605.487 785.898 622.518 785.954 632.989 796.466C643.46 806.978 643.405 823.964 632.868 834.406C622.331 844.847 605.301 844.791 594.83 834.279C584.36 823.768 584.414 806.781 594.95 796.34Z" fill="#B41A1A" stroke="black" stroke-width="3.31036"/>
<path d="M471 694C477.285 701.172 493.627 715.517 508.712 715.517C523.797 715.517 535.649 706.552 539.69 702.069C543.73 706.552 555.583 715.517 570.668 715.517C585.753 715.517 602.094 701.172 608.38 694" stroke="black" stroke-width="9.93107" stroke-linecap="round" stroke-linejoin="round"/>
<defs>
<linearGradient id="paint0_linear_4318_1856" x1="660.563" y1="908.159" x2="451.761" y2="751.12" gradientUnits="userSpaceOnUse">
<stop stop-color="#FBCE51"/>
<stop offset="0.3109" stop-color="#FCCE56"/>
<stop offset="0.6777" stop-color="#FDCF64"/>
<stop offset="1" stop-color="#FFD077"/>
</linearGradient>
</defs>
</svg>
