<svg width="1080" height="1080" viewBox="0 0 1080 1080" fill="none" xmlns="http://www.w3.org/2000/svg">
<path d="M626.041 611.217C605.362 602.946 566.266 583.094 538.143 583.094C510.02 583.094 482.114 597.016 453.163 611.217C410.809 631.994 357 632.5 331 665C331 670.598 432.789 789.465 438.196 795.064C458.846 804.923 490.76 810.211 508.406 811.496C546.403 814.261 548.156 812.728 575.313 811.496C602.471 810.264 646.713 794.911 652.132 789.313C657.551 783.714 755.079 669.119 746.807 654.23C705.449 626.106 646.72 619.489 626.041 611.217Z" fill="#353535" stroke="black" stroke-width="11.5803"/>
<path d="M697.068 724.439C714.08 674.466 709.053 630.298 685.84 625.787C662.628 621.277 630.019 658.131 613.006 708.104C595.994 758.078 601.021 802.246 624.234 806.756C647.447 811.267 680.056 774.413 697.068 724.439Z" fill="#0E0E0E"/>
<path d="M754.576 644.375L690.196 632.344C690.196 632.344 654.754 645.492 634.062 703.832C613.211 762.599 630.86 802.591 630.86 802.591L695.674 817.403L754.576 644.375Z" fill="#444444"/>
<path d="M754.576 644.375L690.196 632.344C690.196 632.344 654.754 645.492 634.062 703.832C613.211 762.599 630.86 802.591 630.86 802.591L695.674 817.403L754.576 644.375Z" stroke="black" stroke-width="6" stroke-miterlimit="10"/>
<path d="M759.15 737.512C775.416 689.729 772.121 647.79 751.789 643.839C731.457 639.888 701.788 675.421 685.522 723.205C669.255 770.988 672.551 812.927 692.882 816.877C713.214 820.828 742.883 785.295 759.15 737.512Z" fill="#C4D28A"/>
<path d="M748.484 735.44C761.286 697.835 760.434 665.167 746.58 662.475C732.727 659.783 711.119 688.086 698.317 725.692C685.515 763.298 686.367 795.966 700.22 798.658C714.073 801.35 735.682 773.046 748.484 735.44Z" fill="#232323"/>
<path d="M759.145 737.51C775.633 689.077 771.885 646.488 750.772 642.386C729.66 638.283 699.18 674.22 682.692 722.653C666.204 771.086 669.953 813.674 691.065 817.777C712.177 821.88 742.658 785.943 759.145 737.51Z" stroke="black" stroke-width="6.61734" stroke-miterlimit="10"/>
<path d="M749.86 735.708C762.662 698.102 761.502 665.374 747.269 662.609C733.035 659.843 711.119 688.086 698.317 725.692C685.515 763.298 686.675 796.025 700.909 798.791C715.142 801.557 737.058 773.314 749.86 735.708Z" stroke="black" stroke-width="4.12972" stroke-miterlimit="10"/>
<path d="M460.755 808.651C483.97 804.14 488.997 759.969 471.983 709.993C454.97 660.017 422.359 623.16 399.145 627.671C375.93 632.182 370.903 676.353 387.917 726.329C404.93 776.305 437.541 813.162 460.755 808.651Z" fill="#0E0E0E"/>
<path d="M330.408 646.249L394.792 634.217C394.792 634.217 430.237 647.366 450.93 705.71C471.782 764.48 454.132 804.475 454.132 804.475L389.314 819.288L330.408 646.249Z" fill="#444444"/>
<path d="M330.408 646.249L394.792 634.217C394.792 634.217 430.237 647.366 450.93 705.71C471.782 764.48 454.132 804.475 454.132 804.475L389.314 819.288L330.408 646.249Z" stroke="black" stroke-width="6" stroke-miterlimit="10"/>
<path d="M392.116 820.848C412.183 816.935 415.155 774.57 398.754 726.224C382.353 677.877 352.79 641.857 332.723 645.77C312.656 649.683 309.684 692.048 326.085 740.395C342.486 788.741 372.049 824.761 392.116 820.848Z" fill="#C4D28A"/>
<path d="M383.057 800.863C397.854 797.987 399.47 765.169 386.668 727.561C373.865 689.953 351.491 661.796 336.694 664.672C321.897 667.547 320.281 700.365 333.084 737.974C345.887 775.582 368.261 803.738 383.057 800.863Z" fill="#232323"/>
<path d="M392.881 819.868C413.526 815.843 416.942 773.315 400.511 724.881C384.081 676.447 354.025 640.447 333.38 644.472C312.736 648.498 309.32 691.025 325.75 739.46C342.181 787.894 372.236 823.894 392.881 819.868Z" stroke="black" stroke-width="6.61734" stroke-miterlimit="10"/>
</svg>
