<svg width="1080" height="1080" viewBox="0 0 1080 1080" fill="none" xmlns="http://www.w3.org/2000/svg">
<path d="M717.499 397.752L739.921 713.796C739.921 713.796 750.216 806 535.66 806C329.533 806 340.091 719.527 340.091 719.527L361.86 452.84L365.237 395.004C366.456 374.123 377.063 357.757 391.5 352.047C401.412 352.046 414.167 352.047 421.466 352.048L423.661 352.048H666.48C697.5 352.048 715.41 371.953 717.499 397.752Z" fill="#D7AA7B" stroke="black" stroke-width="11.6821" stroke-miterlimit="10"/>
<path d="M700.575 523.029C700.575 473.574 658.616 433.479 606.865 433.479C582.695 433.454 559.45 442.421 541.991 458.505C524.531 442.421 501.287 433.454 477.116 433.479C425.365 433.479 383.406 473.574 383.406 523.029C383.406 553.027 398.895 579.503 422.59 595.755C415.73 612.038 412.216 629.446 412.242 647.016C412.242 719.297 419.99 769.37 541.124 769.37C665.045 769.37 671.739 719.297 671.739 647.016C671.739 628.818 668.039 611.498 661.392 595.755C685.087 579.503 700.575 553.015 700.575 523.029Z" fill="#F2D0A9"/>
<path d="M335.082 352H398.755C396.661 435.799 363.242 430.751 363.242 430.751C363.242 421.344 362.162 419.931 354.531 413.956L337.723 403.729C336.366 402.924 336.439 401.002 337.825 400.268L362.162 387.413L365.883 385.563C369.866 383.204 369.224 380.506 366.889 378.542C366.86 378.528 366.846 378.5 366.816 378.486C356.836 370.293 333.681 355.489 333.681 355.489C332.28 354.246 333.185 352 335.082 352Z" fill="#D7AA7A"/>
<path d="M415.5 352H375.291H335.082C333.185 352 332.28 354.246 333.681 355.489C333.681 355.489 356.836 370.293 366.816 378.486C366.846 378.5 366.86 378.528 366.889 378.542C369.224 380.506 369.866 383.204 365.883 385.563L362.162 387.413L337.825 400.268C336.439 401.002 336.366 402.924 337.723 403.729L354.531 413.956C362.162 419.931 363.242 421.344 363.242 430.751" stroke="black" stroke-width="11.68" stroke-miterlimit="10"/>
</svg>
