<svg width="1080" height="1080" viewBox="0 0 1080 1080" fill="none" xmlns="http://www.w3.org/2000/svg">
<path d="M717.499 398.06L739.921 713.865C739.921 713.865 750.216 805.999 535.66 805.999C329.533 805.999 340.091 719.592 340.091 719.592L361.86 453.106L365.237 395.314C367 365.129 367 352.39 399.5 352.046C412.5 351.908 414 352.045 423.5 352.044L666.48 352.39C696.5 352.39 715.41 372.28 717.499 398.06Z" fill="#FFCC5A" stroke="black" stroke-width="11.6278" stroke-miterlimit="10"/>
<path d="M335.082 352H398.755C396.661 435.799 363.242 430.751 363.242 430.751C363.242 421.344 362.162 419.931 354.531 413.956L337.723 403.729C336.366 402.924 336.439 401.002 337.825 400.268L362.162 387.413L365.883 385.563C369.866 383.204 369.224 380.506 366.889 378.542C366.86 378.528 366.846 378.5 366.816 378.486C356.836 370.293 333.681 355.489 333.681 355.489C332.28 354.246 333.185 352 335.082 352Z" fill="#FFCC5A"/>
<path d="M415.5 352H335.082C333.185 352 332.28 354.246 333.681 355.489C333.681 355.489 356.836 370.293 366.816 378.486C366.846 378.5 366.86 378.528 366.889 378.542C369.224 380.506 369.866 383.204 365.883 385.563L362.162 387.413L337.825 400.268C336.439 401.002 336.366 402.924 337.723 403.729L354.531 413.956C362.162 419.931 363.242 421.344 363.242 430.751" stroke="black" stroke-width="11.63" stroke-miterlimit="10"/>
</svg>
