<svg width="1080" height="1080" viewBox="0 0 1080 1080" fill="none" xmlns="http://www.w3.org/2000/svg">
<path d="M717.499 397.753L739.921 713.796C739.921 713.796 750.216 806.001 535.66 806.001C329.533 806.001 340.091 719.528 340.091 719.528L361.86 452.84L365.237 395.005C366.498 373.399 379.479 357.556 394.5 352.048C406 352.047 416.183 351.751 423.661 352.048H666.48C693.193 352.048 715.41 371.954 717.499 397.753Z" fill="#B1B1B1" stroke="black" stroke-width="11.624" stroke-miterlimit="10"/>
<path d="M412.5 357.999C405.585 363.605 403.1 432.94 403.1 468.039C395.796 477.183 365.017 497.347 364 502.5C362.339 510.912 356.496 578.453 356.5 583.5C356.502 586.46 389.816 634.273 389.816 640.727C389.816 647.181 389.086 741.076 389.816 746.723C390.547 752.37 422.869 792.371 437.142 795.515C457.069 799.904 574.139 810.657 647.203 792.15C654.997 790.176 686.726 752.37 690.378 746.723C694.03 741.076 689.549 639.728 692.04 634.681C695.415 627.841 723.591 590.818 723.591 584.364C723.591 577.91 721.1 516.223 718.609 505.287C716.544 496.217 680.67 472.479 680.67 468.213C680.67 463.211 681.083 359.536 673.5 357.999C665.197 356.317 614.033 356.5 606 356.5C597.967 356.5 587.857 408.222 580.783 410.933C571.65 414.433 518.15 410.933 506.465 410.933C494.78 410.933 486.785 359.398 478.5 357.999C468.537 356.317 416.651 354.634 412.5 357.999Z" fill="#E0E0E0"/>
<path d="M599.878 803.456C606.783 802.128 662.286 745.71 665.471 740.269C668.655 734.828 664.527 662.622 669.622 657.959L728.5 582M473.675 800.962C461.227 797.933 413.701 745.71 413.064 740.269C412.427 734.828 412.234 657.959 410.573 657.959L352.453 583.963" stroke="#B1B1B1" stroke-width="9.96342"/>
<path d="M717.499 397.753L739.921 713.796C739.921 713.796 750.216 806.001 535.66 806.001C329.533 806.001 340.091 719.528 340.091 719.528L361.86 452.84L365.237 395.005C366.707 369.822 383.5 350.501 402 352.048C410.5 352.049 418 352.047 423.661 352.048H666.48C696 353.5 715.41 371.954 717.499 397.753Z" stroke="black" stroke-width="11.68" stroke-miterlimit="10"/>
<path d="M335.082 351H398.755C396.661 434.799 363.242 429.751 363.242 429.751C363.242 420.344 362.162 418.931 354.531 412.956L337.723 402.729C336.366 401.924 336.439 400.002 337.825 399.268L362.162 386.413L365.883 384.563C369.866 382.204 369.224 379.506 366.889 377.542C366.86 377.528 366.846 377.5 366.816 377.486C356.836 369.293 333.681 354.489 333.681 354.489C332.28 353.246 333.185 351 335.082 351Z" fill="#B1B1B1"/>
<path d="M415.5 352H375.291H335.082C333.185 352 332.28 354.246 333.681 355.489C333.681 355.489 356.836 370.293 366.816 378.486C366.846 378.5 366.86 378.528 366.889 378.542C369.224 380.506 369.866 383.204 365.883 385.563L362.162 387.413L337.825 400.268C336.439 401.002 336.366 402.924 337.723 403.729L354.531 413.956C362.162 419.931 363.242 421.344 363.242 430.751" stroke="black" stroke-width="11.68" stroke-miterlimit="10"/>
</svg>
