<svg width="1080" height="1080" viewBox="0 0 1080 1080" fill="none" xmlns="http://www.w3.org/2000/svg">
<path d="M717.442 398.06L739.863 713.865C739.863 713.865 750.156 806 535.617 806C329.507 806 340.064 719.592 340.064 719.592L361.831 453.106L365.207 395.314C366.489 369.36 374.548 355.826 394 352C402.5 352 409.873 352 421.5 352L666.427 352.39C699.5 352.39 715.353 372.281 717.442 398.06Z" fill="#A6CBD9" stroke="black" stroke-width="11.62" stroke-miterlimit="10"/>
<path d="M685.363 630.337C707.918 661.368 707.936 711.73 707.936 711.73C707.936 711.73 717.611 802.165 534.719 798.877C371.755 801.343 370.949 715.018 370.949 715.018C367.725 696.931 375.047 665.229 394.329 635.271C434.912 572.216 475.491 549.815 545.892 548.127C611.466 546.554 645.783 575.884 685.363 630.337Z" fill="#F4F4F4"/>
<path d="M345.554 681.823C345.554 681.823 343.935 678.001 348.036 673.773C379.495 693.292 403.437 671.881 402.802 678.001C402.802 678.001 396.212 694.213 369.797 692.461C355.826 690.935 349.615 692.323 345.554 681.823Z" fill="black"/>
<path d="M736.036 680.832C736.036 680.832 741.962 673.784 731.937 673.772C700.478 693.291 676.536 671.879 677.171 678C677.171 678 683.761 694.212 710.176 692.46C724.147 690.933 731.976 691.332 736.036 680.832Z" fill="black"/>
<path d="M341.443 708.914C341.443 708.914 341.446 705.593 345.548 700.389C372.215 718.374 401.537 699.47 400.902 705.59C400.902 705.59 390.803 720.759 367.366 719.205C352.82 718.24 345.548 715.88 341.443 708.914Z" fill="black"/>
<path d="M738.526 708.642C738.526 708.642 738.529 702.483 734.421 700.118C707.753 718.103 678.432 699.198 679.067 705.319C679.067 705.319 689.166 720.488 712.602 718.934C727.149 717.969 734.421 715.609 738.526 708.642Z" fill="black"/>
<path d="M335.082 352H398.755C396.661 435.799 363.242 430.751 363.242 430.751C363.242 421.344 362.162 419.931 354.531 413.956L337.723 403.729C336.366 402.924 336.439 401.002 337.825 400.268L362.162 387.413L365.883 385.563C369.866 383.204 369.224 380.506 366.889 378.542C366.86 378.528 366.846 378.5 366.816 378.486C356.836 370.293 333.681 355.489 333.681 355.489C332.28 354.246 333.185 352 335.082 352Z" fill="#A6CBD9"/>
<path d="M415.5 352H375.291H335.082C333.185 352 332.28 354.246 333.681 355.489C333.681 355.489 356.836 370.293 366.816 378.486C366.846 378.5 366.86 378.528 366.889 378.542C369.224 380.506 369.866 383.204 365.883 385.563L362.162 387.413L337.825 400.268C336.439 401.002 336.366 402.924 337.723 403.729L354.531 413.956C362.162 419.931 363.242 421.344 363.242 430.751" stroke="black" stroke-width="11.63" stroke-miterlimit="10"/>
</svg>
