<svg width="1080" height="1080" viewBox="0 0 1080 1080" fill="none" xmlns="http://www.w3.org/2000/svg">
<path d="M717.499 399.523L739.921 714.197C739.921 714.197 750.216 806.002 535.66 806.002C329.533 806.002 340.091 719.903 340.091 719.903L361.86 454.371L365.237 396.786C367.347 360.804 405.065 353.28 423.661 354.016H666.48C693.193 354.016 715.41 373.835 717.499 399.523Z" fill="#8EBFED" stroke="black" stroke-width="11.6821" stroke-miterlimit="10"/>
<path d="M731.067 684.616C733.314 684.94 734.867 729.486 734.867 729.486C734.867 729.486 752.551 801.947 536.979 802.637C342.461 803.26 344.986 740.528 344.986 740.528C346.67 721.205 348.306 683.762 348.306 683.762C381.517 679.486 471.727 666.709 545.083 665.307C613.409 664 689.553 678.631 731.067 684.616Z" fill="#F4F4F4"/>
<path fill-rule="evenodd" clip-rule="evenodd" d="M677.156 665.505C677.793 665.49 678.43 665.474 679.066 665.459C689.486 679.452 702.399 699.666 710.389 719.18C714.759 729.852 717.812 740.684 717.959 750.358C718.035 755.349 717.329 760.183 715.547 764.535C711.185 765.604 706.463 766.683 701.351 767.765L701.128 767.471C705.852 763.881 708.065 758.283 707.947 750.51C707.828 742.632 705.283 733.135 701.123 722.975C692.824 702.708 678.715 681.267 668.213 667.726L670.764 665.748C672.893 665.666 675.024 665.585 677.156 665.505Z" fill="#DFDEDE"/>
<path fill-rule="evenodd" clip-rule="evenodd" d="M645.467 665.881C655.352 684.559 667.068 710.3 674.438 735.105C678.692 749.421 681.576 763.677 681.714 776.207C681.753 779.767 681.571 783.257 681.113 786.613C677.734 786.978 674.294 787.341 670.793 787.7C671.445 784.317 671.748 780.517 671.702 776.318C671.578 765.094 668.964 751.837 664.84 737.958C657.153 712.088 644.488 684.935 634.418 666.472C638.101 666.274 641.784 666.077 645.467 665.881Z" fill="#DFDEDE"/>
<path fill-rule="evenodd" clip-rule="evenodd" d="M608.083 660.84C616.634 681.469 626.687 709.662 633.028 736.804C636.726 752.631 639.208 768.295 639.326 781.989C639.377 787.804 639.004 793.422 638.047 798.625C634.628 798.873 631.167 799.117 627.664 799.358C628.823 794.483 629.371 788.692 629.313 782.076C629.204 769.41 626.889 754.542 623.277 739.082C616.761 711.19 606.174 681.998 597.52 661.538C601.045 661.307 604.566 661.074 608.083 660.84Z" fill="#DFDEDE"/>
<path fill-rule="evenodd" clip-rule="evenodd" d="M571.029 659.422C578.536 680.887 587.042 709.093 592.512 736.288C595.88 753.036 598.132 769.567 598.239 783.983C598.278 789.185 598.04 794.222 597.438 798.959C594.082 799.086 590.695 799.208 587.278 799.327C587.954 794.818 588.268 789.708 588.226 784.058C588.125 770.526 585.998 754.686 582.695 738.262C577.094 710.414 568.209 681.363 560.594 659.937C564.081 659.77 567.559 659.598 571.029 659.422Z" fill="#DFDEDE"/>
<path fill-rule="evenodd" clip-rule="evenodd" d="M403.366 673.958L405.955 675.539C397.691 689.068 386.561 710.53 380.004 730.862C376.72 741.044 374.676 750.665 374.579 758.728C374.482 766.854 376.358 772.591 379.975 776.08L379.784 776.278C374.898 774.982 370.456 773.69 366.417 772.413C365.032 768.127 364.509 763.418 364.567 758.609C364.68 749.128 367.043 738.429 370.474 727.788C376.817 708.123 387.127 687.707 395.38 673.703C398.034 673.783 400.696 673.868 403.366 673.958Z" fill="#DFDEDE"/>
<path fill-rule="evenodd" clip-rule="evenodd" d="M440.29 669.271C432.763 686.573 423.315 711.962 417.57 736.173C414.479 749.198 412.509 761.686 412.415 772.294C412.361 778.392 412.932 783.597 414.105 787.842C410.482 787.366 406.951 786.885 403.511 786.398C402.679 781.935 402.359 777.138 402.402 772.206C402.505 760.554 404.648 747.258 407.827 733.861C413.389 710.423 422.267 686.073 429.708 668.535C433.222 668.776 436.749 669.022 440.29 669.271Z" fill="#DFDEDE"/>
<path fill-rule="evenodd" clip-rule="evenodd" d="M485.235 659.21C475.13 680.334 462.715 710.617 455.091 739.536C450.89 755.477 448.204 770.781 448.077 783.801C448.02 789.625 448.476 794.823 449.456 799.344C445.98 799.14 442.543 798.933 439.142 798.723C438.333 793.969 438.013 788.912 438.064 783.703C438.202 769.524 441.101 753.326 445.409 736.984C452.798 708.952 464.511 679.845 474.469 658.553C478.049 658.773 481.637 658.992 485.235 659.21Z" fill="#DFDEDE"/>
<path fill-rule="evenodd" clip-rule="evenodd" d="M514.5 666.148C507.926 686.542 500.313 713.976 495.493 740.289C492.62 755.975 490.768 771.113 490.681 784.051C490.642 789.737 490.947 794.852 491.601 799.327C488.181 799.213 484.797 799.095 481.449 798.971C480.863 794.249 480.632 789.204 480.668 783.983C480.761 770.239 482.716 754.471 485.644 738.485C490.361 712.729 497.678 686.019 504.166 665.588C507.6 665.782 511.044 665.968 514.5 666.148Z" fill="#DFDEDE"/>
<path fill-rule="evenodd" clip-rule="evenodd" d="M544.152 658.598C543.617 681.343 543.416 711.635 544.257 740.635C544.763 758.117 545.646 775.073 547.055 789.595C547.501 794.196 547.996 798.516 548.543 802.506C545.239 802.571 541.876 802.614 538.454 802.635C537.95 798.82 537.499 794.794 537.093 790.609C535.655 775.778 534.762 758.577 534.252 740.972C533.41 711.902 533.607 681.579 534.139 658.726C536.754 658.741 539.384 658.718 542.027 658.655C542.736 658.638 543.445 658.619 544.152 658.598Z" fill="#DFDEDE"/>
<path d="M542.182 709.054C586.904 709.054 690.287 720.995 735.218 729.795L722.738 449.774C720.519 427.774 715.415 382.832 712.753 379.061C710.09 375.289 690.565 363.03 681.135 357.372C589.054 357.057 402.5 355.542 393.244 361.143C384.635 366.352 373.829 382.828 369.946 391.314L344.984 729.795C393.244 723.197 483.938 709.054 542.182 709.054Z" fill="#7CAAD4"/>
<ellipse cx="541.759" cy="366.384" rx="29.06" ry="17.3841" fill="#558DC1"/>
<path d="M717.499 399.522L739.921 714.196C739.921 714.196 750.216 806.001 535.66 806.001C329.533 806.001 340.091 719.903 340.091 719.903L361.86 454.371L365.237 396.786C366.418 376.644 377.603 359.866 391.5 354.016C403 354.017 415 354.016 423.661 354.016H666.48C693.193 354.016 715.41 373.835 717.499 399.522Z" stroke="black" stroke-width="11.6821" stroke-miterlimit="10"/>
<path d="M335.082 354.033H398.755C396.661 438.386 363.242 433.305 363.242 433.305C363.242 423.835 362.162 422.413 354.531 416.398L337.723 406.104C336.366 405.293 336.439 403.359 337.825 402.62L362.162 389.681L365.883 387.818C369.866 385.443 369.224 382.727 366.889 380.751C366.86 380.737 366.846 380.708 366.816 380.694C356.836 372.447 333.681 357.545 333.681 357.545C332.28 356.294 333.185 354.033 335.082 354.033Z" fill="#7CAAD4"/>
<path d="M415.5 354.033H375.291H335.082C333.185 354.033 332.28 356.294 333.681 357.545C333.681 357.545 356.836 372.447 366.816 380.694C366.846 380.708 366.86 380.737 366.889 380.751C369.224 382.727 369.866 385.443 365.883 387.818L362.162 389.681L337.825 402.62C336.439 403.359 336.366 405.293 337.723 406.104L354.531 416.398C362.162 422.413 363.242 423.835 363.242 433.305" stroke="black" stroke-width="11.68" stroke-miterlimit="10"/>
</svg>
