<svg width="1080" height="1080" viewBox="0 0 1080 1080" fill="none" xmlns="http://www.w3.org/2000/svg">
<path d="M717.499 398.06L739.921 713.865C739.921 713.865 750.216 806 535.66 806C329.533 806 340.091 719.592 340.091 719.592L361.86 453.106L365.237 395.314C366.781 368.881 367.5 352.89 396.5 352C406.5 352 414.5 352 424 352L666.48 352.39C697.5 352.39 715.41 372.28 717.499 398.06Z" fill="#7EA16B" stroke="black" stroke-width="11.63" stroke-miterlimit="10"/>
<ellipse cx="388.156" cy="726.685" rx="14.9451" ry="15.785" fill="#8EB47A"/>
<ellipse cx="412.235" cy="689.299" rx="9.13314" ry="9.96944" fill="#8EB47A"/>
<ellipse cx="372.383" cy="667.698" rx="7.47257" ry="8.30787" fill="#8EB47A"/>
<ellipse cx="418.879" cy="438.402" rx="7.47257" ry="8.30787" fill="#8EB47A"/>
<ellipse cx="704.496" cy="659.392" rx="7.47257" ry="8.30787" fill="#8EB47A"/>
<path d="M597.387 396.861C611.925 407.047 643.239 430.944 652.186 445.047" stroke="black" stroke-width="6.64228" stroke-linecap="round"/>
<path d="M604.027 414.309C607.348 409.601 614.655 400.186 617.312 400.186" stroke="black" stroke-width="6.64228" stroke-linecap="round"/>
<path d="M618.145 425.107C620.635 420.953 626.281 412.479 628.938 411.814" stroke="black" stroke-width="6.64228" stroke-linecap="round"/>
<path d="M631.43 437.569C632.813 433.415 636.91 424.775 642.223 423.445" stroke="black" stroke-width="6.64228" stroke-linecap="round"/>
<path d="M335.082 352H398.755C396.661 435.799 363.242 430.751 363.242 430.751C363.242 421.344 362.162 419.931 354.531 413.956L337.723 403.729C336.366 402.924 336.439 401.002 337.825 400.268L362.162 387.413L365.883 385.563C369.866 383.204 369.224 380.506 366.889 378.542C366.86 378.528 366.846 378.5 366.816 378.486C356.836 370.293 333.681 355.489 333.681 355.489C332.28 354.246 333.185 352 335.082 352Z" fill="#7EA16B"/>
<path d="M415.5 352H375.291H335.082C333.185 352 332.28 354.246 333.681 355.489C333.681 355.489 356.836 370.293 366.816 378.486C366.846 378.5 366.86 378.528 366.889 378.542C369.224 380.506 369.866 383.204 365.883 385.563L362.162 387.413L337.825 400.268C336.439 401.002 336.366 402.924 337.723 403.729L354.531 413.956C362.162 419.931 363.242 421.344 363.242 430.751" stroke="black" stroke-width="11.63" stroke-miterlimit="10"/>
</svg>
