<svg width="1080" height="1080" viewBox="0 0 1080 1080" fill="none" xmlns="http://www.w3.org/2000/svg">
<path d="M346.874 606.25C346.874 606.25 319.997 609 338.499 634.5C351.663 652.643 360.898 619.658 360.898 619.658" stroke="black" stroke-width="9" stroke-linecap="round"/>
<path d="M357.899 683.278C357.711 682.38 357.534 681.022 356.471 680.166C355.986 679.768 355.157 679.557 354.409 679.652C352.808 679.841 347.436 681.276 344.898 682.655C343.895 683.198 343.631 683.821 343.729 684.301C343.848 684.859 344.225 685.17 345.143 685.532C345.905 685.833 346.81 685.878 347.219 686.611C348.036 688.075 342.02 691.696 341.484 692.006C339.025 693.422 336.404 694.632 333.546 695.182C331.269 695.612 327.143 695.256 326.259 692.754C325.506 690.664 326.362 687.977 326.714 685.916C327.273 682.661 327.884 679.449 328.537 676.204C328.809 674.841 328.994 672.924 330.185 671.983C331.935 670.595 339.133 671.783 339.938 671.817C341.532 671.88 342.393 671.357 342.85 669.876C343.253 668.574 342.971 667.138 341.559 666.467C340.059 665.749 338.327 665.273 336.725 664.777C335.506 664.407 332.913 663.28 332.389 662.127C332.218 661.736 332.222 661.242 332.292 660.847C332.569 659.303 332.728 657.091 334.061 656.005C334.805 655.4 335.324 654.579 336.025 653.789C336.725 652.999 336.725 651.999 337.002 649.999C337.002 648.499 337.698 647.54 338.157 642.241C338.68 636.213 343.264 625.986 341.482 625.499C335.301 623.81 333.147 633.232 330.185 638.5C327.58 643.136 326.502 644.999 325.186 648.499C325.016 648.952 324.824 651.188 325.186 651.502C325.779 652.246 326.64 652.877 326.915 653.789C327.403 655.439 326.286 657.355 325.643 658.785C325.476 659.157 325.201 659.567 324.841 659.788C323.755 660.45 320.981 659.911 319.771 659.531C318.169 659.036 316.471 658.452 314.827 658.198C313.282 657.955 312.24 658.982 311.837 660.285C311.379 661.766 311.795 662.683 313.14 663.528C313.823 663.961 320.438 667.035 321.1 669.168C321.554 670.612 320.622 672.305 320.078 673.583C318.789 676.625 317.472 679.626 316.098 682.628C315.231 684.53 314.414 687.236 312.621 688.532C310.473 690.097 306.872 688.065 305.235 686.425C303.179 684.357 301.698 681.879 300.473 679.324C300.205 678.766 297.282 672.382 298.782 671.634C299.533 671.26 300.3 671.732 301.105 671.915C302.067 672.134 302.554 672.089 302.967 671.696C303.318 671.355 303.452 670.692 302.93 669.677C301.613 667.107 297.987 662.891 296.773 661.832C296.209 661.332 295.4 661.036 294.78 661.092C293.419 661.199 292.506 662.227 291.845 662.856C290.496 664.16 286.154 670.077 286.04 671.872C285.988 672.69 286.795 673.305 287.815 673.19C288.775 673.082 290.181 671.445 291.274 672.623C291.593 672.976 291.545 673.802 291.572 674.195C291.615 674.768 291.702 675.368 291.744 675.922C292.364 683.307 295 690.873 300.485 696.51C304.359 700.49 309.391 703.7 314.829 705.55C320.364 707.091 326.327 707.286 331.772 706.18C339.479 704.613 345.922 699.861 350.6 694.113C350.953 693.681 351.358 693.233 351.723 692.785C351.965 692.482 352.387 691.766 352.855 691.656C354.429 691.302 354.66 693.445 355.391 694.076C356.169 694.746 357.182 694.694 357.601 693.989C358.525 692.444 358.279 685.109 357.899 683.278ZM334.061 641C334.941 638.151 333.199 636.099 336.025 636.972C338.851 637.846 334.425 639.398 333.546 642.241C332.667 645.085 335.667 648.147 332.841 647.274C330.013 646.406 333.182 643.843 334.061 641Z" fill="black" stroke="black" stroke-width="3"/>
</svg>
