<svg width="1080" height="1080" viewBox="0 0 1080 1080" fill="none" xmlns="http://www.w3.org/2000/svg">
<mask id="path-1-outside-1_4939_8584" maskUnits="userSpaceOnUse" x="297.963" y="624.694" width="71.9295" height="93.8485" fill="black">
<rect fill="white" x="297.963" y="624.694" width="71.9295" height="93.8485"/>
<path fill-rule="evenodd" clip-rule="evenodd" d="M323.585 700.889C323.16 703.494 324.927 705.951 327.532 706.376C330.137 706.801 332.593 705.034 333.018 702.429L335.896 684.798L349.338 686.998C351.942 687.424 354.4 685.658 354.826 683.053C355.252 680.449 353.486 677.991 350.881 677.565L337.435 675.365L342.806 642.454C343.231 639.849 341.464 637.392 338.859 636.967C336.254 636.542 333.798 638.309 333.373 640.914L328.002 673.821L316.546 671.946C313.941 671.52 311.484 673.286 311.057 675.891C310.631 678.495 312.397 680.953 315.002 681.379L326.463 683.254L323.585 700.889Z"/>
</mask>
<path fill-rule="evenodd" clip-rule="evenodd" d="M323.585 700.889C323.16 703.494 324.927 705.951 327.532 706.376C330.137 706.801 332.593 705.034 333.018 702.429L335.896 684.798L349.338 686.998C351.942 687.424 354.4 685.658 354.826 683.053C355.252 680.449 353.486 677.991 350.881 677.565L337.435 675.365L342.806 642.454C343.231 639.849 341.464 637.392 338.859 636.967C336.254 636.542 333.798 638.309 333.373 640.914L328.002 673.821L316.546 671.946C313.941 671.52 311.484 673.286 311.057 675.891C310.631 678.495 312.397 680.953 315.002 681.379L326.463 683.254L323.585 700.889Z" fill="#D1D1D1"/>
<path d="M327.532 706.376L326.404 713.291L326.404 713.291L327.532 706.376ZM323.585 700.889L330.5 702.018L323.585 700.889ZM333.018 702.429L339.933 703.557L333.018 702.429ZM335.896 684.798L337.027 677.884L330.11 676.752L328.981 683.67L335.896 684.798ZM349.338 686.998L348.206 693.912L349.338 686.998ZM354.826 683.053L361.74 684.185L361.74 684.185L354.826 683.053ZM350.881 677.565L349.75 684.479L350.881 677.565ZM337.435 675.365L330.52 674.236L329.392 681.148L336.304 682.279L337.435 675.365ZM342.806 642.454L335.891 641.325L335.891 641.325L342.806 642.454ZM338.859 636.967L337.731 643.882L337.731 643.882L338.859 636.967ZM333.373 640.914L326.458 639.786L326.458 639.786L333.373 640.914ZM328.002 673.821L326.871 680.735L333.788 681.867L334.917 674.949L328.002 673.821ZM316.546 671.946L315.414 678.86L315.414 678.86L316.546 671.946ZM311.057 675.891L304.143 674.759L311.057 675.891ZM315.002 681.379L316.134 674.465L316.134 674.465L315.002 681.379ZM326.463 683.254L333.378 684.383L334.506 677.471L327.594 676.34L326.463 683.254ZM328.66 699.461C329.874 699.659 330.698 700.804 330.5 702.018L316.67 699.761C315.622 706.185 319.98 712.242 326.404 713.291L328.66 699.461ZM326.104 701.3C326.302 700.087 327.447 699.263 328.66 699.461L326.404 713.291C332.827 714.339 338.885 709.981 339.933 703.557L326.104 701.3ZM328.981 683.67L326.104 701.3L339.933 703.557L342.81 685.926L328.981 683.67ZM350.469 680.084L337.027 677.884L334.764 691.712L348.206 693.912L350.469 680.084ZM347.912 681.922C348.11 680.708 349.255 679.885 350.469 680.084L348.206 693.912C354.63 694.963 360.689 690.608 361.74 684.185L347.912 681.922ZM349.75 684.479C348.536 684.281 347.713 683.136 347.912 681.922L361.74 684.185C362.791 677.761 358.436 671.702 352.013 670.651L349.75 684.479ZM336.304 682.279L349.75 684.479L352.013 670.651L338.567 668.45L336.304 682.279ZM335.891 641.325L330.52 674.236L344.35 676.493L349.721 643.582L335.891 641.325ZM337.731 643.882C336.517 643.684 335.693 642.539 335.891 641.325L349.721 643.582C350.769 637.158 346.411 631.101 339.987 630.052L337.731 643.882ZM340.287 642.043C340.089 643.256 338.944 644.08 337.731 643.882L339.987 630.052C333.564 629.004 327.506 633.362 326.458 639.786L340.287 642.043ZM334.917 674.949L340.287 642.043L326.458 639.786L321.088 672.693L334.917 674.949ZM315.414 678.86L326.871 680.735L329.134 666.907L317.677 665.032L315.414 678.86ZM317.972 677.022C317.773 678.236 316.628 679.059 315.414 678.86L317.677 665.032C311.254 663.981 305.194 668.336 304.143 674.759L317.972 677.022ZM316.134 674.465C317.347 674.663 318.17 675.808 317.972 677.022L304.143 674.759C303.092 681.183 307.447 687.242 313.871 688.293L316.134 674.465ZM327.594 676.34L316.134 674.465L313.871 688.293L325.331 690.169L327.594 676.34ZM330.5 702.018L333.378 684.383L319.548 682.126L316.67 699.761L330.5 702.018Z" fill="black" mask="url(#path-1-outside-1_4939_8584)"/>
<path d="M349.033 606.262C349.033 606.262 321.035 623.154 330.639 635.159C345.351 653.549 362.173 622.022 362.173 622.022" stroke="black" stroke-width="9" stroke-linecap="round"/>
</svg>
