<svg width="1080" height="1080" viewBox="0 0 1080 1080" fill="none" xmlns="http://www.w3.org/2000/svg">
<g clip-path="url(#clip0_4939_8715)">
<path d="M354.702 628L339.745 626L327.617 635.2L326 650L335.298 662L350.255 664L361.979 654.8L364 640L354.702 628Z" fill="black" stroke="black" stroke-width="9"/>
<path d="M340.141 627.602L329.227 636.002L344.993 644.802L340.141 627.602Z" fill="#48C5F5"/>
<path d="M340.148 627.602L345 644.802L353.489 629.602L340.148 627.602Z" fill="#1B93E9"/>
<path d="M360.762 653.998L362.379 640.398L344.996 644.798L360.762 653.998Z" fill="#BEEFFE"/>
<path d="M329.23 636.002L327.613 649.602L344.996 644.802L329.23 636.002Z" fill="#23A4E8"/>
<path d="M344.996 644.802L362.379 640.402L353.485 629.602L344.996 644.802Z" fill="#2CA8EE"/>
<path d="M327.613 649.603L336.103 660.403L344.996 644.803L327.613 649.603Z" fill="#137CE9"/>
<path d="M349.847 662.003L360.762 654.003L344.996 644.803L349.847 662.003Z" fill="#7DE0FD"/>
<path d="M336.109 660.403L349.854 662.003L345.003 644.803L336.109 660.403Z" fill="#2CA8EE"/>
<path d="M342.171 635.203L336.107 640.003L334.895 647.603L340.15 653.603L347.831 654.803L353.895 650.003L354.703 642.403L349.852 636.003L342.171 635.203Z" fill="#75D5FF"/>
</g>
<defs>
<clipPath id="clip0_4939_8715">
<rect width="53" height="47" fill="white" transform="translate(320 623)"/>
</clipPath>
</defs>
</svg>
