<svg width="1080" height="1080" viewBox="0 0 1080 1080" fill="none" xmlns="http://www.w3.org/2000/svg">
<g clip-path="url(#clip0_4955_397)">
<path d="M325.78 643.59L331.589 632.931L343.347 629.549L354.007 635.357L357.422 646.539L351.613 657.199L339.854 660.581L329.195 654.772L325.78 643.59Z" fill="black" stroke="black" stroke-width="9"/>
<path d="M341.895 645.078L330.387 654.258L327.516 643.686L341.895 645.078Z" fill="#F0F0F0"/>
<path d="M341.895 645.084L327.515 643.691L332.682 634.152L341.895 645.084Z" fill="#DDDDDD"/>
<path d="M341.895 645.076L343.287 630.697L352.827 635.864L341.895 645.076Z" fill="white"/>
<path d="M330.398 654.256L341.907 645.075L339.937 659.423L330.398 654.256Z" fill="#E0DEDE"/>
<path d="M332.689 634.143L343.295 630.695L341.902 645.075L332.689 634.143Z" fill="#E6E6E6"/>
<path d="M341.899 645.077L350.535 655.976L339.93 659.424L341.899 645.077Z" fill="#CEC8CD"/>
<path d="M341.894 645.082L352.826 635.869L355.697 646.442L341.894 645.082Z" fill="#F0F0F0"/>
<path d="M355.698 646.436L350.531 655.976L341.895 645.076L355.698 646.436Z" fill="#E6E6E6"/>
<path d="M346.727 651.718L349.936 646.116L347.956 640.22L342.354 637.011L336.459 638.991L333.25 644.592L335.229 650.488L340.864 653.121L346.727 651.718Z" fill="#F8F8F8"/>
<path d="M339.941 665.862L318.196 680.181L317.301 695.98L316.406 711.779L336.975 728.795L359.035 714.194L359.93 698.395L360.825 682.595L339.941 665.862Z" fill="black" stroke="black" stroke-width="9"/>
<path d="M339.691 680.801L340.451 667.386L319.335 681.143L327.89 688.506L339.691 680.801Z" fill="#F0F0F0"/>
<path d="M350.25 689.773L359.582 683.423L340.453 667.387L339.693 680.801L350.25 689.773Z" fill="#DDDDDD"/>
<path d="M327.891 688.505L319.336 681.143L318.492 696.048L327.435 696.554L327.891 688.505Z" fill="#E5E5E5"/>
<path d="M318.492 696.047L317.648 710.952L326.962 704.9L327.435 696.553L318.492 696.047Z" fill="#DDDDDD"/>
<path d="M349.319 706.172L337.833 713.596L337.073 727.01L357.89 713.236L349.319 706.172Z" fill="#F0F0F0"/>
<path d="M326.963 704.905L317.648 710.957L337.075 727.01L337.835 713.595L326.963 704.905Z" fill="#CEC8CD"/>
<path d="M359.584 683.423L350.252 689.772L349.796 697.821L358.739 698.328L359.584 683.423Z" fill="#E5E5E5"/>
<path d="M349.797 697.82L349.324 706.167L357.896 713.232L358.74 698.327L349.797 697.82Z" fill="#E5E5E5"/>
<path d="M339.691 680.8L327.891 688.505L326.962 704.901L337.834 713.591L349.319 706.167L350.248 689.771L339.691 680.8Z" fill="#F8F8F8"/>
</g>
<g clip-path="url(#clip1_4955_397)">
<path d="M724.149 648.138L728.624 636.853L739.886 632.071L751.171 636.545L755.915 647.231L751.441 658.516L740.179 663.298L728.894 658.823L724.149 648.138Z" fill="black" stroke="black" stroke-width="9"/>
<path d="M740.325 647.664L730.014 658.17L725.883 648.023L740.325 647.664Z" fill="#F0F0F0"/>
<path d="M740.325 647.67L725.883 648.03L729.856 637.935L740.325 647.67Z" fill="#DDDDDD"/>
<path d="M740.327 647.661L739.967 633.218L750.062 637.192L740.327 647.661Z" fill="white"/>
<path d="M730.023 658.167L740.335 647.66L740.118 662.14L730.023 658.167Z" fill="#E0DEDE"/>
<path d="M729.864 637.924L739.973 633.217L740.333 647.659L729.864 637.924Z" fill="#E6E6E6"/>
<path d="M740.328 647.661L750.221 657.434L740.112 662.141L740.328 647.661Z" fill="#CEC8CD"/>
<path d="M740.324 647.667L750.059 637.197L754.19 647.344L740.324 647.667Z" fill="#F0F0F0"/>
<path d="M754.191 647.338L750.217 657.433L740.324 647.66L754.191 647.338Z" fill="#E6E6E6"/>
<path d="M745.925 653.669L748.432 647.719L745.752 642.107L739.803 639.601L734.191 642.28L731.684 648.229L734.363 653.841L740.275 655.772L745.925 653.669Z" fill="#F8F8F8"/>
<path d="M740.903 668.53L721.054 685.378L722.08 701.169L723.106 716.961L745.584 731.358L765.713 714.192L764.687 698.401L763.661 682.61L740.903 668.53Z" fill="black" stroke="black" stroke-width="9"/>
<path d="M742.464 683.39L741.593 669.982L722.3 686.196L731.684 692.469L742.464 683.39Z" fill="#F0F0F0"/>
<path d="M754.031 691.017L762.524 683.583L741.594 669.982L742.465 683.39L754.031 691.017Z" fill="#DDDDDD"/>
<path d="M731.685 692.467L722.301 686.195L723.269 701.093L732.207 700.512L731.685 692.467Z" fill="#E5E5E5"/>
<path d="M723.27 701.094L724.237 715.991L732.75 708.856L732.208 700.513L723.27 701.094Z" fill="#DDDDDD"/>
<path d="M755.098 707.407L744.597 716.168L745.468 729.576L764.463 713.381L755.098 707.407Z" fill="#F0F0F0"/>
<path d="M732.747 708.859L724.234 715.994L745.463 729.576L744.592 716.168L732.747 708.859Z" fill="#CEC8CD"/>
<path d="M762.528 683.581L754.035 691.015L754.558 699.06L763.496 698.479L762.528 683.581Z" fill="#E5E5E5"/>
<path d="M754.559 699.061L755.101 707.403L764.465 713.377L763.497 698.48L754.559 699.061Z" fill="#E5E5E5"/>
<path d="M742.463 683.389L731.683 692.468L732.747 708.855L744.592 716.164L755.094 707.403L754.029 691.016L742.463 683.389Z" fill="#F8F8F8"/>
</g>
<defs>
<clipPath id="clip0_4955_397">
<rect width="86" height="117" fill="white" transform="translate(302.379 615.662) rotate(3.24185)"/>
</clipPath>
<clipPath id="clip1_4955_397">
<rect width="86" height="117" fill="white" transform="translate(697.535 623.25) rotate(-3.71745)"/>
</clipPath>
</defs>
</svg>
