<svg width="1080" height="1080" viewBox="0 0 1080 1080" fill="none" xmlns="http://www.w3.org/2000/svg">
<path d="M345.776 601.998C345.776 601.998 321.041 616.922 329.526 627.528C342.523 643.775 357.385 615.922 357.385 615.922" stroke="black" stroke-width="9.28461" stroke-linecap="round"/>
<path d="M356.01 659.53C355.571 658.596 354.558 657.992 353.437 657.992H340.367L352.12 639.854C352.627 639.07 352.633 638.101 352.135 637.314C351.635 636.525 350.71 636.039 349.706 636.039H327.319C326.298 636.039 325.358 636.542 324.868 637.351L304.346 671.124C303.87 671.908 303.885 672.864 304.389 673.634C304.893 674.405 305.809 674.878 306.798 674.878H319.437L307.941 700.086C307.428 701.213 307.872 702.51 308.999 703.175C309.469 703.45 309.999 703.585 310.529 703.585C311.269 703.585 312.006 703.318 312.549 702.805L355.457 662.277C356.234 661.544 356.452 660.464 356.01 659.53Z" fill="#FFFA7A" stroke="black" stroke-width="7"/>
</svg>
