<svg width="1080" height="1080" viewBox="0 0 1080 1080" fill="none" xmlns="http://www.w3.org/2000/svg">
<path d="M354.063 639.029C357.556 638.986 360.407 636.154 360.431 632.702C360.455 629.25 357.642 626.487 354.149 626.529L354.063 639.029ZM354.149 626.529C353.205 626.541 352.093 626.774 351.787 626.832C351.163 626.951 350.512 627.08 349.719 627.213C348.163 627.472 346.191 627.721 343.932 627.733C339.444 627.755 333.833 626.846 328.191 623.137L321.045 633.585C329.211 638.954 337.415 640.265 343.755 640.233C346.91 640.217 349.605 639.869 351.595 639.537C352.575 639.373 353.416 639.207 353.957 639.104C354.817 638.94 354.543 639.023 354.063 639.029L354.149 626.529ZM328.191 623.137C323.766 620.227 322.536 615.145 324.383 610.998C326.093 607.156 331.479 602.288 344.05 602.921L344.935 590.437C328.77 589.623 317.314 596.056 312.82 606.147C308.462 615.933 311.662 627.415 321.045 633.585L328.191 623.137Z" fill="#F6A933"/>
</svg>
