<svg width="1080" height="1080" viewBox="0 0 1080 1080" fill="none" xmlns="http://www.w3.org/2000/svg">
<path d="M343.209 608.944C343.209 608.944 320.035 630.09 331.323 639.584C348.615 654.127 358.528 621.308 358.528 621.308" stroke="black" stroke-width="8.40214" stroke-linecap="round"/>
<path fill-rule="evenodd" clip-rule="evenodd" d="M328.869 701.908C332.482 713.39 343.663 708.186 341.959 695.692C341.023 688.805 334.724 681.988 332.685 676.931C337.063 680.18 342.073 687.992 348.497 690.638C360.16 695.438 368.013 685.931 357.816 679.54C369.295 675.927 364.094 664.747 351.598 666.449C344.714 667.39 337.896 673.686 332.84 675.724C336.088 671.346 343.902 666.339 346.546 659.91C351.346 648.25 341.84 640.395 335.447 650.595C331.835 639.112 320.656 644.316 322.358 656.809C323.295 663.698 329.594 670.514 331.632 675.569C327.253 672.322 322.245 664.509 315.816 661.862C304.156 657.064 296.302 666.57 306.501 672.962C295.02 676.574 300.221 687.754 312.715 686.051C319.604 685.112 326.421 678.816 331.478 676.776C328.23 681.155 320.415 686.163 317.771 692.591C312.972 704.252 322.478 712.108 328.869 701.908Z" fill="#39C53F" stroke="black" stroke-width="5.04129"/>
</svg>
