<svg width="1080" height="1080" viewBox="0 0 1080 1080" fill="none" xmlns="http://www.w3.org/2000/svg">
<g clip-path="url(#clip0_4955_537)">
<path d="M325.78 643.59L331.589 632.931L343.347 629.549L354.007 635.357L357.422 646.539L351.613 657.199L339.854 660.581L329.195 654.772L325.78 643.59Z" fill="black" stroke="black" stroke-width="9"/>
<path d="M341.895 645.078L330.387 654.258L327.516 643.686L341.895 645.078Z" fill="#FFC8F9"/>
<path d="M341.895 645.084L327.515 643.691L332.682 634.152L341.895 645.084Z" fill="#F29FEA"/>
<path d="M341.895 645.076L343.287 630.697L352.827 635.864L341.895 645.076Z" fill="#FFECFD"/>
<path d="M330.398 654.256L341.907 645.075L339.937 659.423L330.398 654.256Z" fill="#FBA1F2"/>
<path d="M332.689 634.143L343.295 630.695L341.902 645.075L332.689 634.143Z" fill="#FFB1F7"/>
<path d="M341.899 645.077L350.535 655.976L339.93 659.424L341.899 645.077Z" fill="#F37EE7"/>
<path d="M341.894 645.082L352.826 635.869L355.697 646.442L341.894 645.082Z" fill="#FFC8F9"/>
<path d="M355.698 646.436L350.531 655.976L341.895 645.076L355.698 646.436Z" fill="#FFB1F7"/>
<path d="M346.727 651.718L349.936 646.116L347.956 640.22L342.354 637.011L336.459 638.991L333.25 644.592L335.229 650.488L340.864 653.121L346.727 651.718Z" fill="#FFD1FA"/>
</g>
<g clip-path="url(#clip1_4955_537)">
<path d="M723.781 648.857L728.18 637.543L739.409 632.685L750.724 637.084L755.54 647.738L751.141 659.052L739.912 663.91L728.597 659.511L723.781 648.857Z" fill="black" stroke="black" stroke-width="9"/>
<path d="M739.952 648.276L729.711 658.852L725.512 648.732L739.952 648.276Z" fill="#FFC8F9"/>
<path d="M739.951 648.282L725.511 648.738L729.416 638.617L739.951 648.282Z" fill="#F29FEA"/>
<path d="M739.954 648.272L739.498 633.832L749.619 637.737L739.954 648.272Z" fill="#FFECFD"/>
<path d="M729.722 658.848L739.962 648.272L739.843 662.753L729.722 658.848Z" fill="#FBA1F2"/>
<path d="M729.426 638.606L739.504 633.831L739.96 648.271L729.426 638.606Z" fill="#FFB1F7"/>
<path d="M739.957 648.273L749.915 657.979L739.837 662.754L739.957 648.273Z" fill="#F37EE7"/>
<path d="M739.952 648.277L749.617 637.743L753.816 647.862L739.952 648.277Z" fill="#FFC8F9"/>
<path d="M753.817 647.856L749.912 657.978L739.953 648.271L753.817 647.856Z" fill="#FFB1F7"/>
<path d="M745.593 654.243L748.06 648.277L745.343 642.683L739.377 640.216L733.783 642.933L731.316 648.899L734.033 654.493L739.958 656.384L745.593 654.243Z" fill="#FFD1FA"/>
</g>
<defs>
<clipPath id="clip0_4955_537">
<rect width="86" height="117" fill="white" transform="translate(302.379 615.662) rotate(3.24185)"/>
</clipPath>
<clipPath id="clip1_4955_537">
<rect width="86" height="117" fill="white" transform="translate(697 624.15) rotate(-4.10159)"/>
</clipPath>
</defs>
</svg>
