<svg width="1080" height="1080" viewBox="0 0 1080 1080" fill="none" xmlns="http://www.w3.org/2000/svg">
<path d="M661.069 313.593C694.698 315.276 725.052 324.664 746.721 337.272C757.571 343.585 766.077 350.608 771.75 357.709C777.434 364.824 780.044 371.707 779.818 377.92C779.606 383.736 775.705 391.352 766.429 399.686C757.273 407.912 743.445 416.303 724.851 423.678C687.694 438.417 632.156 448.841 558.854 446.17L558.787 446.168L558.719 446.167C475.918 445.369 412.099 433.971 369.31 418.773C347.89 411.166 331.974 402.688 321.591 394.295C311.045 385.771 307.088 378.091 307.307 372.103L307.315 371.874L307.302 371.644L307.28 371.165C306.9 361.132 311.967 351.969 320.855 343.703C329.894 335.297 342.403 328.305 355.294 322.965C368.146 317.642 381.05 314.096 390.618 312.427C395.13 311.64 398.698 311.306 401.089 311.337L401.024 313.155L406.234 313.164L661.069 313.593Z" fill="#E74D4E" stroke="black" stroke-width="10.0639"/>
<path d="M387.078 338.799C407.055 347.257 392.845 384.648 365.366 377.32C335.54 369.311 367.625 330.582 387.078 338.799Z" fill="#F4B306"/>
<path d="M700.174 341.252C679.771 348.607 691.916 386.707 719.725 380.869C749.963 374.539 720.038 334.091 700.174 341.252Z" fill="#F4B306"/>
<path d="M522.181 395.229C528.463 375.182 585.868 379.401 576.018 402.867C567.012 424.234 515.899 415.276 522.181 395.229Z" fill="#F4B306"/>
<path d="M548.637 181.583C631.693 181.312 673.098 217.443 693.995 253.359C704.512 271.433 709.884 289.561 712.621 303.191C713.989 309.997 714.694 315.657 715.057 319.594C715.159 320.705 715.233 321.678 715.288 322.5C714.581 322.842 713.749 323.235 712.792 323.674C709.041 325.392 703.373 327.8 695.835 330.486C680.761 335.857 658.198 342.345 628.505 346.666C569.78 355.212 483.016 355.303 370.956 321.36C371.056 320.658 371.176 319.862 371.32 318.976C371.955 315.08 373.054 309.477 374.898 302.736C378.592 289.236 385.247 271.29 397.073 253.378C408.879 235.494 425.822 217.666 450.153 204.258C474.477 190.854 506.478 181.705 548.635 181.582L548.637 181.583Z" fill="#A8DBF6" stroke="black" stroke-width="10.0639"/>
<path opacity="0.19" d="M478.193 300.844C534.542 293.184 610.786 293.33 693.368 323.285C690.396 324.39 686.857 325.637 682.767 326.955C668.164 331.661 646.541 337.314 618.676 341.001C565.441 348.043 489.329 347.916 395.752 320.173C399.245 318.949 403.39 317.565 408.143 316.1C424.749 310.981 448.749 304.847 478.193 300.844Z" fill="#4D2A22" stroke="black" stroke-width="10.0639"/>
</svg>
