<svg width="1080" height="1080" viewBox="0 0 1080 1080" fill="none" xmlns="http://www.w3.org/2000/svg">
<path d="M335.082 352H398.755C396.661 435.799 363.242 430.751 363.242 430.751C363.242 421.344 362.162 419.931 354.531 413.956L337.723 403.729C336.366 402.924 336.439 401.002 337.825 400.268L362.162 387.413L365.883 385.563C369.866 383.204 369.224 380.506 366.889 378.542C366.86 378.528 366.846 378.5 366.816 378.486C356.836 370.293 333.681 355.489 333.681 355.489C332.28 354.246 333.185 352 335.082 352Z" fill="#FFCC5A"/>
<path d="M415.5 352H335.082C333.185 352 332.28 354.246 333.681 355.489C333.681 355.489 356.836 370.293 366.816 378.486C366.846 378.5 366.86 378.528 366.889 378.542C369.224 380.506 369.866 383.204 365.883 385.563L362.162 387.413L337.825 400.268C336.439 401.002 336.366 402.924 337.723 403.729L354.531 413.956C362.162 419.931 363.242 421.344 363.242 430.751" stroke="black" stroke-width="11.63" stroke-miterlimit="10"/>
<path d="M540.58 230.854C633.696 230.854 684.89 254.013 712.957 284.701C741.041 315.408 747.127 354.887 747.146 390.327C745.851 410.54 752.272 425.255 758.613 435.984C760.188 438.649 761.759 441.068 763.174 443.221C764.619 445.419 765.838 447.246 766.856 448.92C767.88 450.601 768.523 451.846 768.877 452.806C768.999 453.135 769.067 453.384 769.106 453.562C762.509 459.784 752.325 460.327 737.135 457.434C729.388 455.958 721.065 453.751 711.999 451.501C703.19 449.315 693.822 447.132 684.286 445.797C683.987 445.709 683.571 445.593 683.024 445.451C681.903 445.161 680.231 444.765 677.901 444.299C673.243 443.367 665.934 442.153 655.102 440.946C633.442 438.534 597.609 436.146 540.58 436.146C483.544 436.146 445.625 438.534 421.896 440.939C410.029 442.142 401.703 443.35 396.304 444.268C393.604 444.726 391.634 445.113 390.318 445.391C389.66 445.529 389.165 445.64 388.824 445.72C388.717 445.745 388.624 445.767 388.547 445.785C380.037 447.116 371.419 449.207 363.266 451.238C354.924 453.316 347.14 455.311 339.989 456.562C332.801 457.819 326.804 458.215 322.031 457.392C318.204 456.731 315.328 455.325 313.164 452.966C313.448 452.346 313.89 451.514 314.547 450.393C316.252 447.484 319.345 442.78 322.136 437.45C327.924 426.395 333.499 410.849 330.844 390.049C329.663 355.675 336.479 316.233 365.626 285.329C394.822 254.374 447.496 230.854 540.58 230.854Z" fill="#697247" stroke="black" stroke-width="11.7078"/>
<path d="M539.613 275.059C543.387 275.059 553.345 317.341 553.345 317.341C553.345 317.341 596.955 314.733 597.801 317.341C599.126 321.423 561.841 343.466 561.841 343.466C561.841 343.466 578.51 383.615 575.573 385.748C572.636 387.88 539.613 359.623 539.613 359.623C539.613 359.623 505.734 387.258 503.653 385.748C500.292 383.307 517.385 343.466 517.385 343.466C517.385 343.466 480.304 320.785 481.425 317.341C482.546 313.897 525.865 317.341 525.865 317.341C525.865 317.341 535.84 275.059 539.613 275.059Z" fill="#010302"/>
</svg>
