<svg width="1080" height="1080" viewBox="0 0 1080 1080" fill="none" xmlns="http://www.w3.org/2000/svg">
<path d="M412.913 298.453C414.153 297.625 415.589 296.605 417.122 295.84C415.258 295.331 417.122 293.738 417.612 295.394C420.153 288.957 428.31 282.838 436.468 279.396C437.186 277.898 440.714 277.546 441.954 276.653C475.623 266.648 492.203 265.339 516.578 265.721C546.499 266.199 577.987 266.964 607.517 272.032C646.93 272.032 718.715 317.642 733.696 359.075C736.535 371.409 732.913 383.358 735.001 395.82C737.449 410.385 728.828 426.594 727.001 441" stroke="black" stroke-width="11.5928"/>
<path d="M343.474 400.73C343.472 430.653 359.789 433.975 359.789 433.975L376.5 420L420.5 394L462.573 373.419L480.519 370.232C480.519 370.232 502.138 372.594 518.044 373.419C535.328 374.315 547.433 375.387 564.5 378.2C585.833 381.716 615.5 390.5 615.5 390.5L669.772 410.5L701 425.5L726 442L733.4 433.975C733.4 433.975 741.289 425.5 739.926 406.884C739.264 397.846 733.4 384.574 733.4 384.574V378.2C733.4 378.2 737.426 369.264 731.769 354.296C726.111 339.329 710.559 325.612 710.559 325.612C710.559 325.612 702.629 311.727 694.244 306.489C687.455 302.248 674.667 300.115 674.667 300.115L669.772 293.741C669.772 293.741 651.544 282.596 638.774 277.805C621.16 271.196 610.142 270.829 591.461 268.243C563.045 264.311 518.044 265.056 518.044 265.056L469.099 268.243C469.099 268.243 442.838 271.546 429.943 280.992C424.176 285.216 416.891 293.741 416.891 293.741L407.102 300.115C407.102 300.115 396.775 304.313 390.787 308.083C381.313 314.048 375.935 318.113 369.578 327.205C364.105 335.033 361.931 340.27 359.789 349.515C358.236 356.22 358.558 357.797 357 364.5C355.706 370.066 348.502 379.058 347 384.574C344.433 394 343.474 394 343.474 400.73Z" fill="white" stroke="black" stroke-width="11.5928"/>
<path d="M358.819 437C358.819 437 468.619 332.43 714.549 333.291C714.549 333.291 703.26 308.24 679.114 300.495C679.114 300.495 504.479 289.309 358.82 363.792C360.875 362.752 318.5 408.5 358.819 437Z" stroke="black" stroke-width="11.5928" stroke-miterlimit="10"/>
<path d="M554 349.499C554 349.499 632.654 344.418 732.632 385.5C732.632 385.5 752.5 415.502 724 436.502C724 436.502 587 354.002 464 373.502C457.499 374.532 493.528 361.852 554 349.499Z" stroke="black" stroke-width="11.5928" stroke-miterlimit="10"/>
<path d="M714.522 333.324C714.522 333.324 741.931 353.818 732.273 382.916" stroke="black" stroke-width="11.5928" stroke-miterlimit="10"/>
<path d="M358.155 368.637C358.155 368.637 352.452 319.012 408.021 298.328C408.021 298.328 489.889 286.758 578.152 303.746" stroke="black" stroke-width="11.5928" stroke-miterlimit="10"/>
<path d="M411.994 298.521C411.994 298.521 425.75 276.497 468.169 269.517C510.588 262.537 645.838 260.306 675.629 300.337" stroke="black" stroke-width="11.5928" stroke-miterlimit="10"/>
<path d="M325 354.5C350.303 338.5 356.357 334.85 364 333.5L356 365.5L347 381.5C342.952 390.5 341.5 400.091 341.5 403.5C341.5 416.562 325.958 411.576 313.5 438.5C283.514 503.305 251.5 486.5 240.647 482.925C229.794 479.35 270.792 455.24 265.5 452C260.209 448.759 223 463 217.717 443.94C216.068 437.992 265.275 432.036 278 403.5C294.5 366.5 309.089 364.561 325 354.5Z" fill="white" stroke="black" stroke-width="14"/>
</svg>
