<svg width="1080" height="1080" viewBox="0 0 1080 1080" fill="none" xmlns="http://www.w3.org/2000/svg">
<path d="M360.381 390.337C354.672 391.423 348.989 391.636 344.363 392.09H344.36C332.525 393.244 320.85 396.244 309.808 400.971L309.806 400.972C298.893 405.638 288.94 411.995 282.373 421.227C271.944 435.887 264.53 460.016 265.694 478.219C266.295 487.618 267.865 500.348 270.459 510.595C271.768 515.764 273.249 519.941 274.801 522.698C275.195 523.399 275.541 523.914 275.827 524.293C276.379 523.356 277.027 522.049 277.763 520.312C279.852 515.382 282.004 508.673 284.697 500.902C287.325 493.321 290.391 484.976 294.158 477.473C297.886 470.048 302.561 462.901 308.667 458.169C314.102 453.957 319.991 450.37 325.333 446.954C330.794 443.463 335.83 440.066 340.26 435.97C347.813 428.984 353.638 419.779 356.911 409.595L360.381 390.337ZM318.608 337.742C283.722 337.742 252.505 355.198 230.418 375.337C219.406 385.378 210.858 395.916 205.402 404.938C202.671 409.455 200.791 413.465 199.736 416.743C199.367 417.891 199.125 418.877 198.971 419.711C201.393 419.224 204.782 418.069 209.173 416.234C218.345 412.401 230.257 406.327 244.006 399.685C257.598 393.117 272.739 386.122 287.829 380.769C302.862 375.435 318.232 371.587 332.231 371.587H332.302L332.371 371.589C342.718 371.84 353.048 372.686 363.304 374.116L363.782 371.459L368.5 371.38C370.649 371.344 372.537 371.893 374.037 372.526C374.335 370.71 374.998 369.013 376.12 367.621C370.55 361.596 362.837 354.811 353.87 349.225C343.049 342.482 330.824 337.742 318.608 337.742Z" fill="#B24930" stroke="black" stroke-width="11.4848"/>
<path d="M533.925 276.742C460.38 276.742 413.283 300.623 387.49 319.143C381.018 323.79 374.621 329.577 369.812 337.554C365.034 345.481 361.641 355.87 361.613 370.003V370.008C361.605 372.916 361.74 375.842 361.877 378.948C362.011 382.004 362.146 385.227 362.105 388.48V388.482C361.919 403.121 359.241 417.969 363.145 434.207C369.289 425.31 376.219 418.098 384.566 412.278C395.981 404.32 409.671 399.221 426.812 395.668C456.433 389.528 486.68 386.972 516.886 387.564C549.039 388.194 582.559 386.346 615.41 391.454L616.975 391.703C637.931 395.101 659.208 399.58 679.432 407.438H679.434C686.235 410.083 695.298 413.458 703.653 417.811C709.153 420.675 714.719 424.147 719.287 428.417C723.471 417.971 723.289 405.855 718.396 395.726C717.637 394.167 715.61 390.646 715.443 386.759V386.748L715.442 386.737C715.397 385.572 715.653 384.453 715.794 383.87C715.972 383.135 716.212 382.322 716.454 381.534C716.976 379.835 717.539 378.142 718.135 376.094C719.339 371.95 720.154 367.985 719.869 365.08L719.842 364.801V364.52C719.842 358.618 716.98 348.658 709.63 337.941C702.373 327.361 690.953 316.372 674.379 308.267C644.282 293.548 621.3 285.718 599.913 281.53C578.491 277.336 558.425 276.742 533.925 276.742Z" fill="#B24930" stroke="black" stroke-width="11.4848"/>
</svg>
