<svg width="1080" height="1080" viewBox="0 0 1080 1080" fill="none" xmlns="http://www.w3.org/2000/svg">
<path d="M335.082 352H398.755C396.661 435.799 363.242 430.751 363.242 430.751C363.242 421.344 362.162 419.931 354.531 413.956L337.723 403.729C336.366 402.924 336.439 401.002 337.825 400.268L362.162 387.413L365.883 385.563C369.866 383.204 369.224 380.506 366.889 378.542C366.86 378.528 366.846 378.5 366.816 378.486C356.836 370.293 333.681 355.489 333.681 355.489C332.28 354.246 333.185 352 335.082 352Z" fill="#FFCC5A"/>
<path d="M415.5 352H335.082C333.185 352 332.28 354.246 333.681 355.489C333.681 355.489 356.836 370.293 366.816 378.486C366.846 378.5 366.86 378.528 366.889 378.542C369.224 380.506 369.866 383.204 365.883 385.563L362.162 387.413L337.825 400.268C336.439 401.002 336.366 402.924 337.723 403.729L354.531 413.956C362.162 419.931 363.242 421.344 363.242 430.751" stroke="black" stroke-width="11.63" stroke-miterlimit="10"/>
<path d="M477.782 282.375C478.971 279.509 479.553 271.773 472.368 263.766C465.183 255.759 459.796 249.944 458.001 248.038" stroke="black" stroke-width="11.4581" stroke-linecap="round"/>
<path d="M730.829 368.152C729.866 369.41 728.798 370.639 727.657 371.737C713.022 385.737 715.956 388.695 720.965 404.155C725.974 419.616 713.912 419.616 713.912 419.616C696.546 419.333 691.766 413.887 659.4 410.421C629.772 407.248 612.081 406.15 585.765 410.421C592.967 408.545 615.986 402.776 665.153 392.907C707.757 384.33 724.506 373.792 730.829 368.152Z" fill="#4E4CA3" stroke="black" stroke-width="11.4581"/>
<path d="M432.001 292.999C525.001 243 579.968 229.195 676.435 279.666C700.916 292.474 752.244 325.498 730.8 368.145C724.985 385.244 707.728 384.323 665.02 392.87C615.853 402.739 592.834 408.508 585.632 410.384C525.673 426.002 501.831 404.148 450.718 410.384C354.656 422.107 313.584 478.546 304.215 430.258C310 332.998 360.796 325.565 432.001 292.999Z" fill="#6765B3" stroke="black" stroke-width="11.4581"/>
</svg>
