<svg width="1080" height="1080" viewBox="0 0 1080 1080" fill="none" xmlns="http://www.w3.org/2000/svg">
<path d="M426.919 371.424C431.879 382.439 453.339 388.305 467.493 380.053C477.687 391.716 505.706 393.788 518.916 382.033C533.944 393.816 566.566 398.811 594.874 387.181C623.009 397.405 642.459 391.172 651.488 365.198C666.669 374.941 690.174 352.67 668.472 333.537C678.445 310.052 655.964 282.887 625.54 288.522C609.029 262.924 567.693 253.431 542.035 272.315C519.079 254.729 488.25 264.118 480.703 281.768C437.299 269.39 415.084 295.42 419.843 321.157C378.325 330.159 381.789 376.694 426.919 371.424Z" fill="#FFC5BB"/>
<path d="M560.712 399.13C544.442 399.13 529.436 395.276 519.064 389.185C511.77 393.547 502.172 395.712 491.777 395.203C481.644 394.71 472.453 391.7 466.08 386.935C458.641 389.683 449.954 390.107 441.442 388.033C433.425 386.081 426.819 382.147 422.927 377.154C400.782 378.149 387.891 367.432 384.802 355.676C381.166 341.843 389.806 324.491 412.555 317.422C411.449 302.858 418.085 289.255 430.522 281.154C442.557 273.318 458.874 271.265 476.959 275.202C482.544 267.007 492.606 260.806 504.461 258.519C517.483 256.008 530.914 258.469 542.106 265.294C554.062 258.244 568.803 255.565 584.223 257.733C602.632 260.32 619.088 269.505 629.102 282.601C642.226 281.461 654.772 285.342 664.17 293.574C675.89 303.841 680.337 318.755 675.967 332.32C688.026 344.872 685.291 359.005 675.79 366.984C670.012 371.833 662.512 373.767 655.602 372.6C650.512 383.611 642.991 391.015 633.186 394.647C622.693 398.539 609.87 398.018 595.034 393.11C583.73 397.3 571.922 399.13 560.712 399.13ZM518.908 376.666C520.681 376.666 522.389 377.22 523.655 378.215C536.609 388.371 566.33 392.862 591.765 382.414C593.609 381.656 595.792 381.614 597.678 382.302C610.011 386.785 620.035 387.663 627.473 384.906C635.201 382.041 641.085 374.933 644.965 363.777C645.572 362.031 647.242 360.645 649.411 360.091C651.577 359.535 653.955 359.889 655.728 361.027C660.216 363.908 664.704 360.661 665.97 359.596C671.626 354.845 673.249 345.794 663.444 337.151C661.807 335.708 661.279 333.674 662.061 331.83C666.593 321.157 663.492 308.976 654.159 300.8C649.916 297.086 640.76 291.235 627.069 293.766C624.039 294.327 620.935 293.18 619.518 290.984C611.799 279.021 597.725 270.549 581.868 268.321C568.635 266.462 556.112 269.282 546.62 276.272C543.988 278.207 539.919 278.177 537.337 276.196C528.627 269.522 518.085 266.955 507.654 268.968C498.011 270.829 490.136 276.401 487.097 283.509C486.513 284.875 485.265 285.994 483.633 286.62C481.998 287.247 480.119 287.322 478.413 286.838C462.362 282.263 448.765 283.174 439.093 289.473C429.026 296.028 424.213 307.874 426.526 320.385C427.022 323.076 424.915 325.638 421.617 326.354C402.747 330.446 395.385 343.382 398.041 353.477C400.579 363.134 411.006 367.857 425.93 366.116C429.114 365.743 432.192 367.211 433.277 369.623C434.894 373.213 439.542 376.328 445.402 377.757C451.952 379.353 458.544 378.611 463.486 375.73C464.955 374.874 466.797 374.522 468.597 374.761C470.393 375.001 471.996 375.805 473.034 376.997C476.711 381.201 484.208 384.068 492.6 384.477C501.21 384.896 509.165 382.647 513.868 378.463C515.101 377.365 516.845 376.718 518.695 376.673C518.766 376.666 518.837 376.666 518.908 376.666Z" fill="black"/>
<path d="M426.911 376.218C424.105 376.218 421.594 374.648 421.025 372.375C418.204 361.165 423.907 352.813 428.652 348.081C414.754 337.997 413.548 320.064 413.5 319.207C413.35 316.57 415.914 314.334 419.228 314.215C422.547 314.111 425.347 316.129 425.507 318.761C425.518 318.944 426.814 337.258 440.637 343.231C442.423 344.003 443.594 345.437 443.759 347.044C443.921 348.653 443.054 350.22 441.449 351.206C441 351.49 429.844 358.697 432.809 370.498C433.461 373.086 431.349 375.603 428.094 376.119C427.696 376.187 427.301 376.218 426.911 376.218Z" fill="black"/>
<path d="M437.284 342.652L455.483 344.25C456.923 344.376 457.962 345.406 457.802 346.551C457.681 347.424 456.894 348.111 455.89 348.334L438.234 352.182C434.976 352.893 431.61 351.368 430.716 348.775C429.822 346.183 431.739 343.508 435 342.797C435.758 342.631 436.546 342.589 437.284 342.652Z" fill="black"/>
<path d="M457.972 304.858C456.03 308.349 455.148 312.133 456.485 315.16C457.706 318.198 461.076 320.357 465.098 321.562C469.14 322.773 473.781 323.055 478.216 322.611C482.666 322.165 486.959 320.985 490.606 319.202C493.438 317.816 497.147 318.52 498.888 320.772C500.632 323.024 499.747 325.973 496.914 327.357C496.72 327.454 496.519 327.538 496.315 327.615L496.244 327.641C490.694 329.706 484.749 330.724 478.839 330.79C472.937 330.837 466.98 329.978 461.539 327.78C458.836 326.675 456.269 325.206 454.16 323.303C452.032 321.424 450.483 319.033 449.837 316.542C449.164 314.048 449.371 311.528 450.094 309.255C450.817 306.97 452.015 304.896 453.395 302.972C454.101 301.989 455.676 301.646 456.913 302.207C458.069 302.733 458.521 303.859 457.998 304.806L457.972 304.858Z" fill="black"/>
<path d="M467.473 384.834C464.626 384.834 462.094 383.217 461.569 380.909C457.011 360.962 465.603 345.632 487.11 335.303C486.287 323.835 490.397 314.178 499.367 306.462C488.582 302.907 480.43 295.189 475.042 283.402C473.909 280.922 475.52 278.179 478.639 277.279C481.755 276.38 485.207 277.659 486.34 280.138C491.934 292.385 500.535 298.598 512.633 299.13C515.2 299.243 517.392 300.643 518.086 302.61C518.779 304.576 517.826 306.678 515.707 307.837C502.854 314.87 497.517 324.534 499.396 337.379C499.683 339.321 498.446 341.205 496.28 342.137C476.797 350.498 469.524 362.276 473.392 379.196C473.985 381.793 471.82 384.28 468.553 384.752C468.193 384.81 467.83 384.834 467.473 384.834Z" fill="black"/>
<path d="M495.069 333.333L513.009 340.193C514.31 340.691 514.859 341.934 514.233 342.969C513.743 343.778 512.675 344.222 511.613 344.137L491.808 342.535C488.457 342.263 486.016 339.884 486.356 337.216C486.698 334.551 489.69 332.611 493.045 332.881C493.759 332.937 494.452 333.101 495.069 333.333Z" fill="black"/>
<path d="M527.065 359.987C533.297 355.112 541.178 351.403 549.894 349.665C558.566 347.931 568.12 348.093 576.801 350.892C581.127 352.276 585.204 354.296 588.683 356.891C592.168 359.476 595.027 362.632 597.057 366.069C599.099 369.508 600.317 373.205 600.86 376.898C601.409 380.596 601.306 384.291 600.801 387.906C600.436 390.531 597.464 392.425 594.162 392.134C590.861 391.843 588.48 389.48 588.845 386.855C588.86 386.747 588.881 386.639 588.904 386.534L588.919 386.468C590.262 380.621 590.206 374.611 587.606 369.334C585.077 364.063 579.97 359.68 573.361 357.149C566.775 354.568 558.885 353.925 551.352 355C543.786 356.072 536.557 358.908 530.556 362.993L530.541 363.002C529.461 363.739 527.832 363.638 526.909 362.779C526.029 361.958 526.112 360.736 527.065 359.987Z" fill="black"/>
<path d="M540.175 332.632C548.071 332.193 555.672 331.21 562.249 328.874C568.802 326.6 574.234 323.055 576.819 318.551C579.546 314.102 579.354 308.744 577.229 303.367C576.141 300.687 574.668 297.971 572.851 295.312C571.051 292.633 568.87 290.062 566.737 287.338L566.675 287.261C565.911 286.287 566.285 285.004 567.513 284.396C568.436 283.939 569.578 283.997 570.41 284.466C577.315 288.375 583.417 293.574 587.285 300.232C589.191 303.55 590.487 307.259 590.652 311.16C590.87 315.048 589.855 319.116 587.595 322.689C585.379 326.274 582.077 329.378 578.218 331.656C574.373 333.967 570.071 335.569 565.695 336.59C556.9 338.582 547.876 338.418 539.632 336.705C538.24 336.416 537.408 335.285 537.771 334.178C538.06 333.296 539.022 332.695 540.105 332.634L540.175 332.632Z" fill="black"/>
<path d="M546.503 275.516C543.565 277.799 541.369 281.316 540.269 285.056C539.156 288.81 539.038 292.861 540.112 296.634C541.178 300.402 543.511 303.886 547.185 306.239C550.832 308.629 555.816 309.713 561.003 309.742H561.062C562.484 309.749 563.632 310.673 563.62 311.806C563.611 312.869 562.575 313.737 561.274 313.833C558.273 314.047 555.172 314.004 552.08 313.521C548.994 313.045 545.928 312.102 543.199 310.687C537.672 307.86 533.866 303.297 531.865 298.536C529.838 293.739 529.325 288.659 530.121 283.646C530.965 278.651 533.054 273.564 537.56 269.135L537.613 269.083C539.705 267.026 543.497 266.707 546.081 268.37C548.669 270.031 549.07 273.048 546.981 275.104C546.837 275.242 546.66 275.392 546.503 275.516Z" fill="black"/>
<path d="M558.111 353.179C554.774 347.846 554.119 339.358 556.55 332.995L568.049 335.775C566.314 340.313 567.125 346.131 568.872 348.923L558.111 353.179Z" fill="black"/>
<path d="M599.951 333.656C600.337 338.2 601.925 342.571 604.935 345.785C606.431 347.385 608.295 348.605 610.266 349.41C612.226 350.229 614.465 350.503 616.469 350.412C620.546 350.154 624.359 347.885 626.02 344.952C626.147 344.779 626.206 344.579 626.303 344.394L626.442 344.115L626.598 343.728L627.238 342.13C627.722 341.072 628.02 340.002 628.386 338.939C628.776 337.876 628.935 336.811 629.23 335.753C629.395 334.7 629.614 333.639 629.676 332.602C629.885 330.514 629.687 328.501 629.336 326.577C628.941 324.661 628.141 322.899 627.061 321.318C624.887 318.171 621.37 315.76 616.923 314.422C612.494 313.062 607.348 312.785 602.347 313.402C597.319 314.012 592.489 315.654 588.237 317.958L588.072 318.047C585.328 319.532 581.589 318.969 579.721 316.79C577.945 314.716 578.515 311.917 580.928 310.371C586.452 306.851 593.046 304.334 600.087 303.309C607.1 302.253 614.592 302.537 621.629 304.632C625.126 305.704 628.481 307.246 631.411 309.254C634.349 311.25 636.801 313.735 638.566 316.449C640.333 319.161 641.493 322.075 642.021 324.966C642.526 327.851 642.576 330.728 642.18 333.48C642.018 334.864 641.691 336.204 641.401 337.55C640.991 338.855 640.69 340.204 640.174 341.464C639.678 342.733 639.233 344.023 638.619 345.238L637.731 347.078L637.498 347.547L637.179 348.103C636.955 348.469 636.766 348.849 636.503 349.199C634.556 352.059 631.706 354.501 628.239 356.174C624.786 357.858 620.709 358.747 616.634 358.715C612.529 358.646 608.638 357.624 605.386 355.89C602.126 354.182 599.585 351.843 597.862 349.311C594.401 344.209 593.805 338.561 594.799 333.442C595.017 332.318 596.339 331.549 597.753 331.723C598.971 331.873 599.859 332.677 599.939 333.616L599.951 333.656Z" fill="black"/>
<path d="M668.462 338.333C667.579 338.333 666.685 338.178 665.839 337.852C652.162 332.566 640.926 337.082 640.454 337.274C637.527 338.483 633.895 337.598 632.352 335.278C630.809 332.958 631.886 330.093 634.789 328.847C635.471 328.554 651.717 321.769 671.091 329.255C674.077 330.41 675.322 333.267 673.87 335.642C672.832 337.342 670.689 338.333 668.462 338.333Z" fill="black"/>
<path d="M383.5 354.502C386 362.002 401.118 368.12 427.744 378.607C469.643 395.108 483.553 393.17 517.49 395.354C517.49 395.354 593.579 401.409 619.303 393.19C637.237 387.46 647.954 381.257 663.799 372.074C676 365.002 683.5 357.502 683.5 357.502" stroke="black" stroke-width="13.1068" stroke-linecap="round" stroke-linejoin="round"/>
</svg>
