<svg width="1080" height="1080" viewBox="0 0 1080 1080" fill="none" xmlns="http://www.w3.org/2000/svg">
<path d="M361.493 376.082C361.493 376.082 368.066 304.584 375.961 277.866C383.856 251.149 412.794 216.013 538.749 210.025C538.749 210.025 692.828 204.058 712.529 280.907C712.529 280.907 727.064 350.133 722.17 377.9C722.17 377.9 608.883 412.384 361.315 384.821L361.493 376.082Z" fill="black" stroke="black" stroke-width="1.61615"/>
<path d="M356.463 384.923L364.468 346.44C364.468 346.44 580.142 378.071 721.501 342.498L725.947 382.849C725.947 382.849 535.208 440.963 356.463 384.923Z" fill="#525252" stroke="black" stroke-width="1.61615"/>
<path d="M367.21 345.997L367.21 379.497C367.21 379.497 551.45 443.335 721.817 379.497L721.817 345.39C721.817 345.39 751.739 343.712 772.864 343.712C797.914 343.712 782.001 388.499 763.001 405.499C744.001 422.499 716.503 432.818 659.501 444.499C602.5 456.181 497.263 452.58 431.001 444.499C364.739 436.419 340.5 416.983 323.5 402.497C306.501 388.011 293.499 349.496 319.502 346L367.21 345.997Z" fill="black" stroke="black" stroke-width="1.61615"/>
</svg>
