<svg width="1080" height="1080" viewBox="0 0 1080 1080" fill="none" xmlns="http://www.w3.org/2000/svg">
<path d="M792.988 376.33C791.921 350.408 679.88 343 679.88 343L371.491 344.235C371.491 344.235 295.73 350.408 289.326 376.947C282.244 406.289 391.309 445.789 548.168 443.937C705.026 442.085 794.182 405.329 792.988 376.33Z" fill="#D89A36" stroke="black" stroke-width="11.3693"/>
<path d="M366.03 267.172C359.575 293.75 361.176 352.887 361.176 352.887C361.176 352.887 405.653 386.786 538.93 387.965C686.39 389.265 722 354.066 722 354.066C722 354.066 722 308.176 713.91 267.174C708.735 240.948 609.782 232.876 542.13 233.001C472.627 233.13 372.485 240.594 366.03 267.172Z" fill="#F7BC46" stroke="black" stroke-width="11.3693"/>
<path d="M361 321.5C361 321.5 425 343 535.5 343C663 343 713 324 713 324L715.999 354.709C715.999 354.709 683 392.975 539.033 390.906C366.907 388.433 359.5 352.5 359.5 352.5L361 321.5Z" fill="black" stroke="black" stroke-width="11.3693"/>
</svg>
