<svg width="1080" height="1080" viewBox="0 0 1080 1080" fill="none" xmlns="http://www.w3.org/2000/svg">
<path d="M335.082 352H398.755C396.661 435.799 363.242 430.751 363.242 430.751C363.242 421.344 362.162 419.931 354.531 413.956L337.723 403.729C336.366 402.924 336.439 401.002 337.825 400.268L362.162 387.413L365.883 385.563C369.866 383.204 369.224 380.506 366.889 378.542C366.86 378.528 366.846 378.5 366.816 378.486C356.836 370.293 333.681 355.489 333.681 355.489C332.28 354.246 333.185 352 335.082 352Z" fill="#FFCC5A"/>
<path d="M415.5 352H335.082C333.185 352 332.28 354.246 333.681 355.489C333.681 355.489 356.836 370.293 366.816 378.486C366.846 378.5 366.86 378.528 366.889 378.542C369.224 380.506 369.866 383.204 365.883 385.563L362.162 387.413L337.825 400.268C336.439 401.002 336.366 402.924 337.723 403.729L354.531 413.956C362.162 419.931 363.242 421.344 363.242 430.751" stroke="black" stroke-width="11.63" stroke-miterlimit="10"/>
<path d="M751.499 352C700.485 283.194 599.427 246 538.986 246C477.479 246 377.499 280.5 328.499 355.5C287.667 418 364.125 409.828 364.125 409.828L538.986 382.788L714.047 409.828C726.772 409.828 798.579 415.5 751.499 352Z" fill="white" stroke="black" stroke-width="11.1339"/>
<path d="M375.078 397.102C375.078 397.102 427.042 312.803 542.612 312.803C658.182 312.803 702.733 397.102 702.733 397.102H375.078Z" fill="white"/>
<path d="M359.107 422.733C360.156 436.945 440.747 448 547.463 448C654.179 448 720.798 432.997 720.993 422.733C722.244 357.072 549.272 389.569 549.272 389.569C549.272 389.569 353.771 350.45 359.107 422.733Z" fill="#454C53" stroke="black" stroke-width="11.1339"/>
<path d="M539.866 368C423.821 368 352.001 391.076 352 405.089C352 414.413 359 423 359 423C359 423 466.293 400.146 539.866 400.146C613.438 400.146 721.455 423.2 721.455 423.2C721.455 423.2 733 414.977 733 405.089C733 395.201 665.571 368 539.866 368Z" fill="#FFBE0B" stroke="black" stroke-width="11.1339"/>
<path d="M539.31 282.582C533.022 282.582 513.861 299.784 501.81 299.784C489.76 299.784 508.502 341.348 539.31 347.795C570.119 341.348 589.276 299.784 576.81 299.784C564.345 299.784 545.599 282.582 539.31 282.582Z" fill="#FFBE0B" stroke="black" stroke-width="11.1339"/>
</svg>
