<svg width="1080" height="1080" viewBox="0 0 1080 1080" fill="none" xmlns="http://www.w3.org/2000/svg">
<path d="M335.082 352H398.755C396.661 435.799 363.242 430.751 363.242 430.751C363.242 421.344 362.162 419.931 354.531 413.956L337.723 403.729C336.366 402.924 336.439 401.002 337.825 400.268L362.162 387.413L365.883 385.563C369.866 383.204 369.224 380.506 366.889 378.542C366.86 378.528 366.846 378.5 366.816 378.486C356.836 370.293 333.681 355.489 333.681 355.489C332.28 354.246 333.185 352 335.082 352Z" fill="#FFCC5A"/>
<path d="M415.5 352H335.082C333.185 352 332.28 354.246 333.681 355.489C333.681 355.489 356.836 370.293 366.816 378.486C366.846 378.5 366.86 378.528 366.889 378.542C369.224 380.506 369.866 383.204 365.883 385.563L362.162 387.413L337.825 400.268C336.439 401.002 336.366 402.924 337.723 403.729L354.531 413.956C362.162 419.931 363.242 421.344 363.242 430.751" stroke="black" stroke-width="11.63" stroke-miterlimit="10"/>
<path d="M315.697 274.929C303.586 287.537 321.5 420.264 353.5 443C369.664 454.485 378.37 420.897 397.968 401.717C417.574 382.537 445.701 366.264 449.167 354.77C455.181 334.806 338.844 250.828 315.697 274.929Z" fill="black"/>
<path d="M332.068 292.366C319.345 304.833 350.466 401.873 363.007 410.394C375.548 418.915 386.311 390.322 399.481 381.743C419.36 368.797 434.3 364.9 433.415 349.733C432.53 334.565 344.973 279.717 332.068 292.366Z" fill="#FCC7C3"/>
<path d="M765.541 277.364C777.412 290.195 752 420 731.5 444C715.12 455.179 700.097 422.119 680.863 402.567C661.629 383.024 633.809 366.214 630.574 354.663C624.941 334.583 742.85 252.834 765.541 277.364Z" fill="black"/>
<path d="M748.839 294.492C761.323 307.199 728.357 403.627 715.65 411.909C702.952 420.19 692.727 391.399 679.73 382.573C660.1 369.255 645.242 365.069 646.417 349.927C647.591 334.776 736.182 281.603 748.839 294.492Z" fill="#FCC7C3"/>
<path d="M715.5 387.5C665.877 331.135 541 331 541 331C541 331 415.121 331.135 365.49 387.5C329.288 428.615 365.49 464.2 365.49 464.2C365.49 464.2 364.375 444.003 398.21 409.492C460.255 358.309 620.746 359.136 681.137 409.492C715.488 443.811 722.146 464.2 722.146 464.2C722.146 464.2 751.702 428.621 715.5 387.5Z" fill="black"/>
</svg>
