<svg width="1080" height="1080" viewBox="0 0 1080 1080" fill="none" xmlns="http://www.w3.org/2000/svg">
<path d="M795.011 332.205C825.006 321.863 868.722 297.701 884.994 305.817C892.754 309.688 862.652 295.382 827.533 323.812C791.049 341.249 692.095 441.735 545.926 448.367C399.942 441.735 370.153 399.986 330.852 367.292C285.092 329.226 253.257 313.612 233.719 307.631C224.861 305.361 217.05 304.424 211.169 305.817C206.053 305.817 212.915 301.263 233.719 307.631C253.997 312.828 279.76 325.008 300.41 332.205C326.788 341.388 347.464 338.038 377.69 336.693C377.69 336.693 421.993 182.501 460.95 166.612C494.739 155.743 506.428 203.399 546.581 203.402C590.898 203.405 601.768 159.088 635.723 166.612C677.858 178.32 717.407 336.693 717.407 336.693C747.586 338.038 768.355 341.388 795.011 332.205Z" fill="#883F22" stroke="black" stroke-width="11.7063" stroke-miterlimit="10"/>
<path d="M710.854 293.252C607.891 332.115 487.746 333.864 382.743 300.334L373.881 321.681L362.16 341.099C475.971 380.241 614.506 382.183 726.741 337.568C723.589 328.757 717.112 311.06 710.854 293.252Z" fill="black"/>
<path d="M404.808 327.649C404.808 332.008 401.285 335.579 396.881 335.579C392.523 335.579 388.953 332.055 388.953 327.649C388.953 323.29 392.523 319.719 396.881 319.719C401.285 319.765 404.808 323.29 404.808 327.649Z" fill="#DBB81F"/>
<path d="M456.451 340.217C456.451 344.577 452.882 348.148 448.524 348.148C444.166 348.148 440.597 344.623 440.597 340.217C440.597 335.858 444.12 332.287 448.524 332.287C452.882 332.287 456.451 335.858 456.451 340.217Z" fill="#DBB81F"/>
<path d="M512.267 346.155C512.267 350.514 508.744 354.085 504.339 354.085C499.982 354.085 496.412 350.561 496.412 346.155C496.412 341.796 499.935 338.225 504.339 338.225C508.697 338.225 512.267 341.796 512.267 346.155Z" fill="#DBB81F"/>
<path d="M688.429 327.649C688.429 332.008 691.952 335.579 696.356 335.579C700.714 335.579 704.283 332.055 704.283 327.649C704.283 323.29 700.76 319.719 696.356 319.719C691.998 319.765 688.429 323.29 688.429 327.649Z" fill="#DBB81F"/>
<path d="M627.69 340.108C627.69 344.467 631.26 348.038 635.618 348.038C639.976 348.038 643.545 344.467 643.545 340.108C643.545 335.749 640.022 332.178 635.618 332.178C631.26 332.178 627.69 335.749 627.69 340.108Z" fill="#DBB81F"/>
<path d="M570.397 356.4C574.775 356.4 578.324 352.849 578.324 348.469C578.324 344.09 574.775 340.539 570.397 340.539C566.019 340.539 562.47 344.09 562.47 348.469C562.47 352.849 566.019 356.4 570.397 356.4Z" fill="#DBB81F"/>
<path d="M308.27 348.061L363.459 396.556L360.952 428.334C350.92 430.842 323.324 428.334 293.222 419.133C253.722 407.06 232.182 389.871 217.968 373.148C199.588 351.523 197.062 307.086 210.438 304.581C215.668 303.602 238.033 307.925 256.428 317.123C271.145 324.481 293.222 336.352 308.27 348.061Z" fill="#5B2712" stroke="black" stroke-width="11.7063"/>
<path d="M789.901 348.062L718.827 399.068L722.172 431.678C732.203 434.185 766.488 427.634 796.59 418.433C836.091 406.36 857.63 389.171 871.844 372.448C890.224 350.823 896.09 307.084 882.714 304.579C877.485 303.6 851.78 307.225 833.384 316.423C818.668 323.781 804.949 336.353 789.901 348.062Z" fill="#5B2712" stroke="black" stroke-width="11.7063"/>
</svg>
