<svg width="1080" height="1080" viewBox="0 0 1080 1080" fill="none" xmlns="http://www.w3.org/2000/svg">
<path d="M474.787 260.265C459.626 252.885 447.318 221.408 438.666 221.501C430.014 221.594 424.623 255.623 412.26 271.113C434.791 273.041 455.37 269.048 474.787 260.265Z" fill="#DAA640" stroke="black" stroke-width="11.4619"/>
<path d="M657.222 278.373C642.319 266.427 637.458 227.902 629.13 227.991C620.803 228.081 607.807 257.299 594.488 270.07C616.025 277.484 636.054 284.104 657.222 278.373Z" fill="#D9A640" stroke="black" stroke-width="11.4619"/>
<path d="M532.244 219.788C532.771 220.58 533.423 221.543 534.171 222.493L534.171 222.494C555.958 250.539 584.799 265.047 619.174 270.143C638.968 273.093 658.304 272.384 677.256 263.726L677.269 263.72C687.784 258.891 698.076 253.501 708.141 248.393L708.142 248.394C709.412 247.757 710.682 247.102 711.964 246.433C709.663 258.659 707.508 270.244 704.8 281.809L704.796 281.827C702.326 292.502 699.545 303.108 696.754 313.855C693.974 324.559 691.188 335.388 688.765 346.333C687.957 349.945 686.856 351.574 685.839 352.49C684.767 353.456 682.945 354.392 679.258 355.027L679.25 355.028L679.242 355.03C652.324 359.725 625.189 363.277 597.938 366.299L597.935 366.299C557.193 370.833 516.363 370.907 475.566 367.324C446.428 364.755 417.729 358.027 388.771 350.674C388.181 350.523 387.887 350.38 387.769 350.313C387.711 350.279 387.685 350.259 387.679 350.254C387.673 350.249 387.67 350.247 387.665 350.24C387.639 350.211 387.347 349.865 386.942 348.378L386.94 348.369L386.937 348.361C377.664 314.629 367.084 282.41 360.776 248.735L360.775 248.728L360.596 247.699C360.341 246.11 360.199 244.601 360.068 242.923C370.163 247.842 379.524 251.642 389.019 256.178L389.022 256.179C407.666 265.075 426.95 268.364 448.039 264.683L448.05 264.681C471.089 260.621 493.541 253.984 513.179 238.734C520.486 233.069 526.614 226.444 532.244 219.788Z" fill="#030101" stroke="black" stroke-width="14.3092"/>
<path d="M392.171 357.547C420.669 364.91 449.366 371.774 478.629 374.402C519.156 378.029 559.766 377.965 600.327 373.382C627.246 370.356 654.037 366.792 680.692 362.069C689.279 360.567 693.766 356.911 695.708 347.894C700.408 326.284 706.54 305.031 711.446 283.461C715.144 267.21 726.549 234.054 721.301 233.146C719.528 231.994 711.891 237.77 704.72 242.032C695.04 247.785 684.772 252.487 674.589 257.24C657.55 265.177 640.066 265.904 621.443 263.078C589.138 258.202 563.124 241.752 542.984 215.392C540.627 212.308 539.408 208.317 534.503 209.121C529.682 209.911 520.014 227.026 510.978 232.817C492.986 246.983 473.129 253.646 450.95 257.617C431.783 261.016 414.3 258.053 397.166 249.696C383.476 243.044 357.603 223.082 355.564 228.797C354.18 230.235 358.01 243.032 359.454 250.02C365.93 281.347 376.321 316.921 385.364 350.199C386.343 354.003 387.837 356.433 392.171 357.547Z" fill="#EEDB49" stroke="black" stroke-width="11.4619"/>
<path d="M536.242 339.658C549.142 337.56 558.561 325.61 558.313 311.618C558.099 305.136 556.922 298.805 553.341 293.199C548.486 285.601 540.934 282.837 532.234 285.356C520.505 288.701 513.662 298.105 514.177 310.087C514.501 317.734 516.46 325.037 520.005 331.856C523.699 339.093 528.059 340.959 536.242 339.658Z" fill="#F04F48" stroke="black" stroke-width="8.18705"/>
<path d="M632.576 336.787C641.843 334.589 645.574 329.573 645.231 319.039C645.104 317.967 645.03 316.358 644.726 314.801C641.99 300.39 629.387 296.282 615.663 305.357C614.582 306.1 613.558 306.941 612.592 307.78C604.522 314.599 603.277 321.442 608.635 329.044C613.818 336.354 622.45 339.14 632.576 336.787Z" fill="#EF4E47" stroke="black" stroke-width="8.18705"/>
<path d="M458.258 335.498C464.378 333.237 467.464 326.942 467.262 318.219C466.995 308.641 461.682 299.973 455.14 298.384C449.306 296.949 441.161 303.031 437.391 311.475C434.473 318.144 436.089 326.851 441.254 331.881C446.09 336.539 451.867 337.815 458.258 335.498Z" fill="#EE4E47" stroke="black" stroke-width="8.18705"/>
</svg>
