<svg width="1080" height="1080" viewBox="0 0 1080 1080" fill="none" xmlns="http://www.w3.org/2000/svg">
<path d="M818 374.951C818 414.725 693.993 447 541 447C388.007 447 264 414.746 264 374.951C264 335.176 388.007 356.945 541 356.945C693.993 356.945 818 335.176 818 374.951Z" fill="black" stroke="black" stroke-width="10.5859"/>
<path d="M733.53 414.235C733.53 413.746 733.391 413.286 733.158 412.827C702.126 320.38 749 155 749 155H333C333 155 373.215 289.862 355.189 411.648C354.446 412.51 354.028 413.373 354.028 414.235C354.028 427.367 438.997 438 543.756 438C648.561 438.029 733.53 427.367 733.53 414.235Z" fill="black" stroke="black" stroke-width="10.5859"/>
<path d="M724.749 357.984C722.239 343.391 721 328.499 722.5 310.499C701.989 328.858 620.767 343.234 539.329 343.234C453.997 343.234 376.138 328.717 359.565 308.999C359.002 324.742 359.563 327.999 359.564 343.234C359.564 348.999 359.563 358.978 359.563 360.547C359.563 384.45 441.708 403.802 539.286 403.802C636.907 403.802 725.008 384.45 725.008 360.547V360.494C725.095 359.658 724.965 358.821 724.749 357.984Z" fill="#525252" stroke="black" stroke-width="10.5859"/>
<path d="M751 150.5C751 157.947 656.787 164 540.567 164C424.347 164 331 157.947 331 150.5C331 143.035 424.347 137 540.567 137C656.787 137 751 143.035 751 150.5Z" fill="#363636" stroke="black" stroke-width="10.5859"/>
</svg>
