<svg width="1080" height="1080" viewBox="0 0 1080 1080" fill="none" xmlns="http://www.w3.org/2000/svg">
<mask id="path-1-inside-1_4476_286" fill="white">
<path fill-rule="evenodd" clip-rule="evenodd" d="M350.048 322.094C359.032 337.662 371.525 352.234 389.297 359.707C395.408 376.698 410.689 392.751 436.388 395.413C498.238 395.413 514.712 420.811 524.358 435.682C528.352 441.838 531.175 446.19 535.562 446.19C539.949 446.19 542.772 441.838 546.765 435.682C556.412 420.811 572.886 395.413 634.736 395.413C670.586 392.295 686.916 376.831 693.206 360.66C709.656 352.911 721.395 338.989 729.952 324.161C744.991 298.043 754.999 270.278 754.999 240.725C754.999 229.854 752.644 218.937 748.523 208.678C745.079 200.406 741.379 205.639 739.96 209.289C737.254 216.656 732.169 223.312 727.265 229.731L726.847 230.278C726.235 231.078 725.624 231.882 725.011 232.689C720.003 239.281 714.904 245.993 708.276 251.361C698.321 259.455 688.152 267.125 676.484 273.29C670.385 276.522 664.084 279.436 657.783 282.349C651.974 285.035 646.166 287.721 640.518 290.655C640.07 290.888 639.615 291.123 639.155 291.362C637.5 292.219 635.771 293.114 634.016 294.055C611.748 289.473 580.738 287.035 535.562 287.035C504.688 287.035 477.305 290.117 453.176 296.11C449.071 293.554 444.752 291.317 440.844 289.294C440.384 289.055 439.929 288.82 439.481 288.587C433.833 285.653 428.025 282.967 422.216 280.281L422.216 280.281L422.216 280.281C415.915 277.368 409.614 274.454 403.515 271.222C391.848 265.058 381.679 257.387 371.724 249.293C365.095 243.925 359.996 237.213 354.988 230.621L354.987 230.62C354.375 229.814 353.764 229.01 353.152 228.21L352.734 227.663C347.83 221.244 342.746 214.589 340.039 207.222C337.426 201.696 333.242 204.511 331.476 206.61C327.355 216.869 325 227.787 325 238.657C325 268.211 335.008 295.976 350.048 322.094Z"/>
</mask>
<path fill-rule="evenodd" clip-rule="evenodd" d="M350.048 322.094C359.032 337.662 371.525 352.234 389.297 359.707C395.408 376.698 410.689 392.751 436.388 395.413C498.238 395.413 514.712 420.811 524.358 435.682C528.352 441.838 531.175 446.19 535.562 446.19C539.949 446.19 542.772 441.838 546.765 435.682C556.412 420.811 572.886 395.413 634.736 395.413C670.586 392.295 686.916 376.831 693.206 360.66C709.656 352.911 721.395 338.989 729.952 324.161C744.991 298.043 754.999 270.278 754.999 240.725C754.999 229.854 752.644 218.937 748.523 208.678C745.079 200.406 741.379 205.639 739.96 209.289C737.254 216.656 732.169 223.312 727.265 229.731L726.847 230.278C726.235 231.078 725.624 231.882 725.011 232.689C720.003 239.281 714.904 245.993 708.276 251.361C698.321 259.455 688.152 267.125 676.484 273.29C670.385 276.522 664.084 279.436 657.783 282.349C651.974 285.035 646.166 287.721 640.518 290.655C640.07 290.888 639.615 291.123 639.155 291.362C637.5 292.219 635.771 293.114 634.016 294.055C611.748 289.473 580.738 287.035 535.562 287.035C504.688 287.035 477.305 290.117 453.176 296.11C449.071 293.554 444.752 291.317 440.844 289.294C440.384 289.055 439.929 288.82 439.481 288.587C433.833 285.653 428.025 282.967 422.216 280.281L422.216 280.281L422.216 280.281C415.915 277.368 409.614 274.454 403.515 271.222C391.848 265.058 381.679 257.387 371.724 249.293C365.095 243.925 359.996 237.213 354.988 230.621L354.987 230.62C354.375 229.814 353.764 229.01 353.152 228.21L352.734 227.663C347.83 221.244 342.746 214.589 340.039 207.222C337.426 201.696 333.242 204.511 331.476 206.61C327.355 216.869 325 227.787 325 238.657C325 268.211 335.008 295.976 350.048 322.094Z" fill="#EC4032"/>
<path d="M389.297 359.707L400.29 355.753L398.554 350.926L393.825 348.938L389.297 359.707ZM350.048 322.094L339.924 327.923L339.929 327.933L350.048 322.094ZM436.388 395.413L435.184 407.033L435.784 407.096H436.388V395.413ZM524.358 435.682L534.16 429.324L534.16 429.324L524.358 435.682ZM546.765 435.682L536.964 429.324V429.324L546.765 435.682ZM634.736 395.413V407.096H635.243L635.749 407.052L634.736 395.413ZM693.206 360.66L688.228 350.091L684.009 352.078L682.318 356.425L693.206 360.66ZM729.952 324.161L740.07 330.001L740.076 329.991L729.952 324.161ZM748.523 208.678L759.364 204.323L759.336 204.255L759.308 204.186L748.523 208.678ZM739.96 209.289L729.071 205.056L729.032 205.158L728.994 205.261L739.96 209.289ZM727.265 229.731L717.982 222.638L717.982 222.639L727.265 229.731ZM726.847 230.278L736.124 237.379L736.131 237.37L726.847 230.278ZM725.011 232.689L715.709 225.622L715.708 225.622L725.011 232.689ZM708.276 251.361L700.924 242.281L700.915 242.289L700.905 242.296L708.276 251.361ZM676.484 273.29L671.026 262.961L671.02 262.964L671.013 262.968L676.484 273.29ZM657.783 282.349L662.686 292.953V292.953L657.783 282.349ZM640.518 290.655L645.903 301.023L645.904 301.022L640.518 290.655ZM639.155 291.362L633.783 280.987L633.783 280.987L639.155 291.362ZM634.016 294.055L631.662 305.498L635.809 306.351L639.539 304.35L634.016 294.055ZM453.176 296.11L447 306.027L451.195 308.639L455.992 307.448L453.176 296.11ZM440.844 289.294L446.216 278.919L446.216 278.919L440.844 289.294ZM439.481 288.587L434.095 298.954L434.097 298.955L439.481 288.587ZM422.216 280.281L417.242 290.852L417.278 290.869L417.313 290.885L422.216 280.281ZM422.216 280.281L416.991 290.73L417.116 290.793L417.241 290.852L422.216 280.281ZM422.216 280.281L427.44 269.832L427.281 269.752L427.119 269.677L422.216 280.281ZM403.515 271.222L408.986 260.9L408.979 260.896L408.973 260.893L403.515 271.222ZM371.724 249.293L379.094 240.228L379.085 240.221L379.075 240.213L371.724 249.293ZM354.988 230.621L364.291 223.554L364.286 223.548L354.988 230.621ZM354.987 230.62L345.685 237.687L345.689 237.693L354.987 230.62ZM353.152 228.21L343.868 235.302L343.875 235.311L353.152 228.21ZM352.734 227.663L362.018 220.572L362.018 220.571L352.734 227.663ZM340.039 207.222L351.006 203.193L350.825 202.701L350.601 202.227L340.039 207.222ZM331.476 206.61L322.537 199.088L321.333 200.519L320.635 202.255L331.476 206.61ZM393.825 348.938C379.317 342.837 368.48 330.66 360.166 316.254L339.929 327.933C349.585 344.664 363.732 361.63 384.768 370.476L393.825 348.938ZM437.592 383.793C416.864 381.645 405.062 369.021 400.29 355.753L378.304 363.661C385.754 384.375 404.514 403.856 435.184 407.033L437.592 383.793ZM534.16 429.324C529.226 421.719 521.539 409.745 506.168 400.081C490.807 390.423 468.924 383.73 436.388 383.73V407.096C465.701 407.096 482.981 413.102 493.731 419.861C504.471 426.614 509.844 434.774 514.557 442.04L534.16 429.324ZM535.562 434.508C536.521 434.508 537.401 434.775 538.026 435.109C538.539 435.383 538.633 435.569 538.308 435.226C537.981 434.879 537.483 434.269 536.736 433.206C535.99 432.143 535.187 430.909 534.16 429.324L514.557 442.04C516.347 444.799 518.674 448.463 521.317 451.264C524.213 454.332 528.876 457.873 535.562 457.873V434.508ZM536.964 429.324C535.936 430.909 535.134 432.143 534.388 433.206C533.641 434.269 533.143 434.879 532.816 435.226C532.491 435.569 532.584 435.383 533.098 435.109C533.723 434.775 534.602 434.508 535.562 434.508V457.873C542.248 457.873 546.911 454.332 549.807 451.264C552.45 448.463 554.777 444.799 556.567 442.04L536.964 429.324ZM634.736 383.73C602.2 383.73 580.317 390.423 564.956 400.081C549.585 409.745 541.897 421.719 536.964 429.324L556.567 442.04C561.28 434.774 566.653 426.614 577.393 419.861C588.143 413.102 605.423 407.096 634.736 407.096V383.73ZM682.318 356.425C677.972 367.596 666.131 380.956 633.724 383.774L635.749 407.052C675.041 403.634 695.859 386.065 704.094 364.895L682.318 356.425ZM719.833 318.322C711.92 332.035 701.708 343.742 688.228 350.091L698.184 371.229C717.605 362.081 730.87 345.943 740.07 330.001L719.833 318.322ZM743.317 240.725C743.317 267.579 734.23 293.319 719.827 318.332L740.076 329.991C755.751 302.768 766.682 272.978 766.682 240.725H743.317ZM737.683 213.032C741.319 222.085 743.317 231.527 743.317 240.725H766.682C766.682 228.182 763.97 215.789 759.364 204.323L737.683 213.032ZM750.849 213.523C750.957 213.245 751.064 213.074 751.045 213.101C751.026 213.128 750.877 213.346 750.559 213.657C750.259 213.951 749.59 214.543 748.509 215.059C747.36 215.606 745.707 216.078 743.734 215.918C741.737 215.757 740.157 215.009 739.097 214.245C737.337 212.976 737.173 211.812 737.739 213.169L759.308 204.186C758.151 201.408 756.233 197.796 752.766 195.295C748.313 192.084 742.918 191.84 738.456 193.967C734.972 195.627 732.845 198.328 731.78 199.881C730.561 201.657 729.673 203.509 729.071 205.056L750.849 213.523ZM736.549 236.823C741.22 230.709 747.501 222.643 750.926 213.318L728.994 205.261C727.007 210.67 723.119 215.915 717.982 222.638L736.549 236.823ZM736.131 237.37L736.549 236.823L717.982 222.639L717.564 223.186L736.131 237.37ZM734.314 239.756C734.929 238.946 735.527 238.159 736.124 237.379L717.571 223.177C716.943 223.997 716.319 224.818 715.709 225.622L734.314 239.756ZM715.627 260.44C723.531 254.04 729.443 246.168 734.314 239.756L715.708 225.622C710.564 232.394 706.277 237.947 700.924 242.281L715.627 260.44ZM681.942 283.62C694.639 276.911 705.516 268.661 715.646 260.425L700.905 242.296C691.125 250.248 681.665 257.34 671.026 262.961L681.942 283.62ZM662.686 292.953C668.938 290.063 675.529 287.018 681.955 283.613L671.013 262.968C665.242 266.026 659.23 268.809 652.88 271.745L662.686 292.953ZM645.904 301.022C651.273 298.232 656.836 295.658 662.686 292.953L652.88 271.745C647.113 274.412 641.059 277.209 635.132 280.288L645.904 301.022ZM644.527 301.736C644.986 301.498 645.447 301.259 645.903 301.023L635.133 280.288C634.693 280.516 634.245 280.748 633.783 280.987L644.527 301.736ZM639.539 304.35C641.207 303.455 642.861 302.598 644.527 301.736L633.783 280.987C632.139 281.839 630.336 282.772 628.494 283.76L639.539 304.35ZM535.562 298.718C580.457 298.718 610.544 301.153 631.662 305.498L636.371 282.612C612.951 277.794 581.02 275.353 535.562 275.353V298.718ZM455.992 307.448C479.034 301.726 505.45 298.718 535.562 298.718V275.353C503.927 275.353 475.576 278.509 450.36 284.772L455.992 307.448ZM435.472 299.668C439.441 301.723 443.351 303.754 447 306.027L459.352 286.193C454.791 283.353 450.063 280.912 446.216 278.919L435.472 299.668ZM434.097 298.955C434.552 299.191 435.013 299.43 435.472 299.668L446.216 278.919C445.755 278.68 445.306 278.448 444.866 278.22L434.097 298.955ZM417.313 290.885C423.164 293.59 428.726 296.164 434.095 298.954L444.868 278.22C438.94 275.141 432.886 272.344 427.119 269.677L417.313 290.885ZM417.241 290.852L417.242 290.852L427.191 269.711L427.19 269.711L417.241 290.852ZM416.991 290.73L416.991 290.73L427.44 269.832L427.44 269.832L416.991 290.73ZM398.045 281.545C404.47 284.95 411.061 287.995 417.313 290.885L427.119 269.677C420.769 266.741 414.757 263.958 408.986 260.9L398.045 281.545ZM364.354 258.357C374.484 266.594 385.361 274.843 398.058 281.552L408.973 260.893C398.335 255.272 388.874 248.18 379.094 240.228L364.354 258.357ZM345.685 237.688C350.557 244.1 356.468 251.972 364.372 258.372L379.075 240.213C373.722 235.879 369.436 230.326 364.291 223.554L345.685 237.688ZM345.689 237.693L345.69 237.694L364.286 223.548L364.286 223.547L345.689 237.693ZM343.875 235.311C344.472 236.091 345.07 236.878 345.685 237.687L364.29 223.553C363.68 222.75 363.056 221.929 362.429 221.109L343.875 235.311ZM343.45 234.755L343.868 235.302L362.436 221.118L362.018 220.572L343.45 234.755ZM329.073 211.25C332.499 220.576 338.78 228.641 343.451 234.756L362.018 220.571C356.881 213.847 352.992 208.602 351.006 203.193L329.073 211.25ZM340.415 214.131C340.273 214.3 340.116 214.458 339.85 214.642C339.63 214.795 338.818 215.328 337.43 215.569C335.802 215.85 333.69 215.648 331.763 214.473C330.906 213.95 330.324 213.374 329.968 212.94C329.621 212.519 329.485 212.23 329.478 212.216L350.601 202.227C349.305 199.487 347.236 196.543 343.931 194.526C340.43 192.391 336.672 191.988 333.45 192.545C327.914 193.502 324.178 197.138 322.537 199.088L340.415 214.131ZM336.683 238.657C336.683 229.459 338.68 220.017 342.317 210.965L320.635 202.255C316.03 213.721 313.317 226.114 313.317 238.657H336.683ZM360.172 316.264C345.769 291.251 336.683 265.511 336.683 238.657H313.317C313.317 270.91 324.248 300.7 339.924 327.923L360.172 316.264Z" fill="black" mask="url(#path-1-inside-1_4476_286)"/>
</svg>
