<svg width="1080" height="1080" viewBox="0 0 1080 1080" fill="none" xmlns="http://www.w3.org/2000/svg">
<path d="M762.712 325.467C727.858 260.144 629.321 235 540 235C450.678 235 352.193 260.144 317.34 325.467C277.647 399.791 235.277 809.933 254.995 838.446C274.712 866.958 327.224 826.729 341.691 751.298C356.157 675.867 362.695 418.917 375.823 408.86C388.951 398.802 490.114 378.939 540 378.939C589.886 378.939 691.049 398.802 704.176 408.86C717.304 418.917 723.894 675.867 738.309 751.298C752.776 826.729 805.287 866.958 825.005 838.446C844.723 809.933 802.353 399.791 762.712 325.467Z" fill="#0058C0" stroke="black" stroke-width="12.7633"/>
<path d="M356.334 416.422C356.334 416.422 358.401 487.407 350.534 506.677C342.668 525.947 350.885 561.008 344.734 591.462C333.134 648.897 348.651 719.911 328.301 758.297C316.701 780.177 318.195 800.469 298.334 815.732C288.663 823.164 263.534 849.464 263.534 849.464" stroke="#D7E2FF" stroke-width="12.7633"/>
<path d="M717.415 413.997C717.415 413.997 730.462 465.028 730.573 498.449C730.684 531.87 727.732 560.504 734.298 590.548C746.342 645.663 733.175 714.719 751.698 756.472C763.298 782.619 764.264 815.73 791.142 828.164C802.328 833.338 815.98 840.915 815.98 840.915" stroke="#D7E2FF" stroke-width="12.7633"/>
<path d="M762.712 325.467C727.858 260.144 629.321 235 540 235C450.678 235 352.193 260.144 317.339 325.467C277.647 399.791 235.277 809.933 254.995 838.446C274.712 866.958 327.224 826.729 341.691 751.298C356.157 675.867 362.695 418.917 375.823 408.86C388.951 398.802 490.114 378.939 540 378.939C589.886 378.939 691.049 398.802 704.176 408.86C717.304 418.917 723.894 675.867 738.309 751.298C752.776 826.729 805.287 866.958 825.005 838.446C844.723 809.933 802.353 399.791 762.712 325.467Z" stroke="black" stroke-width="12.7633"/>
<path d="M366.926 326.88C370.011 327.861 378.067 314.252 397.865 320.076C397.865 320.076 426.962 308.429 463.472 309.885C499.982 311.34 511.124 314.252 511.124 314.252C511.124 314.252 523.722 304.536 537.521 315.233C537.521 315.233 573.002 309.631 582.901 309.758C592.8 309.885 646.665 315.708 646.665 315.708C646.665 315.708 672.571 311.847 676.299 315.233C680.027 318.62 679.49 318.303 679.49 318.303C679.49 318.303 708.587 310.359 717.243 322.006C717.243 322.006 722.214 319.094 726.542 332.672C730.87 346.281 738.283 349.193 733.955 365.682C729.627 382.203 737.041 395.781 730.87 400.623C724.699 405.465 724.056 408.377 724.056 408.377C724.056 408.377 725.899 418.885 720.328 420.657C714.757 422.429 710.429 420.657 710.429 420.657C710.429 420.657 709.487 432.557 698.174 431.892C686.861 431.228 654.679 425.373 652.836 424.898C650.993 424.423 636.124 429.076 602.699 420.689C602.699 420.689 597.728 427.145 584.144 420.689C584.144 420.689 540.692 433.633 490.04 424.423C490.04 424.423 459.615 430.12 463.429 420.689C463.429 420.689 412.306 429.993 385.438 426.354C380.039 425.626 372.454 423.917 372.454 423.917C372.454 423.917 357.584 427.303 353.899 418.093C353.899 418.093 337.786 413.251 353.899 393.818C353.899 393.818 345.8 365.651 346.742 356.441C347.685 347.231 357.627 340.426 356.384 337.989C355.141 335.647 351.456 322.038 366.926 326.88Z" fill="#D7E2FF" stroke="black" stroke-width="12.7633"/>
</svg>
