<svg width="1080" height="1080" viewBox="0 0 1080 1080" fill="none" xmlns="http://www.w3.org/2000/svg">
<path d="M447.633 294.056C447.633 294.056 433.097 276.319 416.011 293.372C398.926 310.426 417.508 332.335 444.786 321.639C444.786 321.639 416.14 332.434 432.028 359.003C447.923 385.538 466.592 365.682 470.729 344.726C470.729 344.726 478.41 372.202 496.021 369.452C513.64 366.669 529.804 340.553 523.088 329.767C511.968 311.875 500.074 313.243 500.074 313.243C500.074 313.243 531.82 304.823 526.15 288.653C517.751 264.646 494.544 259.458 481.018 287.687C481.018 287.687 473.1 257.267 451.429 264.255C433.015 270.213 440.51 290.735 447.633 294.056Z" fill="#FA957A"/>
<path d="M447.633 294.056L445.559 298.507C447.636 299.475 450.106 298.878 451.512 297.068C452.917 295.258 452.884 292.716 451.431 290.944L447.633 294.056ZM444.786 321.639L446.579 326.21C449.092 325.225 450.338 322.396 449.37 319.877C448.401 317.357 445.581 316.092 443.055 317.044L444.786 321.639ZM432.028 359.003L427.813 361.523L427.815 361.526L432.028 359.003ZM470.729 344.726L475.458 343.404C474.846 341.214 472.811 339.731 470.539 339.819C468.267 339.907 466.352 341.544 465.912 343.775L470.729 344.726ZM496.021 369.452L496.779 374.304L496.788 374.302L496.021 369.452ZM523.088 329.767L518.917 332.359L518.919 332.362L523.088 329.767ZM500.074 313.243L498.815 308.496C496.327 309.156 494.771 311.626 495.249 314.155C495.727 316.684 498.078 318.415 500.635 318.121L500.074 313.243ZM526.15 288.653L521.515 290.275L521.516 290.278L526.15 288.653ZM481.018 287.687L476.266 288.924C476.785 290.919 478.495 292.377 480.547 292.575C482.599 292.772 484.556 291.668 485.446 289.809L481.018 287.687ZM451.429 264.255L449.922 259.582L449.918 259.583L451.429 264.255ZM447.633 294.056C451.431 290.944 451.43 290.942 451.428 290.939C451.427 290.939 451.426 290.936 451.424 290.935C451.422 290.932 451.419 290.928 451.416 290.925C451.41 290.917 451.403 290.909 451.395 290.899C451.379 290.88 451.359 290.857 451.336 290.829C451.289 290.774 451.228 290.703 451.153 290.617C451.002 290.446 450.793 290.215 450.529 289.938C450.002 289.386 449.248 288.643 448.29 287.822C446.396 286.199 443.586 284.17 440.05 282.758C436.478 281.333 432.092 280.514 427.219 281.465C422.334 282.419 417.377 285.071 412.542 289.897L419.48 296.848C423.188 293.147 426.455 291.621 429.101 291.104C431.759 290.585 434.211 291.003 436.409 291.88C438.643 292.771 440.535 294.11 441.9 295.28C442.572 295.855 443.087 296.365 443.422 296.716C443.589 296.891 443.709 297.025 443.779 297.105C443.814 297.145 443.837 297.171 443.846 297.182C443.851 297.188 443.853 297.189 443.851 297.187C443.85 297.186 443.848 297.184 443.846 297.181C443.844 297.179 443.843 297.178 443.841 297.176C443.84 297.175 443.839 297.173 443.838 297.172C443.837 297.17 443.835 297.169 447.633 294.056ZM412.542 289.897C407.578 294.852 404.872 300.512 404.56 306.219C404.247 311.938 406.371 317.234 410.191 321.282C417.835 329.381 431.598 332.085 446.579 326.21L442.994 317.067C430.697 321.889 421.529 318.986 417.333 314.541C415.234 312.317 414.211 309.607 414.366 306.756C414.523 303.893 415.902 300.419 419.48 296.848L412.542 289.897ZM444.786 321.639C443.055 317.044 443.052 317.045 443.05 317.046C443.049 317.046 443.046 317.047 443.045 317.048C443.041 317.049 443.036 317.051 443.032 317.053C443.022 317.056 443.011 317.06 442.998 317.065C442.972 317.076 442.939 317.088 442.899 317.104C442.82 317.135 442.715 317.178 442.585 317.232C442.325 317.34 441.967 317.494 441.529 317.696C440.656 318.098 439.455 318.697 438.077 319.503C435.353 321.098 431.782 323.6 428.726 327.156C425.642 330.743 422.999 335.505 422.43 341.491C421.86 347.49 423.423 354.182 427.813 361.523L436.242 356.482C432.688 350.539 431.874 345.918 432.207 342.42C432.541 338.91 434.081 335.992 436.172 333.559C438.291 331.094 440.889 329.237 443.04 327.978C444.1 327.357 445.012 326.905 445.644 326.613C445.958 326.468 446.2 326.364 446.352 326.301C446.428 326.27 446.482 326.248 446.51 326.237C446.524 326.231 446.532 326.228 446.533 326.228C446.534 326.228 446.533 326.228 446.531 326.229C446.529 326.229 446.528 326.23 446.526 326.231C446.524 326.231 446.523 326.232 446.522 326.232C446.52 326.233 446.518 326.234 444.786 321.639ZM427.815 361.526C432.095 368.67 436.98 373.418 442.451 375.502C448.129 377.665 453.648 376.66 458.298 373.893C467.134 368.637 473.335 356.881 475.547 345.677L465.912 343.775C463.987 353.526 458.784 362.177 453.277 365.453C450.756 366.953 448.369 367.247 445.946 366.324C443.317 365.323 439.908 362.603 436.24 356.479L427.815 361.526ZM470.729 344.726C466 346.048 466.001 346.049 466.001 346.051C466.001 346.052 466.002 346.053 466.002 346.055C466.003 346.058 466.004 346.061 466.005 346.064C466.007 346.071 466.009 346.08 466.012 346.091C466.018 346.112 466.026 346.14 466.036 346.174C466.056 346.242 466.083 346.335 466.119 346.453C466.19 346.688 466.292 347.018 466.427 347.43C466.697 348.252 467.097 349.405 467.634 350.772C468.701 353.486 470.341 357.136 472.619 360.743C476.965 367.623 484.876 376.163 496.779 374.304L495.264 364.6C489.556 365.492 484.82 361.668 480.923 355.498C479.079 352.579 477.699 349.532 476.775 347.18C476.317 346.014 475.979 345.041 475.76 344.372C475.651 344.038 475.571 343.781 475.521 343.614C475.496 343.531 475.478 343.471 475.468 343.435C475.462 343.418 475.459 343.406 475.458 343.4C475.457 343.398 475.456 343.397 475.457 343.397C475.457 343.398 475.457 343.398 475.457 343.399C475.457 343.4 475.458 343.401 475.458 343.401C475.458 343.402 475.458 343.404 470.729 344.726ZM496.788 374.302C507.508 372.609 516.988 364.128 522.784 355.307C525.742 350.804 527.975 345.877 528.974 341.141C529.955 336.496 529.873 331.374 527.256 327.171L518.919 332.362C519.661 333.553 520.077 335.739 519.365 339.112C518.673 342.393 517.022 346.191 514.576 349.914C509.564 357.543 502.153 363.512 495.255 364.602L496.788 374.302ZM527.258 327.175C521.231 317.476 514.743 312.625 509.367 310.291C506.706 309.136 504.401 308.634 502.679 308.432C501.819 308.331 501.108 308.305 500.572 308.309C500.304 308.311 500.08 308.32 499.902 308.331C499.813 308.337 499.736 308.343 499.671 308.348C499.639 308.351 499.609 308.354 499.583 308.357C499.57 308.358 499.557 308.36 499.546 308.361C499.54 308.361 499.534 308.362 499.529 308.363C499.526 308.363 499.522 308.363 499.521 308.364C499.517 308.364 499.513 308.365 500.074 313.243C500.635 318.121 500.631 318.122 500.627 318.122C500.626 318.122 500.623 318.123 500.62 318.123C500.616 318.123 500.611 318.124 500.607 318.124C500.598 318.125 500.59 318.126 500.582 318.127C500.567 318.128 500.555 318.13 500.546 318.13C500.526 318.132 500.517 318.133 500.518 318.133C500.521 318.132 500.563 318.13 500.641 318.129C500.799 318.128 501.104 318.135 501.534 318.186C502.389 318.286 503.752 318.56 505.455 319.3C508.806 320.754 513.825 324.166 518.917 332.359L527.258 327.175ZM500.074 313.243C501.333 317.989 501.334 317.989 501.336 317.988C501.336 317.988 501.338 317.988 501.339 317.988C501.342 317.987 501.345 317.986 501.348 317.985C501.355 317.983 501.364 317.981 501.375 317.978C501.397 317.972 501.427 317.964 501.463 317.954C501.537 317.934 501.64 317.905 501.77 317.868C502.03 317.794 502.4 317.687 502.862 317.546C503.784 317.264 505.08 316.846 506.612 316.294C509.653 315.196 513.728 313.528 517.673 311.276C521.548 309.064 525.691 306.069 528.469 302.163C531.392 298.054 532.824 292.847 530.784 287.028L521.516 290.278C522.311 292.545 521.901 294.454 520.466 296.471C518.886 298.692 516.156 300.833 512.804 302.747C509.521 304.621 506.013 306.069 503.279 307.056C501.923 307.545 500.784 307.911 499.992 308.153C499.597 308.274 499.29 308.363 499.088 308.421C498.987 308.449 498.912 308.47 498.866 308.483C498.843 308.489 498.827 308.493 498.819 308.496C498.814 308.497 498.812 308.497 498.811 308.498C498.811 308.498 498.811 308.498 498.812 308.497C498.812 308.497 498.813 308.497 498.813 308.497C498.814 308.497 498.815 308.496 500.074 313.243ZM530.785 287.031C526.233 274.021 517.137 264.698 505.947 263.691C494.501 262.66 483.795 270.528 476.59 285.565L485.446 289.809C491.768 276.616 499.427 272.964 505.066 273.472C510.961 274.003 517.668 279.278 521.515 290.275L530.785 287.031ZM481.018 287.687C485.77 286.45 485.77 286.448 485.769 286.446C485.769 286.445 485.769 286.443 485.768 286.442C485.767 286.438 485.766 286.435 485.765 286.431C485.763 286.422 485.76 286.412 485.757 286.4C485.751 286.377 485.743 286.345 485.732 286.307C485.711 286.231 485.682 286.126 485.645 285.995C485.57 285.734 485.461 285.367 485.317 284.912C485.03 284.003 484.599 282.734 484.011 281.242C482.845 278.285 481.014 274.326 478.38 270.544C475.763 266.787 472.164 262.93 467.367 260.564C462.419 258.124 456.541 257.447 449.922 259.582L452.937 268.928C457.153 267.569 460.391 268.074 463.023 269.372C465.806 270.745 468.249 273.182 470.321 276.157C472.375 279.106 473.878 282.316 474.874 284.843C475.367 286.094 475.724 287.147 475.954 287.875C476.069 288.238 476.151 288.517 476.203 288.698C476.229 288.788 476.247 288.854 476.257 288.892C476.263 288.911 476.266 288.924 476.267 288.929C476.268 288.932 476.268 288.933 476.268 288.932C476.268 288.931 476.268 288.93 476.267 288.929C476.267 288.928 476.267 288.927 476.267 288.927C476.266 288.925 476.266 288.924 481.018 287.687ZM449.918 259.583C444.393 261.371 440.392 264.409 437.913 268.337C435.464 272.219 434.766 276.545 435.057 280.505C435.347 284.442 436.62 288.207 438.366 291.269C440.047 294.217 442.498 297.08 445.559 298.507L449.708 289.605C449.207 289.372 448.049 288.424 446.897 286.404C445.81 284.498 445.025 282.138 444.852 279.785C444.68 277.454 445.117 275.325 446.219 273.579C447.291 271.88 449.258 270.119 452.941 268.927L449.918 259.583Z" fill="black"/>
<path d="M483.986 320.12C484.925 326.502 480.49 332.465 474.077 333.403C467.697 334.342 461.737 329.905 460.799 323.49C459.862 317.074 464.296 311.145 470.709 310.207C477.121 309.302 483.048 313.739 483.986 320.12Z" fill="#512D0D"/>
<path d="M404.747 345.285C404.747 345.285 406.024 308.526 385.691 308.991C365.336 309.455 349.096 332.094 374.718 354.131C374.718 354.131 347.71 327.448 331.304 346.951C314.898 366.455 328.908 381.883 363.984 377.654C363.984 377.654 345.339 382.378 335.247 402.784C325.155 423.189 359.311 459.296 391.643 399.562C391.643 399.562 385.211 444.903 417.874 439.601C450.537 434.299 448.058 409.575 425.17 386.647C425.17 386.647 472.402 404.775 477.286 374.189C481.821 345.798 450.612 343.312 430.886 358.638C430.886 358.638 460.496 336.359 444.835 318.227C429.173 300.095 405.706 321.342 404.747 345.285Z" fill="#D3E4E0"/>
<path d="M404.747 345.285L399.84 345.115C399.746 347.82 401.859 350.091 404.564 350.192C407.269 350.294 409.545 348.187 409.654 345.482L404.747 345.285ZM385.691 308.991L385.803 313.9L385.804 313.9L385.691 308.991ZM374.718 354.131L371.516 357.854C373.522 359.579 376.535 359.404 378.328 357.459C380.122 355.514 380.052 352.497 378.169 350.637L374.718 354.131ZM363.984 377.654L365.19 382.414L363.396 372.779L363.984 377.654ZM391.643 399.562L396.504 400.252C396.838 397.898 395.438 395.643 393.18 394.899C390.923 394.154 388.456 395.134 387.324 397.225L391.643 399.562ZM425.17 386.647L426.929 382.063C424.766 381.232 422.316 382.028 421.053 383.971C419.79 385.914 420.057 388.476 421.695 390.116L425.17 386.647ZM477.286 374.189L472.437 373.414L472.437 373.415L477.286 374.189ZM430.886 358.638L427.874 354.76C425.744 356.415 425.347 359.478 426.985 361.621C428.624 363.763 431.683 364.183 433.839 362.562L430.886 358.638ZM404.747 345.285C409.655 345.456 409.655 345.454 409.655 345.453C409.655 345.452 409.655 345.45 409.655 345.449C409.655 345.446 409.655 345.442 409.655 345.438C409.656 345.43 409.656 345.42 409.656 345.408C409.657 345.383 409.658 345.349 409.659 345.307C409.661 345.222 409.664 345.103 409.666 344.953C409.671 344.651 409.675 344.222 409.673 343.683C409.668 342.606 409.636 341.085 409.531 339.267C409.323 335.655 408.821 330.756 407.615 325.802C406.426 320.918 404.457 315.564 401.062 311.374C397.518 307.001 392.41 303.925 385.579 304.082L385.804 313.9C389.139 313.824 391.496 315.168 393.431 317.557C395.515 320.129 397.039 323.878 398.073 328.125C399.09 332.303 399.539 336.565 399.727 339.831C399.82 341.452 399.847 342.799 399.852 343.73C399.854 344.196 399.851 344.556 399.847 344.793C399.845 344.911 399.843 344.999 399.841 345.053C399.841 345.081 399.84 345.099 399.84 345.11C399.84 345.115 399.84 345.118 399.84 345.119C399.84 345.119 399.84 345.119 399.84 345.119C399.84 345.118 399.84 345.117 399.84 345.117C399.84 345.116 399.84 345.115 404.747 345.285ZM385.579 304.082C373.759 304.351 362.653 311.065 358.406 321.642C353.98 332.666 357.666 345.942 371.516 357.854L377.92 350.408C366.148 340.283 365.143 331.221 367.52 325.301C370.077 318.933 377.268 314.095 385.803 313.9L385.579 304.082ZM374.718 354.131C378.169 350.637 378.168 350.636 378.167 350.635C378.166 350.634 378.165 350.633 378.163 350.632C378.161 350.629 378.158 350.627 378.155 350.623C378.149 350.617 378.141 350.609 378.131 350.6C378.112 350.581 378.086 350.556 378.053 350.524C377.989 350.462 377.898 350.375 377.783 350.266C377.553 350.049 377.224 349.743 376.805 349.368C375.969 348.617 374.769 347.582 373.281 346.409C370.325 344.081 366.126 341.126 361.291 338.802C356.499 336.497 350.735 334.643 344.764 334.941C338.584 335.249 332.54 337.854 327.546 343.79L335.062 350.112C338.271 346.297 341.755 344.924 345.253 344.749C348.96 344.565 353.025 345.724 357.035 347.653C361.004 349.561 364.582 352.058 367.203 354.123C368.502 355.147 369.541 356.044 370.246 356.677C370.598 356.993 370.865 357.241 371.039 357.405C371.125 357.487 371.188 357.548 371.227 357.585C371.246 357.604 371.259 357.616 371.266 357.623C371.269 357.626 371.271 357.628 371.271 357.628C371.271 357.628 371.271 357.628 371.27 357.627C371.27 357.627 371.269 357.626 371.269 357.626C371.268 357.625 371.267 357.624 374.718 354.131ZM327.546 343.79C323.068 349.114 320.26 354.624 319.674 360.044C319.067 365.663 320.91 370.766 324.887 374.696C328.723 378.486 334.272 380.937 340.842 382.205C347.456 383.482 355.44 383.63 364.571 382.529L363.396 372.779C354.989 373.793 348.068 373.598 342.704 372.562C337.295 371.518 333.789 369.686 331.79 367.709C329.93 365.873 329.155 363.726 329.438 361.099C329.744 358.272 331.337 354.54 335.062 350.112L327.546 343.79ZM363.984 377.654C362.778 372.894 362.775 372.895 362.773 372.895C362.772 372.896 362.77 372.896 362.768 372.897C362.765 372.897 362.761 372.898 362.757 372.899C362.75 372.901 362.74 372.904 362.73 372.906C362.71 372.912 362.685 372.918 362.656 372.926C362.597 372.942 362.521 372.963 362.427 372.989C362.24 373.043 361.986 373.118 361.67 373.219C361.038 373.421 360.16 373.724 359.09 374.151C356.954 375.005 354.034 376.363 350.782 378.412C344.27 382.515 336.375 389.425 330.845 400.607L339.648 404.961C344.21 395.737 350.684 390.082 356.017 386.721C358.688 385.039 361.06 383.94 362.735 383.271C363.571 382.937 364.228 382.711 364.656 382.575C364.869 382.507 365.025 382.461 365.116 382.435C365.162 382.422 365.191 382.414 365.204 382.411C365.21 382.409 365.212 382.408 365.21 382.409C365.209 382.409 365.206 382.41 365.203 382.411C365.201 382.411 365.199 382.412 365.197 382.412C365.196 382.413 365.194 382.413 365.194 382.413C365.192 382.414 365.19 382.414 363.984 377.654ZM330.845 400.607C327.569 407.232 327.998 414.845 330.743 421.229C333.493 427.624 338.762 433.263 345.859 435.841C353.107 438.473 361.654 437.694 370.355 432.311C378.932 427.005 387.643 417.267 395.961 401.9L387.324 397.225C379.476 411.725 371.793 419.873 365.188 423.959C358.707 427.969 353.283 428.088 349.212 426.61C344.99 425.077 341.591 421.596 339.765 417.349C337.934 413.09 337.879 408.539 339.648 404.961L330.845 400.607ZM391.643 399.562C386.781 398.873 386.781 398.874 386.78 398.876C386.78 398.877 386.78 398.879 386.78 398.881C386.779 398.885 386.779 398.889 386.778 398.894C386.776 398.904 386.775 398.917 386.773 398.932C386.768 398.963 386.763 399.005 386.756 399.057C386.742 399.161 386.724 399.308 386.702 399.493C386.658 399.864 386.6 400.393 386.54 401.054C386.419 402.376 386.288 404.24 386.239 406.455C386.141 410.843 386.361 416.794 387.726 422.679C389.077 428.504 391.676 434.809 396.755 439.271C402.039 443.912 409.319 445.964 418.661 444.448L417.087 434.754C410.098 435.889 405.933 434.261 403.236 431.893C400.335 429.344 398.417 425.308 397.293 420.461C396.183 415.674 395.97 410.62 396.057 406.673C396.101 404.72 396.217 403.083 396.32 401.946C396.372 401.378 396.42 400.938 396.455 400.647C396.472 400.502 396.486 400.394 396.494 400.327C396.499 400.294 396.502 400.271 396.504 400.258C396.504 400.252 396.505 400.248 396.505 400.247C396.505 400.246 396.505 400.246 396.505 400.247C396.505 400.248 396.505 400.249 396.505 400.249C396.505 400.25 396.504 400.252 391.643 399.562ZM418.661 444.448C427.372 443.034 434.293 440.244 439.203 436.047C444.228 431.751 446.872 426.205 447.255 420.038C447.99 408.179 440.392 394.945 428.645 383.178L421.695 390.116C432.836 401.277 437.922 411.87 437.453 419.43C437.233 422.972 435.803 426.034 432.822 428.582C429.725 431.228 424.707 433.517 417.087 434.754L418.661 444.448ZM425.17 386.647C423.41 391.231 423.412 391.232 423.413 391.233C423.414 391.233 423.416 391.234 423.418 391.234C423.421 391.236 423.425 391.237 423.43 391.239C423.439 391.242 423.451 391.247 423.466 391.253C423.496 391.264 423.538 391.28 423.59 391.299C423.695 391.338 423.844 391.393 424.034 391.462C424.414 391.599 424.96 391.791 425.649 392.022C427.025 392.484 428.982 393.101 431.341 393.741C436.028 395.012 442.444 396.41 449.117 396.79C455.707 397.166 463.078 396.585 469.309 393.416C475.844 390.092 480.67 384.139 482.135 374.963L472.437 373.415C471.46 379.532 468.551 382.783 464.856 384.662C460.858 386.696 455.505 387.318 449.676 386.985C443.93 386.658 438.233 385.435 433.911 384.262C431.766 383.681 429.995 383.121 428.769 382.71C428.157 382.505 427.683 382.338 427.369 382.224C427.212 382.168 427.095 382.125 427.02 382.097C426.983 382.083 426.957 382.073 426.942 382.067C426.934 382.065 426.929 382.063 426.927 382.062C426.926 382.061 426.926 382.061 426.926 382.061C426.926 382.062 426.927 382.062 426.927 382.062C426.928 382.062 426.929 382.063 425.17 386.647ZM482.135 374.963C483.408 366.991 482.26 360.201 478.838 354.947C475.412 349.688 470.113 346.589 464.295 345.237C452.878 342.583 438.661 346.379 427.874 354.76L433.899 362.516C442.837 355.571 454.088 352.947 462.072 354.803C465.956 355.705 468.841 357.593 470.608 360.307C472.379 363.024 473.431 367.191 472.437 373.414L482.135 374.963ZM430.886 358.638C433.839 362.562 433.84 362.561 433.841 362.56C433.842 362.559 433.844 362.558 433.845 362.557C433.847 362.555 433.85 362.553 433.854 362.55C433.861 362.545 433.87 362.538 433.88 362.53C433.901 362.514 433.929 362.493 433.964 362.466C434.033 362.413 434.13 362.338 434.251 362.243C434.494 362.052 434.836 361.778 435.258 361.429C436.103 360.73 437.276 359.722 438.626 358.457C441.306 355.945 444.78 352.331 447.766 348.034C450.723 343.779 453.426 338.532 454.136 332.793C454.872 326.841 453.414 320.648 448.551 315.017L441.118 321.437C444.086 324.873 444.8 328.264 444.389 331.588C443.952 335.126 442.189 338.849 439.701 342.43C437.242 345.969 434.292 349.058 431.91 351.29C430.729 352.397 429.711 353.271 428.998 353.862C428.641 354.157 428.362 354.38 428.179 354.524C428.087 354.596 428.019 354.649 427.978 354.681C427.957 354.697 427.943 354.707 427.935 354.713C427.932 354.716 427.93 354.717 427.929 354.718C427.929 354.718 427.93 354.717 427.93 354.717C427.931 354.717 427.932 354.716 427.932 354.716C427.933 354.715 427.934 354.714 430.886 358.638ZM448.551 315.017C443.88 309.609 438.262 306.78 432.303 306.532C426.461 306.289 420.935 308.55 416.306 312.068C407.136 319.038 400.376 331.728 399.841 345.089L409.654 345.482C410.077 334.899 415.53 324.994 422.249 319.887C425.563 317.368 428.901 316.22 431.894 316.344C434.77 316.464 437.959 317.779 441.118 321.437L448.551 315.017Z" fill="black"/>
<path d="M411.858 370.195C412.162 377.245 406.673 383.2 399.623 383.504C392.573 383.808 386.618 378.318 386.314 371.268C386.01 364.219 391.501 358.235 398.55 357.96C405.6 357.656 411.583 363.146 411.858 370.195Z" fill="#512D0D"/>
<path d="M627.414 298.633C627.414 298.633 625.665 292.295 631.25 278.216C636.836 264.137 652.245 267.922 654.956 278.729C657.68 289.511 654.513 299.219 654.513 299.219C654.513 299.219 655.152 300.976 665.261 296.478C675.37 291.98 685.686 294.673 686.646 301.212C687.58 307.737 681.528 318.333 671.835 320.601C671.835 320.601 677.008 322.398 687.476 326.597C697.944 330.797 700.799 342.664 690.395 346.427C680.015 350.205 664.644 347.356 664.644 347.356C664.644 347.356 662.862 348.413 667.916 357.219C672.982 366.062 675.743 376.265 666.244 380.821C656.732 385.401 645.112 372.578 640.837 358.43C640.837 358.43 641.356 365.719 638.556 372.771C635.757 379.823 628.271 388.982 618.879 382.007C609.449 375.042 613.243 357.754 618.358 349.727C618.358 349.727 616.559 354.522 607.669 362.231C598.78 369.94 588.829 369.631 584.651 362.013C580.473 354.394 592.275 340.879 603.673 337.578C603.673 337.578 568.329 342.527 566.567 332.379C564.804 322.23 583.781 305.708 611.034 319.23C611.034 319.23 583.636 303.045 588.237 290.719C592.801 278.404 604.29 279.007 615.791 289.156C624.514 296.924 627.414 298.633 627.414 298.633Z" fill="#D3E4E0"/>
<path d="M627.414 298.633L624.92 302.863C626.644 303.88 628.812 303.748 630.4 302.531C631.989 301.314 632.68 299.256 632.147 297.327L627.414 298.633ZM654.956 278.729L650.193 279.923L650.195 279.931L654.956 278.729ZM654.513 299.219L649.844 297.696C649.504 298.74 649.523 299.868 649.898 300.899L654.513 299.219ZM686.646 301.212L691.506 300.516L691.505 300.507L691.504 300.499L686.646 301.212ZM671.835 320.601L670.716 315.82C668.588 316.317 667.045 318.162 666.931 320.344C666.817 322.527 668.159 324.522 670.224 325.239L671.835 320.601ZM690.395 346.427L688.724 341.81L688.716 341.813L690.395 346.427ZM664.644 347.356L665.539 342.527C664.37 342.311 663.161 342.526 662.139 343.132L664.644 347.356ZM667.916 357.219L672.177 354.778L672.175 354.774L667.916 357.219ZM666.244 380.821L664.12 376.393L664.114 376.397L666.244 380.821ZM640.837 358.43L645.537 357.01C644.814 354.615 642.406 353.148 639.946 353.601C637.487 354.054 635.761 356.284 635.939 358.779L640.837 358.43ZM618.879 382.007L621.807 378.065L621.796 378.057L618.879 382.007ZM618.358 349.727L622.955 351.452C623.838 349.098 622.801 346.457 620.551 345.334C618.302 344.21 615.567 344.968 614.216 347.088L618.358 349.727ZM603.673 337.578L605.039 342.295L602.992 332.715L603.673 337.578ZM611.034 319.23L608.851 323.629C611.218 324.803 614.09 323.894 615.35 321.572C616.61 319.249 615.806 316.346 613.531 315.002L611.034 319.23ZM588.237 290.719L592.838 292.437L592.842 292.426L588.237 290.719ZM615.791 289.156L619.057 285.489L619.049 285.481L619.04 285.474L615.791 289.156ZM627.414 298.633C632.147 297.327 632.148 297.33 632.149 297.333C632.149 297.334 632.15 297.337 632.151 297.339C632.152 297.343 632.153 297.347 632.154 297.351C632.156 297.359 632.158 297.367 632.16 297.374C632.164 297.388 632.167 297.4 632.17 297.411C632.175 297.434 632.179 297.45 632.182 297.46C632.186 297.48 632.185 297.475 632.179 297.445C632.168 297.386 632.142 297.226 632.117 296.962C632.067 296.435 632.024 295.485 632.133 294.086C632.351 291.29 633.18 286.667 635.814 280.027L626.686 276.405C623.735 283.844 622.646 289.429 622.342 293.322C622.19 295.268 622.235 296.782 622.339 297.884C622.391 298.434 622.457 298.879 622.52 299.221C622.552 299.393 622.582 299.538 622.61 299.658C622.623 299.717 622.636 299.771 622.648 299.818C622.654 299.841 622.66 299.863 622.665 299.883C622.668 299.894 622.671 299.903 622.673 299.913C622.674 299.917 622.676 299.922 622.677 299.926C622.677 299.929 622.678 299.932 622.679 299.933C622.68 299.936 622.68 299.94 627.414 298.633ZM635.814 280.027C637.879 274.824 641.178 273.75 643.645 274.021C646.526 274.338 649.345 276.544 650.193 279.923L659.719 277.534C657.855 270.107 651.614 265.017 644.717 264.259C637.405 263.455 630.207 267.529 626.686 276.405L635.814 280.027ZM650.195 279.931C651.366 284.568 651.284 289.052 650.88 292.434C650.68 294.112 650.404 295.479 650.186 296.407C650.076 296.87 649.982 297.22 649.919 297.441C649.888 297.551 649.865 297.629 649.851 297.672C649.845 297.694 649.841 297.707 649.839 297.711C649.839 297.713 649.839 297.713 649.84 297.71C649.84 297.709 649.841 297.707 649.841 297.705C649.842 297.704 649.842 297.702 649.843 297.701C649.843 297.7 649.843 297.699 649.843 297.699C649.844 297.697 649.844 297.696 654.513 299.219C659.181 300.742 659.181 300.741 659.182 300.74C659.182 300.739 659.182 300.738 659.183 300.737C659.183 300.735 659.184 300.732 659.185 300.73C659.186 300.725 659.188 300.72 659.19 300.714C659.194 300.702 659.198 300.688 659.204 300.671C659.214 300.638 659.228 300.595 659.244 300.543C659.275 300.439 659.317 300.297 659.367 300.121C659.467 299.769 659.599 299.277 659.744 298.661C660.034 297.432 660.381 295.698 660.631 293.6C661.13 289.433 661.269 283.671 659.717 277.526L650.195 279.931ZM654.513 299.219C649.898 300.899 649.903 300.913 649.908 300.926C649.91 300.93 649.915 300.944 649.918 300.953C649.925 300.971 649.932 300.988 649.939 301.006C649.953 301.043 649.968 301.079 649.983 301.115C650.013 301.188 650.046 301.262 650.082 301.337C650.153 301.486 650.234 301.637 650.326 301.788C650.511 302.093 650.734 302.388 650.998 302.666C651.533 303.23 652.162 303.645 652.819 303.929C654.067 304.47 655.372 304.527 656.519 304.427C658.783 304.232 662.08 303.268 667.257 300.964L663.265 291.991C658.333 294.186 656.256 294.593 655.673 294.643C655.396 294.667 655.909 294.565 656.722 294.917C657.161 295.107 657.661 295.42 658.122 295.906C658.348 296.144 658.548 296.406 658.718 296.687C658.803 296.827 658.879 296.969 658.947 297.112C658.981 297.183 659.013 297.254 659.043 297.326C659.058 297.361 659.073 297.397 659.086 297.433C659.093 297.451 659.1 297.468 659.107 297.486C659.11 297.495 659.115 297.508 659.117 297.513C659.122 297.526 659.127 297.539 654.513 299.219ZM667.257 300.964C671.468 299.09 675.48 298.835 678.264 299.487C681.171 300.168 681.715 301.435 681.787 301.925L691.504 300.499C690.617 294.45 685.523 291.101 680.505 289.925C675.363 288.72 669.162 289.367 663.265 291.991L667.257 300.964ZM681.785 301.908C682.02 303.553 681.354 306.596 679.195 309.698C677.114 312.69 674.125 315.022 670.716 315.82L672.954 325.382C679.238 323.912 684.122 319.813 687.257 315.308C690.313 310.914 692.205 305.396 691.506 300.516L681.785 301.908ZM671.835 320.601C670.224 325.239 670.223 325.239 670.223 325.239C670.223 325.239 670.223 325.239 670.223 325.239C670.223 325.239 670.223 325.239 670.223 325.239C670.223 325.239 670.223 325.239 670.224 325.239C670.225 325.24 670.228 325.241 670.232 325.242C670.239 325.245 670.252 325.249 670.27 325.256C670.306 325.268 670.362 325.288 670.438 325.315C670.591 325.369 670.825 325.452 671.14 325.566C671.77 325.793 672.725 326.143 674.008 326.623C676.574 327.584 680.449 329.069 685.648 331.155L689.304 322.04C684.036 319.926 680.09 318.413 677.452 317.426C676.133 316.932 675.141 316.569 674.474 316.329C674.141 316.208 673.888 316.118 673.717 316.058C673.632 316.027 673.566 316.004 673.521 315.988C673.499 315.981 673.481 315.974 673.469 315.97C673.462 315.968 673.457 315.966 673.454 315.965C673.452 315.964 673.45 315.964 673.449 315.963C673.449 315.963 673.448 315.963 673.448 315.963C673.447 315.963 673.447 315.963 673.447 315.963C673.447 315.962 673.446 315.962 671.835 320.601ZM685.648 331.155C689.643 332.758 691.57 335.574 691.931 337.556C692.102 338.49 691.944 339.219 691.597 339.792C691.249 340.369 690.469 341.179 688.724 341.81L692.065 351.045C695.523 349.794 698.288 347.709 700.003 344.871C701.72 342.029 702.145 338.823 701.593 335.796C700.511 329.853 695.776 324.636 689.304 322.04L685.648 331.155ZM688.716 341.813C684.458 343.363 678.811 343.634 673.856 343.403C671.45 343.291 669.342 343.067 667.84 342.872C667.091 342.775 666.499 342.686 666.101 342.622C665.902 342.59 665.753 342.565 665.658 342.548C665.61 342.54 665.576 342.534 665.556 342.53C665.546 342.529 665.539 342.527 665.537 342.527C665.535 342.527 665.535 342.527 665.535 342.527C665.535 342.527 665.536 342.527 665.536 342.527C665.537 342.527 665.537 342.527 665.538 342.527C665.538 342.527 665.539 342.527 664.644 347.356C663.749 352.184 663.75 352.184 663.751 352.184C663.751 352.184 663.752 352.184 663.753 352.184C663.755 352.185 663.757 352.185 663.759 352.185C663.763 352.186 663.768 352.187 663.774 352.188C663.786 352.19 663.802 352.193 663.821 352.197C663.86 352.204 663.913 352.213 663.981 352.225C664.116 352.248 664.307 352.281 664.549 352.319C665.032 352.397 665.721 352.5 666.576 352.611C668.281 352.833 670.664 353.085 673.398 353.213C678.724 353.462 685.952 353.27 692.074 351.042L688.716 341.813ZM664.644 347.356C662.139 343.132 662.129 343.138 662.118 343.144C662.115 343.146 662.105 343.153 662.098 343.157C662.085 343.165 662.071 343.173 662.057 343.182C662.03 343.198 662.003 343.216 661.975 343.234C661.92 343.269 661.865 343.307 661.809 343.346C661.698 343.424 661.585 343.51 661.473 343.604C661.249 343.792 661.029 344.008 660.823 344.253C660.403 344.751 660.074 345.323 659.843 345.945C659.388 347.166 659.355 348.442 659.519 349.649C659.835 351.966 661.035 355.095 663.658 359.663L672.175 354.774C669.743 350.536 669.306 348.734 669.25 348.321C669.228 348.163 669.325 348.624 669.046 349.372C668.903 349.757 668.674 350.177 668.332 350.583C668.164 350.782 667.978 350.967 667.777 351.135C667.677 351.219 667.574 351.298 667.469 351.372C667.417 351.409 667.364 351.445 667.31 351.479C667.284 351.496 667.257 351.513 667.23 351.53C667.217 351.538 667.203 351.546 667.19 351.555C667.183 351.559 667.173 351.565 667.17 351.567C667.16 351.573 667.149 351.579 664.644 347.356ZM663.656 359.659C666.063 363.862 667.537 367.774 667.634 370.785C667.68 372.2 667.415 373.23 666.968 374.007C666.536 374.759 665.737 375.618 664.12 376.393L668.368 385.248C671.501 383.746 673.919 381.62 675.482 378.902C677.031 376.208 677.54 373.28 677.45 370.469C677.275 365.03 674.836 359.419 672.177 354.778L663.656 359.659ZM664.114 376.397C662.136 377.349 659.044 376.974 654.96 373.09C651.04 369.362 647.468 363.399 645.537 357.01L636.136 359.851C638.481 367.609 642.856 375.132 648.193 380.207C653.365 385.126 660.841 388.873 668.374 385.245L664.114 376.397ZM640.837 358.43C635.939 358.779 635.938 358.778 635.938 358.777C635.938 358.777 635.938 358.776 635.938 358.775C635.938 358.774 635.938 358.773 635.938 358.772C635.938 358.77 635.938 358.768 635.938 358.767C635.938 358.765 635.937 358.764 635.938 358.765C635.938 358.767 635.938 358.776 635.939 358.791C635.941 358.822 635.944 358.878 635.947 358.958C635.954 359.119 635.961 359.374 635.964 359.71C635.968 360.383 635.949 361.37 635.852 362.558C635.656 364.966 635.154 368.034 633.992 370.959L643.12 374.583C644.758 370.457 645.396 366.353 645.64 363.355C645.764 361.839 645.79 360.562 645.784 359.649C645.781 359.191 645.771 358.822 645.76 358.556C645.754 358.423 645.749 358.316 645.744 358.236C645.742 358.196 645.74 358.163 645.738 358.137C645.738 358.125 645.737 358.113 645.736 358.104C645.736 358.099 645.736 358.095 645.735 358.091C645.735 358.089 645.735 358.088 645.735 358.086C645.735 358.085 645.735 358.084 645.735 358.083C645.735 358.082 645.735 358.081 640.837 358.43ZM633.992 370.959C632.799 373.966 630.722 377.035 628.436 378.583C627.372 379.304 626.421 379.593 625.551 379.588C624.704 379.583 623.468 379.299 621.807 378.065L615.951 385.949C618.985 388.203 622.207 389.389 625.494 389.409C628.755 389.427 631.612 388.294 633.943 386.715C638.448 383.664 641.514 378.628 643.12 374.583L633.992 370.959ZM621.796 378.057C619.06 376.036 617.7 372.092 618.064 366.589C618.42 361.197 620.395 355.667 622.499 352.365L614.216 347.088C611.206 351.813 608.726 358.941 608.264 365.941C607.809 372.83 609.268 381.013 615.961 385.957L621.796 378.057ZM618.358 349.727C613.76 348.002 613.761 348 613.762 347.997C613.762 347.996 613.763 347.994 613.764 347.992C613.765 347.989 613.766 347.986 613.767 347.983C613.769 347.977 613.772 347.972 613.774 347.966C613.778 347.955 613.782 347.946 613.785 347.937C613.791 347.921 613.796 347.909 613.799 347.901C613.805 347.887 613.804 347.891 613.794 347.913C613.774 347.958 613.718 348.076 613.616 348.265C613.413 348.641 613.024 349.301 612.365 350.214C611.048 352.04 608.64 354.89 604.452 358.521L610.886 365.941C615.588 361.863 618.524 358.461 620.328 355.962C621.23 354.713 621.847 353.692 622.259 352.928C622.465 352.547 622.619 352.23 622.732 351.983C622.788 351.859 622.834 351.752 622.871 351.664C622.889 351.619 622.906 351.579 622.92 351.544C622.927 351.526 622.933 351.51 622.939 351.494C622.942 351.487 622.945 351.479 622.947 351.472C622.949 351.469 622.95 351.465 622.951 351.462C622.952 351.46 622.953 351.457 622.953 351.457C622.954 351.454 622.955 351.452 618.358 349.727ZM604.452 358.521C600.667 361.804 597.085 363.002 594.472 362.96C592.045 362.921 590.164 361.853 588.956 359.651L580.345 364.374C583.316 369.791 588.499 372.687 594.315 372.78C599.944 372.87 605.783 370.367 610.886 365.941L604.452 358.521ZM588.956 359.651C588.726 359.231 588.513 358.391 588.972 356.82C589.434 355.235 590.484 353.302 592.133 351.272C595.469 347.165 600.462 343.621 605.039 342.295L602.307 332.862C595.487 334.837 588.88 339.7 584.51 345.08C582.305 347.794 580.475 350.875 579.544 354.07C578.608 357.278 578.487 360.985 580.345 364.374L588.956 359.651ZM603.673 337.578C602.992 332.715 602.993 332.715 602.993 332.715C602.993 332.715 602.994 332.715 602.993 332.715C602.993 332.715 602.993 332.715 602.991 332.715C602.989 332.716 602.984 332.716 602.978 332.717C602.965 332.719 602.943 332.722 602.914 332.726C602.854 332.734 602.763 332.746 602.642 332.762C602.399 332.794 602.036 332.84 601.57 332.895C600.638 333.006 599.296 333.155 597.676 333.303C594.424 333.6 590.117 333.889 585.798 333.874C581.403 333.858 577.328 333.527 574.39 332.732C570.979 331.81 571.299 330.931 571.405 331.538L561.729 333.219C562.715 338.9 568.114 341.209 571.826 342.213C576.01 343.344 581.102 343.678 585.764 343.694C590.501 343.711 595.141 343.396 598.57 343.083C600.292 342.926 601.724 342.767 602.732 342.647C603.236 342.587 603.634 342.537 603.91 342.501C604.048 342.483 604.155 342.468 604.23 342.458C604.267 342.453 604.297 342.449 604.317 342.446C604.328 342.445 604.336 342.444 604.342 342.443C604.345 342.443 604.348 342.442 604.35 342.442C604.351 342.442 604.352 342.442 604.352 342.442C604.353 342.441 604.354 342.441 603.673 337.578ZM571.405 331.538C571.254 330.673 571.485 329.044 572.947 326.978C574.364 324.976 576.727 322.907 580 321.376C586.427 318.37 596.41 317.456 608.851 323.629L613.216 314.832C598.405 307.482 585.273 308.068 575.839 312.48C571.181 314.658 567.428 317.777 564.931 321.304C562.478 324.769 560.998 329.01 561.729 333.219L571.405 331.538ZM611.034 319.23C613.531 315.002 613.532 315.003 613.533 315.003C613.533 315.003 613.533 315.004 613.534 315.004C613.534 315.004 613.534 315.004 613.533 315.004C613.532 315.003 613.53 315.001 613.525 314.999C613.517 314.994 613.502 314.985 613.481 314.972C613.438 314.947 613.372 314.907 613.282 314.852C613.102 314.743 612.832 314.576 612.484 314.357C611.789 313.918 610.789 313.272 609.6 312.457C607.207 310.819 604.106 308.539 601.176 305.93C598.2 303.28 595.633 300.494 594.085 297.875C592.512 295.214 592.433 293.522 592.838 292.437L583.637 289.002C581.742 294.079 583.361 299.033 585.631 302.873C587.926 306.755 591.346 310.327 594.645 313.264C597.988 316.242 601.45 318.779 604.05 320.56C605.357 321.455 606.462 322.17 607.247 322.665C607.64 322.912 607.953 323.105 608.173 323.239C608.283 323.306 608.369 323.358 608.43 323.395C608.461 323.413 608.485 323.428 608.503 323.438C608.512 323.444 608.519 323.448 608.524 323.451C608.527 323.453 608.53 323.454 608.532 323.455C608.533 323.456 608.534 323.457 608.534 323.457C608.535 323.458 608.536 323.458 611.034 319.23ZM592.842 292.426C593.749 289.977 594.868 288.526 595.916 287.689C596.923 286.884 598.095 286.458 599.534 286.423C602.63 286.346 607.207 288.13 612.542 292.838L619.04 285.474C612.874 280.033 605.957 276.441 599.292 276.605C595.85 276.689 592.576 277.787 589.786 280.016C587.036 282.212 585.008 285.303 583.633 289.013L592.842 292.426ZM612.525 292.823C616.951 296.764 619.948 299.212 621.877 300.698C622.842 301.441 623.547 301.949 624.036 302.286C624.28 302.455 624.472 302.582 624.617 302.675C624.69 302.722 624.751 302.76 624.801 302.791C624.826 302.807 624.849 302.821 624.868 302.832C624.878 302.838 624.888 302.844 624.896 302.849C624.901 302.852 624.905 302.854 624.909 302.857C624.911 302.858 624.913 302.859 624.915 302.86C624.916 302.861 624.917 302.862 624.918 302.862C624.919 302.863 624.92 302.863 627.414 298.633C629.907 294.403 629.909 294.404 629.91 294.405C629.911 294.405 629.912 294.406 629.913 294.406C629.915 294.407 629.916 294.408 629.918 294.409C629.921 294.411 629.924 294.413 629.927 294.415C629.933 294.418 629.938 294.421 629.942 294.424C629.95 294.429 629.956 294.432 629.957 294.433C629.961 294.435 629.951 294.429 629.927 294.414C629.879 294.383 629.777 294.316 629.613 294.203C629.285 293.977 628.72 293.572 627.87 292.917C626.168 291.606 623.354 289.315 619.057 285.489L612.525 292.823Z" fill="black"/>
<path d="M635.516 324.749C629.639 324.791 620.497 325.833 618.941 331.895C617.398 337.933 629.068 343.272 638.107 342.299C647.146 341.327 649.463 334.419 648.522 330.71C647.581 327.001 640.684 324.722 635.516 324.749Z" fill="#512D0D"/>
<path d="M518.701 319.903C518.701 319.903 511.947 305.979 524.319 296.941C536.69 287.902 547.645 299.693 547.645 299.693C547.645 299.693 553.138 282.505 570.379 285.126C587.62 287.747 585.868 309.512 585.868 309.512C585.868 309.512 599.422 304.995 606.314 312.516C613.206 320.037 614.481 334.809 602.782 342.896C602.782 342.896 614.934 351.812 610.672 366.803C606.411 381.769 589.47 379.808 589.47 379.808C589.47 379.808 587.536 395.477 568.867 398.603C550.221 401.728 546.377 386.248 546.377 386.248C546.377 386.248 527.606 395.148 517.524 386.591C507.466 378.034 513.894 361.181 513.894 361.181C513.894 361.181 500.424 357.36 501.24 338.621C502.063 321.791 518.701 319.903 518.701 319.903Z" fill="#CB3E32" stroke="black" stroke-width="9.8209"/>
<path d="M560.095 335.981C555.161 334.907 547.321 334.037 544.823 338.819C542.35 343.602 551.055 350.319 558.798 351.212C566.542 352.105 569.873 346.76 569.799 343.47C569.75 340.18 564.427 336.946 560.095 335.981Z" fill="#512D0D"/>
<path d="M670.94 361.265C670.94 361.265 649.574 345.458 635.981 364.938C621.904 385.109 639.725 405.84 665.275 390.128C665.275 390.128 643.419 403.921 664.466 427.49C685.513 451.059 703.23 429.709 703.48 408.004C703.48 408.004 713.837 432.116 731.139 426.1C748.442 420.085 759.909 391.022 751.103 381.489C736.49 365.659 725.594 370.972 725.594 370.972C725.594 370.972 755.257 354.98 746.499 339.857C733.513 317.478 708.079 315.868 699.694 346.546C699.694 346.546 695.411 308.086 666.394 329.339C648.849 338.665 663.141 359.257 670.94 361.265Z" fill="#FA957A"/>
<path d="M670.94 361.265L669.716 366.021C671.992 366.607 674.363 365.498 675.374 363.377C676.384 361.255 675.75 358.715 673.861 357.318L670.94 361.265ZM635.981 364.938L640.007 367.748L635.981 364.938ZM665.275 390.128L667.896 394.28C670.18 392.839 670.871 389.824 669.443 387.531C668.015 385.239 665.004 384.53 662.703 385.945L665.275 390.128ZM703.48 408.004L707.992 406.066C707.076 403.934 704.794 402.734 702.519 403.189C700.244 403.643 698.597 405.628 698.57 407.947L703.48 408.004ZM751.103 381.489L747.495 384.82L747.496 384.821L751.103 381.489ZM725.594 370.972L723.264 366.65C720.911 367.918 720.005 370.835 721.225 373.214C722.445 375.592 725.343 376.557 727.746 375.386L725.594 370.972ZM746.499 339.857L750.748 337.396L750.746 337.392L746.499 339.857ZM699.694 346.546L694.814 347.089C695.075 349.431 696.963 351.258 699.312 351.441C701.661 351.625 703.81 350.113 704.431 347.84L699.694 346.546ZM666.394 329.339L668.699 333.675L669.011 333.509L669.295 333.3L666.394 329.339ZM670.94 361.265C673.861 357.318 673.859 357.316 673.857 357.315C673.857 357.315 673.855 357.313 673.853 357.312C673.85 357.31 673.847 357.307 673.843 357.305C673.836 357.299 673.827 357.293 673.817 357.286C673.797 357.271 673.772 357.253 673.742 357.231C673.681 357.188 673.6 357.13 673.499 357.06C673.296 356.919 673.014 356.728 672.659 356.498C671.949 356.041 670.942 355.427 669.694 354.764C667.223 353.45 663.691 351.879 659.592 350.996C655.487 350.112 650.629 349.88 645.676 351.471C640.652 353.085 635.913 356.454 631.954 362.128L640.007 367.748C642.845 363.681 645.875 361.722 648.68 360.821C651.556 359.897 654.589 359.965 657.524 360.597C660.466 361.231 663.125 362.394 665.085 363.436C666.053 363.95 666.821 364.419 667.333 364.75C667.589 364.915 667.778 365.044 667.896 365.125C667.954 365.166 667.994 365.195 668.015 365.21C668.026 365.217 668.032 365.222 668.032 365.222C668.033 365.222 668.032 365.222 668.03 365.22C668.029 365.22 668.028 365.219 668.026 365.217C668.025 365.217 668.024 365.216 668.023 365.215C668.022 365.214 668.02 365.213 670.94 361.265ZM631.954 362.128C623.922 373.637 624.292 386.661 632.341 394.506C640.401 402.361 653.914 402.879 667.848 394.311L662.703 385.945C651.086 393.089 642.914 391.097 639.195 387.473C635.465 383.837 633.963 376.41 640.007 367.748L631.954 362.128ZM665.275 390.128C662.655 385.975 662.652 385.977 662.65 385.978C662.649 385.979 662.646 385.981 662.644 385.982C662.64 385.984 662.636 385.987 662.631 385.99C662.622 385.996 662.611 386.003 662.599 386.01C662.575 386.026 662.546 386.045 662.512 386.067C662.444 386.112 662.355 386.172 662.249 386.245C662.035 386.392 661.749 386.596 661.405 386.858C660.72 387.379 659.798 388.134 658.778 389.119C656.759 391.069 654.237 394.034 652.489 397.981C650.713 401.989 649.767 406.948 650.896 412.661C652.017 418.329 655.107 424.382 660.804 430.761L668.129 424.219C663.301 418.813 661.232 414.304 660.531 410.757C659.838 407.254 660.41 404.346 661.468 401.96C662.552 399.512 664.179 397.556 665.601 396.183C666.301 395.507 666.922 395 667.35 394.675C667.563 394.513 667.725 394.398 667.821 394.332C667.87 394.298 667.901 394.277 667.915 394.269C667.921 394.264 667.923 394.263 667.92 394.265C667.918 394.266 667.916 394.268 667.912 394.27C667.91 394.272 667.907 394.273 667.905 394.275C667.904 394.276 667.901 394.277 667.901 394.277C667.898 394.279 667.896 394.28 665.275 390.128ZM660.804 430.761C666.499 437.139 672.416 440.987 678.394 442.246C684.51 443.534 690.096 441.982 694.641 438.71C703.392 432.411 708.254 419.913 708.39 408.061L698.57 407.947C698.457 417.8 694.335 426.83 688.903 430.74C686.357 432.573 683.552 433.296 680.418 432.636C677.147 431.947 672.956 429.625 668.129 424.219L660.804 430.761ZM703.48 408.004C698.968 409.942 698.969 409.944 698.97 409.945C698.97 409.946 698.971 409.948 698.972 409.949C698.973 409.952 698.974 409.955 698.976 409.959C698.979 409.966 698.982 409.974 698.987 409.984C698.995 410.004 699.007 410.03 699.021 410.062C699.048 410.124 699.087 410.209 699.135 410.315C699.232 410.527 699.37 410.822 699.549 411.187C699.906 411.916 700.427 412.93 701.108 414.119C702.459 416.476 704.49 419.616 707.173 422.594C712.421 428.421 721.295 434.722 732.752 430.738L729.527 421.462C723.681 423.494 718.726 420.747 714.47 416.022C712.4 413.724 710.761 411.212 709.629 409.236C709.069 408.258 708.647 407.436 708.369 406.869C708.231 406.587 708.13 406.37 708.067 406.231C708.035 406.162 708.013 406.113 708 406.085C707.994 406.071 707.99 406.062 707.989 406.059C707.988 406.057 707.988 406.057 707.989 406.058C707.989 406.059 707.989 406.06 707.99 406.061C707.99 406.062 707.991 406.063 707.991 406.063C707.991 406.065 707.992 406.066 703.48 408.004ZM732.752 430.738C743.22 427.099 751.213 416.921 755.428 407.041C757.578 402.003 758.914 396.674 759.041 391.762C759.165 386.94 758.122 381.851 754.71 378.157L747.496 384.821C748.487 385.894 749.313 388.013 749.223 391.509C749.136 394.916 748.175 399.015 746.395 403.187C742.753 411.725 736.361 419.086 729.527 421.462L732.752 430.738ZM754.711 378.159C746.776 369.563 739.418 366.27 733.563 365.433C730.679 365.021 728.296 365.226 726.559 365.575C725.693 365.748 724.99 365.957 724.467 366.14C724.206 366.232 723.988 366.317 723.817 366.389C723.731 366.425 723.657 366.458 723.594 366.486C723.563 366.501 723.535 366.514 723.509 366.526C723.496 366.532 723.485 366.538 723.473 366.543C723.468 366.546 723.462 366.548 723.457 366.551C723.454 366.552 723.45 366.554 723.449 366.555C723.445 366.556 723.442 366.558 725.594 370.972C727.746 375.386 727.742 375.387 727.739 375.389C727.738 375.39 727.734 375.391 727.732 375.393C727.727 375.395 727.723 375.397 727.718 375.399C727.71 375.403 727.702 375.407 727.694 375.41C727.679 375.417 727.667 375.423 727.657 375.428C727.636 375.437 727.625 375.442 727.623 375.443C727.618 375.445 727.649 375.432 727.714 375.409C727.844 375.363 728.107 375.281 728.491 375.204C729.253 375.051 730.507 374.917 732.174 375.155C735.42 375.619 740.817 377.586 747.495 384.82L754.711 378.159ZM725.594 370.972C727.924 375.294 727.925 375.294 727.927 375.293C727.927 375.293 727.929 375.292 727.93 375.291C727.932 375.29 727.935 375.288 727.938 375.287C727.945 375.283 727.953 375.278 727.963 375.273C727.984 375.262 728.011 375.247 728.045 375.228C728.113 375.191 728.209 375.138 728.329 375.07C728.571 374.934 728.913 374.739 729.34 374.488C730.193 373.987 731.387 373.261 732.786 372.342C735.566 370.517 739.245 367.876 742.678 364.678C746.057 361.53 749.506 357.562 751.443 353.028C753.461 348.304 753.875 342.795 750.748 337.396L742.249 342.318C743.501 344.48 743.492 346.642 742.412 349.169C741.25 351.887 738.925 354.752 735.984 357.492C733.095 360.183 729.906 362.485 727.397 364.132C726.153 364.949 725.098 365.59 724.363 366.022C723.995 366.238 723.709 366.401 723.52 366.507C723.426 366.56 723.356 366.599 723.312 366.623C723.291 366.635 723.275 366.643 723.267 366.648C723.263 366.65 723.261 366.651 723.26 366.651C723.26 366.652 723.26 366.652 723.261 366.651C723.261 366.651 723.262 366.651 723.262 366.651C723.263 366.65 723.264 366.65 725.594 370.972ZM750.746 337.392C743.678 325.213 732.557 317.596 721.027 318.407C709.142 319.242 699.463 328.767 694.958 345.251L704.431 347.84C708.31 333.646 715.54 328.638 721.715 328.203C728.244 327.744 736.333 332.122 742.251 342.321L750.746 337.392ZM699.694 346.546C704.575 346.002 704.574 346 704.574 345.998C704.574 345.997 704.574 345.995 704.574 345.993C704.573 345.989 704.573 345.985 704.572 345.98C704.571 345.97 704.569 345.958 704.568 345.943C704.564 345.914 704.56 345.876 704.554 345.829C704.542 345.734 704.525 345.605 704.503 345.443C704.458 345.118 704.389 344.663 704.293 344.102C704.1 342.982 703.792 341.424 703.323 339.628C702.402 336.104 700.786 331.358 697.995 327.225C695.182 323.058 690.849 319.07 684.508 318.197C678.263 317.337 671.278 319.675 663.492 325.377L669.295 333.3C676.019 328.376 680.451 327.552 683.169 327.926C685.792 328.287 687.971 329.929 689.856 332.72C691.763 335.545 693.031 339.086 693.821 342.109C694.206 343.587 694.459 344.867 694.614 345.767C694.691 346.216 694.744 346.567 694.775 346.795C694.791 346.91 694.802 346.993 694.808 347.043C694.812 347.068 694.813 347.085 694.814 347.093C694.815 347.097 694.815 347.098 694.815 347.098C694.815 347.097 694.815 347.097 694.815 347.095C694.815 347.094 694.814 347.093 694.814 347.093C694.814 347.091 694.814 347.089 699.694 346.546ZM664.089 325.003C658.73 327.851 655.354 331.843 653.912 336.537C652.508 341.108 653.12 345.744 654.541 349.704C655.964 353.671 658.302 357.277 660.853 360.06C663.29 362.718 666.432 365.175 669.716 366.021L672.165 356.51C671.549 356.352 669.98 355.482 668.092 353.423C666.317 351.487 664.717 348.986 663.785 346.388C662.851 343.784 662.693 341.398 663.3 339.421C663.869 337.568 665.285 335.489 668.699 333.675L664.089 325.003Z" fill="black"/>
<path d="M708.277 376.294C709.14 382.815 704.928 388.866 698.885 389.839C692.821 390.787 687.209 386.299 686.346 379.779C685.461 373.258 689.673 367.207 695.738 366.234C701.781 365.261 707.392 369.773 708.277 376.294Z" fill="#512D0D"/>
</svg>
