<svg width="1080" height="1080" viewBox="0 0 1080 1080" fill="none" xmlns="http://www.w3.org/2000/svg">
<path d="M610.649 258.694C595.715 245.542 562.674 215.147 540.273 215.001C518.806 214.854 486.884 243.643 472.324 256.064C464.297 263.078 453.096 275.646 441.709 289.674L546.501 317.332L619.05 267.17C616.063 263.809 613.076 260.886 610.649 258.694Z" fill="#474134" stroke="black" stroke-width="11"/>
<path d="M539.787 385.092L549.863 317.333L459.177 269.624C389.197 338.767 392.207 355.837 392.207 355.837C385.847 363.668 528.378 384.058 539.787 385.092Z" fill="#635A48" stroke="black" stroke-width="11" stroke-linejoin="round"/>
<path d="M539.114 385.781C550.613 384.459 692.242 361.728 686.121 353.941C686.121 353.941 696.125 342.221 619.352 267.547L459.176 373.336L539.114 385.781Z" fill="#5C5343" stroke="black" stroke-width="11" stroke-linejoin="round"/>
</svg>
