<svg width="1080" height="1080" viewBox="0 0 1080 1080" fill="none" xmlns="http://www.w3.org/2000/svg">
<path d="M718.269 431.716C714.962 393.299 714.962 361.879 669.486 358.572H514.868H399.111C387.586 358.572 376.966 367.667 372.653 374.282C368.339 380.897 365.211 407.355 365.211 407.355C360.25 480.944 357.77 509.883 351.271 589.586C347.185 639.696 347.847 650.445 343.713 668.642C294.295 662.388 252.917 654.121 212.354 636.487C270.976 641.266 292.433 625.269 326.337 589.586C272.064 560.114 243.02 540.288 194.545 496.991C243.324 495.32 269.422 488.81 312.98 463.87C272.362 401.929 251.658 366.337 180 317.363C250.855 335.986 282.245 319.1 365.211 317.363C339.708 245.423 315.91 198.17 326.337 125.405C397.988 170.764 455.43 206.087 497.608 257.502C519.086 216.866 548.816 208.023 627.916 100.6C629.543 176.644 645.555 223.56 661.218 297.386C726.107 285.661 753.766 295.624 833.916 265.868C799.096 330.375 783.444 366.647 769.208 431.716C831.363 422.209 858.11 436.753 901 474.507C844.421 476.252 814.425 481.365 775.441 525.277L863.896 589.586C824.692 619.133 803.481 631.032 769.208 630.685C775.441 668.642 785.243 668.642 800.126 685.999C773.858 678.882 763.745 688.387 737.287 668.642C729.845 604.969 720.252 454.745 718.269 431.716Z" fill="#A8E4FF" stroke="black" stroke-width="11.5757" stroke-linecap="round" stroke-linejoin="round"/>
</svg>
