<svg width="1080" height="1080" viewBox="0 0 1080 1080" fill="none" xmlns="http://www.w3.org/2000/svg">
<path d="M541.943 246.359C591.977 246.359 637 258.598 669.337 278.094C701.777 297.652 720.641 323.925 720.641 351.928C720.641 365.85 716.06 374.624 708.291 380.55C700.159 386.753 687.878 390.349 671.522 392.133C655.266 393.906 635.761 393.822 613.734 393.271C591.827 392.723 567.453 391.714 541.943 391.714C516.461 391.714 492.108 392.728 470.216 393.283C448.205 393.841 428.711 393.932 412.462 392.164C396.114 390.385 383.838 386.793 375.709 380.588C367.942 374.659 363.359 365.875 363.359 351.928C363.359 323.925 382.223 297.651 414.649 278.093C446.972 258.597 491.967 246.359 541.943 246.359Z" fill="#DFCA59" stroke="black" stroke-width="10.7178"/>
<path d="M542.169 305.359C545.808 305.359 551.265 306.598 558.642 308.991C565.889 311.342 574.398 314.6 583.987 318.265C603.033 325.543 626.023 334.307 649.81 339.725C674.075 345.252 698.93 347.399 717.65 348.175C727.027 348.563 734.902 348.609 740.441 348.557C743.212 348.531 745.401 348.481 746.903 348.437C747.654 348.414 748.234 348.394 748.63 348.379C748.669 348.377 748.707 348.375 748.743 348.374C748.937 348.49 749.571 348.905 750.636 350.228C752.228 352.205 754.026 355.281 755.945 359.349C759.758 367.43 763.57 378.385 766.981 389.564C770.378 400.695 773.317 411.849 775.41 420.235C776.456 424.424 777.288 427.914 777.858 430.353C777.934 430.674 778.001 430.978 778.067 431.262C777.742 431.428 777.348 431.616 776.871 431.819C772.632 433.623 763.288 436.184 743.475 438.168C699.7 442.55 621.754 446.12 542.169 446.12C462.688 446.12 389.454 440.654 341.039 434.188L340.918 434.172L340.796 434.161H340.791C340.787 434.161 340.782 434.16 340.774 434.159C340.759 434.158 340.735 434.156 340.704 434.153C340.642 434.148 340.547 434.139 340.424 434.128C340.177 434.106 339.811 434.072 339.343 434.028C338.405 433.941 337.056 433.812 335.419 433.646C332.142 433.313 327.724 432.833 323.142 432.247C318.544 431.659 313.854 430.973 310.007 430.23C308.079 429.859 306.439 429.487 305.163 429.127C305.053 429.096 304.947 429.064 304.846 429.034C304.847 428.822 304.851 428.588 304.86 428.329C304.948 425.993 305.37 422.608 306.124 418.408C307.623 410.061 310.319 399.138 313.695 388.278C317.081 377.389 321.076 366.806 325.115 359.044C327.147 355.139 329.065 352.194 330.763 350.303C332.178 348.726 332.946 348.421 333.075 348.367C333.16 348.371 333.261 348.376 333.377 348.381C333.79 348.398 334.395 348.422 335.18 348.448C336.748 348.5 339.033 348.562 341.927 348.6C347.712 348.676 355.938 348.66 365.735 348.291C385.299 347.554 411.278 345.408 436.669 339.729C460.167 334.475 482.776 325.699 501.441 318.374C510.844 314.684 519.157 311.398 526.229 309.021C533.439 306.599 538.704 305.359 542.169 305.359Z" fill="#FDE87B" stroke="black" stroke-width="10.7178"/>
<path d="M542.146 136.105C561.426 136.106 572.808 142.894 579.354 149.287C582.681 152.536 584.847 155.77 586.16 158.151C586.633 159.009 586.99 159.75 587.25 160.331L555.972 259.819C555.875 259.892 555.775 259.969 555.668 260.048C554.674 260.779 553.275 261.751 551.661 262.715C548.187 264.79 544.654 266.25 542.146 266.25C539.637 266.25 536.104 264.79 532.629 262.715C531.015 261.751 529.617 260.779 528.623 260.048C528.516 259.969 528.415 259.892 528.318 259.819L497.056 160.382C497.326 159.788 497.695 159.036 498.178 158.168C499.507 155.777 501.681 152.538 505.01 149.287C511.56 142.89 522.919 136.105 542.146 136.105ZM496.469 161.808C496.468 161.809 496.467 161.811 496.467 161.812C496.466 161.816 496.465 161.819 496.464 161.821C496.462 161.826 496.461 161.829 496.461 161.831C496.462 161.829 496.462 161.825 496.464 161.82C496.465 161.817 496.466 161.812 496.468 161.807L496.469 161.808Z" fill="#8C272F" stroke="black" stroke-width="10.7178"/>
</svg>
