<svg width="1080" height="1080" viewBox="0 0 1080 1080" fill="none" xmlns="http://www.w3.org/2000/svg">
<g clip-path="url(#clip0_4352_1891)">
<path d="M604.528 298.698C629.375 297.053 657.131 299.159 679.633 286.588C700.779 274.808 675.634 256.939 664.169 250.819C638.859 237.327 606.51 234.332 578.358 231.535C547.464 228.442 516.371 228.113 485.444 230.877C464.528 232.786 442.886 235.747 422.928 242.592C408.753 247.462 375.579 262.007 401.781 276.618C415.428 284.252 430.693 288.629 445.926 291.722C450.882 292.742 455.904 293.762 460.894 294.618C508.21 302.778 556.782 301.857 604.528 298.698ZM478.274 282.08C457.556 280.501 436.542 278.329 417.014 272.076C409.877 269.773 394.843 261.875 408.225 255.459C412.85 253.254 417.575 251.345 422.4 249.733C439.317 244.928 457.028 242.197 474.871 240.585C484.354 239.894 493.903 239.499 503.386 239.104C540.36 237.491 578.986 238.906 615.167 245.718C628.351 248.186 641.634 250.687 654.686 253.649C668.266 256.709 685.977 269.608 664.929 276.519C634.96 286.391 602.017 283.824 570.594 284.153C541.847 284.449 513.1 284.614 484.42 282.541C482.404 282.376 480.356 282.212 478.274 282.08Z" fill="#ECAA0F"/>
</g>
<defs>
<clipPath id="clip0_4352_1891">
<rect width="295.826" height="72" fill="white" transform="translate(392 229)"/>
</clipPath>
</defs>
</svg>
