<svg width="1080" height="1080" viewBox="0 0 1080 1080" fill="none" xmlns="http://www.w3.org/2000/svg">
<path d="M594.761 224.104C612.355 220.26 628.53 217.587 644.693 221.689H644.694C663.698 226.51 673.061 240.099 680.491 254.1V254.101C704.917 300.135 722.491 347.637 732.958 395.746C732.846 395.796 732.729 395.85 732.605 395.904L732.604 395.905C683.01 417.696 619.17 421.108 557.607 420.248H557.605C551.823 420.169 546.021 420.054 540.23 419.861L540.015 419.854L539.798 419.86C533.996 420.045 528.188 420.169 522.413 420.248H522.412C460.834 421.099 397.009 417.696 347.414 395.905L347.404 395.901L347.034 395.735C357.501 347.63 375.076 300.123 399.499 254.101C406.93 240.099 416.293 226.51 435.297 221.689H435.298C451.461 217.587 467.631 220.263 485.225 224.107C502.232 227.824 520.892 232.747 539.996 231.477C559.092 232.743 577.753 227.819 594.761 224.104Z" fill="#383838" stroke="black" stroke-width="13.2665"/>
<path d="M561.481 438.662C648.068 436.02 739.313 422.734 781.063 396.195C794.987 387.337 808.673 373.354 804.103 358.744C800.464 347.094 785.922 340.266 772.262 340.012C758.602 339.758 745.017 343.601 732.943 349.245C639.573 392.932 487.331 392.932 348.07 349.245C335.178 345.208 322.411 339.758 308.738 340.012C295.078 340.266 280.536 347.094 276.897 358.744C272.327 373.367 286.013 387.349 299.937 396.195C341.687 422.734 458.647 441.8 561.481 438.662Z" fill="#1C1C1C" stroke="black" stroke-width="11"/>
<path d="M366.546 337.39C392.81 345.402 419.257 350.222 449.971 352.099H449.972C472.313 353.462 494.716 353.616 516.975 353.485L526.505 353.415C589.688 352.861 655.058 351.367 716.027 339.445C718.635 349.259 720.963 359.107 723.003 368.977C722.917 369.017 722.827 369.061 722.733 369.104H722.732C675.971 390.718 623.74 391.952 566.311 395.858C560.035 395.782 546.777 396.059 541.232 395.864L541.005 395.856L540.778 395.864C535.329 396.047 529.874 396.168 524.449 396.247C465.632 395.857 406.092 390.747 359.268 369.104L359.258 369.101L358.997 368.979C361.186 358.419 363.708 347.888 366.546 337.39Z" fill="#5B5B5B" stroke="black" stroke-width="13.2665"/>
</svg>
