<svg width="1080" height="1080" viewBox="0 0 1080 1080" fill="none" xmlns="http://www.w3.org/2000/svg">
<path d="M539.974 320C330.382 320 312 476 312 476H314.978C343.423 407.476 401.033 360.202 539.974 360.202C678.915 360.202 733.475 406.637 761.92 475.161L768 476C768 476 749.618 320 539.974 320Z" fill="black"/>
<path d="M538.977 266C277.492 266 299.454 471 299.454 471H309.848C339.749 391.402 393.007 320 538.977 320C684.946 320 744.545 395.056 766.128 471H778.549C778.549 471 800.461 266 538.977 266Z" fill="white" stroke="black" stroke-width="9.6695"/>
<path d="M778.832 468.347C778.099 462.432 765.033 462.995 764.811 469.393C764.72 472.007 768.943 508.071 768.943 508.071L783.811 506.46C783.811 506.46 779.565 474.266 778.832 468.347Z" fill="white" stroke="black" stroke-width="9.6695"/>
<path d="M298.79 470.179C299.123 466.198 313.153 464.452 313.663 470.836C313.872 473.444 311.8 508.393 311.8 508.393L296.927 507.736C296.927 507.736 298.294 476.123 298.79 470.179Z" fill="white" stroke="black" stroke-width="9.6695"/>
<path d="M767.396 612.165C767.648 614.926 765.835 617.615 762.617 619.317C753.559 624.069 750.147 624.276 740.327 620.664C736.835 619.367 734.554 616.926 734.302 614.165C730.796 575.735 727.287 537.267 723.782 498.837C723.53 496.076 725.343 493.387 728.561 491.685C737.619 486.933 741.031 486.726 750.851 490.338C754.343 491.635 756.624 494.076 756.876 496.838C760.382 535.267 763.887 573.696 767.396 612.165Z" fill="#020202" stroke="black" stroke-width="9.6695"/>
<path d="M312.801 612.688C312.548 615.45 314.371 618.138 317.608 619.84C326.717 624.593 330.148 624.799 340.025 621.187C343.537 619.891 345.831 617.45 346.084 614.688C349.61 576.259 353.139 537.79 356.664 499.361C356.918 496.599 355.094 493.911 351.858 492.209C342.748 487.456 339.317 487.25 329.44 490.862C325.929 492.158 323.635 494.599 323.381 497.361C319.856 535.79 316.33 574.219 312.801 612.688Z" fill="#020202" stroke="black" stroke-width="9.6695"/>
<path d="M799.332 587.331C800.253 597.431 790.904 606.228 778.448 606.98L766.276 607.716L756.357 498.984L768.529 498.249C780.986 497.496 791.828 505.072 792.75 515.173L799.332 587.331Z" fill="white" stroke="black" stroke-width="9.6695"/>
<path d="M280.677 587.854C279.75 597.955 289.153 606.751 301.68 607.504L313.921 608.239L323.896 499.508L311.655 498.772C299.128 498.02 288.223 505.596 287.297 515.696L280.677 587.854Z" fill="white" stroke="black" stroke-width="9.6695"/>
</svg>
