<svg width="1080" height="1080" viewBox="0 0 1080 1080" fill="none" xmlns="http://www.w3.org/2000/svg">
<path d="M538.851 256.144C664.025 256.144 721.002 295.972 747.406 342.153C774.201 389.019 770.704 443.982 770.685 478.077C767.632 511.398 764.976 552.418 763.082 585.103C762.132 601.499 761.373 615.814 760.852 626.031C760.591 631.14 760.389 635.225 760.253 638.033C760.228 638.546 760.205 639.016 760.185 639.441C759.855 639.598 759.466 639.759 759.016 639.906C756.783 640.637 752.458 641.254 745.37 638.854C737.936 636.337 732.519 632.92 729.003 630.187C727.461 628.988 726.291 627.92 725.479 627.125C725.478 626.486 725.478 625.727 725.477 624.857C725.472 621.847 725.463 617.508 725.446 612.196C725.412 601.573 725.344 587.052 725.208 571.463C724.937 540.367 724.394 504.772 723.293 487.527C722.86 480.747 721.592 474.785 719.015 469.595C716.395 464.321 712.589 460.179 707.603 456.834C698.04 450.42 683.848 446.824 664.943 443.079C645.292 439.186 613.597 437.288 587.194 436.344C573.912 435.869 561.834 435.631 553.077 435.513C548.698 435.453 545.146 435.424 542.688 435.409C541.458 435.402 540.501 435.397 539.851 435.396C539.526 435.395 539.277 435.395 539.109 435.395H538.852L538.851 441.538L538.849 435.395H538.592C538.424 435.395 538.175 435.395 537.85 435.396C537.199 435.397 536.243 435.402 535.014 435.409C532.555 435.424 529.003 435.453 524.624 435.513C515.867 435.631 503.789 435.869 490.507 436.344C464.104 437.288 432.408 439.186 412.757 443.079C393.835 446.828 380.793 450.538 372.393 457.279C363.338 464.546 360.544 474.497 359.381 487.366C358.272 499.635 356.984 535.278 355.976 567.575C355.469 583.785 355.03 599.24 354.719 610.642C354.563 616.343 354.439 621.031 354.354 624.295C354.327 625.297 354.305 626.165 354.286 626.887C353.367 627.714 352.05 628.827 350.342 630.077C346.524 632.87 340.81 636.322 333.331 638.854L333.328 638.855C326.28 641.246 321.657 640.673 319.07 639.878C318.509 639.706 318.023 639.514 317.608 639.327C317.603 638.984 317.597 638.616 317.59 638.223C317.54 635.411 317.464 631.323 317.352 626.21C317.127 615.985 316.764 601.659 316.21 585.25C315.105 552.55 313.234 511.465 310.169 478.066C310.158 445.098 308.502 389.972 335.849 342.846C362.853 296.31 419.16 256.144 538.851 256.144Z" fill="#626B3F" stroke="black" stroke-width="12.2875"/>
<path d="M539.099 256.144C551.132 256.144 559.928 256.528 570.232 257.226C570.464 258.583 570.739 260.206 571.049 262.057C572.049 268.034 573.416 276.39 574.879 285.902C577.812 304.967 581.11 328.531 582.651 346.895C584.193 365.258 585.298 388.88 586.018 407.973C586.377 417.506 586.639 425.885 586.812 431.881C586.845 433.03 586.871 434.091 586.897 435.056C577.098 434.872 566.451 434.769 557.709 434.714C552.35 434.68 547.699 434.663 544.388 434.654C542.732 434.65 541.411 434.648 540.503 434.646C540.049 434.646 539.698 434.646 539.461 434.646H539.1C539.099 434.646 539.099 434.646 539.099 440.789C539.099 434.698 539.099 434.646 539.099 434.646H538.736C538.499 434.646 538.148 434.646 537.694 434.646C536.787 434.648 535.465 434.65 533.81 434.654C530.498 434.663 525.847 434.68 520.488 434.714C511.764 434.769 501.141 434.871 491.357 435.055C491.392 434.108 491.429 433.068 491.472 431.945C491.699 425.954 492.04 417.58 492.487 408.051C493.384 388.966 494.709 365.344 496.428 346.952C498.146 328.559 501.234 304.938 503.903 285.854C505.236 276.324 506.461 267.951 507.353 261.96C507.622 260.151 507.863 258.559 508.065 257.219C518.327 256.526 527.105 256.144 539.099 256.144Z" fill="#92BB68" stroke="black" stroke-width="12.2875"/>
</svg>
