<svg width="1080" height="1080" viewBox="0 0 1080 1080" fill="none" xmlns="http://www.w3.org/2000/svg">
<path d="M710.006 418.964L668.921 369.609C810.273 430.672 779.086 461.28 779.086 676.176L745.219 782.008L536.403 826.263V814.867L534.797 826.263L426.499 786.892L342.169 750.262L296.199 676.176C309.25 513.376 273.194 363.249 481.112 360.344C455.412 367.131 407.419 386.866 392.642 390.773C377.864 394.681 377.382 407.053 372.949 433.101L344.84 723.699C345.391 718.001 349.237 730.889 351.807 734.796C355.02 739.68 391.496 756.987 426.499 774.682C462.515 792.889 522.214 815.138 536.403 814.867L623.945 779.051L738.116 729.912L710.006 418.964Z" fill="#003539"/>
<path d="M519.674 360.344H481.112M481.112 360.344C273.194 363.249 309.25 513.376 296.199 676.176L342.169 750.262L426.499 786.892L534.797 826.263L536.403 814.867M481.112 360.344C455.412 367.131 407.419 386.866 392.642 390.773C377.864 394.681 377.382 407.053 372.949 433.101L344.84 723.699C345.391 718.001 349.237 730.889 351.807 734.796C355.02 739.68 391.496 756.987 426.499 774.682C462.515 792.889 522.214 815.138 536.403 814.867M536.403 814.867L623.945 779.051L738.116 729.912L710.006 418.964L668.921 369.609C810.273 430.672 779.086 461.28 779.086 676.176L745.219 782.008L536.403 826.263V814.867Z" stroke="black" stroke-width="9.87609"/>
<path d="M542.962 241.515C607.871 240.19 657.145 237.052 721.252 296.867C785.359 356.682 831.784 636.96 828.87 677.819C825.096 730.729 801.563 777.056 759.8 791.779C730.244 802.198 550.56 845.513 541.346 830.851C530.093 812.943 701.552 751.937 728.476 729.915C774.255 692.471 754.187 583.385 747.762 532.917C742.521 491.752 713.227 398.607 657.811 377.443C624.2 364.607 465.058 357.093 411.248 389.653C357.177 422.37 325.876 502.225 320.484 572.813C310.846 698.983 349.384 728.886 369.474 743.753C403.205 768.716 533.314 814.571 533.314 826.781C533.314 847.982 429.452 826.499 388.76 822.701C278.248 808.374 250.756 722.589 253.021 689.215C253.021 532.917 300.549 362.38 364.656 302.565C428.706 242.75 471.837 242.968 542.962 241.515Z" fill="#006B73" stroke="black" stroke-width="11.5221"/>
<path d="M456.838 819.42C456.642 819.344 456.449 819.234 456.267 819.094C455.225 818.261 455.055 816.612 455.899 815.415C456.101 815.127 460.923 808.315 467.373 808.049C471.195 807.892 474.628 809.992 477.564 814.284C478.34 815.414 478.084 817.08 476.985 818.005C475.896 818.933 474.389 818.757 473.612 817.627C471.604 814.684 469.457 813.236 467.224 813.327C463.224 813.495 459.706 818.385 459.67 818.428C458.981 819.432 457.817 819.803 456.838 819.42Z" fill="#F0F0F0" stroke="white" stroke-width="8.23007"/>
<path d="M615.897 814.841C614.947 815.268 613.767 814.955 613.025 814C612.982 813.949 609.237 809.226 605.207 809.268C602.986 809.294 600.911 810.847 599.052 813.872C598.331 815.039 596.839 815.276 595.702 814.417C594.569 813.544 594.232 811.892 594.944 810.729C597.669 806.297 600.988 804.033 604.821 803.997C611.276 803.942 616.422 810.507 616.637 810.784C617.529 811.941 617.449 813.594 616.447 814.477C616.277 814.635 616.089 814.755 615.897 814.841Z" fill="#F0F0F0" stroke="white" stroke-width="8.23007"/>
</svg>
