<svg width="1080" height="1080" viewBox="0 0 1080 1080" fill="none" xmlns="http://www.w3.org/2000/svg">
<path d="M597 213.26C597 179.314 568.039 152.421 533.373 156.389C507.044 159.475 485.981 180.637 483.348 207.088C481.154 227.368 489.492 245.443 503.534 256.906C509.677 262.196 513.626 269.691 513.626 278.067V279.39H566.283V278.949C566.283 271.013 569.794 263.078 575.937 257.787C588.663 247.207 597 231.336 597 213.26Z" fill="#FBC02D" stroke="black" stroke-width="8.76923"/>
<path d="M568.758 205.161L555.547 196.324C554.226 195.44 552.024 195.44 550.703 196.324L539.693 203.393L529.124 196.324C527.803 195.44 525.601 195.44 524.28 196.324L511.069 205.161C510.188 206.044 509.308 206.928 509.308 208.254C509.308 209.579 509.308 210.905 510.188 211.788L526.923 232.555V279.39H535.73V230.787C535.73 229.904 535.29 229.02 534.849 228.136L520.317 210.021L526.923 205.603L537.491 212.672C538.813 213.556 541.014 213.556 542.336 212.672L552.905 205.603L559.51 210.021L544.978 228.136C544.537 229.02 544.097 229.904 544.097 230.787V279.39H552.905V232.555L569.639 211.788C570.519 210.905 570.96 209.579 570.519 208.254C570.079 206.928 569.639 205.603 568.758 205.161Z" fill="#FFF59D"/>
<path d="M548.769 314.644H531.231C521.585 314.644 513.692 306.712 513.692 297.017V274.983H566.308V297.017C566.308 306.712 558.415 314.644 548.769 314.644Z" fill="#9FA8DA" stroke="black" stroke-width="8.76923"/>
</svg>
