<svg width="1080" height="1080" viewBox="0 0 1080 1080" fill="none" xmlns="http://www.w3.org/2000/svg">
<path d="M377.17 245.895C415.405 281.478 451.059 325.448 461.281 347.948C512.448 455.948 383.889 431.174 365.759 417.444C270.258 345.123 327.055 257.614 320.922 223.864C314.789 190.114 298.121 190.789 293.935 206.52C289.018 225.002 270.112 207.449 276.412 196.877C329.287 146.373 350.201 220.796 377.17 245.895Z" fill="#AD2525" stroke="#0D0D0D" stroke-width="9.02165" stroke-linejoin="round"/>
<mask id="mask0_4477_403" style="mask-type:alpha" maskUnits="userSpaceOnUse" x="265" y="176" width="206" height="258">
<path d="M374.46 241.51C418.491 269.815 446.872 328.394 457.399 351.434C510.091 462.023 394.736 429 356 429C263.5 378 324.316 262.059 318 227.5C311.684 192.941 289.374 190.507 285.064 206.615C280 225.54 260.53 207.567 267.018 196.741C298.984 143.404 319.421 206.128 374.46 241.51Z" fill="#292929"/>
</mask>
<g mask="url(#mask0_4477_403)">
<path d="M338 269.5C335.064 248.056 325.5 200.5 312 196C333.75 254.311 252.164 308.5 325.5 401.5C387.202 479.748 550.555 422.06 461.278 396.371C372 370.683 341.669 296.305 338 269.5Z" fill="#050505"/>
</g>
<ellipse cx="277.688" cy="225.409" rx="27.0379" ry="26.2083" fill="#FFCC5A" stroke="#0D0D0D" stroke-width="9.02165" stroke-linejoin="round"/>
<path d="M613.401 120.286C570.06 126.87 538.528 189.252 479.952 242.345C458.319 261.954 443.761 285.096 434.828 306.826C434.828 342.77 436.006 349.72 479.952 398.678C523.899 447.637 638.677 410.18 650.392 378.324L650.602 377.752C665.209 338.039 683.003 289.661 613.401 242.345C554.825 202.525 584.244 133.055 628.045 136.159C663.904 138.7 658.885 160.183 657.332 175.979C655.484 194.785 674.78 171.922 674.78 158.648C674.78 145.375 663.904 112.614 613.401 120.286Z" fill="#AD2525" stroke="#0D0D0D" stroke-width="9.02165" stroke-linejoin="round"/>
<mask id="mask1_4477_403" style="mask-type:alpha" maskUnits="userSpaceOnUse" x="438" y="125" width="240" height="298">
<path d="M614.392 125.389C571.203 125.389 540.784 193.19 483.198 245.386C461.93 264.664 447.618 287.415 438.836 308.777C438.836 344.114 439.994 350.947 483.198 399.078C526.402 447.209 639.241 410.385 650.758 379.068L650.965 378.506C665.325 339.464 682.818 291.902 614.392 245.386C556.806 206.239 585.599 140.993 628.789 140.993C671.978 140.993 658.183 163.645 653.031 179.366C647.205 197.145 677.291 174.769 677.291 161.72C677.291 148.671 671.978 125.389 614.392 125.389Z" fill="#292929"/>
</mask>
<g mask="url(#mask1_4477_403)">
<path d="M545.746 301.993C527.78 245.345 542.5 185.002 567.5 151.001C551.3 138.465 504.741 198.919 450.067 265.778C344.475 394.903 527.521 420.389 545.746 417.603C563.97 414.817 559.414 345.09 545.746 301.993Z" fill="#070707"/>
</g>
<ellipse cx="658.599" cy="192.43" rx="26.5447" ry="24.8086" fill="#64B8E8" stroke="#0D0D0D" stroke-width="9.02165" stroke-linejoin="round"/>
<path d="M730.939 258.258C654.282 286.691 659.881 325.452 649.659 347.952C601.115 454.807 668.858 431.034 719.997 409.339C771.136 387.644 774.34 350.277 803.65 317.708C832.96 285.14 850.919 301.518 848.32 334.515C846.858 353.077 866.224 344.778 863.839 332.815C863.839 320.654 864.602 307.412 858.819 296.755C840.417 257.625 790.74 236.077 730.939 258.258Z" fill="#AD2525" stroke="#0D0D0D" stroke-width="9.02165" stroke-linejoin="round"/>
<mask id="mask2_4477_403" style="mask-type:alpha" maskUnits="userSpaceOnUse" x="636" y="252" width="225" height="169">
<path d="M731.822 261.574C658.482 288.776 663.839 325.86 654.059 347.387C605.105 450.714 672.11 420.321 721.037 399.565C769.963 378.809 773.346 349.611 801.387 318.452C829.429 287.292 846.612 302.962 844.125 334.531C842.726 352.29 862.539 344.24 860.258 332.795C858.598 321.267 856.824 303.112 851.292 292.916C831.663 256.741 789.036 240.352 731.822 261.574Z" fill="#343434"/>
</mask>
<g mask="url(#mask2_4477_403)">
<path d="M750.316 318.283C784.878 263.603 833.725 268.363 847.11 286.01C833.07 246.387 776.238 223.187 694.154 263.801C612.07 304.415 613.959 387.682 631.999 394.996C650.499 402.496 707.114 386.632 750.316 318.283Z" fill="black"/>
</g>
<path d="M832.134 350.555C832.134 362.818 841.958 373.851 854.318 373.851C866.678 373.851 874.252 366.774 877.467 353.799C880.682 340.824 870.544 329.619 858.184 329.619C845.824 329.619 832.134 338.293 832.134 350.555Z" fill="#FFCC5A" stroke="#0D0D0D" stroke-width="9.02165" stroke-linejoin="round"/>
<path d="M363.661 418.65C447.921 380.732 536.645 379.978 604.709 388.899C638.909 393.382 667.784 400.293 688.093 406.082C698.244 408.975 706.247 411.586 711.694 413.468C714.418 414.409 716.501 415.167 717.894 415.687C717.934 415.702 717.974 415.717 718.014 415.731C724.105 427.863 723.828 436.857 722.346 442.627C721.624 445.435 720.582 447.609 719.688 449.118C597.696 421.004 508.068 422.021 448.614 430.249C418.598 434.403 396.297 440.393 381.428 445.383C373.994 447.878 368.42 450.122 364.671 451.761C364.329 451.91 364.003 452.056 363.691 452.195C358.651 443.032 358.594 434.866 359.837 428.785C360.562 425.236 361.748 422.34 362.743 420.348C363.084 419.666 363.4 419.097 363.661 418.65Z" fill="#AD2525" stroke="black" stroke-width="11.3486"/>
</svg>
