<svg width="1080" height="1080" viewBox="0 0 1080 1080" fill="none" xmlns="http://www.w3.org/2000/svg">
<path d="M555.346 310.026C556.94 310.454 558.802 310.996 560.884 311.677C568.212 314.073 578.223 318.161 588.874 324.909V324.908C598.228 330.849 603.248 343.443 605.769 355.802C606.738 360.557 607.293 365.065 607.611 368.78C607.42 368.679 607.23 368.579 607.038 368.48C603.48 366.646 599.282 364.892 595.106 363.113C586.523 359.456 577.694 355.537 570.957 349.796C567.989 347.264 565.36 343.288 563.111 338.373C560.885 333.507 559.173 328.031 557.882 322.819C556.686 317.992 555.874 313.479 555.346 310.026Z" fill="#86C22F" stroke="black" stroke-width="9.35224"/>
<path d="M563.732 359.83C571.345 358.55 582.126 357.521 594.719 358.548V358.549L594.732 358.55C605.733 359.415 615.998 368.21 623.955 377.99C627.02 381.757 629.602 385.5 631.606 388.648C631.396 388.648 631.185 388.648 630.975 388.649C626.975 388.677 622.44 389.073 617.91 389.438C608.598 390.186 598.934 390.821 590.283 388.871C586.501 388.019 582.341 385.731 578.074 382.426C573.852 379.156 569.799 375.105 566.237 371.09C562.939 367.372 560.126 363.752 558.055 360.939C559.667 360.578 561.57 360.194 563.732 359.83Z" fill="#7DB728" stroke="black" stroke-width="9.35224"/>
<path d="M619.675 395.422C630.45 393.115 642.79 398.609 653.205 405.703C657.227 408.443 660.777 411.297 663.6 413.744C663.375 413.811 663.151 413.879 662.928 413.948C659.103 415.127 654.872 416.807 650.644 418.449C641.949 421.827 632.903 425.172 624.094 425.728L624.075 425.729L624.058 425.729C620.207 426.003 615.578 425.009 610.552 423.068C605.579 421.148 600.541 418.43 595.982 415.603C591.765 412.987 588.038 410.326 585.25 408.224C586.692 407.418 588.405 406.507 590.371 405.541C597.302 402.137 607.335 398.064 619.675 395.422Z" fill="#72AA1F" stroke="black" stroke-width="9.35224"/>
<path d="M632.051 368.629C633.704 368.722 635.644 368.873 637.829 369.115C645.505 369.966 656.157 371.927 667.979 376.365C678.315 380.245 685.781 391.542 690.76 403.139C692.672 407.592 694.129 411.89 695.195 415.463C695.005 415.408 694.814 415.354 694.623 415.301C690.769 414.227 686.3 413.366 681.844 412.479C672.688 410.655 663.216 408.632 655.397 404.388C651.992 402.511 648.618 399.155 645.422 394.802C642.256 390.49 639.467 385.477 637.142 380.638C634.988 376.155 633.272 371.901 632.051 368.629Z" fill="#70A81E" stroke="black" stroke-width="9.35224"/>
<path d="M711.686 419.857C713.495 419.254 714.959 419.533 716.303 420.234C717.777 421.004 719.088 422.295 720.096 423.572C720.58 424.186 720.95 424.74 721.191 425.128C721.311 425.321 721.398 425.468 721.448 425.558C721.473 425.602 721.489 425.633 721.496 425.646L721.521 425.694L721.557 425.757C722.349 427.173 723.128 428.467 723.825 429.621C724.537 430.8 725.142 431.799 725.664 432.744C726.721 434.655 727.184 435.904 727.297 436.965C727.481 438.69 726.89 441.682 720.212 448.376C714.901 453.668 706.531 454.623 698.378 453.732C694.467 453.305 690.916 452.482 688.321 451.757C688.593 451.061 688.926 450.265 689.332 449.366C691.423 444.745 695.463 437.436 703.187 427.204C706.812 422.401 709.713 420.516 711.686 419.857Z" fill="#649915" stroke="black" stroke-width="9.35224"/>
<path d="M706.17 382.898C710.84 382.867 713.293 384.061 714.64 385.256C716.023 386.484 716.844 388.251 717.214 390.459C717.587 392.687 717.44 395.047 717.155 396.951C717.016 397.881 716.852 398.652 716.726 399.178C716.663 399.439 716.611 399.638 716.577 399.761C716.56 399.822 716.547 399.865 716.541 399.887L716.536 399.904L716.028 401.553L716.729 403.146C717.379 404.628 718.017 406.083 718.426 407.53C718.848 409.025 718.852 409.946 718.725 410.434C718.676 410.621 718.598 411.006 717.572 411.462C716.308 412.024 713.825 412.549 709.314 412.336C701.188 411.953 695.134 407.897 690.971 403.683C688.973 401.661 687.468 399.653 686.447 398.122C686.562 397.993 686.679 397.86 686.802 397.724C688.375 395.975 690.557 393.659 693.009 391.355C695.48 389.035 698.123 386.825 700.622 385.219C703.26 383.524 705.123 382.907 706.17 382.898Z" fill="#609412" stroke="black" stroke-width="9.35224"/>
<path d="M665.28 420.967C674.858 414.953 686.415 415.185 696.156 417.272C699.576 418.005 702.676 418.951 705.251 419.861C704.896 420.25 704.553 420.644 704.224 421.037C701.814 423.915 699.454 427.578 697.174 430.942C692.375 438.021 687.322 444.671 679.853 448.026C676.316 449.587 671.622 450.23 666.238 450.126C660.901 450.023 655.232 449.196 649.979 448.104C645.11 447.093 640.69 445.872 637.349 444.854C638.427 443.595 639.726 442.142 641.245 440.549C646.576 434.96 654.592 427.679 665.28 420.967Z" fill="#6BA21B" stroke="black" stroke-width="9.35224"/>
<path d="M523.653 310.013C523.125 313.467 522.314 317.986 521.116 322.819C519.825 328.031 518.113 333.507 515.887 338.373C513.638 343.289 511.008 347.264 508.04 349.796C501.303 355.537 492.475 359.456 483.892 363.113C479.716 364.892 475.518 366.646 471.96 368.48C471.768 368.579 471.577 368.679 471.386 368.78C471.704 365.065 472.26 360.557 473.229 355.802C475.751 343.442 480.772 330.846 490.128 324.906C500.816 318.121 510.825 314.035 518.14 311.649C520.212 310.974 522.066 310.436 523.653 310.013Z" fill="#86C22F" stroke="black" stroke-width="9.35224"/>
<path d="M484.287 358.547C496.88 357.52 507.661 358.549 515.273 359.829C517.435 360.193 519.338 360.577 520.95 360.938C518.879 363.751 516.066 367.371 512.769 371.089C509.207 375.104 505.154 379.155 500.932 382.425C496.665 385.729 492.504 388.018 488.723 388.87C480.072 390.819 470.408 390.185 461.096 389.437C456.566 389.072 452.031 388.676 448.031 388.648C447.821 388.647 447.61 388.647 447.399 388.647C449.404 385.499 451.986 381.756 455.051 377.989C463.008 368.21 473.273 359.414 484.273 358.549L484.287 358.547Z" fill="#7DB728" stroke="black" stroke-width="9.35224"/>
<path d="M425.795 405.703C436.215 398.611 448.576 393.113 459.393 395.42V395.421C471.733 398.063 481.766 402.136 488.697 405.54C490.663 406.505 492.375 407.417 493.817 408.223C491.03 410.325 487.302 412.986 483.085 415.602C478.527 418.429 473.489 421.147 468.516 423.067C463.489 425.008 458.861 426.002 455.011 425.729L454.991 425.728L454.973 425.727L454.143 425.666C445.558 424.961 436.786 421.719 428.355 418.448C424.123 416.806 419.891 415.126 416.065 413.947C415.842 413.878 415.617 413.81 415.393 413.743C418.217 411.296 421.77 408.443 425.795 405.703Z" fill="#72AA1F" stroke="black" stroke-width="9.35224"/>
<path d="M446.871 368.628C445.65 371.9 443.935 376.154 441.781 380.637C439.456 385.476 436.666 390.489 433.501 394.801C430.303 399.157 426.927 402.515 423.519 404.391C419.891 406.368 414.947 407.841 409.139 408.985C403.37 410.122 397.076 410.875 390.873 411.566C384.855 412.237 378.825 412.857 373.788 413.723C375.786 410.574 378.208 406.959 380.969 403.222C389.31 391.929 400.069 380.446 410.944 376.364C422.767 371.927 433.418 369.965 441.094 369.114C443.278 368.872 445.218 368.721 446.871 368.628Z" fill="#70A81E" stroke="black" stroke-width="9.35224"/>
<path d="M362.724 420.234C364.076 419.53 365.543 419.253 367.347 419.855C369.312 420.512 372.203 422.394 375.809 427.194L375.814 427.203C383.538 437.435 387.578 444.744 389.669 449.365C390.075 450.264 390.407 451.06 390.679 451.756C388.084 452.481 384.535 453.304 380.624 453.731C372.598 454.608 364.361 453.696 359.04 448.62L358.789 448.375C352.111 441.681 351.52 438.689 351.704 436.964C351.817 435.903 352.28 434.655 353.337 432.743C353.859 431.798 354.464 430.799 355.176 429.62C355.873 428.466 356.652 427.173 357.444 425.756L357.476 425.699L357.495 425.663C357.496 425.662 357.497 425.66 357.499 425.656C357.506 425.643 357.522 425.613 357.548 425.568C357.599 425.479 357.686 425.33 357.807 425.138C358.05 424.749 358.422 424.195 358.909 423.58C359.923 422.301 361.242 421.006 362.724 420.234Z" fill="#649915" stroke="black" stroke-width="9.35224"/>
<path d="M382.846 417.271C392.587 415.184 404.145 414.951 413.723 420.966C424.411 427.678 432.426 434.959 437.757 440.548C439.276 442.141 440.574 443.594 441.652 444.854C438.311 445.871 433.891 447.092 429.023 448.104C423.77 449.195 418.101 450.022 412.764 450.125C407.379 450.229 402.685 449.587 399.148 448.025C391.68 444.67 386.627 438.02 381.828 430.941C379.548 427.578 377.189 423.914 374.779 421.036C374.45 420.642 374.106 420.25 373.75 419.86C376.325 418.95 379.425 418.005 382.846 417.271Z" fill="#6BA21B" stroke="black" stroke-width="9.35224"/>
</svg>
