<svg width="1080" height="1080" viewBox="0 0 1080 1080" fill="none" xmlns="http://www.w3.org/2000/svg">
<path d="M820 363.127C820 405.012 694.65 439 540 439C385.35 439 260 405.034 260 363.127C260 321.241 394.968 365.063 549.618 365.063C704.268 365.063 820 321.241 820 363.127Z" fill="#4F8F07" stroke="black" stroke-width="10.2429"/>
<path d="M717.383 352.912C722.055 347.789 724.616 349.697 724.396 349.253C695.101 259.842 739 157 739 157H341C341 157 374.721 232.695 358.392 347.489C352.162 350.417 364.355 353.671 371.756 355.992C386.109 360.493 437.681 387 536.574 387C635.51 387.028 708.586 362.556 717.383 352.912Z" fill="#4F8F07" stroke="black" stroke-width="10.2429"/>
<path d="M721.502 341C719.006 327.761 714.634 325.707 714.634 310.615C694.239 327.27 624.029 337.196 543.052 337.196C458.203 337.196 378.961 321.39 362.482 303.5C361.406 320.65 362.448 315 360.982 332C360.982 339 359.366 345.384 359.02 349.5C357.464 368.022 445.983 392.146 543.009 392.146C640.078 392.146 725.952 364 721.502 351L720.018 347C722.295 344.722 721.502 345.472 721.502 341Z" fill="black" stroke="black" stroke-width="10.2429"/>
<path d="M741 152C741 159.171 650.6 165 539.085 165C427.569 165 338 159.171 338 152C338 144.812 427.569 139 539.085 139C650.6 139 741 144.812 741 152Z" fill="#305803" stroke="black" stroke-width="10.2429"/>
<path d="M588.872 396.131L588.892 395.52L589.103 389.692L589.354 380.926L589.5 376.792L589.677 370.882C588.415 372.334 586.82 373.25 585.175 373.254C583.917 373.265 582.748 372.829 581.732 371.969C579.764 370.272 578.445 367.102 578.537 363.496C578.606 360.362 579.745 357.56 581.452 355.724C582.652 354.387 584.184 353.585 585.764 353.557C587.44 353.496 589.005 354.354 590.097 355.792L590.548 342.362L590.715 337.617L591.003 329.07C591.077 326.213 588.324 323.95 584.777 323.999C582.582 325.584 579.899 326.917 576.95 327.877C574.001 328.836 570.753 329.341 567.272 329.415C559.76 329.564 553.104 327.286 548.906 323.658C547.463 322.433 545.678 321.835 543.872 321.848C542.001 321.836 540.144 322.516 538.622 323.871C535.671 326.41 531.675 328.284 527.116 329.329C525.222 329.789 523.195 330.063 521.166 330.198C520.747 330.248 520.36 330.241 519.877 330.266C512.687 330.398 506.325 328.298 502.068 324.923C499.069 324.972 496.526 326.907 496.184 329.252C496.187 329.39 496.124 329.504 496.158 329.585L495.858 339.157L495.691 343.903L495.532 349.063L495.282 357.829C496.57 356.043 498.323 354.981 500.194 354.993C500.968 355.007 501.68 355.135 502.364 355.459C504.544 356.479 506.206 359.022 506.654 362.212C506.766 363.009 506.847 363.863 506.832 364.751C506.678 370.188 503.442 374.68 499.573 374.747C497.671 374.792 496.039 373.771 494.877 372.032L494.659 379.162L494.331 390.647L494.183 396.361C494.188 396.637 494.194 396.914 494.199 397.191C494.613 400.299 497.818 402.594 501.752 402.552L501.978 402.567L502.812 402.329C506.93 400.089 512.095 398.651 517.674 398.605C525.251 398.48 531.906 400.758 536.073 404.443C536.302 404.597 536.499 404.808 536.663 404.938C539.213 406.714 542.536 406.787 545.212 405.039C545.563 404.826 545.848 404.589 546.165 404.296C547.277 403.406 548.454 402.54 549.825 401.747C554.005 399.393 559.266 397.922 565.006 397.867C565.715 397.857 566.49 397.872 567.168 397.919C572.656 398.182 577.523 399.724 581.245 402.075C585.114 402.008 588.294 399.624 588.719 396.554C588.877 396.407 588.874 396.269 588.872 396.131ZM514.183 364.61C514.242 362.64 514.269 360.728 514.235 358.929C514.2 355.413 514.008 352.183 513.664 349.376C513.427 347.089 513.034 345.088 512.648 343.502C512.648 343.502 512.648 343.502 512.68 343.445C512.12 341.176 511.381 339.664 510.628 339.039L512.394 338.668L516.863 337.933C517.539 337.841 518.149 337.726 518.825 337.635C525.482 336.617 532.081 335.99 538.785 335.745C541.75 335.616 544.652 335.6 547.62 335.609C555.038 335.631 562.402 336.182 569.71 337.124L574.14 337.748L576.047 337.979C575.221 338.632 574.38 340.173 573.682 342.453C572.802 345.353 571.978 349.441 571.424 354.179C571.061 357.134 570.865 360.357 570.768 363.686C570.653 367.764 570.727 371.638 570.921 375.007C571.018 376.692 571.177 378.262 571.333 379.694C571.406 380.133 571.479 380.573 571.487 380.988C571.787 383.16 572.209 384.966 572.687 386.381C573.062 387.413 573.4 388.226 573.863 388.811C571.935 389.19 570.007 389.57 568.045 389.867C567.853 389.933 567.692 389.942 567.531 389.95C565.377 390.314 563.158 390.653 561.002 390.878C559.297 391.135 557.559 391.31 555.852 391.428C553.695 391.653 551.57 391.822 549.475 391.933C548.252 392.025 547.059 392.061 545.866 392.096C542.902 392.226 539.999 392.241 537.032 392.232C527.709 392.117 518.468 391.278 509.472 389.705C509.851 389.298 510.194 388.67 510.503 387.961C512.359 383.846 513.865 374.931 514.183 364.61Z" fill="#FFC31A"/>
</svg>
