<svg width="1080" height="1080" viewBox="0 0 1080 1080" fill="none" xmlns="http://www.w3.org/2000/svg">
<path d="M335.082 352H398.755C396.661 435.799 363.242 430.751 363.242 430.751C363.242 421.344 362.162 419.931 354.531 413.956L337.723 403.729C336.366 402.924 336.439 401.002 337.825 400.268L362.162 387.413L365.883 385.563C369.866 383.204 369.224 380.506 366.889 378.542C366.86 378.528 366.846 378.5 366.816 378.486C356.836 370.293 333.681 355.489 333.681 355.489C332.28 354.246 333.185 352 335.082 352Z" fill="#FFCC5A"/>
<path d="M415.5 352H335.082C333.185 352 332.28 354.246 333.681 355.489C333.681 355.489 356.836 370.293 366.816 378.486C366.846 378.5 366.86 378.528 366.889 378.542C369.224 380.506 369.866 383.204 365.883 385.563L362.162 387.413L337.825 400.268C336.439 401.002 336.366 402.924 337.723 403.729L354.531 413.956C362.162 419.931 363.242 421.344 363.242 430.751" stroke="black" stroke-width="11.63" stroke-miterlimit="10"/>
<path d="M720.61 447.762C674.858 424.977 609.45 400.159 541.353 400.159C478.037 400.159 401.706 414.307 362.628 449L314 362C314 362 422.956 259 536.24 259C658.39 259 765 362 765 362L720.61 447.762Z" fill="white" stroke="black" stroke-width="11.7344" stroke-miterlimit="10" stroke-linecap="round" stroke-linejoin="round"/>
<path d="M572.365 323.098H551.329V301.527H526.348V323.098H505.312V348.687H526.348V370.258H551.329V348.687H572.365V323.098Z" fill="#EC4032" stroke="black" stroke-width="8.38174" stroke-miterlimit="10" stroke-linecap="round" stroke-linejoin="round"/>
</svg>
