<svg width="1080" height="1080" viewBox="0 0 1080 1080" fill="none" xmlns="http://www.w3.org/2000/svg">
<path d="M423.116 259.273C447.436 253.184 486.502 248.229 546.619 249.584L546.619 249.585C589.715 250.716 624.845 254.548 649.781 259.537C662.272 262.036 672.025 264.79 678.883 267.558C682.317 268.943 684.86 270.267 686.611 271.46C688.165 272.519 688.753 273.247 688.932 273.518L736.006 401.606L731.121 401.633L731.118 401.633L646.697 402.133L646.696 402.133L574.78 402.573L574.781 402.573L348.519 403.895L386.176 281.738L389.741 273.757C389.825 273.643 390.224 273.109 391.304 272.222C392.553 271.197 394.452 269.916 397.166 268.483C402.59 265.62 410.952 262.318 423.116 259.273Z" fill="#EC4032" stroke="black" stroke-width="11.8679"/>
<rect x="308.549" y="317.639" width="82.3398" height="114.099" rx="2.94071" transform="rotate(-28.88 308.549 317.639)" fill="#FDFDFE" stroke="black" stroke-width="7.12252"/>
<path d="M330.809 331.968L330.16 328.189L334.841 325.607L337.685 328.175L339.605 327.116L328.681 317.51L326.592 318.662L328.889 333.026L330.809 331.968ZM329.847 326.377L328.793 320.287L328.887 320.235L333.475 324.375L329.847 326.377Z" fill="#F24822"/>
<path d="M377.353 365.099L400.516 373.769L405.539 349.552L382.376 340.883L377.353 365.099ZM397.25 367.848L382.426 362.301L385.642 346.804L400.466 352.351L397.25 367.848Z" fill="#F24822"/>
<path d="M397.25 367.848L382.426 362.301L385.642 346.804L400.466 352.351L397.25 367.848Z" fill="#F24822"/>
<path d="M334.358 343.599L343.623 347.067L345.633 337.38L336.368 333.912L334.358 343.599ZM342.317 344.698L336.388 342.479L337.674 336.28L343.604 338.499L342.317 344.698Z" fill="#F24822"/>
<path d="M342.317 344.698L336.388 342.479L337.674 336.28L343.604 338.499L342.317 344.698Z" fill="#F24822"/>
<path d="M331.865 475.075C311.523 467.445 287.779 453.882 292.02 450.491L360.684 436.928L358.145 481.009C355.38 480.732 344.542 479.83 331.865 475.075Z" fill="#731F1E" stroke="black" stroke-width="11.8679"/>
<path d="M751.477 474.225C771.819 466.596 796.409 453.032 793.021 450.489L720.963 436.078L724.354 480.159C727.119 479.882 738.799 478.98 751.477 474.225Z" fill="#731F1E" stroke="black" stroke-width="11.8679"/>
<path d="M517.581 358.955L517.942 347.683L573.832 348.214L572.174 361.563L517.581 358.955Z" fill="white"/>
<path d="M403.667 375.543C438.039 368.716 485.323 362.681 541.008 362.585C649.952 362.397 714.481 388.11 733.149 393.143C733.157 393.149 733.165 393.156 733.173 393.162C733.742 393.624 734.575 394.303 735.63 395.169C737.741 396.901 740.739 399.377 744.281 402.353C751.373 408.309 760.617 416.24 769.284 424.183C778.013 432.182 785.932 439.993 790.529 445.749C791.126 446.497 791.632 447.168 792.056 447.763C790.407 447.607 788.364 447.362 785.905 447.015C780.827 446.3 774.366 445.225 766.645 443.894C751.242 441.241 730.97 437.597 707.353 433.93C660.111 426.594 599.269 419.124 536.165 419.124C472.988 419.124 413.474 428.049 368.316 436.102C345.573 440.158 326.867 443.915 312.684 446.312C305.637 447.503 299.965 448.311 295.726 448.627C293.722 448.777 292.153 448.805 290.976 448.739C291.568 447.385 292.665 445.509 294.381 443.123C298.699 437.117 305.726 429.499 313.358 421.881C320.94 414.313 328.929 406.931 335.036 401.43C338.086 398.683 340.659 396.411 342.468 394.828C343.372 394.037 344.085 393.419 344.57 392.999C344.813 392.789 344.999 392.628 345.123 392.521C345.145 392.502 345.165 392.485 345.183 392.469C345.689 392.091 347.254 391.216 350.334 389.955C353.34 388.725 357.394 387.28 362.45 385.707C372.554 382.562 386.478 378.957 403.667 375.543Z" fill="#971B19" stroke="black" stroke-width="10.1725"/>
</svg>
