<svg width="1080" height="1080" viewBox="0 0 1080 1080" fill="none" xmlns="http://www.w3.org/2000/svg">
<path d="M533.772 92.9307C530.776 92.9307 437.906 352.968 437.906 352.968C433.114 365.551 490.521 387.121 540.363 387.121C582.904 387.121 646.415 364.352 646.415 352.968C646.415 352.968 536.768 92.9307 533.772 92.9307Z" fill="#FFF4F9" stroke="black" stroke-width="10.9419"/>
<path d="M598.232 295.144C588.291 295.56 580.337 306.532 584.048 316.025C586.116 321.322 590.707 325.126 596.458 325.526C597.607 325.602 598.767 325.497 599.889 325.237C601.547 325.425 603.277 325.278 605.051 324.658C609.724 323.003 613.222 318.721 614.094 313.859C615.796 304.42 608.001 294.732 598.232 295.144Z" fill="#6DDCFF"/>
<path d="M497.767 264.338C496.979 263.613 495.989 263.124 494.944 262.855C492.702 261.725 490.092 261.302 487.409 261.899C480.2 263.508 476.545 272.13 479.902 278.503C482.899 284.186 490.68 286.128 496.122 282.918C498.852 281.304 500.464 278.641 501.091 275.749C501.214 275.265 501.312 274.785 501.356 274.289C501.364 274.185 501.393 274.087 501.401 273.983C501.432 273.53 501.448 273.084 501.418 272.637C501.407 272.515 501.365 272.419 501.365 272.301C501.186 269.332 500.018 266.418 497.767 264.338Z" fill="#6DDCFF"/>
<path d="M543.975 319.948C549.818 309.271 544.209 295.162 531.813 292.777C520.778 290.672 510.47 300.187 511.404 310.995C511.143 311.354 510.887 311.695 510.696 312.075C507.924 317.706 510.113 322.861 514.878 326.303C524.183 332.985 538.433 330.07 543.975 319.948Z" fill="#F47DB6"/>
<path d="M526.292 267.538C535.691 273.464 549.229 272.059 557.038 264.061C568.214 252.616 556.492 237.858 543.811 235.213C532.486 232.856 515.94 238.611 516.858 252.664C517.184 257.689 519.41 261.495 522.657 264.256C523.646 265.523 524.876 266.634 526.292 267.538Z" fill="#F0D573"/>
<path d="M579.29 228.743C577.423 232.271 575.214 236.329 577.185 239.767C575.858 242.962 579.233 246.988 582.383 249.383C587.071 252.949 592.234 252.751 597.507 252.273L586.568 226.481C584.984 227.587 584.223 224.919 579.29 228.743Z" fill="#53C9BA"/>
<path d="M562.859 217.268C564.99 216.847 567.001 215.844 568.663 214.191C575.621 207.269 570.196 194.416 560.535 194.297C556.14 194.246 552.321 196.561 549.46 199.783C547.465 202.023 546.018 204.57 546.111 207.668C546.218 211.149 548.465 214.104 551.338 215.852C554.708 217.915 559.073 218.574 562.859 217.268Z" fill="#82A5FF"/>
<path d="M528.291 146.714C529.93 146.393 531.491 145.622 532.769 144.338C538.134 138.995 533.95 129.089 526.497 129C525.858 128.996 525.243 129.07 524.639 129.184L518.767 145.204C518.972 145.349 519.177 145.494 519.396 145.631C522.01 147.217 525.376 147.727 528.291 146.714Z" fill="#F0D573"/>
<path d="M511.762 215.797C516.342 207.91 510.86 198.215 501.603 196.202C501.219 196.11 500.825 196.116 500.449 196.06L491.863 220.785C492.606 221.06 493.367 221.273 494.148 221.409C500.601 223.697 508.325 221.699 511.762 215.797Z" fill="#F47DB6"/>
<path d="M472.633 333.922C467.696 335.271 463.828 339.586 464.198 344.9C464.461 348.689 466.714 351.741 469.768 353.674C470.99 356.058 473.15 358.005 475.753 358.651C480.812 359.911 485.92 356.943 488.222 352.474C488.719 351.499 489.043 350.507 489.271 349.521C489.998 347.395 489.879 345.166 489.049 343.209C487.039 336.734 479.939 331.917 472.633 333.922Z" fill="#53C9BA"/>
<path d="M573.039 338.083C568.304 337.313 563.295 338.131 559.549 341.269C555.524 344.646 553.925 350.074 555.613 355.094C556.339 357.235 557.449 358.99 558.804 360.376C559.154 360.881 559.556 361.358 560.073 361.751C564.067 364.823 568.281 367.46 573.478 367.585C578.571 367.709 583.704 365.214 586.325 360.761C592.364 350.588 583.167 339.747 573.039 338.083Z" fill="#82A5FF"/>
<path d="M545.915 169.825C548.779 175.045 554.59 176.296 559.242 174.005C560.826 173.898 562.382 173.452 563.821 172.612L553.345 148.656C553.31 148.678 553.275 148.701 553.239 148.723C546.678 153.153 541.647 162.058 545.915 169.825Z" fill="#F47DB6"/>
</svg>
