<svg width="1080" height="1080" viewBox="0 0 1080 1080" fill="none" xmlns="http://www.w3.org/2000/svg">
<path d="M535.39 111.65C536.503 113.739 539.399 119.613 543.708 128.517C548.517 138.454 554.946 151.869 562.272 167.206L562.279 167.217C569.021 181.24 576.445 196.875 584.114 213.022L584.118 213.028C591.227 227.94 598.504 243.324 605.513 257.982L605.513 257.983C615.278 278.541 624.473 297.931 631.908 313.587L631.908 313.588C641.051 332.888 647.605 346.589 649.119 349.658L649.118 349.659C649.698 350.839 649.888 351.441 649.951 351.689C649.919 351.741 649.878 351.807 649.82 351.89C649.53 352.305 649.057 352.864 648.225 353.767C641.079 361.48 632.716 368.36 623.482 374.191L623.472 374.197C568.452 409.127 484.523 408.418 439.786 357.618L439.781 357.611L439.48 357.261C438.038 355.546 437.549 354.299 437.416 353.323C437.274 352.272 437.453 350.867 438.483 348.69L438.671 348.288L438.71 348.145C438.785 347.964 438.892 347.709 439.041 347.356C439.337 346.654 439.766 345.635 440.301 344.331C443.468 336.621 450.721 318.91 459.916 296.456L459.918 296.45C464.369 285.545 469.205 273.65 474.313 261.201C480.48 246.173 486.905 230.409 493.178 214.981C497.629 204.087 501.993 193.381 506.134 183.223L517.754 154.74C526.96 132.219 533.638 115.732 535.144 111.969C535.174 111.896 535.248 111.775 535.39 111.65Z" fill="#FF7777" stroke="black" stroke-width="9.7825"/>
<path d="M615.144 280.804C618.563 287.933 621.403 293.742 624.067 299.18C627.075 305.319 629.852 310.971 632.989 317.526C589.206 366.822 519.513 370.467 457.268 346.679C453.616 345.275 448.384 343.38 441.947 340.171C445.329 331.924 450.99 318.103 457.919 301.183C466.493 305.118 480.276 310.631 500.13 311.846L500.129 311.845C539.578 314.32 585.995 312.481 615.144 280.804Z" fill="#95ECFF" stroke="black" stroke-width="9.7825"/>
<path d="M577.902 201.089C580.111 205.686 582.133 210.104 584.234 214.698C587.215 221.218 590.351 228.072 594.363 236.145C594.818 237.522 595.205 238.621 595.524 239.496C581.497 253.491 561.277 261.731 539.001 265.065C517.579 268.271 494.658 266.866 474.437 261.982C479.5 249.793 484.701 237.209 489.824 224.785C491.418 225.102 493.432 225.467 495.8 225.802C501.803 226.649 510.102 227.319 519.619 226.61C537.144 225.305 558.904 219.3 577.902 201.089Z" fill="#FDFF97" stroke="black" stroke-width="9.7825"/>
<path d="M537.242 115.342C543.502 126.953 542.999 127.886 546.273 135.252C547.499 138.009 550.997 145.416 554.149 152.052C555.734 155.388 557.244 158.556 558.358 160.889C558.494 161.176 558.625 161.45 558.749 161.71C557.981 162.489 557.021 163.428 555.89 164.458C552.646 167.413 548.105 171.039 542.808 173.899C537.496 176.766 531.664 178.733 525.753 178.701C520.81 178.674 515.563 177.251 510.23 173.372C516.733 158.235 528.736 130.554 535.216 115.346C535.76 115.343 536.425 115.344 537.242 115.342Z" fill="#BAFFAE" stroke="black" stroke-width="9.7825"/>
</svg>
