<svg width="1080" height="1080" viewBox="0 0 1080 1080" fill="none" xmlns="http://www.w3.org/2000/svg">
<path d="M542.652 147.601C543.337 147.602 544.358 147.609 545.676 147.634C548.312 147.683 552.132 147.802 556.824 148.079C566.219 148.634 579.053 149.822 592.844 152.345C606.658 154.871 621.272 158.708 634.299 164.496C647.359 170.298 658.463 177.9 665.713 187.752C670.794 194.658 672.14 202.484 671.216 211.188C670.274 220.052 667.014 229.458 663.199 239.098C659.507 248.427 655.143 258.299 652.778 267.003C650.436 275.625 649.461 285.048 654.614 292.773L654.615 292.775C659.653 300.322 667.514 303.077 675.643 303.97C683.585 304.842 693.001 304.049 702.2 303.479C720.964 302.317 740.589 301.951 757.547 313.475L758.353 314.032C779.344 328.836 790.965 341.386 797.283 350.011C800.443 354.324 802.283 357.667 803.311 359.834C803.317 359.848 803.323 359.862 803.329 359.876L721.485 442.852C720.369 442.222 719.028 441.473 717.479 440.628C712.464 437.892 705.269 434.118 696.51 429.945C679.023 421.615 655.16 411.626 629.888 405.163C579.391 392.25 503.744 392.25 453.247 405.163C427.975 411.626 404.113 421.615 386.626 429.945C377.867 434.118 370.672 437.892 365.657 440.628C364.107 441.474 362.765 442.222 361.648 442.852L279.806 359.877C279.812 359.863 279.819 359.849 279.825 359.835C280.853 357.667 282.695 354.325 285.855 350.012C291.977 341.656 303.074 329.617 322.842 315.413L324.782 314.032C341.927 301.94 361.88 302.299 380.941 303.479C390.14 304.049 399.556 304.842 407.497 303.97C415.625 303.077 423.485 300.321 428.521 292.773C433.632 285.112 432.844 275.749 430.687 267.115C428.512 258.414 424.402 248.542 420.942 239.213C417.369 229.577 414.332 220.168 413.556 211.294C412.816 202.844 414.152 195.193 418.885 188.407L419.354 187.753C426.617 177.883 437.62 170.281 450.494 164.484C463.339 158.701 477.709 154.866 491.278 152.341C504.825 149.82 517.415 148.634 526.626 148.079C531.226 147.802 534.97 147.683 537.552 147.634C538.842 147.609 539.843 147.602 540.513 147.601C540.848 147.6 541.1 147.601 541.266 147.602C541.348 147.602 541.409 147.602 541.447 147.603C541.466 147.603 541.48 147.603 541.488 147.604C541.491 147.604 541.494 147.603 541.495 147.604L541.571 147.604L541.646 147.604C541.648 147.603 541.651 147.604 541.654 147.604C541.663 147.603 541.677 147.603 541.696 147.603C541.736 147.602 541.798 147.602 541.883 147.602C542.052 147.601 542.31 147.6 542.652 147.601Z" fill="#353535" stroke="black" stroke-width="11.4227"/>
<path d="M346.878 322.857C388.516 308.665 435.929 325.474 448.185 303.05C460.441 280.627 432.166 218.02 439.856 194.688C448.185 169.417 501.364 158.06 544.835 157.857C588.894 157.651 642.351 169.087 651.409 194.688C660.468 220.289 630.095 278.614 642.351 301.038C654.607 323.462 715.89 310.27 739.612 320.889C772.165 335.461 781.082 358.853 790.42 372.798L805.923 357.296C805.923 357.296 804.548 336.784 762.233 306.248C724.794 279.228 675.828 308.702 661.197 286.278C646.575 263.855 696.303 213.706 672.012 179.928C640.213 135.722 544.835 137.004 544.835 137.004C544.835 137.004 451.357 135.722 419.559 179.928C395.259 213.706 443.088 263.855 428.465 286.278C413.842 308.702 364.877 279.228 327.43 306.248C285.114 336.784 279.66 358.677 279.66 358.677L293.368 371.235C306.642 357.18 316.752 335.939 346.878 322.857Z" fill="#EC4032" stroke="black" stroke-width="11.4227"/>
<path d="M359.08 448.369L360.677 449.991C360.677 449.991 360.918 449.846 361.382 449.574L359.08 448.369Z" fill="#EC4032"/>
<path d="M606.946 312.793C607.238 311.208 606.706 309.278 605.34 308.453C604.361 307.864 603.185 307.955 602.155 308.281C599.742 309.042 597.81 310.909 596.342 313.056C594.513 315.747 594.015 318.193 591.113 319.48C589.61 320.15 587.807 320.495 586.236 321.038C565.208 328.259 555.944 331.44 543.545 335.689C543.082 335.852 542.618 336.006 542.163 336.16C541.193 336.495 540.248 336.812 539.33 337.13C538.875 337.284 538.42 337.447 537.947 337.601C525.549 341.859 516.284 345.039 495.257 352.251C493.685 352.795 492.054 353.619 490.457 354.018C487.375 354.779 485.443 353.175 482.309 352.188C479.802 351.4 477.114 351.119 474.744 352.007C473.74 352.378 472.752 353.031 472.357 354.091C471.808 355.576 472.615 357.407 473.843 358.476C475.071 359.536 476.607 360.007 478.101 360.442C477.088 363.042 476.676 366.087 477.672 368.85C478.668 371.613 481.321 373.888 483.974 373.616C485.812 373.425 487.314 372.103 488.431 370.59C489.538 369.067 490.363 367.31 491.479 365.797C492.157 364.872 492.938 364.048 493.728 363.223L541.236 346.915L546.834 344.994L594.341 328.685C595.475 328.848 596.617 329.011 597.733 329.319C599.562 329.827 601.313 330.697 603.142 331.213C604.971 331.73 606.989 331.829 608.543 330.86C610.801 329.455 611.445 326.04 610.475 323.267C609.513 320.495 607.264 318.356 604.834 316.943C605.744 315.693 606.663 314.379 606.946 312.793Z" fill="white"/>
<path d="M475.671 313.972C475.353 312.395 475.842 310.447 477.19 309.596C478.161 308.989 479.337 309.061 480.367 309.369C482.789 310.085 484.763 311.915 486.266 314.035C488.146 316.69 488.687 319.127 491.615 320.359C493.135 321.003 494.938 321.311 496.518 321.827C517.674 328.659 526.999 331.658 539.475 335.69C539.947 335.844 540.402 335.989 540.866 336.134C541.836 336.451 542.789 336.759 543.716 337.058C544.171 337.203 544.635 337.357 545.107 337.511C557.583 341.534 566.908 344.542 588.064 351.373C589.652 351.88 591.292 352.687 592.898 353.049C595.998 353.756 597.895 352.107 601.012 351.065C603.502 350.232 606.189 349.905 608.576 350.739C609.59 351.092 610.586 351.726 610.998 352.777C611.573 354.245 610.8 356.103 609.598 357.19C608.396 358.277 606.859 358.775 605.374 359.238C606.438 361.82 606.902 364.855 605.966 367.637C605.03 370.418 602.411 372.747 599.75 372.511C597.912 372.348 596.375 371.061 595.242 369.566C594.1 368.071 593.25 366.323 592.108 364.828C591.413 363.913 590.614 363.106 589.807 362.3L541.999 346.87L536.366 345.049L488.55 329.619C487.417 329.8 486.283 329.991 485.176 330.317C483.355 330.851 481.621 331.766 479.801 332.31C477.98 332.854 475.971 332.999 474.391 332.056C472.107 330.688 471.403 327.291 472.313 324.5C473.224 321.709 475.43 319.535 477.834 318.076C476.924 316.844 475.988 315.548 475.671 313.972Z" fill="white"/>
<path fill-rule="evenodd" clip-rule="evenodd" d="M577.277 290.268C582.353 283.146 589.706 272.951 589.706 261.791C589.706 239.763 578.622 216.957 544.104 216.957C509.592 216.957 498.324 239.757 498.324 261.791C498.324 272.911 506.284 283.083 510.834 290.194C512.602 292.93 513.414 300.886 513.414 301.52C513.414 301.988 513.483 302.439 513.58 302.89C514.095 306.46 517.191 308.185 521.002 308.316C521.002 308.316 523.841 308.368 524.27 308.316C528.602 307.819 531.961 305.969 532.413 302.325C532.779 305.929 536.236 308.316 544.012 308.316C551.789 308.316 555.131 306.054 555.589 302.559C556.201 306.18 559.726 307.968 564.15 308.316C564.453 308.339 567.44 308.316 567.44 308.316C571.469 308.008 574.656 305.815 574.656 301.845L574.593 301.822C574.599 301.697 574.633 301.577 574.633 301.457C574.639 300.76 575.48 292.798 577.277 290.268ZM526.753 268.359C525.221 268.408 523.694 268.148 522.264 267.596C520.834 267.044 519.529 266.211 518.428 265.146C517.326 264.081 516.451 262.806 515.853 261.397C515.255 259.988 514.947 258.473 514.947 256.942C514.947 255.412 515.255 253.897 515.853 252.488C516.451 251.078 517.326 249.804 518.428 248.739C519.529 247.674 520.834 246.84 522.264 246.288C523.694 245.736 525.221 245.477 526.753 245.525C529.725 245.618 532.543 246.862 534.612 248.992C536.681 251.122 537.839 253.973 537.839 256.94C537.84 259.907 536.684 262.757 534.616 264.889C532.548 267.02 529.73 268.265 526.759 268.359H526.753ZM543.984 290.337C539.268 290.337 535.44 292.844 535.44 289.32C535.44 285.802 539.268 278.52 543.984 278.52C548.716 278.52 552.533 285.796 552.533 289.32C552.533 292.85 548.716 290.337 543.984 290.337ZM561.088 268.359C559.585 268.359 558.097 268.063 556.709 267.489C555.32 266.914 554.059 266.073 552.996 265.012C551.934 263.951 551.091 262.691 550.516 261.305C549.941 259.919 549.646 258.434 549.646 256.934C549.646 255.434 549.943 253.948 550.518 252.563C551.094 251.177 551.937 249.918 553 248.858C554.063 247.797 555.325 246.956 556.714 246.382C558.103 245.809 559.591 245.514 561.094 245.514C564.129 245.514 567.04 246.717 569.187 248.86C571.333 251.002 572.539 253.907 572.539 256.937C572.539 259.966 571.333 262.872 569.187 265.014C567.04 267.156 564.129 268.359 561.094 268.359H561.088Z" fill="white"/>
</svg>
