<svg width="1080" height="1080" viewBox="0 0 1080 1080" fill="none" xmlns="http://www.w3.org/2000/svg">
<path d="M517.862 248.836C586.707 245.91 630.637 257.697 657.202 275.502C682.98 292.779 692.812 315.979 693.224 338.24C693.057 338.36 692.854 338.501 692.604 338.658C691.036 339.647 688.472 340.895 684.835 342.308C677.617 345.112 666.875 348.3 653.14 351.302C625.703 357.299 586.737 362.467 540.95 362.467C495.156 362.467 456.19 357.299 428.755 351.301C415.021 348.298 404.28 345.109 397.063 342.304C393.428 340.89 390.864 339.642 389.296 338.653C389.156 338.565 389.032 338.481 388.919 338.404C392.579 315.365 399.458 294.694 416.989 278.982C435.103 262.749 465.43 251.064 517.862 248.836Z" fill="#0C50FF" stroke="black" stroke-width="10.0143"/>
<path d="M548.06 243.91C620.104 252.518 654.816 269.025 672.251 286.942C689.359 304.523 690.606 324.063 693.051 342.829C692.884 342.96 692.682 343.114 692.437 343.283C690.879 344.358 688.333 345.716 684.716 347.256C677.535 350.313 666.839 353.792 653.152 357.069C625.814 363.617 586.978 369.26 541.341 369.26C523.764 369.26 511.9 368.959 504.165 368.442C506.071 367.594 508.077 366.626 509.705 365.569C510.62 364.976 511.649 364.209 512.497 363.24C513.321 362.3 514.391 360.688 514.391 358.512C514.391 332.846 519.79 316.639 526.794 300.217C533.457 284.595 541.84 268.277 548.06 243.91Z" fill="#E50E0E" stroke="black" stroke-width="10.0143"/>
<path d="M542.894 244.563C543.836 245.309 544.999 246.244 546.342 247.357C550.213 250.566 555.57 255.238 561.484 261.066C573.366 272.775 587.253 288.915 595.973 307.036C603.739 323.175 608.352 339.399 611.021 351.626C612.352 357.728 613.194 362.808 613.701 366.346C613.701 366.347 613.702 366.348 613.702 366.35H468.676C468.796 365.779 468.922 365.174 469.058 364.538C470.082 359.742 471.546 353.166 473.3 346.04C476.861 331.571 481.458 315.546 485.848 307.195L485.898 307.098L485.945 306.999C494.976 287.83 509.853 271.748 522.675 260.365C529.057 254.699 534.863 250.257 539.062 247.238C540.562 246.161 541.855 245.266 542.894 244.563Z" fill="#EDDA48" stroke="black" stroke-width="10.0143"/>
<path d="M622.627 217.47C598.774 212.27 576.658 204.677 549.338 207.013C548.935 208.963 547.593 210.571 545.803 211.361V217.364C547.959 218.316 549.464 220.456 549.464 222.948C549.464 225.382 548.025 227.478 545.948 228.461C549.675 229.534 552.408 233.009 552.408 237.14C552.41 238.552 552.083 239.945 551.453 241.207C550.823 242.469 549.907 243.565 548.779 244.408L548.667 244.493C548.151 244.868 547.597 245.187 547.014 245.443C546.058 245.842 542.142 246.392 539.917 245.386C539.492 245.194 539.084 244.968 538.697 244.714L538.18 244.34C536.033 242.693 534.639 240.085 534.639 237.14C534.639 233.112 537.237 229.702 540.823 228.54C538.656 227.593 537.142 225.447 537.142 222.948C537.142 220.543 538.545 218.468 540.581 217.47V211.255C539.313 210.635 538.295 209.595 537.701 208.311C495.368 217.589 410.764 240.548 409.52 208.342C409.01 195.133 427.8 185.846 459.271 192.668C494.671 200.343 510.642 205.893 537.246 204.687C537.765 201.833 540.276 199.666 543.303 199.666C544.531 199.662 545.733 200.028 546.752 200.715C547.772 201.403 548.564 202.381 549.026 203.523C576.335 197.935 676.863 169.103 676.863 203.886C676.863 220.4 653.086 224.111 622.627 217.47Z" fill="#0C50FF"/>
<path d="M537.246 204.687C537.765 201.833 540.276 199.666 543.303 199.666C544.531 199.662 545.733 200.028 546.752 200.715C547.772 201.403 548.564 202.381 549.026 203.523C576.335 197.935 676.863 169.103 676.863 203.886C676.863 220.4 653.086 224.111 622.627 217.47C598.774 212.27 576.658 204.677 549.338 207.013C548.935 208.963 547.593 210.571 545.803 211.361V217.364C547.959 218.316 549.464 220.456 549.464 222.948C549.464 225.382 548.025 227.478 545.948 228.461C549.675 229.534 552.408 233.009 552.408 237.14C552.41 238.552 552.083 239.945 551.453 241.207C550.823 242.469 549.907 243.565 548.779 244.408L548.667 244.493C548.151 244.869 547.597 245.187 547.014 245.443C546.058 245.842 542.142 246.392 539.917 245.386C539.492 245.194 539.084 244.968 538.697 244.714L538.18 244.34C536.033 242.693 534.639 240.085 534.639 237.14C534.639 233.112 537.237 229.702 540.823 228.54C538.656 227.593 537.142 225.447 537.142 222.948C537.142 220.543 538.545 218.468 540.581 217.47V211.255C539.313 210.635 538.295 209.595 537.701 208.311M537.246 204.687C510.642 205.893 494.671 200.343 459.271 192.668C427.8 185.846 409.01 195.133 409.52 208.342C410.764 240.548 495.368 217.589 537.701 208.311M537.246 204.687C537.135 205.355 537.072 207.016 537.701 208.311" stroke="black" stroke-width="10.0143"/>
<path d="M546.77 200.642C547.819 201.335 548.633 202.321 549.108 203.473C549.494 203.97 549.726 205.578 549.429 206.99C549.014 208.955 547.634 210.576 545.793 211.373V217.147C548.01 218.107 549.559 220.54 549.559 223.052C549.559 225.506 548.196 227.429 546.06 228.419C549.893 229.501 552.587 233.194 552.587 237.358C552.589 238.781 552.253 240.185 551.604 241.457C550.956 242.729 550.014 243.834 548.854 244.684L548.739 244.77C548.208 245.148 547.638 245.469 547.038 245.727C546.056 246.129 542.028 246.684 539.739 245.67C539.302 245.476 538.883 245.249 538.485 244.992L537.952 244.616C535.745 242.955 534.311 240.327 534.311 237.358C534.311 233.297 536.734 229.853 540.422 228.682C538.194 227.727 536.885 225.571 536.885 223.052C536.885 220.628 538.328 218.153 540.422 217.147V211.266C539.118 210.641 538.071 209.593 537.46 208.298C536.813 206.993 536.878 205.319 536.992 204.645C537.525 201.768 540.109 199.584 543.222 199.584C544.485 199.581 545.721 199.949 546.77 200.642Z" fill="#C4C4C4" stroke="black" stroke-width="6.67618"/>
<path d="M543.449 201.564C545.662 201.565 547.473 203.368 547.473 205.614C547.473 207.86 545.662 209.664 543.449 209.664C541.237 209.664 539.426 207.86 539.426 205.614C539.426 203.368 541.237 201.564 543.449 201.564Z" fill="#E50E0E" stroke="black" stroke-width="5.00714"/>
<path d="M543.187 230.4C546.985 230.401 550.082 233.495 550.082 237.334C550.082 241.172 546.985 244.266 543.187 244.267C539.388 244.267 536.291 241.173 536.291 237.334C536.291 233.495 539.388 230.4 543.187 230.4Z" fill="#4AB24B" stroke="black" stroke-width="5.00714"/>
<path d="M387.431 340.496C389.085 341.09 391.293 341.852 394.053 342.728C400.759 344.856 410.714 347.674 423.84 350.485C450.093 356.108 489.022 361.701 540 361.701C594.241 361.701 633.183 356.113 658.658 350.479C671.395 347.662 680.762 344.834 686.988 342.689C689.308 341.891 691.191 341.186 692.65 340.613C693.908 342.439 695.385 344.845 696.477 347.381C697.611 350.018 698.127 352.332 697.964 354.094C697.831 355.53 697.264 356.776 695.409 357.878C683.486 364.961 648.975 377.993 540 377.993C435.906 377.993 400.596 364.664 384.346 357.725C382.686 356.66 382.163 355.464 382.036 354.094C381.873 352.332 382.389 350.018 383.524 347.381C384.627 344.82 386.122 342.391 387.388 340.559C387.402 340.538 387.416 340.517 387.431 340.496ZM389.516 337.717L389.514 337.718L389.517 337.715C389.516 337.715 389.516 337.716 389.516 337.717Z" fill="#3E4347" stroke="black" stroke-width="10.0143"/>
</svg>
