<svg width="1080" height="1080" viewBox="0 0 1080 1080" fill="none" xmlns="http://www.w3.org/2000/svg">
<path d="M674.001 279.445C641.501 246.498 601 226.498 549.797 221.224C549.797 221.224 533.153 221.121 527.5 221.223C521.847 221.223 506.001 221.224 506.001 221.224C437.5 228.498 376.386 255.461 348 294.108C275 393.498 373.676 416.095 382.838 413.753C391.902 411.31 376.697 360.702 430.011 321.092C458.764 299.81 503.988 294.821 540.83 294.108C577.672 294.719 622.896 299.81 651.649 321.092C704.962 360.6 689.758 411.31 698.822 413.753C707.886 416.095 760.001 380 674.001 279.445Z" fill="#B0AB1E" stroke="black" stroke-width="11.206" stroke-miterlimit="10"/>
<path d="M680.491 325.47C619.5 276.997 583.5 272.996 540.627 268.996C504.54 265.629 428.736 265.902 362.557 325.47C269.001 409.68 352.811 450.91 362.557 447.856C372.304 444.801 355.929 430.453 412.85 379.438C445.988 349.705 499.984 344.41 540.627 344.41C581.271 344.41 635.267 349.705 668.405 379.438C725.325 430.554 709.049 444.801 718.698 447.856C728.639 451.012 741.104 387.079 680.491 325.47Z" fill="#FFB217" stroke="black" stroke-width="11.206" stroke-miterlimit="10"/>
<path d="M689.453 364.266C643.5 319.498 578.5 310.3 541.5 310.299C517.49 310.298 495 311.765 463.5 320.498C435 328.399 394 343.497 349 383.919C300.59 437.823 328.499 479.998 353.5 499.498C363.808 506.18 355.78 469.25 362.5 458.498C370 446.498 381.073 433.003 412 412.998C455.889 384.608 500.857 380.498 541.5 380.498C582.143 380.498 649.953 381.414 683.5 406.498C720.999 434.538 715.851 460.841 725.5 463.998C735.344 467.257 735.696 420.169 689.453 364.266Z" fill="#E64810" stroke="black" stroke-width="11.206" stroke-miterlimit="10"/>
</svg>
