<svg width="1080" height="1080" viewBox="0 0 1080 1080" fill="none" xmlns="http://www.w3.org/2000/svg">
<path d="M533.013 196C442.738 196.001 368.938 333.884 343.287 401.117L542.964 445.559L743.967 401.117C711.904 330.465 648.441 195.999 533.013 196Z" fill="#889A37" stroke="black" stroke-width="10.9665" stroke-linecap="round"/>
<path d="M422.874 372.294C430.188 309.911 349.231 249.745 317.397 234.35C300.831 226.338 330.023 351.117 422.874 372.294Z" fill="#CC3D29" stroke="black" stroke-width="9.39989" stroke-linecap="round"/>
<path d="M422.893 372.867C399.675 345.392 351.779 288.383 345.941 280.141" stroke="black" stroke-width="6.2666" stroke-linecap="round"/>
<path d="M753.919 325.36C730.934 325.359 603.867 406.77 543.5 445.501C543.5 445.501 725.425 433.001 748.77 402.016C772.115 371.031 777 325.362 753.919 325.36Z" fill="#707C32" stroke="black" stroke-width="10.9665" stroke-linecap="round"/>
<path d="M333.162 326.117C355.982 328.865 482.422 407.014 542.789 445.746C542.789 445.746 366.501 431.999 338.501 405C310.501 378.001 310.341 323.37 333.162 326.117Z" fill="#707C32" stroke="black" stroke-width="10.9665" stroke-linecap="round"/>
</svg>
