<svg width="1080" height="1080" viewBox="0 0 1080 1080" fill="none" xmlns="http://www.w3.org/2000/svg">
<path d="M497.964 267.597C558.193 255.133 612.958 245.192 652.8 239.195C672.411 236.243 688.322 234.26 699.462 233.393C688.893 237.019 673.503 241.516 654.331 246.59C615.381 256.899 561.169 269.512 500.94 281.977C440.712 294.441 385.947 304.381 346.105 310.378C326.493 313.33 310.583 315.312 299.442 316.178C310.012 312.553 325.402 308.057 344.574 302.983C383.525 292.674 437.736 280.062 497.964 267.597Z" fill="#4F97A6" stroke="black" stroke-width="9.71603"/>
<path d="M702.425 344.411L702.424 344.418C701.155 359.837 690.752 373.025 676.094 377.829L676.087 377.831L676.08 377.834C642.917 388.799 578.194 404.853 522.85 416.328C467.547 427.795 413.016 436.456 378.133 439.481L378.127 439.481C362.699 440.836 348.012 432.856 340.706 419.204L340.705 419.201L291.269 326.935C294.185 326.797 297.593 326.518 301.425 326.114C313.094 324.883 329.332 322.452 349.011 319.093C388.401 312.368 441.961 301.854 501.153 289.547C560.379 277.297 614.348 265.55 653.796 255.973C673.504 251.188 689.682 246.922 701.104 243.388C704.945 242.2 708.316 241.07 711.139 240.014L702.425 344.411Z" fill="white" stroke="black" stroke-width="11.3354"/>
<path d="M699 315.501C664.853 326.546 600.36 344.847 517.999 361.852C435.639 378.857 367.739 387.653 332 391.001L316.001 361.001C345.899 359.624 419.229 351.509 511.493 332.514C603.701 313.314 673.981 294.087 702.001 283.5L699 315.501Z" fill="#46B9FA"/>
<path d="M699 315.501C664.853 326.546 600.36 344.847 517.999 361.852C435.639 378.857 367.739 387.653 332 391.001L316.001 361.001C345.899 359.624 419.229 351.509 511.493 332.514C603.701 313.314 673.981 294.087 702.001 283.5L699 315.501Z" stroke="black"/>
<path d="M361.537 301.553C361.538 302.038 361.633 302.543 361.615 303.122C361.521 302.618 361.538 302.038 361.537 301.553Z" fill="#C7C7C7"/>
<path d="M361.455 299.497C361.438 300.076 361.42 300.655 361.515 301.16C361.439 300.562 361.438 300.076 361.455 299.497Z" fill="#C7C7C7"/>
<path d="M361.668 295.46C361.632 296.133 361.615 296.712 361.579 297.384C361.521 296.693 361.539 296.114 361.668 295.46Z" fill="#C7C7C7"/>
<path d="M634.994 240.766C634.712 240.225 634.449 239.59 634.168 239.049C634.449 239.59 634.712 240.225 634.994 240.766Z" fill="#C7C7C7"/>
<path d="M493.481 226.804C383.915 250.304 346.261 276.228 341.376 314.708C379.401 308.622 450.535 297.199 502.905 286.37C555.275 275.54 623.863 258.892 661.096 249.443C641.374 216.01 600.263 208.869 493.481 226.804Z" fill="white" stroke="black" stroke-width="11.3354"/>
<path d="M361.588 303.702C361.607 304.094 361.702 304.599 361.722 304.991C361.702 304.599 361.701 304.113 361.588 303.702Z" fill="#C7C7C7"/>
<path d="M361.918 305.999C361.956 306.297 361.994 306.595 362.032 306.893C361.994 306.595 361.956 306.297 361.918 305.999Z" fill="#C7C7C7"/>
<path d="M361.469 297.461C361.451 298.04 361.416 298.713 361.398 299.292C361.434 298.619 361.451 298.04 361.469 297.461Z" fill="#C7C7C7"/>
<path d="M639.386 255.426C639.31 254.828 639.234 254.23 639.158 253.633C639.141 254.212 639.31 254.828 639.386 255.426Z" fill="#C7C7C7"/>
<path d="M638.273 249.76C638.235 249.462 638.104 249.146 638.066 248.848C638.104 249.146 638.235 249.462 638.273 249.76Z" fill="#C7C7C7"/>
<path d="M363.33 312.596C363.16 311.98 362.991 311.363 362.803 310.841C362.991 311.363 363.16 311.98 363.33 312.596Z" fill="#C7C7C7"/>
<path d="M637.759 247.913C637.647 247.503 637.534 247.094 637.328 246.666C637.534 247.094 637.647 247.503 637.759 247.913Z" fill="#C7C7C7"/>
<path d="M636.54 244.275C636.352 243.752 636.071 243.211 635.883 242.688C636.071 243.211 636.259 243.734 636.54 244.275Z" fill="#C7C7C7"/>
<path d="M637.159 246.047C636.971 245.524 636.764 245.095 636.67 244.591C636.858 245.113 636.971 245.524 637.159 246.047Z" fill="#C7C7C7"/>
<path d="M635.823 242.479C635.542 241.938 635.354 241.415 635.072 240.874C635.26 241.397 635.542 241.938 635.823 242.479Z" fill="#C7C7C7"/>
<path d="M558.12 343.775C557.432 342.998 556.501 341.765 554.964 341.515C554.257 341.394 553.313 341.647 552.618 342.154C551.125 343.226 546.557 347.609 544.789 350.367C544.089 351.456 544.171 352.212 544.536 352.628C544.965 353.109 545.514 353.207 546.632 353.053C547.56 352.925 548.49 352.468 549.304 352.96C550.934 353.943 546.938 360.825 546.575 361.426C544.906 364.177 542.961 366.815 540.412 368.938C538.377 370.621 534.059 372.558 531.785 370.595C529.871 368.964 529.233 365.855 528.44 363.639C527.189 360.139 526.014 356.651 524.863 353.108C524.378 351.621 523.497 349.639 524.163 348.056C525.14 345.726 532.989 342.903 533.813 342.49C535.439 341.669 536.008 340.68 535.643 338.974C535.321 337.474 534.242 336.222 532.459 336.347C530.561 336.475 528.567 336.967 526.692 337.369C525.268 337.681 522.053 338.013 520.888 337.174C520.5 336.884 520.23 336.398 520.08 335.971C519.498 334.305 518.428 332.048 519.156 330.244C519.563 329.24 520.61 328.621 521.363 327.844C521.808 327.526 522.241 327.182 522.655 326.814C527.341 322.542 528.936 315.537 526.45 310.088C523.622 303.888 516.049 301.249 508.837 302.552C501.725 304.321 495.9 309.834 495.869 316.64C495.843 322.628 500.164 328.364 506.19 330.339C506.713 330.513 507.254 330.641 507.791 330.748C508.796 331.148 510.006 331.29 510.788 332.032C512.192 333.379 512.141 335.876 512.294 337.634C512.334 338.091 512.286 338.646 512.05 339.062C511.334 340.312 508.264 341.321 506.844 341.619C504.968 342.021 502.948 342.39 501.165 343.052C499.488 343.67 499.017 345.254 499.339 346.754C499.705 348.459 500.63 349.128 502.443 349.212C503.365 349.258 511.679 348.606 513.526 350.331C514.782 351.494 514.792 353.67 514.959 355.225C515.361 358.922 515.714 362.593 516.01 366.298C516.201 368.643 516.889 371.748 515.819 374.013C514.543 376.737 509.817 376.74 507.271 376.04C504.069 375.15 501.212 373.542 498.569 371.716C497.991 371.317 491.524 366.678 492.607 365.113C493.149 364.331 494.177 364.368 495.083 364.102C496.166 363.784 496.627 363.47 496.821 362.855C496.982 362.326 496.748 361.603 495.662 360.897C492.919 359.107 486.955 356.983 485.154 356.617C484.312 356.439 483.34 356.598 482.752 356.996C481.452 357.855 481.111 359.368 480.801 360.352C480.178 362.377 479.13 370.583 480.014 372.407C480.416 373.238 481.564 373.393 482.519 372.715C483.417 372.078 483.912 369.694 485.659 370.243C486.173 370.412 486.584 371.249 486.829 371.619C487.191 372.157 487.611 372.698 487.961 373.217C492.683 380.114 499.52 386.07 508.132 388.558C514.212 390.313 521.021 390.672 527.481 389.473C533.864 387.918 539.928 384.804 544.752 380.703C551.578 374.897 555.372 366.668 556.85 358.441C556.963 357.822 557.118 357.159 557.234 356.518C557.307 356.086 557.331 355.15 557.737 354.783C559.112 353.564 560.534 355.538 561.615 355.75C562.763 355.976 563.747 355.364 563.773 354.441C563.838 352.414 559.516 345.36 558.12 343.775ZM505.821 317.715C505.117 314.434 507.233 311.207 510.541 310.498C513.849 309.788 517.104 311.87 517.806 315.144C518.508 318.418 516.394 321.652 513.086 322.361C509.78 323.078 506.523 320.989 505.821 317.715Z" fill="#EBE32E" stroke="black" stroke-width="4.85801"/>
</svg>
