<svg width="1080" height="1080" viewBox="0 0 1080 1080" fill="none" xmlns="http://www.w3.org/2000/svg">
<path d="M731.999 384.999C731.999 384.999 711.401 245.063 560.353 214.822C492.726 201.282 372.999 196.998 261.999 371C261.999 371 327.008 336.441 376.999 377.503C376.999 377.503 575.641 296.003 731.999 384.999Z" fill="#F10000" stroke="black" stroke-width="11.5307" stroke-miterlimit="10"/>
<path d="M268.823 425.961C286.05 418.015 293.381 398.014 285.198 381.287C277.015 364.56 256.417 357.441 239.191 365.386C221.965 373.332 214.633 393.334 222.816 410.061C230.999 426.788 251.597 433.907 268.823 425.961Z" fill="white" stroke="black" stroke-width="11.5307" stroke-miterlimit="10"/>
<path d="M718.927 442.669C718.833 442.855 718.834 443.08 718.786 443.283C718.786 443.283 560 284.002 361.685 437.014C361.386 437.272 361.077 437.528 360.772 437.789C360.772 437.789 312.276 415.812 348.001 362.001C374.501 333.503 405.277 315.103 437 304.002C492.918 284.432 584.186 274.22 673 319.001C684.787 324.934 707.222 339.957 718.927 348.001C718.934 347.998 769 399.001 718.927 442.669Z" fill="white" stroke="black" stroke-width="11.5307" stroke-miterlimit="10"/>
</svg>
