<svg width="1080" height="1080" viewBox="0 0 1080 1080" fill="none" xmlns="http://www.w3.org/2000/svg">
<path d="M524.542 233.218C514.966 236.47 513.545 249.364 515.723 255.696H571.246C571.246 251.475 570.332 242.018 566.674 237.966C562.101 232.9 555.57 230.999 543.158 231H543.145C533.336 231.001 531.07 231.001 524.542 233.218Z" fill="#EC4032" stroke="black" stroke-width="11.5035"/>
<path d="M426.559 270.478C377.913 292.647 356.264 346.152 352.994 374.032C372.611 370.049 460.89 354.118 558.976 358.101C637.446 361.287 704.787 386.817 719.5 409.002C717.865 402.364 717.746 370.731 706.107 330.221C688.941 270.478 612.926 254.526 568.785 250.557C505.029 244.824 460.89 254.832 426.559 270.478Z" fill="#EC4032"/>
<path d="M352.994 374.032L347.282 373.362L346.357 381.249L354.139 379.669L352.994 374.032ZM426.559 270.478L424.174 265.244L426.559 270.478ZM568.785 250.557L569.3 244.828L568.785 250.557ZM706.107 330.221L711.635 328.632L706.107 330.221ZM719.5 409.002L714.707 412.181C716.252 414.512 719.25 415.393 721.811 414.269C724.372 413.145 725.754 410.342 725.085 407.627L719.5 409.002ZM558.976 358.101L558.743 363.848H558.743L558.976 358.101ZM358.707 374.702C360.24 361.626 366.18 342.063 377.679 323.095C389.152 304.17 405.937 286.197 428.944 275.711L424.174 265.244C398.536 276.928 380.173 296.792 367.842 317.132C355.537 337.429 349.018 358.559 347.282 373.362L358.707 374.702ZM428.944 275.711C462.298 260.511 505.429 250.635 568.27 256.286L569.3 244.828C504.629 239.013 459.481 249.153 424.174 265.244L428.944 275.711ZM568.27 256.286C590.046 258.244 619.37 263.142 645.209 274.722C671.038 286.299 692.642 304.187 700.578 331.809L711.635 328.632C702.406 296.511 677.419 276.552 649.914 264.225C622.419 251.902 591.665 246.84 569.3 244.828L568.27 256.286ZM700.578 331.809C706.291 351.69 709.181 369.411 710.846 383.012C711.679 389.818 712.204 395.58 712.628 400.123C713.026 404.398 713.376 408.188 713.915 410.377L725.085 407.627C724.807 406.496 724.528 403.843 724.081 399.054C723.659 394.533 723.12 388.61 722.264 381.615C720.55 367.612 717.562 349.262 711.635 328.632L700.578 331.809ZM724.293 405.823C719.892 399.186 712.028 392.892 702.128 387.16C692.104 381.356 679.482 375.839 664.976 370.974C635.958 361.24 598.967 353.968 559.21 352.354L558.743 363.848C597.456 365.42 633.37 372.505 661.318 381.88C675.295 386.568 687.171 391.793 696.364 397.115C705.681 402.509 711.751 407.725 714.707 412.181L724.293 405.823ZM559.21 352.354C460.47 348.344 371.684 364.369 351.85 368.395L354.139 379.669C373.539 375.73 461.309 359.891 558.743 363.848L559.21 352.354Z" fill="black"/>
<path d="M716.5 394.002L719.5 409.002C708 400.502 699 394.002 675.5 388.502C635.651 379.175 600.5 374.288 535.201 374.288C455.5 374.288 398.866 392.409 374.442 400.537C355.64 406.795 369.3 438.886 359.531 438.886C349.762 438.886 315.391 435.251 276.314 427.123C237.237 418.994 253.504 404.574 256.002 400.537C259.736 394.5 293.69 349.97 392.001 337.999C527.501 321.499 610.221 340.776 663.5 359.498C700.5 372.5 709.987 385.873 716.5 394.002Z" fill="#971B19"/>
<path d="M719.5 409.002L716.081 413.627C717.993 415.04 720.577 415.131 722.584 413.857C724.59 412.582 725.606 410.205 725.14 407.874L719.5 409.002ZM716.5 394.002L722.14 392.874L721.865 391.499L720.989 390.405L716.5 394.002ZM663.5 359.498L665.407 354.072H665.407L663.5 359.498ZM392.001 337.999L391.305 332.289L392.001 337.999ZM256.002 400.537L251.11 397.511H251.11L256.002 400.537ZM276.314 427.123L275.143 432.754L276.314 427.123ZM374.442 400.537L372.626 395.079L374.442 400.537ZM675.5 388.502L674.189 394.102L675.5 388.502ZM725.14 407.874L722.14 392.874L710.86 395.13L713.86 410.13L725.14 407.874ZM720.989 390.405C717.763 386.379 713.368 380.476 704.931 374.012C696.534 367.579 684.341 360.726 665.407 354.072L661.593 364.925C679.659 371.273 690.709 377.607 697.935 383.143C705.119 388.648 708.724 393.495 712.011 397.598L720.989 390.405ZM665.407 354.072C611.34 335.073 527.731 315.677 391.305 332.289L392.696 343.708C527.27 327.321 609.101 346.479 661.593 364.925L665.407 354.072ZM391.305 332.289C291.319 344.464 255.794 389.94 251.11 397.511L260.893 403.563C263.678 399.06 296.061 355.475 392.696 343.708L391.305 332.289ZM251.11 397.511C251.111 397.51 251.088 397.546 251.027 397.632C250.968 397.716 250.89 397.823 250.786 397.963C250.556 398.269 250.327 398.563 249.981 399.017C249.348 399.847 248.521 400.955 247.735 402.226C246.233 404.654 244.405 408.421 244.843 412.86C245.315 417.641 248.23 421.716 253.166 424.928C257.963 428.05 265.073 430.659 275.143 432.754L277.485 421.491C268.016 419.522 262.505 417.281 259.44 415.286C256.514 413.382 256.325 412.076 256.291 411.731C256.223 411.045 256.489 409.941 257.518 408.276C257.998 407.501 258.546 406.756 259.128 405.993C259.584 405.395 260.387 404.381 260.893 403.563L251.11 397.511ZM275.143 432.754C314.368 440.913 349.184 444.638 359.531 444.638V433.134C350.34 433.134 316.414 429.589 277.485 421.491L275.143 432.754ZM359.531 444.638C362.691 444.638 365.326 443.163 366.979 440.704C368.346 438.67 368.821 436.293 369.046 434.485C369.481 430.989 369.283 425.923 369.35 422.16C369.427 417.86 369.791 414.136 370.913 411.258C371.923 408.668 373.459 406.926 376.259 405.994L372.626 395.079C366.024 397.277 362.218 401.892 360.195 407.08C358.285 411.979 357.928 417.451 357.849 421.956C357.759 426.998 357.969 430.346 357.631 433.063C357.469 434.361 357.261 434.54 357.432 434.286C357.889 433.606 358.813 433.134 359.531 433.134V444.638ZM376.259 405.994C400.434 397.949 456.394 380.04 535.201 380.04V368.537C454.606 368.537 397.298 386.868 372.626 395.079L376.259 405.994ZM535.201 380.04C600.11 380.04 634.817 384.887 674.189 394.102L676.811 382.901C636.484 373.463 600.89 368.537 535.201 368.537V380.04ZM674.189 394.102C685.597 396.772 693.266 399.632 699.389 402.752C705.541 405.885 710.32 409.369 716.081 413.627L722.919 404.376C717.18 400.134 711.709 396.118 704.611 392.502C697.484 388.871 688.903 385.731 676.811 382.901L674.189 394.102Z" fill="black"/>
</svg>
