<svg width="1080" height="1080" viewBox="0 0 1080 1080" fill="none" xmlns="http://www.w3.org/2000/svg">
<path d="M335.082 352H398.755C396.661 435.799 363.242 430.751 363.242 430.751C363.242 421.344 362.162 419.931 354.531 413.956L337.723 403.729C336.366 402.924 336.439 401.002 337.825 400.268L362.162 387.413L365.883 385.563C369.866 383.204 369.224 380.506 366.889 378.542C366.86 378.528 366.846 378.5 366.816 378.486C356.836 370.293 333.681 355.489 333.681 355.489C332.28 354.246 333.185 352 335.082 352Z" fill="#FFCC5A"/>
<path d="M415.5 352H335.082C333.185 352 332.28 354.246 333.681 355.489C333.681 355.489 356.836 370.293 366.816 378.486C366.846 378.5 366.86 378.528 366.889 378.542C369.224 380.506 369.866 383.204 365.883 385.563L362.162 387.413L337.825 400.268C336.439 401.002 336.366 402.924 337.723 403.729L354.531 413.956C362.162 419.931 363.242 421.344 363.242 430.751" stroke="black" stroke-width="11.63" stroke-miterlimit="10"/>
<path d="M268.998 356.617L281.111 363.298V471.998H270.481L268.998 356.617Z" fill="black" stroke="black" stroke-width="4.99069"/>
<path d="M275.493 445.715C251.433 445.715 253.658 524.166 253.658 524.166C253.658 524.166 251.987 531.973 275.493 531.973C299 531.973 297.329 524.166 297.329 524.166C297.329 524.166 299.554 445.715 275.493 445.715Z" fill="#F9C81E" stroke="black" stroke-width="11.6449"/>
<path d="M361.898 444.241V421.5C361.898 421.5 265 355.5 248.476 349.068C231.951 342.635 554.218 250 554.218 250C554.218 250 845.468 355.679 835.762 361.459C826.056 367.238 719 422 719 422L720.5 444.5C717.559 444.5 572.016 400.302 361.898 444.241Z" fill="#3C3C3B" stroke="black" stroke-width="11.6449"/>
<path d="M362.001 456.065C362.001 456.065 361.824 412.747 367.009 396.458C374.522 372.856 475.225 343.916 549.41 345.031C617.51 346.055 707.639 373.693 715.156 402.356C720.166 421.457 721.5 457 721.5 457C721.5 457 579.905 411.632 362.001 456.065Z" fill="#323232" stroke="black" stroke-width="11.6449"/>
</svg>
