<svg width="1080" height="1080" viewBox="0 0 1080 1080" fill="none" xmlns="http://www.w3.org/2000/svg">
<path d="M535 370C613.986 370 652 365 698.5 356L685.516 319.285C685.516 319.285 649.167 360.061 621.077 289.085C621.077 289.085 559.796 342.855 538.744 238C517.66 342.855 456.411 289.085 456.411 289.085C428.321 360.028 391.941 319.285 391.941 319.285L379.5 353.5C431 362.5 456.015 370 535 370Z" fill="#FFDB5A"/>
<path d="M698.5 356L699.619 361.781C701.302 361.455 702.759 360.412 703.61 358.925C704.462 357.437 704.623 355.653 704.051 354.037L698.5 356ZM379.5 353.5L373.966 351.488C373.371 353.125 373.531 354.941 374.403 356.449C375.276 357.956 376.771 359 378.486 359.3L379.5 353.5ZM391.941 319.285L396.333 315.364C394.953 313.818 392.862 313.112 390.828 313.503C388.794 313.895 387.115 315.326 386.407 317.273L391.941 319.285ZM456.411 289.085L460.296 284.66C458.857 283.397 456.893 282.912 455.031 283.361C453.169 283.81 451.642 285.137 450.937 286.917L456.411 289.085ZM538.744 238L544.517 236.841C543.965 234.091 541.55 232.112 538.745 232.112C535.94 232.111 533.524 234.09 532.971 236.839L538.744 238ZM621.077 289.085L626.552 286.918C625.847 285.138 624.32 283.811 622.458 283.361C620.597 282.912 618.633 283.396 617.193 284.659L621.077 289.085ZM685.516 319.285L691.068 317.322C690.374 315.36 688.695 313.909 686.652 313.508C684.609 313.106 682.506 313.813 681.121 315.367L685.516 319.285ZM697.381 350.219C651.262 359.145 613.623 364.112 535 364.112V375.888C614.348 375.888 652.738 370.855 699.619 361.781L697.381 350.219ZM535 364.112C456.619 364.112 432.127 356.72 380.514 347.7L378.486 359.3C429.873 368.28 455.41 375.888 535 375.888V364.112ZM385.034 355.512L397.474 321.297L386.407 317.273L373.966 351.488L385.034 355.512ZM391.941 319.285C387.549 323.207 387.551 323.21 387.554 323.213C387.555 323.214 387.558 323.217 387.56 323.22C387.564 323.225 387.569 323.23 387.575 323.236C387.586 323.248 387.599 323.263 387.614 323.28C387.645 323.314 387.685 323.358 387.734 323.41C387.832 323.516 387.966 323.657 388.134 323.83C388.471 324.176 388.946 324.649 389.55 325.211C390.754 326.329 392.491 327.82 394.673 329.357C398.975 332.386 405.357 335.843 413.03 336.645C420.934 337.471 429.695 335.417 438.265 328.249C446.658 321.229 454.666 309.487 461.886 291.253L450.937 286.917C444.112 304.154 437.038 313.923 430.709 319.216C424.557 324.362 418.956 325.424 414.254 324.932C409.321 324.417 404.852 322.122 401.454 319.729C399.787 318.555 398.462 317.416 397.567 316.584C397.121 316.17 396.788 315.837 396.577 315.621C396.472 315.513 396.398 315.434 396.357 315.39C396.336 315.368 396.324 315.354 396.32 315.349C396.318 315.347 396.318 315.347 396.32 315.349C396.321 315.351 396.322 315.352 396.325 315.355C396.326 315.356 396.328 315.358 396.328 315.359C396.33 315.361 396.333 315.364 391.941 319.285ZM456.411 289.085C452.527 293.51 452.53 293.512 452.532 293.515C452.534 293.516 452.537 293.519 452.54 293.521C452.545 293.526 452.551 293.531 452.558 293.537C452.572 293.549 452.59 293.565 452.612 293.584C452.655 293.621 452.713 293.671 452.786 293.732C452.931 293.855 453.135 294.025 453.394 294.235C453.912 294.656 454.652 295.238 455.59 295.93C457.461 297.309 460.142 299.141 463.432 300.985C469.927 304.625 479.226 308.557 489.561 308.75C500.182 308.949 511.476 305.175 521.368 294.15C531.058 283.35 539.141 265.896 544.517 239.161L532.971 236.839C527.805 262.531 520.326 277.677 512.602 286.286C505.08 294.67 497.109 297.113 489.782 296.976C482.169 296.834 474.838 293.877 469.19 290.712C466.409 289.153 464.14 287.603 462.579 286.452C461.801 285.878 461.205 285.408 460.815 285.091C460.62 284.933 460.477 284.814 460.39 284.74C460.346 284.703 460.316 284.677 460.3 284.664C460.292 284.657 460.288 284.653 460.287 284.653C460.287 284.652 460.288 284.653 460.289 284.654C460.29 284.655 460.292 284.656 460.292 284.657C460.294 284.658 460.296 284.66 456.411 289.085ZM532.971 239.159C538.339 265.895 546.418 283.349 556.107 294.15C565.997 305.175 577.293 308.949 587.915 308.75C598.252 308.557 607.553 304.625 614.05 300.985C617.342 299.141 620.025 297.31 621.896 295.93C622.834 295.239 623.575 294.656 624.093 294.236C624.352 294.026 624.556 293.856 624.701 293.733C624.774 293.672 624.832 293.622 624.875 293.585C624.897 293.566 624.915 293.55 624.929 293.538C624.936 293.532 624.942 293.527 624.948 293.522C624.95 293.52 624.953 293.517 624.955 293.516C624.958 293.513 624.96 293.511 621.077 289.085C617.193 284.659 617.195 284.657 617.197 284.656C617.198 284.655 617.2 284.654 617.2 284.653C617.202 284.652 617.202 284.651 617.202 284.652C617.201 284.652 617.197 284.656 617.189 284.663C617.173 284.676 617.143 284.702 617.099 284.739C617.012 284.813 616.869 284.932 616.674 285.09C616.284 285.407 615.687 285.877 614.909 286.451C613.347 287.603 611.077 289.153 608.295 290.711C602.644 293.877 595.31 296.834 587.695 296.976C580.365 297.113 572.394 294.67 564.873 286.286C557.151 277.678 549.675 262.533 544.517 236.841L532.971 239.159ZM615.602 291.252C622.822 309.494 630.827 321.24 639.217 328.262C647.784 335.432 656.542 337.486 664.445 336.657C672.116 335.852 678.494 332.391 682.792 329.359C684.973 327.82 686.709 326.328 687.912 325.209C688.515 324.647 688.99 324.173 689.326 323.827C689.494 323.654 689.628 323.512 689.726 323.407C689.775 323.354 689.815 323.31 689.846 323.276C689.861 323.259 689.875 323.245 689.886 323.233C689.891 323.226 689.896 323.221 689.9 323.216C689.902 323.214 689.905 323.211 689.906 323.209C689.909 323.206 689.912 323.204 685.516 319.285C681.121 315.367 681.123 315.365 681.125 315.362C681.126 315.362 681.128 315.36 681.129 315.358C681.131 315.356 681.133 315.354 681.134 315.353C681.136 315.351 681.136 315.351 681.134 315.353C681.13 315.358 681.117 315.371 681.097 315.393C681.055 315.438 680.981 315.517 680.876 315.625C680.666 315.841 680.333 316.175 679.888 316.589C678.993 317.422 677.669 318.561 676.004 319.736C672.609 322.131 668.144 324.428 663.216 324.945C658.52 325.438 652.924 324.378 646.775 319.231C640.449 313.937 633.377 304.164 626.552 286.918L615.602 291.252ZM679.965 321.249L692.949 357.963L704.051 354.037L691.068 317.322L679.965 321.249Z" fill="black"/>
<path fill-rule="evenodd" clip-rule="evenodd" d="M539.015 346.722C547.2 346.722 553.882 337.223 553.882 325.568C553.882 313.944 547.239 304.414 539.015 304.414C530.831 304.414 524.109 313.914 524.109 325.568C524.109 337.192 530.791 346.722 539.015 346.722Z" fill="black"/>
<path fill-rule="evenodd" clip-rule="evenodd" d="M538.996 340.452C544.588 340.452 549.181 333.757 549.181 325.566C549.181 317.375 544.621 310.68 538.996 310.68C533.371 310.68 528.811 317.375 528.811 325.566C528.811 333.757 533.371 340.452 538.996 340.452Z" fill="#7ADBCE"/>
<path fill-rule="evenodd" clip-rule="evenodd" d="M464.335 318.557C470.673 317.903 476.968 325.098 478.372 334.635C479.818 344.103 475.82 352.332 469.525 352.952C463.145 353.571 456.892 346.376 455.446 336.873C454.042 327.405 457.998 319.177 464.335 318.557Z" fill="black"/>
<path fill-rule="evenodd" clip-rule="evenodd" d="M465.35 324.803C469.148 324.425 472.915 328.987 473.793 335.033C474.641 341.079 472.287 346.316 468.489 346.694C464.691 347.099 460.893 342.537 460.046 336.464C459.167 330.444 461.552 325.208 465.35 324.803Z" fill="#7ADBCE"/>
<path fill-rule="evenodd" clip-rule="evenodd" d="M616.082 318.741C610.212 317.713 603.923 324.524 601.969 333.956C600.06 343.321 603.228 351.768 609.101 352.762C614.973 353.756 621.302 346.948 623.213 337.548C625.163 328.184 621.994 319.738 616.082 318.741Z" fill="black"/>
<path fill-rule="evenodd" clip-rule="evenodd" d="M614.864 324.671C611.1 324.063 607.069 328.436 605.827 334.479C604.615 340.523 606.676 345.945 610.439 346.554C614.201 347.19 618.232 342.817 619.476 336.746C620.686 330.729 618.625 325.307 614.864 324.671Z" fill="#7ADBCE"/>
</svg>
