<svg width="1080" height="1080" viewBox="0 0 1080 1080" fill="none" xmlns="http://www.w3.org/2000/svg">
<path d="M256.845 153.669C189.156 207.571 194.854 319.46 339.123 348.982C350.224 351.259 379.746 294.805 379.746 294.805C379.746 294.805 236.788 268.438 262.09 160.502C264.901 153.668 262.09 149.493 256.845 153.669Z" fill="#E0E0E0" stroke="#231F20" stroke-width="11.3061" stroke-miterlimit="10"/>
<path d="M823.055 153.655C890.744 207.116 885.046 318.087 740.777 347.368C729.676 349.626 700.154 293.634 700.154 293.634C700.154 293.634 843.113 267.484 817.811 160.432C814.999 153.655 817.811 149.513 823.055 153.655Z" fill="#E0E0E0" stroke="#231F20" stroke-width="11.3061" stroke-miterlimit="10"/>
<path d="M369.137 292.721C362.581 296.545 355.588 301.211 348.324 312.143C341.06 323.076 334.711 333.326 332.746 341.184C330.782 349.042 330.981 353.203 337.553 356.324L356.287 365.221L406.9 297.794L388.166 288.897C381.643 285.775 375.692 288.897 369.137 292.721Z" fill="#EA6F00" stroke="#231F20" stroke-width="11.3061" stroke-miterlimit="10"/>
<path d="M710.764 292.436C717.319 296.26 724.312 300.926 731.576 311.858C738.84 322.79 745.189 333.041 747.154 340.899C749.119 348.757 748.92 352.917 742.348 356.039L723.613 364.936L673 297.509L691.735 288.612C698.258 285.49 704.208 288.612 710.764 292.436Z" fill="#EA6F00" stroke="#231F20" stroke-width="11.3061" stroke-miterlimit="10"/>
<path d="M541.5 246C437.972 246 354 309.566 354 388H729C728.938 309.566 645.028 246 541.5 246Z" fill="#E0E0E0" stroke="#231F20" stroke-width="11.3061" stroke-miterlimit="10"/>
<path d="M514.501 249.698C514.501 249.698 506.692 287.249 504.81 325.205C503.008 361.546 499.965 405.963 499.965 405.963H580.723C580.723 405.963 577.948 356.675 575.877 325.205C573.925 295.54 564.571 249.698 564.571 249.698C553.136 247.343 552.56 246.062 540.344 246.062C528.183 246.062 525.992 247.343 514.501 249.698Z" fill="#EA6F00" stroke="#231F20" stroke-width="11.3061" stroke-miterlimit="10"/>
<path d="M730.022 375C730.022 375 616.175 387.413 542.856 387.506C468.116 387.601 352.042 375 352.042 375C342.096 375 334 380.612 334 387.506V418.792C334 425.685 342.096 431.297 352.042 431.297C352.042 431.297 468.216 446.072 542.856 446C616.049 445.929 729.958 431.297 729.958 431.297C739.903 431.297 748 425.685 748 418.792V387.506C748.063 380.612 739.903 375 730.022 375Z" fill="#EA6F00" stroke="#231F20" stroke-width="11.3061" stroke-miterlimit="10"/>
</svg>
