<svg width="1080" height="1080" viewBox="0 0 1080 1080" fill="none" xmlns="http://www.w3.org/2000/svg">
<path d="M693.551 315.418C663.27 271.343 581.158 258.947 551.147 258.947C521.136 258.947 448.844 261.403 400.558 303.142C369.64 329.867 368.186 378.07 368.186 387.437C368.186 396.823 509.441 409.767 534.325 409.767C559.209 409.767 718.468 400.915 718.468 391.529C718.468 382.162 718.375 351.548 693.551 315.418Z" fill="#EC4032" stroke="black" stroke-width="11.4579"/>
<path d="M711.102 368.652C703.193 373.677 563.344 381.717 540.867 381.717C518.39 381.717 381.004 373.677 373.095 368.652C365.186 363.627 354.017 409.515 359.425 421.917C364.833 434.318 498.851 439.002 540.867 439.002C582.882 439.002 716.9 434.318 722.308 421.917C727.748 409.515 719.012 363.627 711.102 368.652Z" fill="#971B19" stroke="black" stroke-width="11.4579"/>
<path d="M498.267 209.925C498.267 209.925 496.575 200.422 502.16 204.556C502.16 204.556 500.319 193.411 512.928 201.152C512.928 201.152 523.611 184.739 542.038 193.411C542.038 193.411 551.325 184.435 553.8 192.783C553.8 192.783 573.052 179.714 580.181 199.571C580.181 199.571 591.203 196.491 588.601 207.352C588.601 207.352 600.575 205.488 598.946 211.992C598.946 211.992 603.474 211.06 601.527 215.396C601.527 215.396 612.528 221.901 603.791 225.001C603.791 225.001 611.238 230.897 601.527 234.605C601.527 234.605 608.636 246.337 601.527 247.432C601.527 247.432 606.71 252.558 599.264 256.59C599.264 256.59 598.121 265.263 590.78 264.959C590.78 264.959 592.155 272.091 574.364 270.227C574.364 270.227 577.727 277.157 567.107 268.991C567.107 268.991 564.124 276.954 560.253 268.768C560.253 268.768 541.319 283.945 527.652 272.962C527.652 272.962 521.665 278.271 521.009 270.531C521.009 270.531 500.721 282.425 500.15 270.511C500.15 270.511 490.038 271.443 493.126 263.095C493.126 263.095 484.301 254.854 497.396 257.31C497.396 257.31 477.323 261.514 489.953 247.432C489.953 247.432 480.581 244.818 487.372 240.785C487.372 240.785 479.291 234.585 488.663 230.553C488.663 230.553 474.763 222.812 489.636 218.476C489.636 218.476 483.818 211.344 488.663 211.344C488.684 211.384 487.16 205.69 498.267 209.925Z" fill="#F7D0D9" stroke="black" stroke-width="11.4579"/>
</svg>
