<svg width="1080" height="1080" viewBox="0 0 1080 1080" fill="none" xmlns="http://www.w3.org/2000/svg">
<path d="M335.082 352H398.755C396.661 435.799 363.242 430.751 363.242 430.751C363.242 421.344 362.162 419.931 354.531 413.956L337.723 403.729C336.366 402.924 336.439 401.002 337.825 400.268L362.162 387.413L365.883 385.563C369.866 383.204 369.224 380.506 366.889 378.542C366.86 378.528 366.846 378.5 366.816 378.486C356.836 370.293 333.681 355.489 333.681 355.489C332.28 354.246 333.185 352 335.082 352Z" fill="#FFCC5A"/>
<path d="M415.5 352H335.082C333.185 352 332.28 354.246 333.681 355.489C333.681 355.489 356.836 370.293 366.816 378.486C366.846 378.5 366.86 378.528 366.889 378.542C369.224 380.506 369.866 383.204 365.883 385.563L362.162 387.413L337.825 400.268C336.439 401.002 336.366 402.924 337.723 403.729L354.531 413.956C362.162 419.931 363.242 421.344 363.242 430.751" stroke="black" stroke-width="11.63" stroke-miterlimit="10"/>
<path d="M251.112 448.957C280.914 371.091 364.695 357.1 382.675 353.048C415.148 345.73 446.064 340.606 474.81 337.169L474.823 337.167C491.486 335.135 507.456 333.763 522.629 332.806L522.648 332.805L522.665 332.804C528.582 332.392 534.38 332.1 540.117 331.874L540.146 331.873L540.175 331.871C548.05 331.479 555.592 331.202 562.823 331.109L562.856 331.108C598.439 330.432 627.675 332.034 648.919 333.879L648.922 333.879C657.117 334.586 664.115 335.295 669.812 335.963L669.833 335.964L669.854 335.967C673.139 336.326 675.649 336.538 677.795 336.827L677.835 336.832L677.874 336.836C680.994 337.209 683.545 337.52 685.292 337.688C743.298 360.941 780.003 391.111 807.18 441.583C810.189 447.172 812.258 451.778 813.523 455.528C814.806 459.327 815.154 461.933 815.038 463.632C814.932 465.17 814.479 465.744 814.111 466.064C813.599 466.509 812.456 467.117 810.048 467.394C805.092 467.964 797.317 466.88 786.57 464.228C776 461.619 763.247 457.68 748.623 453.031C690.45 434.537 603.925 405.144 519.176 409.484C446.921 413.184 373.244 433.651 320.654 446.829C294.031 453.5 273.389 458.144 260.609 458.268C253.943 458.332 251.266 457.107 250.433 456.239C250.155 455.949 248.982 454.523 251.112 448.957Z" fill="#263238" stroke="black" stroke-width="10.9391"/>
<path d="M580.963 103.039C590.873 97.6501 600.365 93.8791 608.41 91.7018C616.636 89.4753 622.748 89.0803 626.178 89.8064L626.181 89.8067C626.365 89.8454 627.19 90.1395 628.75 91.2966C630.217 92.3849 631.983 93.9715 634.016 96.0667C638.075 100.252 642.844 106.096 647.958 113.071C657.852 126.565 668.732 143.871 677.837 160.519L678.713 162.127C685.861 175.338 691.711 187.854 695.004 197.494C696.664 202.353 697.568 206.181 697.773 208.864C697.87 210.135 697.791 210.831 697.726 211.163C697.228 211.394 696.443 211.568 695.161 211.475C693.409 211.347 691.127 210.739 688.325 209.57C682.711 207.229 676.179 203.151 669.565 198.676C663.201 194.37 656.522 189.52 651.43 186.359C648.885 184.779 646.29 183.329 643.986 182.535C642.85 182.144 641.367 181.761 639.779 181.837C638.032 181.921 635.888 182.602 634.355 184.579L634.334 184.605C631.142 188.777 629.572 193.394 630.648 198.96C631.613 203.949 634.632 209.192 638.932 215.177L638.932 215.178C641.221 218.371 640.626 221.969 638.147 226.037C636.957 227.989 635.511 229.7 634.325 230.947C633.741 231.561 633.241 232.041 632.898 232.357C632.728 232.514 632.597 232.63 632.517 232.7C632.477 232.735 632.45 232.759 632.436 232.77C632.435 232.771 632.434 232.772 632.433 232.773L632.434 232.773L627.639 236.775L632.245 240.999L632.246 240.999L632.247 241C632.247 241 632.248 241.002 632.249 241.003C632.252 241.005 632.257 241.009 632.262 241.014C632.272 241.023 632.287 241.037 632.307 241.055C632.347 241.092 632.406 241.146 632.484 241.217C632.64 241.36 632.87 241.57 633.169 241.844C633.766 242.39 634.639 243.188 635.741 244.192C637.944 246.2 641.063 249.035 644.726 252.343C652.047 258.956 661.561 267.477 670.293 275.077C685.882 288.645 702.006 310.383 714.379 329.064C720.312 338.022 725.313 346.172 728.9 352.205C687.289 343.384 550.136 315.814 410.884 346.01L410.285 346.14C409.647 346.194 408.53 346.21 406.816 346.099C404.661 345.959 401.981 345.65 398.884 345.212C392.688 344.335 385.197 342.996 377.543 341.644C369.955 340.303 362.207 338.951 355.707 338.1C353.806 337.851 351.978 337.641 350.267 337.485C366.884 306.896 373.224 291.257 379.039 279.839C385.247 267.652 391.336 259.111 410.937 238.796C430.004 219.034 446.944 211.169 465.235 201.617C483.735 191.956 503.033 180.809 525.184 154.523L525.434 154.226L525.639 153.897C540.031 130.87 561.116 113.831 580.963 103.039Z" fill="#263238" stroke="black" stroke-width="10.9391"/>
<path d="M350.673 330.891C365.236 320.07 383.893 312.907 398.896 307.482C416.752 302.877 430.773 297.538 454.41 294.159C478.036 290.781 511.144 289.428 566.039 293.321L566.21 293.333L566.383 293.332C580.174 293.292 611.001 296.247 640.753 300.895C655.592 303.213 670.034 305.933 681.838 308.874C687.742 310.345 692.921 311.855 697.127 313.375C701.411 314.923 704.379 316.375 706.084 317.623C732.922 337.278 741.925 350.784 744.365 358.863C746.076 364.526 744.576 367.52 743.755 368.641C742.896 368.542 741.616 368.281 739.786 367.806C735.934 366.806 730.665 365.143 723.512 363.026C709.37 358.842 688.883 353.208 661.654 348.867C632.085 344.153 578.401 338.446 536.136 338.446L535.949 338.445L535.764 338.46L531.531 338.811C487.607 342.575 438.098 350.795 398.289 357.903C377.666 361.586 359.773 364.946 346.383 367.281C339.702 368.447 334.246 369.338 330.227 369.874C329.236 370.006 328.35 370.113 327.566 370.197C327.932 353.386 337.326 340.81 350.673 330.891Z" fill="#FFC727" stroke="black" stroke-width="9.37633"/>
<path d="M565.79 280.703L561.96 345.87L458.774 351.196L462.582 286.04L565.79 280.703ZM476.444 334.765L546.119 331.173L548.119 297.133L478.444 300.725L476.444 334.765Z" fill="#EBEBEB"/>
<path d="M565.79 280.703L561.96 345.87L458.774 351.196L462.582 286.04L565.79 280.703ZM476.444 334.765L546.119 331.173L548.119 297.133L478.444 300.725L476.444 334.765Z" stroke="black"/>
</svg>
